<?xml version="1.0" standalone="no"?>
<!DOCTYPE svg PUBLIC "-//W3C//DTD SVG 1.1//EN" "http://www.w3.org/Graphics/SVG/1.1/DTD/svg11.dtd" >
<svg xmlns="http://www.w3.org/2000/svg" xmlns:xlink="http://www.w3.org/1999/xlink" version="1.1">
<metadata>
Created by FontForge 20201107 at Sun Oct 25 23:06:09 2015
 By Jimmy Wärting
Font software Copyright 1990, 1991, 1998 Adobe Systems Incorporated. Typeface designs Copyright The Monotype Corporation. All rights reserved.
</metadata>
<defs>
<font id="GillSans-LightItalic" horiz-adv-x="521" >
  <font-face 
    font-family="Gill Sans"
    font-weight="300"
    font-style="italic"
    font-stretch="normal"
    units-per-em="1000"
    panose-1="2 11 3 2 2 1 4 9 2 3"
    ascent="682"
    descent="-318"
    x-height="449"
    cap-height="682"
    bbox="-205 -231 1051 936"
    underline-thickness="50"
    underline-position="-100"
    slope="-12"
    stemh="39"
    stemv="48"
    unicode-range="U+0020-FB04"
  />
<missing-glyph horiz-adv-x="500" 
d="M12 0v665h475v-665h-475zM88 618l162 -243l161 243h-323zM60 575v-484c0 -1 161 242 161 242zM440 575l-162 -242l162 -243v485zM411 48l-161 242l-162 -242h323z" />
    <glyph glyph-name="fi" unicode="fi" horiz-adv-x="467" 
d="M298 449l-5 -33h-131l-86 -615h-44l86 615h-82l4 33h83l9 57c26 167 124 194 253 183l-6 -38c-58 15 -120 5 -155 -30c-31 -31 -43 -76 -50 -122l-8 -50h132zM428 449l-63 -449h-44l63 449h44z" />
    <glyph glyph-name="fl" unicode="fl" horiz-adv-x="464" 
d="M286 449l-5 -33h-119l-86 -615h-44l86 615h-83l4 33h81l7 41c13 79 23 115 58 150c40 40 110 58 187 49l-5 -35c-57 11 -113 -3 -146 -32s-41 -74 -50 -133l-6 -40h121zM461 682l-101 -682h-44l101 682h44z" />
    <glyph glyph-name="f_f" unicode="ff" horiz-adv-x="508" 
d="M548 449l-5 -29h-121l-91 -619h-44l91 619h-213l-91 -619h-45l90 619h-90l8 29h87c8 66 29 242 205 242c71 0 104 -31 122 -48c18 15 57 48 139 48c19 0 32 -1 43 -2l-6 -35c-15 2 -30 3 -45 3c-29 0 -96 -10 -124 -78c-15 -34 -21 -69 -31 -130h121zM168 449h215
c7 55 18 114 44 165c-29 27 -63 42 -101 42c-132 0 -152 -160 -158 -207z" />
    <glyph glyph-name="f_f_i" unicode="ffi" horiz-adv-x="726" 
d="M550 449l-5 -29h-122l-91 -619h-44l90 619h-214l-91 -619h-44l90 619h-86l5 29h86c4 33 10 80 33 130c49 107 146 112 172 112c45 0 89 -17 122 -48c37 41 85 48 118 48c52 0 99 -20 121 -54c17 -27 16 -54 15 -71h-38c-1 18 -2 37 -12 53c-12 18 -41 39 -86 39
c-97 0 -126 -88 -143 -209h124zM168 449h214c13 80 21 116 46 165c-29 26 -62 42 -102 42c-64 0 -106 -42 -129 -93c-19 -43 -24 -82 -29 -114zM687 449l-64 -449h-44l64 449h44z" />
    <glyph glyph-name="f_f_l" unicode="ffl" horiz-adv-x="725" 
d="M548 449l-5 -29h-120l-92 -619h-44l91 619h-215l-89 -619h-45l90 619h-90l8 29h87c8 66 29 242 205 242c71 0 104 -31 122 -48c18 15 57 48 139 48c19 0 32 -1 43 -2l-6 -35c-16 2 -30 3 -45 3c-27 0 -96 -10 -124 -78c-15 -34 -20 -67 -31 -130h121zM168 449h215
c7 55 18 114 44 165c-29 27 -63 42 -101 42c-132 0 -152 -160 -158 -207zM722 682l-101 -682h-45l101 682h45z" />
    <glyph glyph-name=".notdef" horiz-adv-x="500" 
d="M12 0v665h475v-665h-475zM88 618l162 -243l161 243h-323zM60 575v-484c0 -1 161 242 161 242zM440 575l-162 -242l162 -243v485zM411 48l-161 242l-162 -242h323z" />
    <glyph glyph-name="space" unicode=" " horiz-adv-x="250" 
 />
    <glyph glyph-name="exclam" unicode="!" horiz-adv-x="167" 
d="M55 176l59 506h56l-94 -506h-21zM10 0l12 89h59l-12 -89h-59z" />
    <glyph glyph-name="quotedbl" unicode="&#x22;" horiz-adv-x="281" 
d="M195 682h66v-109l-12 -125h-42l-12 125v109zM57 682h66v-109l-12 -125h-42l-12 125v109z" />
    <glyph glyph-name="numbersign" unicode="#" horiz-adv-x="660" 
d="M274 698h46l-42 -205h190l43 205h46l-43 -205h82v-46h-91l-40 -191h131v-46h-141l-42 -203h-46l42 203h-190l-42 -203h-46l42 203h-83v46h93l39 191h-132v46h142zM268 447l-39 -191h190l40 191h-191z" />
    <glyph glyph-name="dollar" unicode="$" horiz-adv-x="448" 
d="M308 691l-6 -40c50 -6 97 -19 122 -35l-7 -46c-42 20 -87 33 -122 35l-37 -266c100 -50 144 -103 144 -178c0 -92 -81 -162 -193 -170l-15 -105h-45l15 105c-56 5 -110 21 -145 46l6 48c46 -30 96 -46 146 -48l38 272c-104 57 -144 95 -144 171c0 97 80 169 192 171l6 40
h45zM217 363l34 243c-83 -7 -138 -57 -138 -127c0 -48 27 -76 104 -116zM250 284l-34 -247c80 5 138 55 138 119c0 62 -39 88 -104 128z" />
    <glyph glyph-name="percent" unicode="%" horiz-adv-x="697" 
d="M689 149c0 -89 -73 -161 -161 -161c-89 0 -161 72 -161 161s72 161 161 161c88 0 161 -72 161 -161zM646 149c0 65 -53 118 -118 118s-118 -54 -118 -118c0 -66 53 -118 118 -118s118 53 118 118zM351 530c0 -89 -73 -161 -161 -161c-89 0 -161 72 -161 161
s72 161 161 161c88 0 161 -72 161 -161zM308 530c0 65 -53 118 -118 118s-118 -54 -118 -118c0 -66 53 -118 118 -118s118 53 118 118zM655 688l-549 -699h-50l550 699h49z" />
    <glyph glyph-name="ampersand" unicode="&#x26;" horiz-adv-x="656" 
d="M568 330h51c-26 -67 -84 -153 -157 -233c54 -49 125 -71 172 -61l-24 -44c-63 -6 -122 17 -183 73c-65 -54 -116 -74 -185 -74c-114 0 -201 79 -201 182c0 83 57 152 169 206c-29 56 -47 116 -47 154c0 91 64 158 151 158c75 0 137 -61 137 -135
c0 -70 -50 -133 -176 -197c43 -73 102 -166 152 -228c50 48 107 128 141 199zM253 400c103 53 147 101 147 161c0 46 -40 84 -88 84c-55 0 -100 -48 -100 -104c0 -41 16 -95 41 -141zM393 98c-58 67 -112 157 -161 241c-96 -52 -138 -103 -138 -166c0 -78 63 -136 149 -136
c54 0 99 19 150 61z" />
    <glyph glyph-name="quoteright" unicode="&#x2019;" horiz-adv-x="167" 
d="M107 593l12 89h59l-11 -79c-7 -50 -42 -112 -87 -123l4 29c27 22 39 49 43 84h-20z" />
    <glyph glyph-name="parenleft" unicode="(" horiz-adv-x="302" 
d="M300 691h58c-157 -156 -257 -324 -257 -545c0 -124 36 -263 98 -376h-49c-58 108 -96 262 -96 385c0 187 84 370 246 536z" />
    <glyph glyph-name="parenright" unicode=")" horiz-adv-x="302" 
d="M-27 -230h-58c157 156 257 324 257 545c0 124 -36 263 -98 376h49c58 -108 96 -262 96 -385c0 -187 -84 -370 -246 -536z" />
    <glyph glyph-name="asterisk" unicode="*" horiz-adv-x="469" 
d="M430 613l-140 -113l2 -5l180 16v-47l-180 20l-3 -6l141 -114l-34 -34l-116 141l-5 -1l17 -185h-46l18 185l-4 1l-115 -141l-35 34l142 114l-2 5l-183 -17v46l182 -18l1 6l-140 113l35 35l114 -139l5 2l-18 180h46l-17 -179l5 -3l116 139z" />
    <glyph glyph-name="plus" unicode="+" horiz-adv-x="660" 
d="M81 373h240v240h44v-240h240v-44h-240v-240h-44v240h-240v44z" />
    <glyph glyph-name="comma" unicode="," horiz-adv-x="167" 
d="M18 0l12 89h59l-11 -79c-7 -50 -42 -112 -87 -123l4 29c27 22 39 49 43 84h-20z" />
    <glyph glyph-name="hyphen" unicode="-" horiz-adv-x="271" 
d="M257 238l-6 -39h-237l5 39h238z" />
    <glyph glyph-name="period" unicode="." horiz-adv-x="167" 
d="M27 0l12 89h59l-12 -89h-59z" />
    <glyph glyph-name="slash" unicode="/" horiz-adv-x="281" 
d="M241 691h46l-219 -700h-47z" />
    <glyph glyph-name="zero" unicode="0" 
d="M494 455c0 -228 -101 -464 -270 -464c-114 0 -170 100 -170 239c0 157 72 461 272 461c129 0 168 -125 168 -236zM447 450c0 126 -46 199 -124 199c-157 0 -222 -283 -222 -425c0 -120 47 -191 124 -191c168 0 222 304 222 417z" />
    <glyph glyph-name="one" unicode="1" 
d="M339 682l-95 -682h-45l95 682h45z" />
    <glyph glyph-name="two" unicode="2" 
d="M432 42l-6 -42h-390c103 98 182 203 253 295c81 105 121 173 121 239c0 69 -45 115 -113 115c-50 0 -97 -19 -167 -67l8 53c59 35 104 56 167 56c91 0 153 -62 153 -154c0 -121 -122 -264 -320 -495h294z" />
    <glyph glyph-name="three" unicode="3" 
d="M149 610l6 44c49 27 87 37 136 37c106 0 187 -75 187 -173c0 -100 -72 -140 -130 -168c45 -26 91 -68 91 -149c0 -121 -96 -210 -227 -210c-61 0 -123 18 -170 51l6 41c55 -34 107 -50 160 -50c108 0 183 72 183 173c0 83 -62 132 -155 133l5 32c141 -2 193 75 193 144
c0 77 -65 134 -152 134c-43 0 -85 -12 -133 -39z" />
    <glyph glyph-name="four" unicode="4" 
d="M477 266l-4 -33h-112l-33 -233h-45l33 233h-279l3 19l370 439h15l-59 -425h111zM362 581l-264 -315h223l43 313z" />
    <glyph glyph-name="five" unicode="5" 
d="M475 682l-6 -42h-245l-30 -214c20 3 31 4 46 4c114 0 195 -83 195 -199c0 -133 -107 -240 -243 -240c-61 0 -124 21 -169 57l19 37c37 -28 91 -52 149 -52c108 0 196 88 196 197c0 96 -65 158 -164 158c-23 0 -62 -6 -81 -12l43 306h290z" />
    <glyph glyph-name="six" unicode="6" 
d="M388 682l-212 -305l2 -2c41 27 78 43 132 43c95 0 156 -62 156 -161c0 -141 -110 -266 -233 -266c-97 0 -170 79 -170 185c0 89 46 173 103 256l172 250h50zM418 261c0 69 -43 115 -109 115c-110 0 -198 -90 -198 -202c0 -88 48 -141 121 -141c101 0 186 106 186 228z
" />
    <glyph glyph-name="seven" unicode="7" 
d="M506 682l-350 -682h-48l328 640h-334l6 42h398z" />
    <glyph glyph-name="eight" unicode="8" 
d="M362 358v1v-2c65 -15 104 -70 104 -144c0 -122 -104 -222 -227 -222c-106 0 -191 78 -191 185c0 77 46 170 160 191v2c-55 23 -86 66 -86 129c0 108 88 193 200 193c100 0 171 -68 171 -164c0 -69 -42 -144 -131 -169zM445 524c0 74 -51 125 -123 125
c-84 0 -152 -67 -152 -150c0 -68 54 -115 130 -115c98 0 145 78 145 140zM418 208c0 80 -59 134 -146 134c-102 0 -176 -71 -176 -169c0 -89 67 -141 143 -140c99 1 179 78 179 175z" />
    <glyph glyph-name="nine" unicode="9" 
d="M156 0l222 318l-2 2c-44 -37 -88 -54 -136 -54c-93 0 -157 65 -157 160c0 102 76 265 234 265c100 0 169 -74 169 -185c0 -72 -30 -149 -94 -241l-184 -265h-52zM438 510c0 84 -47 139 -120 139c-100 0 -187 -106 -187 -225c0 -71 42 -116 109 -116c109 0 198 92 198 202
z" />
    <glyph glyph-name="colon" unicode=":" horiz-adv-x="167" 
d="M68 360l12 89h59l-12 -89h-59zM15 0l12 89h59l-12 -89h-59z" />
    <glyph glyph-name="semicolon" unicode=";" horiz-adv-x="167" 
d="M22 0l12 89h59l-11 -79c-7 -50 -42 -112 -87 -123l4 29c27 22 39 49 43 84h-20zM68 360l12 89h59l-12 -89h-59z" />
    <glyph glyph-name="less" unicode="&#x3c;" horiz-adv-x="660" 
d="M81 329v42l524 220v-49l-464 -192l464 -192v-49z" />
    <glyph glyph-name="equal" unicode="=" horiz-adv-x="660" 
d="M81 493h524v-44h-524v44zM81 252h524v-44h-524v44z" />
    <glyph glyph-name="greater" unicode="&#x3e;" horiz-adv-x="660" 
d="M605 329l-524 -220v49l464 192l-464 192v49l524 -220v-42z" />
    <glyph glyph-name="question" unicode="?" horiz-adv-x="292" 
d="M48 593l7 50c37 30 85 48 127 48c80 0 144 -63 144 -140c0 -152 -204 -183 -239 -374h-25c15 189 222 247 222 375c0 61 -44 106 -104 106c-47 0 -84 -18 -132 -65zM21 0l12 89h59l-12 -89h-59z" />
    <glyph glyph-name="at" unicode="@" horiz-adv-x="802" 
d="M573 505h61l-83 -392c-9 -41 -10 -59 18 -59c62 0 191 99 191 282c0 124 -65 315 -326 315c-222 0 -380 -162 -380 -391c0 -226 155 -379 385 -379c146 0 254 53 328 152h50c-77 -131 -228 -192 -379 -192c-254 0 -425 169 -425 420c0 207 128 430 427 430
c260 0 361 -190 361 -355c0 -201 -148 -326 -252 -326c-42 0 -70 19 -55 88l-2 2c-50 -60 -105 -90 -165 -90c-97 0 -169 87 -169 206c0 153 107 301 251 301c55 0 115 -27 146 -94h2zM533 336c0 80 -52 138 -125 138c-129 0 -188 -165 -188 -261c0 -90 53 -156 125 -156
c115 0 188 174 188 279z" />
    <glyph glyph-name="A" unicode="A" horiz-adv-x="527" 
d="M340 691l157 -691h-48l-56 246h-253l-116 -246h-48l322 691h42zM308 607l-146 -315h221l-73 315h-2z" />
    <glyph glyph-name="B" unicode="B" horiz-adv-x="516" 
d="M136 682h66c161 0 228 -86 228 -170c0 -57 -33 -105 -91 -135c93 -26 147 -92 147 -179c0 -117 -102 -198 -255 -198h-191zM176 638l-34 -247h70c107 0 166 44 166 122s-60 125 -159 125h-43zM136 347l-43 -303h98h34c160 0 209 82 209 152c0 89 -73 151 -177 151h-121z
" />
    <glyph glyph-name="C" unicode="C" horiz-adv-x="552" 
d="M562 682l-6 -44c-34 5 -53 7 -81 7c-229 0 -387 -186 -387 -368c0 -136 94 -240 217 -240c66 0 145 27 216 73l-8 -56c-64 -38 -147 -63 -207 -63c-125 0 -270 100 -270 284c0 207 179 416 440 416c33 0 56 -2 86 -9z" />
    <glyph glyph-name="D" unicode="D" horiz-adv-x="638" 
d="M40 0l96 682h121c172 0 351 -121 351 -347c0 -201 -152 -335 -351 -335h-217zM179 638l-85 -594h145c244 0 317 168 317 291c0 190 -145 303 -319 303h-58z" />
    <glyph glyph-name="E" unicode="E" 
d="M484 682l-6 -46h-301l-38 -264h285l-7 -46h-284l-40 -280h403l-6 -46h-450l96 682h348z" />
    <glyph glyph-name="F" unicode="F" horiz-adv-x="421" 
d="M449 682l-6 -46h-266l-38 -267h248l-6 -46h-248l-46 -323h-47l96 682h313z" />
    <glyph glyph-name="G" unicode="G" horiz-adv-x="614" 
d="M634 675l-6 -45c-52 11 -82 15 -125 15c-262 0 -415 -167 -415 -362c0 -144 99 -246 240 -246c50 0 98 13 165 46l22 152h-153l6 46h200l-31 -221c-63 -43 -145 -69 -215 -69c-139 0 -286 102 -286 296c0 202 168 404 471 404c43 0 80 -4 127 -16z" />
    <glyph glyph-name="H" unicode="H" horiz-adv-x="693" 
d="M678 682l-96 -682h-47l45 325h-448l-45 -325h-47l95 682h47l-44 -311h449l44 311h47z" />
    <glyph glyph-name="I" unicode="I" horiz-adv-x="198" 
d="M183 682l-96 -682h-47l96 682h47z" />
    <glyph glyph-name="J" unicode="J" horiz-adv-x="198" 
d="M186 682l-106 -748c-18 -129 -92 -164 -164 -164c-21 0 -39 3 -57 8l-9 49c17 -6 40 -10 65 -10c75 0 109 43 126 161l99 704h46z" />
    <glyph glyph-name="K" unicode="K" horiz-adv-x="567" 
d="M577 682l-375 -312l359 -370h-62l-360 370l-52 -370h-47l96 682h47l-42 -300l367 300h69z" />
    <glyph glyph-name="L" unicode="L" horiz-adv-x="420" 
d="M183 682l-90 -636h306l-6 -46h-353l96 682h47z" />
    <glyph glyph-name="M" unicode="M" horiz-adv-x="801" 
d="M233 579l-192 -579h-49l226 682h40l121 -574h2l304 574h43v-682h-49v574h-2l-303 -574h-17l-122 579h-2z" />
    <glyph glyph-name="N" unicode="N" horiz-adv-x="676" 
d="M661 682l-97 -688h-21l-374 588l-82 -582h-47l96 682h27l369 -584l82 584h47z" />
    <glyph glyph-name="O" unicode="O" horiz-adv-x="628" 
d="M608 415c0 -228 -131 -424 -322 -424c-156 0 -241 106 -241 283c0 163 88 417 325 417c147 0 238 -105 238 -276zM556 426c0 135 -72 219 -186 219c-211 0 -273 -250 -273 -386c0 -142 70 -222 190 -222c172 0 269 183 269 389z" />
    <glyph glyph-name="P" unicode="P" horiz-adv-x="454" 
d="M136 682h136c116 0 192 -75 192 -181c0 -93 -57 -195 -226 -195h-108l-43 -306h-47zM177 638l-41 -288h98c144 0 178 85 178 149c0 83 -57 139 -145 139h-90z" />
    <glyph glyph-name="Q" unicode="Q" horiz-adv-x="625" 
d="M615 0h13c8 -100 -45 -194 -161 -194c-97 0 -191 77 -224 185c-149 18 -198 158 -198 280c0 190 107 420 328 420c149 0 235 -104 235 -278c0 -194 -100 -413 -309 -422c40 -88 103 -135 177 -135c81 0 137 58 139 144zM556 424c0 138 -67 221 -185 221
c-171 0 -274 -180 -274 -388c0 -139 72 -220 194 -220c175 0 265 207 265 387z" />
    <glyph glyph-name="R" unicode="R" 
d="M135 682h156c120 0 184 -78 184 -177c0 -94 -61 -165 -157 -185c21 -14 40 -45 70 -98l124 -222h-55l-114 204c-55 98 -56 116 -117 116h-15h-79l-45 -320h-47zM176 638l-38 -274h103h21c101 0 161 54 161 140c0 54 -29 134 -136 134h-111z" />
    <glyph glyph-name="S" unicode="S" horiz-adv-x="407" 
d="M389 653l-12 -43c-53 27 -79 35 -113 35c-69 0 -126 -58 -126 -129c0 -154 223 -147 223 -341c0 -106 -80 -184 -187 -184c-46 0 -111 21 -144 46l12 46c55 -35 87 -46 127 -46c74 0 140 47 140 139c0 153 -223 169 -223 334c0 103 77 181 178 181c45 0 98 -16 125 -38z
" />
    <glyph glyph-name="T" unicode="T" horiz-adv-x="458" 
d="M517 682l-6 -46h-202l-90 -636h-47l90 636h-202l6 46h451z" />
    <glyph glyph-name="U" unicode="U" horiz-adv-x="632" 
d="M627 682l-63 -441c-26 -180 -159 -250 -279 -250c-130 0 -242 99 -220 254l62 437h47l-61 -430c-21 -151 76 -215 180 -215c143 0 210 110 224 208l63 437h47z" />
    <glyph glyph-name="V" unicode="V" horiz-adv-x="490" 
d="M540 682l-309 -691h-19l-144 691h47l113 -572h2l261 572h49z" />
    <glyph glyph-name="W" unicode="W" horiz-adv-x="902" 
d="M957 682l-332 -691h-20l-106 569h-2l-260 -569h-21l-148 691h47l121 -575h2l265 575h19l107 -575h2l275 575h51z" />
    <glyph glyph-name="X" unicode="X" horiz-adv-x="654" 
d="M684 682l-313 -326l239 -356h-56l-217 319l-304 -319h-63l342 356l-220 326h56l199 -289l275 289h62z" />
    <glyph glyph-name="Y" unicode="Y" horiz-adv-x="461" 
d="M529 682l-255 -329l-49 -353h-47l49 353l-171 329h51l149 -282l216 282h57z" />
    <glyph glyph-name="Z" unicode="Z" horiz-adv-x="622" 
d="M82 46h483l-6 -46h-566v16l570 620h-461l6 46h544v-16z" />
    <glyph glyph-name="bracketleft" unicode="[" horiz-adv-x="302" 
d="M352 682l-5 -39h-166l-121 -825h171l-5 -39h-218l133 903h211z" />
    <glyph glyph-name="backslash" unicode="\" horiz-adv-x="281" 
d="M237 -9l-220 700h47l219 -700h-46z" />
    <glyph glyph-name="bracketright" unicode="]" horiz-adv-x="302" 
d="M-56 -221l5 39h166l121 825h-171l5 39h218l-133 -903h-211z" />
    <glyph glyph-name="asciicircum" unicode="^" horiz-adv-x="656" 
d="M359 691l219 -262l-32 -26l-187 225l-188 -225l-31 26z" />
    <glyph glyph-name="underscore" unicode="_" horiz-adv-x="500" 
d="M-6 -75h512v-50h-512v50z" />
    <glyph glyph-name="quoteleft" unicode="&#x2018;" horiz-adv-x="167" 
d="M160 569l-12 -89h-59l11 79c7 50 42 112 87 123l-4 -29c-27 -22 -39 -49 -43 -84h20z" />
    <glyph glyph-name="a" unicode="a" horiz-adv-x="463" 
d="M427 449l-63 -449h-44l7 53c-39 -35 -98 -62 -154 -62c-91 0 -157 76 -157 180c0 140 110 287 319 287c34 0 71 -4 92 -9zM334 104l45 315c-16 4 -34 6 -55 6c-137 0 -261 -104 -261 -260c0 -83 46 -137 117 -137c55 0 103 27 154 76z" />
    <glyph glyph-name="b" unicode="b" horiz-adv-x="453" 
d="M163 682l-41 -289l2 -2c47 47 95 67 142 67c93 0 161 -79 161 -187c0 -135 -89 -280 -300 -280c-39 0 -73 2 -104 9l96 682h44zM109 303l-37 -268c198 -24 308 90 308 235c0 86 -53 147 -127 147c-63 0 -136 -57 -144 -114z" />
    <glyph glyph-name="c" unicode="c" horiz-adv-x="385" 
d="M380 449l-7 -48c-38 10 -57 13 -85 13c-147 0 -215 -121 -215 -228c0 -93 60 -154 151 -154c43 0 76 14 128 37l-7 -47c-43 -21 -86 -31 -132 -31c-112 0 -187 81 -187 200c0 121 84 267 266 267c29 0 58 -3 88 -9z" />
    <glyph glyph-name="d" unicode="d" horiz-adv-x="475" 
d="M467 682l-95 -677l-17 -3c-51 -9 -73 -11 -104 -11c-63 0 -111 13 -149 42c-52 39 -82 100 -82 166c0 78 44 161 111 207c50 35 113 52 194 52c22 0 38 -2 66 -4l32 228h44zM332 35l53 382c-23 6 -42 8 -62 8c-50 0 -107 -12 -147 -36c-67 -40 -109 -115 -109 -192
c0 -121 97 -173 187 -173c23 0 52 4 78 11z" />
    <glyph glyph-name="e" unicode="e" horiz-adv-x="436" 
d="M370 88v-47c-39 -30 -89 -50 -141 -50c-120 0 -199 86 -199 216c0 141 91 251 208 251c96 0 160 -71 160 -190c0 -14 -1 -24 -2 -34h-317c-1 -9 -2 -19 -2 -29c0 -80 49 -173 153 -173c46 0 96 20 140 56zM86 273h268c4 93 -46 144 -117 144c-70 0 -139 -65 -151 -144z
" />
    <glyph glyph-name="f" unicode="f" horiz-adv-x="250" 
d="M273 449l-5 -33h-106l-86 -615h-44l86 615h-90l5 33h90l8 59c15 112 79 183 181 183c36 0 79 -11 111 -28l-5 -37c-39 20 -70 28 -103 28c-83 0 -123 -50 -135 -123l-13 -82h106z" />
    <glyph glyph-name="g" unicode="g" horiz-adv-x="427" 
d="M448 458l-5 -33h-126v-2c45 -27 66 -68 66 -122c0 -55 -23 -98 -54 -129c-40 -40 -99 -46 -148 -53c-51 -7 -87 -18 -87 -46c0 -24 22 -29 92 -46c95 -24 185 -46 185 -128c0 -58 -54 -129 -200 -129c-128 0 -181 56 -181 112c0 57 54 92 154 117v2c-60 12 -92 36 -92 68
s32 56 92 67v2c-60 21 -96 75 -96 142c0 97 83 178 186 178h214zM90 278c0 -57 37 -119 110 -119c110 0 139 107 139 148c0 72 -60 114 -115 114c-71 0 -134 -65 -134 -143zM189 -18c-106 -17 -157 -59 -157 -107c0 -44 51 -72 133 -72c121 0 164 47 164 93
c0 45 -47 67 -140 86z" />
    <glyph glyph-name="h" unicode="h" horiz-adv-x="458" 
d="M163 682l-45 -324l2 -2c53 56 106 102 177 102c78 0 124 -60 113 -140l-45 -318h-44l43 313c11 80 -35 104 -74 104c-58 0 -99 -32 -180 -115l-43 -302h-44l96 682h44z" />
    <glyph glyph-name="i" unicode="i" horiz-adv-x="177" 
d="M138 449l-63 -449h-44l63 449h44zM164 643l-11 -74h-44l11 74h44z" />
    <glyph glyph-name="j" unicode="j" horiz-adv-x="177" 
d="M137 449l-73 -508c-15 -101 -43 -171 -144 -171c-19 0 -33 2 -55 8l6 40c22 -6 32 -7 44 -7c84 0 98 77 112 173l66 465h44zM164 643l-11 -74h-44l11 74h44z" />
    <glyph glyph-name="k" unicode="k" horiz-adv-x="438" 
d="M163 682l-63 -444l268 211h66l-268 -211l280 -238h-63l-283 238l-33 -238h-44l96 682h44z" />
    <glyph glyph-name="l" unicode="l" horiz-adv-x="169" 
d="M163 682l-96 -682h-44l96 682h44z" />
    <glyph glyph-name="m" unicode="m" horiz-adv-x="737" 
d="M135 449l-11 -78c64 57 110 87 172 87c59 0 100 -44 106 -96c59 65 115 96 172 96c79 0 124 -62 115 -125l-47 -333h-44l46 325c9 63 -34 92 -73 92c-51 0 -119 -39 -169 -98l-45 -319h-44l44 313c11 75 -24 104 -72 104c-52 0 -112 -34 -168 -98l-45 -319h-44l63 449h44
z" />
    <glyph glyph-name="n" unicode="n" horiz-adv-x="457" 
d="M135 449l-10 -74l2 -2c46 46 103 85 171 85c75 0 122 -69 111 -150l-43 -308h-44l42 302c11 79 -26 115 -78 115c-55 0 -106 -33 -169 -98l-45 -319h-44l63 449h44z" />
    <glyph glyph-name="o" unicode="o" horiz-adv-x="421" 
d="M387 270c0 -181 -109 -279 -214 -279c-81 0 -155 61 -155 189c0 163 87 278 211 278c97 0 158 -73 158 -188zM340 270c0 90 -44 147 -113 147c-108 0 -162 -119 -162 -238c0 -91 41 -147 106 -147c94 0 169 106 169 238z" />
    <glyph glyph-name="p" unicode="p" horiz-adv-x="475" 
d="M173 540l-16 -115c41 23 75 33 111 33c108 0 181 -84 181 -203c0 -114 -69 -264 -289 -264c-32 0 -43 1 -63 3l-31 -215h-44l82 579c-55 -48 -75 -99 -86 -99c-3 0 -6 4 -6 9c0 28 49 93 97 128l20 144h44zM152 389l-51 -362c235 -27 301 111 301 227
c0 101 -58 163 -145 163c-35 0 -68 -9 -105 -28z" />
    <glyph glyph-name="q" unicode="q" horiz-adv-x="446" 
d="M415 458l-95 -679h-44l34 245c-59 -26 -85 -33 -125 -33c-99 0 -165 76 -165 190c0 134 91 277 301 277h94zM316 61l51 364h-39c-202 0 -261 -140 -261 -244c0 -97 52 -157 136 -157c36 0 60 8 113 37z" />
    <glyph glyph-name="r" unicode="r" horiz-adv-x="309" 
d="M135 449l-17 -123l2 -2c66 94 101 134 158 134c16 0 30 -3 44 -9v-44c-19 9 -33 12 -46 12c-54 0 -115 -75 -166 -150l-38 -267h-44l63 449h44z" />
    <glyph glyph-name="s" unicode="s" horiz-adv-x="354" 
d="M331 416v-49c-56 35 -101 50 -146 50c-50 0 -92 -28 -92 -64c0 -85 217 -115 217 -244c0 -66 -65 -118 -147 -118c-53 0 -108 22 -151 59l14 47c40 -43 89 -65 139 -65c56 0 98 30 98 72c0 93 -212 128 -212 242c0 64 62 112 143 112c46 0 93 -14 137 -42z" />
    <glyph glyph-name="t" unicode="t" horiz-adv-x="291" 
d="M281 449l-5 -33h-126l-43 -290c-2 -13 -3 -25 -3 -36c0 -41 17 -64 63 -64c26 0 56 11 83 37v-41c-28 -23 -58 -32 -90 -32c-67 0 -99 35 -99 100c0 12 1 28 3 43l43 283h-82l5 33h82l15 103h42l-15 -103h127z" />
    <glyph glyph-name="u" unicode="u" horiz-adv-x="458" 
d="M424 449l-63 -449h-44l12 79l-2 2c-54 -58 -112 -90 -174 -90c-58 0 -122 42 -109 136l45 322h44l-45 -320c-8 -59 23 -97 79 -97c53 0 103 31 170 107l43 310h44z" />
    <glyph glyph-name="v" unicode="v" horiz-adv-x="365" 
d="M388 449l-245 -458h-14l-104 458h43l82 -365l195 365h43z" />
    <glyph glyph-name="w" unicode="w" horiz-adv-x="615" 
d="M409 89l184 360h44l-237 -458h-16l-60 354h-2l-176 -354h-16l-105 458h42l83 -360h2l178 360h18l59 -360h2z" />
    <glyph glyph-name="x" unicode="x" horiz-adv-x="421" 
d="M439 449l-199 -219l136 -230h-52l-115 200l-185 -200h-54l219 236l-123 213h47l106 -180l168 180h52z" />
    <glyph glyph-name="y" unicode="y" horiz-adv-x="375" 
d="M396 449l-355 -679h-49l125 236l-85 443h44l71 -383h2l200 383h47z" />
    <glyph glyph-name="z" unicode="z" horiz-adv-x="427" 
d="M436 449v-19l-371 -391h314l-6 -39h-391v18l376 392h-294l6 39h366z" />
    <glyph glyph-name="braceleft" unicode="{" horiz-adv-x="333" 
d="M59 194v64c69 2 94 46 94 164v97c0 119 48 168 143 163v-54c-66 0 -88 -17 -88 -109v-97c0 -107 -28 -170 -97 -196c69 -26 97 -89 97 -196v-97c0 -92 22 -109 88 -109v-54c-95 -5 -143 44 -143 163v97c0 118 -25 162 -94 164z" />
    <glyph glyph-name="bar" unicode="|" horiz-adv-x="219" 
d="M101 682h47v-912h-47v912z" />
    <glyph glyph-name="braceright" unicode="}" horiz-adv-x="333" 
d="M294 258v-64c-69 -2 -94 -46 -94 -164v-97c0 -119 -48 -168 -143 -163v54c66 0 88 17 88 109v97c0 107 28 170 97 196c-69 26 -97 89 -97 196v97c0 92 -22 109 -88 109v54c95 5 143 -44 143 -163v-97c0 -118 25 -162 94 -164z" />
    <glyph glyph-name="asciitilde" unicode="~" horiz-adv-x="660" 
d="M80 291v54c55 40 100 59 140 59c74 0 184 -79 246 -79c37 0 68 15 139 66v-54c-58 -42 -97 -59 -137 -59c-78 0 -177 79 -247 79c-41 0 -68 -12 -141 -66z" />
    <glyph glyph-name="exclamdown" unicode="&#xa1;" horiz-adv-x="167" 
d="M96 284l-59 -506h-56l94 506h21zM141 460l-12 -89h-59l12 89h59z" />
    <glyph glyph-name="cent" unicode="&#xa2;" horiz-adv-x="385" 
d="M388 636l-62 -180c7 -1 38 -5 52 -9l-6 -46c-24 6 -45 7 -58 9l-122 -377c60 -8 116 11 157 34l-7 -46c-44 -21 -76 -31 -163 -30l-62 -183h-36l63 192c-83 25 -120 107 -120 190c0 125 92 268 268 266l59 180h37zM157 45l121 369c-128 -2 -205 -114 -205 -222
c0 -69 31 -123 84 -147z" />
    <glyph glyph-name="sterling" unicode="&#xa3;" horiz-adv-x="469" 
d="M328 351l-6 -42h-125l-94 -260c19 4 40 6 67 6c36 0 70 -5 99 -11c29 -5 54 -11 73 -11c29 0 61 7 92 21l-5 -48c-8 -5 -24 -8 -42 -11c-19 -2 -40 -4 -59 -4c-29 0 -52 5 -77 9c-25 5 -52 9 -88 9c-52 0 -77 -4 -114 -18h-17l116 318h-88l6 42h97l34 90
c53 141 119 250 232 250c28 0 51 -5 73 -16l-7 -47c-24 12 -46 17 -67 17c-96 0 -150 -113 -193 -233l-22 -61h115z" />
    <glyph glyph-name="fraction" unicode="&#x2044;" horiz-adv-x="167" 
d="M371 691l-537 -718h-39l537 718h39z" />
    <glyph glyph-name="yen" unicode="&#xa5;" horiz-adv-x="542" 
d="M112 716h65l126 -345l256 345h74l-281 -361h178l-6 -42h-203l-22 -97h199l-5 -42h-203l-39 -174h-58l38 174h-195l6 42h198l21 97h-197l6 42h183z" />
    <glyph glyph-name="florin" unicode="&#x192;" horiz-adv-x="552" 
d="M359 521h109l-11 -47h-107l-121 -557c-20 -93 -57 -127 -135 -127c-27 0 -48 3 -87 15l11 49c32 -8 50 -11 71 -11c45 0 67 18 79 73l120 558h-82l9 47h82l24 104c11 47 44 105 129 105c23 0 37 -2 89 -16l-10 -48c-28 7 -51 10 -75 10c-51 0 -65 -26 -79 -87z" />
    <glyph glyph-name="section" unicode="&#xa7;" horiz-adv-x="490" 
d="M460 550l-42 -19c27 82 -28 127 -86 127c-79 0 -145 -54 -145 -119c0 -67 64 -112 129 -160c64 -47 129 -97 129 -171c0 -82 -61 -135 -143 -170c30 -32 46 -69 46 -108c0 -90 -81 -160 -186 -160c-93 0 -152 55 -138 136l41 14c-17 -66 23 -117 95 -117
c79 0 146 57 146 124c0 70 -66 112 -132 156c-66 45 -131 92 -131 171c0 73 49 127 153 168c-34 30 -53 70 -53 110c0 88 83 159 185 159c100 0 151 -68 132 -141zM85 259c0 -40 21 -69 56 -98s83 -59 136 -100c85 40 126 86 126 140c0 37 -21 67 -54 98s-79 62 -129 102
c-74 -34 -135 -71 -135 -142z" />
    <glyph glyph-name="currency" unicode="&#xa4;" horiz-adv-x="552" 
d="M288 557c51 0 97 -18 136 -48l63 63l32 -32l-63 -63c31 -39 48 -84 48 -135c0 -57 -22 -103 -48 -136l63 -63l-32 -32l-63 63c-39 -31 -85 -48 -136 -48c-60 0 -104 23 -135 48l-63 -63l-32 32l63 63c-30 40 -48 82 -48 136c0 55 18 97 48 135l-63 63l32 32l63 -63
c39 30 83 48 135 48zM288 509c-93 0 -167 -74 -167 -167s74 -168 167 -168s168 75 168 168s-75 167 -168 167z" />
    <glyph glyph-name="quotesingle" unicode="'" horiz-adv-x="219" 
d="M108 682h66v-109l-12 -125h-42l-12 125v109z" />
    <glyph glyph-name="quotedblleft" unicode="&#x201c;" horiz-adv-x="375" 
d="M374 569l-12 -89h-59l11 79c7 50 42 112 87 123l-4 -29c-27 -22 -39 -49 -43 -84h20zM197 569l-12 -89h-59l11 79c7 50 42 112 87 123l-4 -29c-27 -22 -39 -49 -43 -84h20z" />
    <glyph glyph-name="guillemotleft" unicode="&#xab;" horiz-adv-x="448" 
d="M462 456l-164 -228l88 -221h-47l-88 223l164 226h47zM237 456l-164 -228l88 -221h-47l-88 223l164 226h47z" />
    <glyph glyph-name="guilsinglleft" unicode="&#x2039;" horiz-adv-x="229" 
d="M217 456l-164 -228l88 -221h-47l-88 223l164 226h47z" />
    <glyph glyph-name="guilsinglright" unicode="&#x203a;" horiz-adv-x="229" 
d="M-11 7l164 228l-88 221h47l88 -223l-164 -226h-47z" />
    <glyph glyph-name="endash" unicode="&#x2013;" horiz-adv-x="500" 
d="M506 269v-33h-512v33h512z" />
    <glyph glyph-name="dagger" unicode="&#x2020;" horiz-adv-x="479" 
d="M476 417l-7 -50l-193 8l-75 -605h-64l107 605l-201 -8l7 50l198 -10l30 284h61l-59 -284z" />
    <glyph glyph-name="daggerdbl" unicode="&#x2021;" horiz-adv-x="448" 
d="M444 449l-7 -55l-182 8l-12 -186l-37 -161l184 8l-7 -51l-182 11l-21 -253h-60l49 253l-182 -11l8 51l179 -8l12 184l37 163l-182 -8l8 55l178 -14l22 256h66l-56 -256z" />
    <glyph glyph-name="periodcentered" unicode="&#xb7;" horiz-adv-x="281" 
d="M156 400c30 0 54 -24 54 -54s-24 -54 -54 -54s-54 24 -54 54s24 54 54 54z" />
    <glyph glyph-name="paragraph" unicode="&#xb6;" horiz-adv-x="646" 
d="M641 716v-68h-96v-847h-62v847h-130v-847h-64v504c-132 -6 -220 84 -220 206c0 125 92 205 234 205h338z" />
    <glyph glyph-name="bullet" unicode="&#x2022;" horiz-adv-x="501" 
d="M265 463c67 0 122 -55 122 -122s-55 -122 -122 -122s-122 55 -122 122s55 122 122 122z" />
    <glyph glyph-name="quotesinglbase" unicode="&#x201a;" horiz-adv-x="167" 
d="M24 0l12 89h59l-11 -79c-7 -50 -42 -112 -87 -123l4 29c27 22 39 49 43 84h-20z" />
    <glyph glyph-name="quotedblbase" unicode="&#x201e;" horiz-adv-x="375" 
d="M214 0l12 89h59l-11 -79c-7 -50 -42 -112 -87 -123l4 29c27 22 39 49 43 84h-20zM36 0l12 89h59l-11 -79c-7 -50 -42 -112 -87 -123l4 29c27 22 39 49 43 84h-20z" />
    <glyph glyph-name="quotedblright" unicode="&#x201d;" horiz-adv-x="375" 
d="M290 593l12 89h59l-11 -79c-7 -50 -42 -112 -87 -123l4 29c27 22 39 49 43 84h-20zM112 593l12 89h59l-11 -79c-7 -50 -42 -112 -87 -123l4 29c27 22 39 49 43 84h-20z" />
    <glyph glyph-name="guillemotright" unicode="&#xbb;" horiz-adv-x="448" 
d="M199 7l164 228l-88 221h47l88 -223l-164 -226h-47zM-25 7l164 228l-88 221h47l88 -223l-164 -226h-47z" />
    <glyph glyph-name="ellipsis" unicode="&#x2026;" horiz-adv-x="1000" 
d="M829 97v-97h-65v97h65zM496 97v-97h-65v97h65zM163 97v-97h-65v97h65z" />
    <glyph glyph-name="perthousand" unicode="&#x2030;" horiz-adv-x="1051" 
d="M1051 149c0 -89 -73 -161 -161 -161c-89 0 -161 72 -161 161s72 161 161 161c88 0 161 -72 161 -161zM1008 149c0 65 -53 118 -118 118s-118 -54 -118 -118c0 -66 53 -118 118 -118s118 53 118 118zM680 149c0 -89 -73 -161 -161 -161c-89 0 -161 72 -161 161
s72 161 161 161c88 0 161 -72 161 -161zM637 149c0 65 -53 118 -118 118s-118 -54 -118 -118c0 -66 53 -118 118 -118s118 53 118 118zM353 530c0 -89 -73 -161 -161 -161c-89 0 -161 72 -161 161s72 161 161 161c88 0 161 -72 161 -161zM310 530c0 65 -53 118 -118 118
s-118 -54 -118 -118c0 -66 53 -118 118 -118s118 53 118 118zM646 688l-549 -699h-50l550 699h49z" />
    <glyph glyph-name="questiondown" unicode="&#xbf;" horiz-adv-x="292" 
d="M208 -132l-7 -50c-37 -30 -85 -48 -127 -48c-80 0 -144 63 -144 140c0 152 204 183 239 374h25c-15 -189 -222 -247 -222 -375c0 -61 44 -106 104 -106c47 0 84 18 132 65zM235 461l-12 -89h-59l12 89h59z" />
    <glyph glyph-name="grave" unicode="`" horiz-adv-x="333" 
d="M78 660h80l105 -154h-33z" />
    <glyph glyph-name="acute" unicode="&#xb4;" horiz-adv-x="333" 
d="M346 660l-152 -154h-33l105 154h80z" />
    <glyph glyph-name="circumflex" unicode="&#x2c6;" horiz-adv-x="333" 
d="M311 703l9 -197h-36l-21 135l-149 -135h-39l180 197h56z" />
    <glyph glyph-name="tilde" unicode="&#x2dc;" horiz-adv-x="333" 
d="M342 649h31c-6 -63 -33 -95 -80 -95c-26 0 -59 12 -91 25s-63 24 -85 24c-23 0 -38 -7 -40 -48h-31c-8 63 37 98 83 98c25 0 56 -12 86 -24c31 -12 61 -25 85 -25c27 0 38 11 42 45z" />
    <glyph glyph-name="macron" unicode="&#xaf;" horiz-adv-x="333" 
d="M351 623l-7 -51h-267l7 51h267z" />
    <glyph glyph-name="breve" unicode="&#x2d8;" horiz-adv-x="333" 
d="M306 633h36c-24 -78 -78 -127 -138 -127c-64 0 -107 51 -108 127h41c3 -53 27 -83 65 -83c37 0 80 35 104 83z" />
    <glyph glyph-name="dotaccent" unicode="&#x2d9;" horiz-adv-x="333" 
d="M215 637c24 0 44 -20 44 -44s-20 -44 -44 -44s-44 20 -44 44s20 44 44 44z" />
    <glyph glyph-name="dieresis" unicode="&#xa8;" horiz-adv-x="333" 
d="M130 637c24 0 44 -20 44 -44s-20 -44 -44 -44s-44 20 -44 44s20 44 44 44zM288 637c24 0 44 -20 44 -44s-20 -44 -44 -44s-44 20 -44 44s20 44 44 44z" />
    <glyph glyph-name="ring" unicode="&#x2da;" horiz-adv-x="333" 
d="M153 592c0 -32 26 -58 58 -58s58 26 58 58s-26 58 -58 58s-58 -26 -58 -58zM125 592c0 47 39 86 86 86s86 -39 86 -86s-39 -86 -86 -86s-86 39 -86 86z" />
    <glyph glyph-name="cedilla" unicode="&#xb8;" horiz-adv-x="333" 
d="M171 7l-17 -41c22 -7 36 -28 36 -52c0 -66 -58 -96 -139 -84l10 32c65 -7 93 18 93 52c0 18 -14 28 -41 29l27 64h31z" />
    <glyph glyph-name="hungarumlaut" unicode="&#x2dd;" horiz-adv-x="333" 
d="M425 660l-152 -154h-33l105 154h80zM291 660l-152 -154h-33l105 154h80z" />
    <glyph glyph-name="ogonek" unicode="&#x2db;" horiz-adv-x="333" 
d="M201 -120l-6 -41c-20 -5 -32 -7 -48 -7c-55 0 -96 34 -96 79c0 30 15 64 44 99h48c-30 -38 -44 -65 -44 -89c0 -27 26 -48 60 -48c11 0 21 2 42 7z" />
    <glyph glyph-name="caron" unicode="&#x2c7;" horiz-adv-x="333" 
d="M172 506l-9 197h36l21 -135l149 135h39l-180 -197h-56z" />
    <glyph glyph-name="emdash" unicode="&#x2014;" horiz-adv-x="1000" 
d="M1006 269v-33h-1012v33h1012z" />
    <glyph glyph-name="AE" unicode="&#xc6;" horiz-adv-x="800" 
d="M762 682l-6 -46h-292l-38 -267h272l-6 -46h-272l-40 -277h395l-6 -46h-442l46 323h-173l-204 -323h-53l430 682h389zM417 636h-19l-169 -267h150z" />
    <glyph glyph-name="ordfeminine" unicode="&#xaa;" horiz-adv-x="323" 
d="M334 682l-44 -267h-36l3 23c-44 -27 -73 -29 -92 -29c-59 0 -107 46 -107 108c0 89 78 174 209 174c24 0 42 -2 67 -9zM263 479l26 184h-25c-102 0 -162 -71 -162 -149c0 -42 24 -76 69 -76c35 0 63 14 92 41z" />
    <glyph glyph-name="Lslash" unicode="&#x141;" horiz-adv-x="417" 
d="M130 325l-40 -279h306l-6 -46h-353l41 289l-83 -70l9 49l81 68l48 346h47l-43 -309l170 142l-7 -47z" />
    <glyph glyph-name="Oslash" unicode="&#xd8;" horiz-adv-x="628" 
d="M149 93l334 515c-30 24 -69 37 -113 37c-211 0 -273 -250 -273 -386c0 -71 19 -127 52 -166zM148 28l-40 -62l-29 18l43 66c-39 34 -77 109 -77 224c0 163 88 417 325 417c60 0 116 -21 139 -43l33 51l26 -17l-34 -53c48 -50 74 -128 74 -214c0 -228 -131 -424 -322 -424
c-63 0 -101 16 -138 37zM506 585l-330 -514c21 -17 56 -34 111 -34c172 0 269 183 269 389c0 68 -17 121 -50 159z" />
    <glyph glyph-name="OE" unicode="&#x152;" horiz-adv-x="972" 
d="M933 682l-7 -46h-302l-38 -266h285l-6 -46h-286l-39 -278h407l-6 -46h-570c-259 0 -333 171 -333 298s64 237 109 280c86 83 187 119 412 104h374zM493 46l84 590c-53 2 -110 4 -139 3c-96 -3 -191 -23 -255 -94c-79 -88 -93 -181 -93 -247c0 -153 96 -252 275 -252h128z
" />
    <glyph glyph-name="ordmasculine" unicode="&#xba;" horiz-adv-x="302" 
d="M314 577c0 -95 -62 -168 -143 -168c-64 0 -105 45 -105 115c0 98 58 167 141 167c66 0 107 -44 107 -114zM272 576c0 52 -26 82 -67 82c-56 0 -97 -55 -97 -133c0 -52 24 -83 62 -83c57 0 102 58 102 134z" />
    <glyph glyph-name="ae" unicode="&#xe6;" horiz-adv-x="658" 
d="M591 94l-7 -51c-38 -28 -107 -52 -153 -52c-62 0 -124 37 -142 85c-48 -49 -120 -85 -174 -85c-58 0 -100 39 -100 93c0 91 114 162 277 173l7 61c6 53 -17 99 -82 99c-47 0 -99 -22 -158 -78l-9 42c55 50 115 77 173 77c48 0 85 -24 109 -71c40 50 80 71 132 71
c110 0 170 -101 153 -223h-287c-6 -35 -14 -81 -14 -107c0 -57 46 -96 111 -96c52 0 110 22 164 62zM334 274h243c9 81 -37 143 -110 143c-66 0 -118 -46 -133 -143zM270 105l16 116c-119 -12 -229 -58 -229 -136c0 -30 28 -53 62 -53c39 0 96 27 151 73z" />
    <glyph glyph-name="dotlessi" unicode="&#x131;" horiz-adv-x="177" 
d="M138 449l-63 -449h-44l63 449h44z" />
    <glyph glyph-name="lslash" unicode="&#x142;" horiz-adv-x="172" 
d="M115 333l-47 -333h-44l42 299l-87 -69l6 39l87 69l48 344h44l-43 -310l93 75l-5 -39z" />
    <glyph glyph-name="oslash" unicode="&#xf8;" horiz-adv-x="421" 
d="M316 367l-203 -317c17 -10 38 -18 58 -18c94 0 169 106 169 238c0 45 -10 75 -24 97zM315 434l41 64l31 -21l-44 -69c28 -32 44 -80 44 -138c0 -181 -109 -279 -214 -279c-39 0 -62 13 -83 24l-42 -65l-32 19l46 71c-25 31 -44 76 -44 140c0 163 87 278 211 278
c33 0 66 -11 86 -24zM88 81l203 316c-19 12 -41 20 -64 20c-108 0 -162 -119 -162 -238c0 -39 9 -76 23 -98z" />
    <glyph glyph-name="oe" unicode="&#x153;" horiz-adv-x="699" 
d="M632 95l-7 -53c-45 -32 -102 -51 -154 -51c-73 0 -128 38 -151 104c-38 -66 -88 -104 -155 -104c-87 0 -151 80 -151 188c0 150 98 279 212 279c62 0 108 -35 131 -100c36 65 89 100 150 100c93 0 174 -73 149 -223h-295c-4 -33 -5 -47 -5 -66c0 -84 46 -137 119 -137
c48 0 94 18 157 63zM367 274h251c10 78 -35 143 -106 143s-132 -59 -145 -143zM320 290c0 78 -38 127 -97 127c-87 0 -162 -106 -162 -232c0 -92 44 -153 106 -153c99 0 153 129 153 258z" />
    <glyph glyph-name="germandbls" unicode="&#xdf;" horiz-adv-x="469" 
d="M26 0l73 516c12 88 72 175 184 175c120 0 160 -100 160 -155c0 -72 -48 -132 -120 -150v-2c64 -26 100 -83 100 -159c0 -134 -86 -234 -200 -234c-20 0 -34 2 -55 9l5 40c12 -6 25 -8 46 -8c90 0 157 78 157 187c0 78 -47 144 -140 150l5 39c96 -7 155 60 155 129
c0 63 -53 113 -117 113c-72 0 -126 -57 -139 -151l-70 -499h-44z" />
    <glyph glyph-name="logicalnot" unicode="&#xac;" horiz-adv-x="660" 
d="M81 483h524v-284h-44v240h-480v44z" />
    <glyph glyph-name="mu" unicode="&#xb5;" horiz-adv-x="475" 
d="M78 39l-56 -210h-44l159 620h44l-76 -297c-17 -68 20 -120 92 -120c123 0 198 103 230 226l50 191h44l-115 -449h-44l21 81l-2 2c-59 -63 -119 -92 -194 -92c-47 0 -75 13 -109 48z" />
    <glyph glyph-name="trademark" unicode="&#x2122;" horiz-adv-x="938" 
d="M100 714h310v-41h-129v-356h-51v356h-130v41zM456 714h75l99 -317h2l104 317h75v-397h-45v356h-2l-117 -356h-34l-110 356h-2v-356h-45v397z" />
    <glyph glyph-name="Eth" unicode="&#xd0;" horiz-adv-x="641" 
d="M86 320h-81l6 44h82l44 318h125c57 0 127 -18 176 -45c108 -58 173 -172 173 -302c0 -148 -78 -263 -212 -310c-51 -19 -94 -25 -169 -25h-188zM133 320l-38 -276h109c108 0 166 12 223 45c84 50 133 140 133 244c0 183 -130 305 -325 305h-57l-38 -274h182l-7 -44h-182z
" />
    <glyph glyph-name="onehalf" unicode="&#xbd;" horiz-adv-x="812" 
d="M249 687l-62 -355h-39l63 355h38zM651 691l-537 -718h-39l537 718h39zM700 29l-4 -29h-247c145 130 226 222 226 276c0 34 -23 55 -60 55c-39 0 -73 -20 -107 -39l6 37c47 23 72 30 104 30c57 0 96 -33 96 -82c0 -54 -49 -113 -184 -248h170z" />
    <glyph glyph-name="plusminus" unicode="&#xb1;" horiz-adv-x="660" 
d="M81 44h524v-44h-524v44zM81 373h240v240h44v-240h240v-44h-240v-240h-44v240h-240v44z" />
    <glyph glyph-name="Thorn" unicode="&#xde;" horiz-adv-x="473" 
d="M136 682h52l-21 -153h63c62 0 91 -6 123 -23c55 -29 89 -89 89 -158c0 -83 -44 -148 -116 -176c-37 -14 -67 -19 -129 -19h-83l-22 -153h-52zM160 485l-40 -288h76c53 0 88 6 116 19c49 23 78 71 78 129c0 61 -31 111 -82 130c-20 7 -41 10 -85 10h-63z" />
    <glyph glyph-name="onequarter" unicode="&#xbc;" horiz-adv-x="813" 
d="M686 142l-3 -23h-70l-17 -119h-38l17 119h-160v13l222 228h19l-40 -218h70zM602 286l-137 -144h113l26 142zM651 691l-537 -718h-39l537 718h39zM249 687l-62 -355h-39l63 355h38z" />
    <glyph glyph-name="divide" unicode="&#xf7;" horiz-adv-x="660" 
d="M81 373h524v-44h-524v44zM343 478c-22 0 -39 17 -39 39s17 39 39 39s39 -17 39 -39s-17 -39 -39 -39zM343 146c-22 0 -39 17 -39 39s17 39 39 39s39 -17 39 -39s-17 -39 -39 -39z" />
    <glyph glyph-name="brokenbar" unicode="&#xa6;" horiz-adv-x="219" 
d="M101 682h47v-334h-47v334zM101 169h47v-399h-47v399z" />
    <glyph glyph-name="degree" unicode="&#xb0;" horiz-adv-x="395" 
d="M241 691c77 0 140 -62 140 -139s-63 -140 -140 -140s-139 63 -139 140s62 139 139 139zM241 651c-55 0 -99 -45 -99 -100s44 -99 99 -99s100 44 100 99s-45 100 -100 100z" />
    <glyph glyph-name="thorn" unicode="&#xfe;" horiz-adv-x="500" 
d="M156 389l-51 -362c235 -27 301 111 301 227c0 101 -58 163 -145 163c-35 0 -68 -9 -105 -28zM26 -221l127 903h44l-36 -257c41 23 75 33 111 33c108 0 181 -84 181 -203c0 -114 -69 -264 -289 -264c-32 0 -43 1 -63 3l-31 -215h-44z" />
    <glyph glyph-name="threequarters" unicode="&#xbe;" horiz-adv-x="812" 
d="M122 638l4 32c35 16 56 21 85 21c67 0 118 -40 118 -92c0 -38 -29 -70 -78 -86c39 -19 53 -41 53 -77c0 -64 -57 -109 -136 -109c-40 0 -77 11 -107 32l3 29c38 -22 67 -29 100 -29c66 0 101 31 101 79c0 35 -19 67 -91 67l3 23c83 -4 113 35 113 71c0 39 -33 64 -84 64
c-30 0 -44 -3 -84 -25zM712 691l-537 -718h-39l537 718h39zM747 142l-3 -23h-70l-17 -119h-38l17 119h-160v13l222 228h19l-40 -218h70zM663 286l-137 -144h113l26 142z" />
    <glyph glyph-name="registered" unicode="&#xae;" horiz-adv-x="802" 
d="M251 547h161c83 0 133 -39 133 -104c0 -44 -24 -95 -107 -109c53 -32 63 -39 122 -179h-59c-70 154 -91 172 -180 172h-23v-172h-47v392zM298 366h65c91 0 125 20 125 73c0 52 -30 69 -118 69h-72v-142zM400 728c206 0 373 -167 373 -373s-167 -373 -373 -373
s-373 167 -373 373s167 373 373 373zM400 681c-180 0 -326 -146 -326 -326s146 -326 326 -326s326 146 326 326s-146 326 -326 326z" />
    <glyph glyph-name="minus" unicode="&#x2212;" horiz-adv-x="660" 
d="M81 373h524v-44h-524v44z" />
    <glyph glyph-name="eth" unicode="&#xf0;" horiz-adv-x="429" 
d="M67 179c0 -91 41 -147 106 -147c86 0 169 95 169 238c0 86 -41 147 -113 147c-108 0 -162 -119 -162 -238zM422 648l-91 -47c62 -87 70 -185 70 -264c0 -193 -81 -346 -226 -346c-81 0 -155 61 -155 189c0 163 87 278 211 278c44 0 91 -15 125 -77l2 2
c-5 66 -19 135 -66 198l-103 -53l-19 34l96 50c-13 14 -27 27 -44 40l29 30c21 -16 40 -33 54 -50l98 50z" />
    <glyph glyph-name="multiply" unicode="&#xd7;" horiz-adv-x="660" 
d="M142 521l32 32l169 -169l169 169l32 -32l-169 -169l169 -169l-32 -32l-169 169l-169 -169l-32 32l169 169z" />
    <glyph glyph-name="copyright" unicode="&#xa9;" horiz-adv-x="802" 
d="M562 449l-47 -12c-24 55 -60 81 -111 81c-77 0 -138 -58 -138 -154c0 -106 52 -178 133 -178c68 0 103 42 123 100l44 -16c-19 -72 -80 -128 -164 -128c-109 0 -187 92 -187 214c0 110 71 203 190 203c70 0 119 -34 157 -110zM400 728c206 0 373 -167 373 -373
s-167 -373 -373 -373s-373 167 -373 373s167 373 373 373zM400 681c-180 0 -326 -146 -326 -326s146 -326 326 -326s326 146 326 326s-146 326 -326 326z" />
    <glyph glyph-name="Aacute" unicode="&#xc1;" horiz-adv-x="527" 
d="M340 691l157 -691h-48l-56 246h-253l-116 -246h-48l322 691h42zM308 607l-146 -315h221l-73 315h-2zM500 855l-202 -127h-46l122 127h126z" />
    <glyph glyph-name="Acircumflex" unicode="&#xc2;" horiz-adv-x="527" 
d="M340 691l157 -691h-48l-56 246h-253l-116 -246h-48l322 691h42zM308 607l-146 -315h221l-73 315h-2zM395 860l90 -132h-52l-76 87l-150 -87h-51l159 132h80z" />
    <glyph glyph-name="Adieresis" unicode="&#xc4;" horiz-adv-x="527" 
d="M340 691l157 -691h-48l-56 246h-253l-116 -246h-48l322 691h42zM308 607l-146 -315h221l-73 315h-2zM493 771c0 -20 -17 -45 -45 -45c-24 0 -44 20 -44 44s19 44 43 44c27 0 46 -20 46 -43zM247 771c0 -23 -17 -44 -44 -44c-24 0 -43 19 -43 44s19 44 42 44
c27 0 45 -21 45 -44z" />
    <glyph glyph-name="Agrave" unicode="&#xc0;" horiz-adv-x="527" 
d="M340 691l157 -691h-48l-56 246h-253l-116 -246h-48l322 691h42zM308 607l-146 -315h221l-73 315h-2zM171 855h126l122 -127h-46z" />
    <glyph glyph-name="Aring" unicode="&#xc5;" horiz-adv-x="527" 
d="M340 691l157 -691h-48l-56 246h-253l-116 -246h-48l322 691h42zM308 607l-146 -315h221l-73 315h-2zM342 936c57 0 104 -46 104 -104c0 -57 -47 -104 -104 -104c-58 0 -104 47 -104 104c0 58 47 104 104 104zM341 904c-39 0 -72 -31 -72 -72c0 -39 32 -72 72 -72
s73 33 73 72c0 41 -33 72 -73 72z" />
    <glyph glyph-name="Atilde" unicode="&#xc3;" horiz-adv-x="527" 
d="M340 691l157 -691h-48l-56 246h-253l-116 -246h-48l322 691h42zM308 607l-146 -315h221l-73 315h-2zM198 728h-41c3 44 4 51 12 69c13 23 39 51 79 51c34 0 54 -12 94 -36c11 -6 47 -27 68 -27c31 0 36 32 40 62h38c3 -86 -45 -121 -90 -121c-27 0 -50 11 -87 31
c-55 30 -61 33 -73 33c-32 0 -39 -43 -40 -62z" />
    <glyph glyph-name="Ccedilla" unicode="&#xc7;" horiz-adv-x="552" 
d="M521 110l-8 -56c-64 -38 -143 -63 -217 -63l-11 -25c22 -7 36 -28 36 -52c0 -66 -58 -96 -139 -84l10 32c65 -7 93 18 93 52c0 18 -14 28 -41 29l22 52c-114 18 -230 115 -230 280c0 207 179 416 440 416c33 0 56 -2 86 -9l-6 -44c-34 5 -53 7 -81 7
c-229 0 -387 -186 -387 -368c0 -136 94 -240 217 -240c66 0 145 27 216 73z" />
    <glyph glyph-name="Eacute" unicode="&#xc9;" 
d="M484 682l-6 -46h-301l-38 -264h285l-7 -46h-284l-40 -280h403l-6 -46h-450l96 682h348zM530 855l-202 -127h-46l122 127h126z" />
    <glyph glyph-name="Ecircumflex" unicode="&#xca;" 
d="M484 682l-6 -46h-301l-38 -264h285l-7 -46h-284l-40 -280h403l-6 -46h-450l96 682h348zM420 860l90 -132h-52l-76 87l-150 -87h-51l159 132h80z" />
    <glyph glyph-name="Edieresis" unicode="&#xcb;" 
d="M484 682l-6 -46h-301l-38 -264h285l-7 -46h-284l-40 -280h403l-6 -46h-450l96 682h348zM518 771c0 -20 -17 -45 -45 -45c-24 0 -44 20 -44 44s19 44 43 44c27 0 46 -20 46 -43zM272 771c0 -23 -17 -44 -44 -44c-24 0 -43 19 -43 44s19 44 42 44c27 0 45 -21 45 -44z" />
    <glyph glyph-name="Egrave" unicode="&#xc8;" 
d="M484 682l-6 -46h-301l-38 -264h285l-7 -46h-284l-40 -280h403l-6 -46h-450l96 682h348zM171 855h126l122 -127h-46z" />
    <glyph glyph-name="Iacute" unicode="&#xcd;" horiz-adv-x="198" 
d="M183 682l-96 -682h-47l96 682h47zM344 855l-202 -127h-46l122 127h126z" />
    <glyph glyph-name="Icircumflex" unicode="&#xce;" horiz-adv-x="198" 
d="M183 682l-96 -682h-47l96 682h47zM249 860l90 -132h-52l-76 87l-150 -87h-51l159 132h80z" />
    <glyph glyph-name="Idieresis" unicode="&#xcf;" horiz-adv-x="198" 
d="M183 682l-96 -682h-47l96 682h47zM347 771c0 -20 -17 -45 -45 -45c-24 0 -44 20 -44 44s19 44 43 44c27 0 46 -20 46 -43zM101 771c0 -23 -17 -44 -44 -44c-24 0 -43 19 -43 44s19 44 42 44c27 0 45 -21 45 -44z" />
    <glyph glyph-name="Igrave" unicode="&#xcc;" horiz-adv-x="198" 
d="M183 682l-96 -682h-47l96 682h47zM5 855h126l122 -127h-46z" />
    <glyph glyph-name="Ntilde" unicode="&#xd1;" horiz-adv-x="676" 
d="M661 682l-97 -688h-21l-374 588l-82 -582h-47l96 682h27l369 -584l82 584h47zM296 728h-41c3 44 4 51 12 69c13 23 39 51 79 51c34 0 54 -12 94 -36c11 -6 47 -27 68 -27c31 0 36 32 40 62h38c3 -86 -45 -121 -90 -121c-27 0 -50 11 -87 31c-55 30 -61 33 -73 33
c-32 0 -39 -43 -40 -62z" />
    <glyph glyph-name="Oacute" unicode="&#xd3;" horiz-adv-x="628" 
d="M608 415c0 -228 -131 -424 -322 -424c-156 0 -241 106 -241 283c0 163 88 417 325 417c147 0 238 -105 238 -276zM556 426c0 135 -72 219 -186 219c-211 0 -273 -250 -273 -386c0 -142 70 -222 190 -222c172 0 269 183 269 389zM561 855l-202 -127h-46l122 127h126z" />
    <glyph glyph-name="Ocircumflex" unicode="&#xd4;" horiz-adv-x="628" 
d="M608 415c0 -228 -131 -424 -322 -424c-156 0 -241 106 -241 283c0 163 88 417 325 417c147 0 238 -105 238 -276zM556 426c0 135 -72 219 -186 219c-211 0 -273 -250 -273 -386c0 -142 70 -222 190 -222c172 0 269 183 269 389zM466 860l90 -132h-52l-76 87l-150 -87h-51
l159 132h80z" />
    <glyph glyph-name="Odieresis" unicode="&#xd6;" horiz-adv-x="628" 
d="M608 415c0 -228 -131 -424 -322 -424c-156 0 -241 106 -241 283c0 163 88 417 325 417c147 0 238 -105 238 -276zM556 426c0 135 -72 219 -186 219c-211 0 -273 -250 -273 -386c0 -142 70 -222 190 -222c172 0 269 183 269 389zM564 771c0 -20 -17 -45 -45 -45
c-24 0 -44 20 -44 44s19 44 43 44c27 0 46 -20 46 -43zM318 771c0 -23 -17 -44 -44 -44c-24 0 -43 19 -43 44s19 44 42 44c27 0 45 -21 45 -44z" />
    <glyph glyph-name="Ograve" unicode="&#xd2;" horiz-adv-x="628" 
d="M608 415c0 -228 -131 -424 -322 -424c-156 0 -241 106 -241 283c0 163 88 417 325 417c147 0 238 -105 238 -276zM556 426c0 135 -72 219 -186 219c-211 0 -273 -250 -273 -386c0 -142 70 -222 190 -222c172 0 269 183 269 389zM242 855h126l122 -127h-46z" />
    <glyph glyph-name="Otilde" unicode="&#xd5;" horiz-adv-x="628" 
d="M608 415c0 -228 -131 -424 -322 -424c-156 0 -241 106 -241 283c0 163 88 417 325 417c147 0 238 -105 238 -276zM556 426c0 135 -72 219 -186 219c-211 0 -273 -250 -273 -386c0 -142 70 -222 190 -222c172 0 269 183 269 389zM274 728h-41c3 44 4 51 12 69
c13 23 39 51 79 51c34 0 54 -12 94 -36c11 -6 47 -27 68 -27c31 0 36 32 40 62h38c3 -86 -45 -121 -90 -121c-27 0 -50 11 -87 31c-55 30 -61 33 -73 33c-32 0 -39 -43 -40 -62z" />
    <glyph glyph-name="Scaron" unicode="&#x160;" horiz-adv-x="407" 
d="M389 653l-12 -43c-53 27 -79 35 -113 35c-69 0 -126 -58 -126 -129c0 -154 223 -147 223 -341c0 -106 -80 -184 -187 -184c-46 0 -111 21 -144 46l12 46c55 -35 87 -46 127 -46c74 0 140 47 140 139c0 153 -223 169 -223 334c0 103 77 181 178 181c45 0 98 -16 125 -38z
M224 728l-90 132h52l76 -87l150 87h51l-159 -132h-80z" />
    <glyph glyph-name="Uacute" unicode="&#xda;" horiz-adv-x="635" 
d="M627 682l-63 -441c-26 -180 -159 -250 -279 -250c-130 0 -242 99 -220 254l62 437h47l-61 -430c-21 -151 76 -215 180 -215c143 0 210 110 224 208l63 437h47zM562 855l-202 -127h-46l122 127h126z" />
    <glyph glyph-name="Ucircumflex" unicode="&#xdb;" horiz-adv-x="635" 
d="M627 682l-63 -441c-26 -180 -159 -250 -279 -250c-130 0 -242 99 -220 254l62 437h47l-61 -430c-21 -151 76 -215 180 -215c143 0 210 110 224 208l63 437h47zM457 860l90 -132h-52l-76 87l-150 -87h-51l159 132h80z" />
    <glyph glyph-name="Udieresis" unicode="&#xdc;" horiz-adv-x="635" 
d="M627 682l-63 -441c-26 -180 -159 -250 -279 -250c-130 0 -242 99 -220 254l62 437h47l-61 -430c-21 -151 76 -215 180 -215c143 0 210 110 224 208l63 437h47zM555 771c0 -20 -17 -45 -45 -45c-24 0 -44 20 -44 44s19 44 43 44c27 0 46 -20 46 -43zM309 771
c0 -23 -17 -44 -44 -44c-24 0 -43 19 -43 44s19 44 42 44c27 0 45 -21 45 -44z" />
    <glyph glyph-name="Ugrave" unicode="&#xd9;" horiz-adv-x="635" 
d="M627 682l-63 -441c-26 -180 -159 -250 -279 -250c-130 0 -242 99 -220 254l62 437h47l-61 -430c-21 -151 76 -215 180 -215c143 0 210 110 224 208l63 437h47zM223 855h126l122 -127h-46z" />
    <glyph glyph-name="Yacute" unicode="&#xdd;" horiz-adv-x="461" 
d="M529 682l-255 -329l-49 -353h-47l49 353l-171 329h51l149 -282l216 282h57zM496 855l-202 -127h-46l122 127h126z" />
    <glyph glyph-name="Ydieresis" unicode="&#x178;" horiz-adv-x="461" 
d="M529 682l-255 -329l-49 -353h-47l49 353l-171 329h51l149 -282l216 282h57zM469 771c0 -20 -17 -45 -45 -45c-24 0 -44 20 -44 44s19 44 43 44c27 0 46 -20 46 -43zM223 771c0 -23 -17 -44 -44 -44c-24 0 -43 19 -43 44s19 44 42 44c27 0 45 -21 45 -44z" />
    <glyph glyph-name="Zcaron" unicode="&#x17d;" horiz-adv-x="622" 
d="M82 46h483l-6 -46h-566v16l570 620h-461l6 46h544v-16zM328 728l-90 132h52l76 -87l150 87h51l-159 -132h-80z" />
    <glyph glyph-name="aacute" unicode="&#xe1;" horiz-adv-x="463" 
d="M427 449l-63 -449h-44l7 53c-39 -35 -98 -62 -154 -62c-91 0 -157 76 -157 180c0 140 110 287 319 287c34 0 71 -4 92 -9zM334 104l45 315c-16 4 -34 6 -55 6c-137 0 -261 -104 -261 -260c0 -83 46 -137 117 -137c55 0 103 27 154 76zM421 660l-152 -154h-33l105 154h80z
" />
    <glyph glyph-name="acircumflex" unicode="&#xe2;" horiz-adv-x="463" 
d="M427 449l-63 -449h-44l7 53c-39 -35 -98 -62 -154 -62c-91 0 -157 76 -157 180c0 140 110 287 319 287c34 0 71 -4 92 -9zM334 104l45 315c-16 4 -34 6 -55 6c-137 0 -261 -104 -261 -260c0 -83 46 -137 117 -137c55 0 103 27 154 76zM383 703l9 -197h-36l-21 135
l-149 -135h-39l180 197h56z" />
    <glyph glyph-name="adieresis" unicode="&#xe4;" horiz-adv-x="463" 
d="M427 449l-63 -449h-44l7 53c-39 -35 -98 -62 -154 -62c-91 0 -157 76 -157 180c0 140 110 287 319 287c34 0 71 -4 92 -9zM334 104l45 315c-16 4 -34 6 -55 6c-137 0 -261 -104 -261 -260c0 -83 46 -137 117 -137c55 0 103 27 154 76zM209 637c24 0 44 -20 44 -44
s-20 -44 -44 -44s-44 20 -44 44s20 44 44 44zM367 637c24 0 44 -20 44 -44s-20 -44 -44 -44s-44 20 -44 44s20 44 44 44z" />
    <glyph glyph-name="agrave" unicode="&#xe0;" horiz-adv-x="463" 
d="M427 449l-63 -449h-44l7 53c-39 -35 -98 -62 -154 -62c-91 0 -157 76 -157 180c0 140 110 287 319 287c34 0 71 -4 92 -9zM334 104l45 315c-16 4 -34 6 -55 6c-137 0 -261 -104 -261 -260c0 -83 46 -137 117 -137c55 0 103 27 154 76zM157 660h80l105 -154h-33z" />
    <glyph glyph-name="aring" unicode="&#xe5;" horiz-adv-x="463" 
d="M427 449l-63 -449h-44l7 53c-39 -35 -98 -62 -154 -62c-91 0 -157 76 -157 180c0 140 110 287 319 287c34 0 71 -4 92 -9zM334 104l45 315c-16 4 -34 6 -55 6c-137 0 -261 -104 -261 -260c0 -83 46 -137 117 -137c55 0 103 27 154 76zM255 592c0 -32 26 -58 58 -58
s58 26 58 58s-26 58 -58 58s-58 -26 -58 -58zM227 592c0 47 39 86 86 86s86 -39 86 -86s-39 -86 -86 -86s-86 39 -86 86z" />
    <glyph glyph-name="atilde" unicode="&#xe3;" horiz-adv-x="463" 
d="M427 449l-63 -449h-44l7 53c-39 -35 -98 -62 -154 -62c-91 0 -157 76 -157 180c0 140 110 287 319 287c34 0 71 -4 92 -9zM334 104l45 315c-16 4 -34 6 -55 6c-137 0 -261 -104 -261 -260c0 -83 46 -137 117 -137c55 0 103 27 154 76zM414 649h31c-6 -63 -33 -95 -80 -95
c-26 0 -59 12 -91 25s-63 24 -85 24c-23 0 -38 -7 -40 -48h-31c-8 63 37 98 83 98c25 0 56 -12 86 -24c31 -12 61 -25 85 -25c27 0 38 11 42 45z" />
    <glyph glyph-name="ccedilla" unicode="&#xe7;" horiz-adv-x="385" 
d="M352 69l-7 -47c-43 -21 -86 -31 -135 -31l-11 -25c22 -7 36 -28 36 -52c0 -66 -58 -96 -139 -84l10 32c65 -7 93 18 93 52c0 18 -14 28 -41 29l22 51c-93 14 -154 90 -154 197c0 121 84 267 266 267c29 0 58 -3 88 -9l-7 -48c-38 10 -57 13 -85 13
c-147 0 -215 -121 -215 -228c0 -93 60 -154 151 -154c43 0 76 14 128 37z" />
    <glyph glyph-name="eacute" unicode="&#xe9;" horiz-adv-x="436" 
d="M370 88v-47c-39 -30 -89 -50 -141 -50c-120 0 -199 86 -199 216c0 141 91 251 208 251c96 0 160 -71 160 -190c0 -14 -1 -24 -2 -34h-317c-1 -9 -2 -19 -2 -29c0 -80 49 -173 153 -173c46 0 96 20 140 56zM86 273h268c4 93 -46 144 -117 144c-70 0 -139 -65 -151 -144z
M381 660l-152 -154h-33l105 154h80z" />
    <glyph glyph-name="ecircumflex" unicode="&#xea;" horiz-adv-x="436" 
d="M370 88v-47c-39 -30 -89 -50 -141 -50c-120 0 -199 86 -199 216c0 141 91 251 208 251c96 0 160 -71 160 -190c0 -14 -1 -24 -2 -34h-317c-1 -9 -2 -19 -2 -29c0 -80 49 -173 153 -173c46 0 96 20 140 56zM86 273h268c4 93 -46 144 -117 144c-70 0 -139 -65 -151 -144z
M356 703l9 -197h-36l-21 135l-149 -135h-39l180 197h56z" />
    <glyph glyph-name="edieresis" unicode="&#xeb;" horiz-adv-x="436" 
d="M370 88v-47c-39 -30 -89 -50 -141 -50c-120 0 -199 86 -199 216c0 141 91 251 208 251c96 0 160 -71 160 -190c0 -14 -1 -24 -2 -34h-317c-1 -9 -2 -19 -2 -29c0 -80 49 -173 153 -173c46 0 96 20 140 56zM86 273h268c4 93 -46 144 -117 144c-70 0 -139 -65 -151 -144z
M185 637c24 0 44 -20 44 -44s-20 -44 -44 -44s-44 20 -44 44s20 44 44 44zM343 637c24 0 44 -20 44 -44s-20 -44 -44 -44s-44 20 -44 44s20 44 44 44z" />
    <glyph glyph-name="egrave" unicode="&#xe8;" horiz-adv-x="436" 
d="M370 88v-47c-39 -30 -89 -50 -141 -50c-120 0 -199 86 -199 216c0 141 91 251 208 251c96 0 160 -71 160 -190c0 -14 -1 -24 -2 -34h-317c-1 -9 -2 -19 -2 -29c0 -80 49 -173 153 -173c46 0 96 20 140 56zM86 273h268c4 93 -46 144 -117 144c-70 0 -139 -65 -151 -144z
M128 660h80l105 -154h-33z" />
    <glyph glyph-name="iacute" unicode="&#xed;" horiz-adv-x="177" 
d="M138 449l-63 -449h-44l63 449h44zM268 660l-152 -154h-33l105 154h80z" />
    <glyph glyph-name="icircumflex" unicode="&#xee;" horiz-adv-x="177" 
d="M138 449l-63 -449h-44l63 449h44zM233 703l9 -197h-36l-21 135l-149 -135h-39l180 197h56z" />
    <glyph glyph-name="idieresis" unicode="&#xef;" horiz-adv-x="177" 
d="M138 449l-63 -449h-44l63 449h44zM52 637c24 0 44 -20 44 -44s-20 -44 -44 -44s-44 20 -44 44s20 44 44 44zM210 637c24 0 44 -20 44 -44s-20 -44 -44 -44s-44 20 -44 44s20 44 44 44z" />
    <glyph glyph-name="igrave" unicode="&#xec;" horiz-adv-x="177" 
d="M138 449l-63 -449h-44l63 449h44zM0 660h80l105 -154h-33z" />
    <glyph glyph-name="ntilde" unicode="&#xf1;" horiz-adv-x="457" 
d="M135 449l-10 -74l2 -2c46 46 103 85 171 85c75 0 122 -69 111 -150l-43 -308h-44l42 302c11 79 -26 115 -78 115c-55 0 -106 -33 -169 -98l-45 -319h-44l63 449h44zM406 649h31c-6 -63 -33 -95 -80 -95c-26 0 -59 12 -91 25s-63 24 -85 24c-23 0 -38 -7 -40 -48h-31
c-8 63 37 98 83 98c25 0 56 -12 86 -24c31 -12 61 -25 85 -25c27 0 38 11 42 45z" />
    <glyph glyph-name="oacute" unicode="&#xf3;" horiz-adv-x="421" 
d="M387 270c0 -181 -109 -279 -214 -279c-81 0 -155 61 -155 189c0 163 87 278 211 278c97 0 158 -73 158 -188zM340 270c0 90 -44 147 -113 147c-108 0 -162 -119 -162 -238c0 -91 41 -147 106 -147c94 0 169 106 169 238zM376 660l-152 -154h-33l105 154h80z" />
    <glyph glyph-name="ocircumflex" unicode="&#xf4;" horiz-adv-x="421" 
d="M387 270c0 -181 -109 -279 -214 -279c-81 0 -155 61 -155 189c0 163 87 278 211 278c97 0 158 -73 158 -188zM340 270c0 90 -44 147 -113 147c-108 0 -162 -119 -162 -238c0 -91 41 -147 106 -147c94 0 169 106 169 238zM361 703l9 -197h-36l-21 135l-149 -135h-39
l180 197h56z" />
    <glyph glyph-name="odieresis" unicode="&#xf6;" horiz-adv-x="421" 
d="M387 270c0 -181 -109 -279 -214 -279c-81 0 -155 61 -155 189c0 163 87 278 211 278c97 0 158 -73 158 -188zM340 270c0 90 -44 147 -113 147c-108 0 -162 -119 -162 -238c0 -91 41 -147 106 -147c94 0 169 106 169 238zM180 637c24 0 44 -20 44 -44s-20 -44 -44 -44
s-44 20 -44 44s20 44 44 44zM338 637c24 0 44 -20 44 -44s-20 -44 -44 -44s-44 20 -44 44s20 44 44 44z" />
    <glyph glyph-name="ograve" unicode="&#xf2;" horiz-adv-x="421" 
d="M387 270c0 -181 -109 -279 -214 -279c-81 0 -155 61 -155 189c0 163 87 278 211 278c97 0 158 -73 158 -188zM340 270c0 90 -44 147 -113 147c-108 0 -162 -119 -162 -238c0 -91 41 -147 106 -147c94 0 169 106 169 238zM128 660h80l105 -154h-33z" />
    <glyph glyph-name="otilde" unicode="&#xf5;" horiz-adv-x="421" 
d="M387 270c0 -181 -109 -279 -214 -279c-81 0 -155 61 -155 189c0 163 87 278 211 278c97 0 158 -73 158 -188zM340 270c0 90 -44 147 -113 147c-108 0 -162 -119 -162 -238c0 -91 41 -147 106 -147c94 0 169 106 169 238zM392 649h31c-6 -63 -33 -95 -80 -95
c-26 0 -59 12 -91 25s-63 24 -85 24c-23 0 -38 -7 -40 -48h-31c-8 63 37 98 83 98c25 0 56 -12 86 -24c31 -12 61 -25 85 -25c27 0 38 11 42 45z" />
    <glyph glyph-name="scaron" unicode="&#x161;" horiz-adv-x="354" 
d="M331 416v-49c-56 35 -101 50 -146 50c-50 0 -92 -28 -92 -64c0 -85 217 -115 217 -244c0 -66 -65 -118 -147 -118c-53 0 -108 22 -151 59l14 47c40 -43 89 -65 139 -65c56 0 98 30 98 72c0 93 -212 128 -212 242c0 64 62 112 143 112c46 0 93 -14 137 -42zM183 506
l-9 197h36l21 -135l149 135h39l-180 -197h-56z" />
    <glyph glyph-name="uacute" unicode="&#xfa;" horiz-adv-x="458" 
d="M424 449l-63 -449h-44l12 79l-2 2c-54 -58 -112 -90 -174 -90c-58 0 -122 42 -109 136l45 322h44l-45 -320c-8 -59 23 -97 79 -97c53 0 103 31 170 107l43 310h44zM409 660l-152 -154h-33l105 154h80z" />
    <glyph glyph-name="ucircumflex" unicode="&#xfb;" horiz-adv-x="458" 
d="M424 449l-63 -449h-44l12 79l-2 2c-54 -58 -112 -90 -174 -90c-58 0 -122 42 -109 136l45 322h44l-45 -320c-8 -59 23 -97 79 -97c53 0 103 31 170 107l43 310h44zM374 703l9 -197h-36l-21 135l-149 -135h-39l180 197h56z" />
    <glyph glyph-name="udieresis" unicode="&#xfc;" horiz-adv-x="458" 
d="M424 449l-63 -449h-44l12 79l-2 2c-54 -58 -112 -90 -174 -90c-58 0 -122 42 -109 136l45 322h44l-45 -320c-8 -59 23 -97 79 -97c53 0 103 31 170 107l43 310h44zM193 637c24 0 44 -20 44 -44s-20 -44 -44 -44s-44 20 -44 44s20 44 44 44zM351 637c24 0 44 -20 44 -44
s-20 -44 -44 -44s-44 20 -44 44s20 44 44 44z" />
    <glyph glyph-name="ugrave" unicode="&#xf9;" horiz-adv-x="458" 
d="M424 449l-63 -449h-44l12 79l-2 2c-54 -58 -112 -90 -174 -90c-58 0 -122 42 -109 136l45 322h44l-45 -320c-8 -59 23 -97 79 -97c53 0 103 31 170 107l43 310h44zM141 660h80l105 -154h-33z" />
    <glyph glyph-name="yacute" unicode="&#xfd;" horiz-adv-x="375" 
d="M396 449l-355 -679h-49l125 236l-85 443h44l71 -383h2l200 383h47zM367 660l-152 -154h-33l105 154h80z" />
    <glyph glyph-name="ydieresis" unicode="&#xff;" horiz-adv-x="375" 
d="M396 449l-355 -679h-49l125 236l-85 443h44l71 -383h2l200 383h47zM161 637c24 0 44 -20 44 -44s-20 -44 -44 -44s-44 20 -44 44s20 44 44 44zM319 637c24 0 44 -20 44 -44s-20 -44 -44 -44s-44 20 -44 44s20 44 44 44z" />
    <glyph glyph-name="zcaron" unicode="&#x17e;" horiz-adv-x="427" 
d="M436 449v-19l-371 -391h314l-6 -39h-391v18l376 392h-294l6 39h366zM219 506l-9 197h36l21 -135l149 135h39l-180 -197h-56z" />
    <glyph glyph-name="oneeighth" unicode="&#x215b;" horiz-adv-x="812" 
d="M717 186c47 -17 55 -54 55 -73c0 -58 -57 -118 -140 -118c-68 0 -119 43 -119 99c0 24 10 78 89 98c-18 9 -46 25 -46 66c0 58 57 102 125 102c74 0 106 -47 106 -88c0 -10 0 -60 -70 -86zM746 271c0 24 -14 60 -66 60c-51 0 -82 -38 -82 -74c0 -32 29 -55 70 -55
c55 0 78 38 78 69zM731 111c0 21 -14 64 -80 64c-70 0 -98 -47 -98 -83s26 -71 79 -71c54 0 99 38 99 90zM694 691l-537 -718h-39l537 718h39zM249 687l-62 -355h-39l63 355h38z" />
    <glyph glyph-name="threeeighths" unicode="&#x215c;" horiz-adv-x="812" 
d="M717 186c47 -17 55 -54 55 -73c0 -66 -66 -118 -140 -118c-68 0 -119 43 -119 99c0 8 0 76 89 98c-18 9 -45 25 -45 66c0 58 56 102 124 102c74 0 107 -47 107 -88c0 -10 0 -60 -71 -86zM746 271c0 24 -14 60 -66 60c-51 0 -82 -38 -82 -74c0 -32 29 -55 70 -55
c61 0 78 46 78 69zM731 111c0 21 -14 64 -80 64c-69 0 -98 -47 -98 -83s26 -71 80 -71c53 0 98 38 98 90zM706 691l-537 -718h-39l537 718h39zM49 355l5 29c22 -12 53 -30 99 -30c77 0 102 51 102 86c0 61 -65 64 -91 65l3 23c19 0 48 0 72 11c21 10 42 30 42 60
c0 21 -14 65 -85 65c-36 0 -54 -9 -85 -26l5 32c22 10 46 21 85 21c75 0 118 -46 118 -91c0 -9 0 -61 -78 -87c16 -8 54 -27 54 -75c0 -55 -47 -111 -139 -111c-38 0 -75 9 -107 28z" />
    <glyph glyph-name="fiveeighths" unicode="&#x215d;" horiz-adv-x="812" 
d="M717 186c47 -17 55 -54 55 -73c0 -66 -66 -118 -140 -118c-68 0 -119 43 -119 99c0 8 0 76 89 98c-18 9 -46 25 -46 66c0 58 57 102 125 102c74 0 106 -47 106 -88c0 -10 0 -60 -70 -86zM746 271c0 24 -14 60 -66 60c-51 0 -82 -38 -82 -74c0 -32 29 -55 70 -55
c61 0 78 46 78 69zM731 111c0 21 -14 64 -80 64c-70 0 -98 -47 -98 -83s26 -71 79 -71c54 0 99 38 99 90zM324 687l-5 -28h-144l-18 -102c118 8 143 -68 143 -104c0 -67 -63 -126 -149 -126c-10 0 -61 0 -107 32l15 25c24 -14 51 -29 91 -29c56 0 110 39 110 99
c0 53 -43 77 -91 77c-18 0 -28 -2 -56 -9l29 165h182zM694 691l-537 -718h-39l537 718h39z" />
    <glyph glyph-name="seveneighths" unicode="&#x215e;" horiz-adv-x="812" 
d="M717 186c47 -17 55 -54 55 -73c0 -66 -66 -118 -140 -118c-68 0 -119 43 -119 99c0 8 0 76 89 98c-18 9 -46 25 -46 66c0 58 57 102 125 102c74 0 106 -47 106 -88c0 -10 0 -60 -70 -86zM746 271c0 24 -14 60 -66 60c-51 0 -82 -38 -82 -74c0 -32 29 -55 70 -55
c61 0 78 46 78 69zM731 111c0 21 -14 64 -80 64c-70 0 -98 -47 -98 -83s26 -71 79 -71c54 0 99 38 99 90zM343 687l-211 -355h-40l194 328h-194l3 27h248zM688 691l-537 -718h-39l537 718h39z" />
    <glyph glyph-name="onethird" unicode="&#x2153;" horiz-adv-x="812" 
d="M247 687l-60 -355h-39l62 355h37zM694 691l-537 -718h-39l537 718h39zM492 24l5 29c21 -13 53 -31 99 -31c76 0 102 51 102 86c0 61 -65 64 -92 66l4 22c19 0 48 0 71 11c21 10 43 30 43 60c0 21 -14 66 -86 66c-35 0 -54 -10 -84 -26l5 32c22 10 46 21 84 21
c76 0 118 -47 118 -92c0 -9 0 -61 -77 -86c16 -8 54 -27 54 -75c0 -55 -48 -112 -139 -112c-38 0 -75 9 -107 29z" />
    <glyph glyph-name="twothirds" unicode="&#x2154;" horiz-adv-x="812" 
d="M706 691l-537 -718h-39l537 718h39zM292 361l-5 -29h-246c58 51 112 105 163 163c61 70 63 97 63 113c0 48 -43 55 -61 55c-37 0 -60 -13 -107 -39l7 37c27 13 62 30 105 30c41 0 95 -21 95 -81c0 -28 -9 -56 -60 -117c-31 -38 -89 -97 -124 -132h170zM492 24l5 29
c21 -13 53 -31 99 -31c76 0 102 51 102 86c0 61 -65 64 -92 66l4 22c19 0 48 0 72 11c20 10 42 30 42 60c0 21 -14 66 -85 66c-36 0 -55 -10 -85 -26l5 32c22 10 46 21 85 21c75 0 117 -47 117 -92c0 -9 0 -61 -77 -86c16 -8 54 -27 54 -75c0 -55 -48 -112 -139 -112
c-38 0 -75 9 -107 29z" />
    <glyph glyph-name="ampersand.sc" unicode="&#xf726;" horiz-adv-x="442" 
d="M426 39l-23 -44c-46 -5 -86 11 -127 48c-43 -35 -77 -49 -124 -49c-80 0 -141 56 -141 131c0 59 38 108 111 145c-18 38 -29 78 -29 104c0 66 45 115 107 115c54 0 98 -45 98 -99c0 -51 -35 -96 -116 -139c27 -47 63 -105 94 -146c32 33 68 85 91 135h47
c-20 -54 -59 -113 -106 -167c35 -30 77 -43 118 -34zM252 393c0 28 -19 53 -53 53c-39 0 -62 -31 -62 -67c0 -26 10 -59 25 -89c65 35 90 66 90 103zM245 74c-37 45 -71 103 -102 158c-60 -34 -85 -68 -85 -107c0 -50 39 -87 94 -87c33 0 61 10 93 36z" />
    <glyph glyph-name="zero.oldstyle" unicode="&#xf730;" horiz-adv-x="487" 
d="M24 176c0 132 74 282 242 282c97 0 185 -49 185 -187c0 -84 -39 -280 -243 -280c-141 0 -184 94 -184 185zM78 180c0 -113 67 -147 133 -147c147 0 186 154 186 233c0 73 -28 150 -137 150c-122 0 -182 -119 -182 -236z" />
    <glyph glyph-name="one.oldstyle" unicode="&#xf731;" horiz-adv-x="292" 
d="M143 0h-46l56 378l-129 -97l12 63l152 114h22z" />
    <glyph glyph-name="two.oldstyle" unicode="&#xf732;" horiz-adv-x="439" 
d="M368 40l-6 -40h-331c174 139 198 158 242 209c27 30 56 77 56 118c0 60 -44 92 -97 92c-82 0 -134 -54 -162 -83v48c29 27 79 74 164 74c109 0 142 -77 142 -125c0 -99 -97 -187 -231 -293h223z" />
    <glyph glyph-name="three.oldstyle" unicode="&#xf733;" horiz-adv-x="408" 
d="M312 409h-260l4 40h342l-241 -301c27 -4 60 -9 95 -32c40 -26 74 -73 74 -146c0 -124 -101 -201 -204 -201c-88 0 -150 39 -175 54l13 41c43 -26 102 -54 158 -54c89 0 157 62 157 153c0 100 -73 151 -154 151c-20 0 -35 -4 -49 -8z" />
    <glyph glyph-name="four.oldstyle" unicode="&#xf734;" horiz-adv-x="456" 
d="M363 458l-61 -422h112l-5 -36h-112l-34 -230h-46l33 230h-285v13l388 445h10zM256 36l46 308l-267 -308h221z" />
    <glyph glyph-name="five.oldstyle" unicode="&#xf735;" horiz-adv-x="464" 
d="M422 449l-7 -40h-201l-79 -260c24 4 39 7 61 7c128 0 192 -85 192 -175c0 -108 -89 -211 -228 -211c-83 0 -143 38 -172 57l16 39c22 -15 81 -56 158 -56c88 0 175 65 175 166c0 67 -39 140 -146 140c-31 0 -76 -7 -120 -14l110 347h241z" />
    <glyph glyph-name="six.oldstyle" unicode="&#xf736;" horiz-adv-x="460" 
d="M334 662l-206 -300c26 20 73 56 143 56c50 0 154 -25 154 -160c0 -136 -103 -267 -232 -267c-106 0 -169 89 -169 185c0 110 76 221 138 310l136 196zM378 261c0 82 -56 116 -109 116c-93 0 -199 -74 -199 -204c0 -92 59 -137 122 -137c107 0 186 111 186 225z" />
    <glyph glyph-name="seven.oldstyle" unicode="&#xf737;" horiz-adv-x="414" 
d="M414 449l-351 -679l-39 19l326 620h-316l5 40h375z" />
    <glyph glyph-name="eight.oldstyle" unicode="&#xf738;" horiz-adv-x="499" 
d="M332 360c77 -18 113 -81 113 -147c0 -120 -102 -222 -227 -222c-113 0 -191 84 -191 184c0 57 28 122 84 158c34 22 64 29 85 33c-37 17 -96 45 -96 134c0 106 90 191 200 191c133 0 172 -103 172 -163c0 -52 -26 -106 -74 -139c-27 -18 -50 -24 -66 -29zM422 524
c0 56 -34 124 -121 124c-95 0 -151 -80 -151 -150c0 -68 55 -115 129 -115c105 0 143 88 143 141zM396 208c0 61 -38 134 -145 134c-120 0 -176 -90 -176 -169c0 -75 50 -144 143 -144c102 0 178 83 178 179z" />
    <glyph glyph-name="nine.oldstyle" unicode="&#xf739;" horiz-adv-x="461" 
d="M110 -204l210 293c-25 -21 -66 -56 -139 -56c-124 0 -157 101 -157 159c0 117 88 266 233 266c106 0 169 -81 169 -186c0 -75 -26 -145 -127 -289l-150 -213zM380 277c0 100 -65 139 -122 139c-114 0 -188 -124 -188 -227c0 -50 27 -115 109 -115c108 0 201 89 201 203z
" />
    <glyph glyph-name="a.sc" unicode="&#xf761;" horiz-adv-x="398" 
d="M351 0h-45l-38 170h-161l-78 -170h-45l221 489h37zM259 212l-44 196l-89 -196h133z" />
    <glyph glyph-name="b.sc" unicode="&#xf762;" horiz-adv-x="367" 
d="M327 143c0 -85 -73 -143 -178 -143h-135l66 484h50c111 0 159 -61 159 -123c0 -38 -20 -71 -53 -93c57 -21 91 -66 91 -125zM242 361c0 49 -37 81 -101 81h-24l-21 -161h40c70 0 106 31 106 80zM280 141c0 57 -46 98 -113 98h-76l-28 -197h82c105 0 135 54 135 99z" />
    <glyph glyph-name="c.sc" unicode="&#xf763;" horiz-adv-x="403" 
d="M391 481l-5 -40c-29 4 -41 6 -60 6c-150 0 -254 -127 -254 -250c0 -91 61 -161 140 -161c43 0 95 17 153 56l-8 -52c-46 -28 -103 -46 -145 -46c-87 0 -187 71 -187 202c0 146 123 293 302 293c23 0 38 -2 64 -8z" />
    <glyph glyph-name="d.sc" unicode="&#xf764;" horiz-adv-x="433" 
d="M409 237c0 -142 -105 -237 -242 -237h-153l66 484h87c118 0 242 -87 242 -247zM362 237c0 127 -95 205 -209 205h-33l-56 -400h91c160 0 207 112 207 195z" />
    <glyph glyph-name="e.sc" unicode="&#xf765;" horiz-adv-x="376" 
d="M334 42l-5 -42h-315l66 484h246l-6 -42h-202l-24 -174h192l-7 -42h-190l-26 -184h271z" />
    <glyph glyph-name="f.sc" unicode="&#xf766;" horiz-adv-x="301" 
d="M303 484l-6 -42h-178l-24 -176h166l-5 -42h-167l-31 -224h-44l67 484h222z" />
    <glyph glyph-name="g.sc" unicode="&#xf767;" horiz-adv-x="450" 
d="M447 476l-6 -41c-41 9 -61 12 -89 12c-173 0 -273 -115 -273 -246c0 -96 64 -163 155 -163c32 0 63 8 106 29l13 95h-103l6 42h147l-23 -160c-45 -32 -102 -50 -150 -50c-96 0 -198 73 -198 210c0 143 116 285 323 285c29 0 55 -3 92 -13z" />
    <glyph glyph-name="h.sc" unicode="&#xf768;" horiz-adv-x="470" 
d="M456 483l-66 -483h-43l30 225h-289l-30 -225h-44l65 483h44l-29 -216h289l30 216h43z" />
    <glyph glyph-name="i.sc" unicode="&#xf769;" horiz-adv-x="138" 
d="M124 483l-66 -483h-44l66 483h44z" />
    <glyph glyph-name="j.sc" unicode="&#xf76a;" horiz-adv-x="158" 
d="M144 483l-72 -523c-13 -92 -65 -119 -116 -119c-15 0 -28 2 -44 7l-9 48c20 -7 36 -10 52 -10c46 0 68 25 79 106l67 491h43z" />
    <glyph glyph-name="k.sc" unicode="&#xf76b;" horiz-adv-x="409" 
d="M400 484l-262 -223l247 -261h-57l-236 249l-34 -249h-44l66 484h44l-27 -202l238 202h65z" />
    <glyph glyph-name="l.sc" unicode="&#xf76c;" horiz-adv-x="327" 
d="M285 44l-6 -44h-249l66 483h44l-61 -439h206z" />
    <glyph glyph-name="m.sc" unicode="&#xf76d;" horiz-adv-x="553" 
d="M504 0h-45v380l-195 -380h-20l-79 385l-124 -385h-46l156 483h36l79 -386l199 386h39v-483z" />
    <glyph glyph-name="n.sc" unicode="&#xf76e;" horiz-adv-x="459" 
d="M445 483l-66 -487h-23l-244 394l-54 -390h-44l67 483h26l241 -392l54 392h43z" />
    <glyph glyph-name="o.sc" unicode="&#xf76f;" horiz-adv-x="441" 
d="M416 292c0 -159 -90 -298 -223 -298c-109 0 -168 77 -168 201c0 113 60 294 225 294c103 0 166 -77 166 -197zM369 300c0 91 -47 145 -119 145c-136 0 -178 -165 -178 -260c0 -96 46 -147 122 -147c110 0 175 120 175 262z" />
    <glyph glyph-name="p.sc" unicode="&#xf770;" horiz-adv-x="342" 
d="M328 352c0 -67 -41 -140 -158 -140h-67l-29 -212h-44l66 484h97c81 0 135 -55 135 -132zM281 350c0 54 -36 92 -92 92h-55l-26 -188h59c93 0 114 54 114 96z" />
    <glyph glyph-name="q.sc" unicode="&#xf771;" horiz-adv-x="441" 
d="M429 12c6 -77 -31 -146 -114 -146c-67 0 -131 53 -155 128c-102 15 -135 115 -135 199c0 132 73 296 227 296c105 0 164 -76 164 -198c0 -132 -65 -285 -205 -297c26 -54 65 -81 110 -81c51 0 86 37 87 99h21zM369 299c0 93 -44 146 -119 146c-109 0 -178 -119 -178 -262
c0 -93 47 -145 125 -145c112 0 172 137 172 261z" />
    <glyph glyph-name="r.sc" unicode="&#xf772;" horiz-adv-x="388" 
d="M365 0h-49l-79 144c-9 16 -25 50 -37 64c-8 10 -16 13 -36 13h-58l-30 -221h-44l65 484h111c84 0 129 -59 129 -130c0 -64 -39 -113 -100 -130c12 -12 24 -33 40 -62zM290 354c0 36 -18 88 -85 88h-69l-24 -179h76c65 0 102 36 102 91z" />
    <glyph glyph-name="s.sc" unicode="&#xf773;" horiz-adv-x="298" 
d="M272 459l-11 -40c-42 22 -59 27 -80 27c-43 0 -80 -38 -80 -84c0 -102 152 -100 152 -235c0 -76 -57 -133 -132 -133c-32 0 -78 14 -104 35l11 43c44 -28 65 -35 90 -35c47 0 90 30 90 90c0 103 -152 114 -152 231c0 74 54 131 125 131c31 0 69 -11 91 -30z" />
    <glyph glyph-name="t.sc" unicode="&#xf774;" horiz-adv-x="337" 
d="M362 483l-5 -41h-136l-61 -442h-43l60 442h-135l5 41h315z" />
    <glyph glyph-name="u.sc" unicode="&#xf775;" horiz-adv-x="442" 
d="M428 483l-43 -312c-18 -128 -110 -177 -193 -177c-91 0 -169 71 -154 182l42 307h44l-42 -304c-14 -100 48 -143 115 -143c92 0 135 74 144 140l44 307h43z" />
    <glyph glyph-name="v.sc" unicode="&#xf776;" horiz-adv-x="370" 
d="M385 483l-213 -489h-22l-99 489h44l74 -383l170 383h46z" />
    <glyph glyph-name="w.sc" unicode="&#xf777;" horiz-adv-x="651" 
d="M666 483l-229 -489h-22l-69 380l-170 -380h-23l-102 489h44l79 -386l173 386h22l70 -386l179 386h48z" />
    <glyph glyph-name="x.sc" unicode="&#xf778;" horiz-adv-x="495" 
d="M496 483l-216 -232l164 -251h-52l-143 216l-201 -216h-59l236 252l-151 231h52l131 -196l181 196h58z" />
    <glyph glyph-name="y.sc" unicode="&#xf779;" horiz-adv-x="365" 
d="M384 483l-178 -236l-33 -247h-44l33 249l-118 234h48l97 -190l141 190h54z" />
    <glyph glyph-name="z.sc" unicode="&#xf77a;" horiz-adv-x="455" 
d="M456 463l-375 -421h317l-5 -42h-392v19l376 423h-303l5 41h377v-20z" />
    <glyph glyph-name="lslash.sc" unicode="&#xf6f9;" horiz-adv-x="327" 
d="M285 44l-6 -44h-249l28 207l-67 -47l6 39l67 47l32 237h44l-28 -203l124 87l-5 -39l-125 -87l-27 -197h206z" />
    <glyph glyph-name="scaron.sc" unicode="&#xf6fd;" horiz-adv-x="298" 
d="M272 459l-11 -40c-42 22 -59 27 -80 27c-43 0 -80 -38 -80 -84c0 -102 152 -100 152 -235c0 -76 -57 -133 -132 -133c-32 0 -78 14 -104 35l11 43c44 -28 65 -35 90 -35c47 0 90 30 90 90c0 103 -152 114 -152 231c0 74 54 131 125 131c31 0 69 -11 91 -30zM150 537
l-90 132h52l76 -87l150 87h51l-159 -132h-80z" />
    <glyph glyph-name="zcaron.sc" unicode="&#xf6ff;" horiz-adv-x="455" 
d="M456 463l-375 -421h317l-5 -42h-392v19l376 423h-303l5 41h377v-20zM228 537l-90 132h52l76 -87l150 87h51l-159 -132h-80z" />
    <glyph glyph-name="one.superior" unicode="&#xb9;" horiz-adv-x="323" 
d="M239 628l-62 -355h-39l63 355h38z" />
    <glyph glyph-name="two.superior" unicode="&#xb2;" horiz-adv-x="323" 
d="M285 302l-4 -29h-247c145 130 226 222 226 276c0 34 -23 55 -60 55c-39 0 -73 -20 -107 -39l6 37c47 23 72 30 104 30c57 0 96 -33 96 -82c0 -54 -49 -113 -184 -248h170z" />
    <glyph glyph-name="three.superior" unicode="&#xb3;" horiz-adv-x="323" 
d="M107 579l4 32c35 16 56 21 85 21c67 0 118 -40 118 -92c0 -38 -29 -70 -78 -86c39 -19 53 -41 53 -77c0 -64 -57 -109 -136 -109c-40 0 -77 11 -107 32l3 29c38 -22 67 -29 100 -29c66 0 101 31 101 79c0 35 -19 67 -91 67l3 23c83 -4 112 35 113 71c1 38 -33 64 -84 64
c-30 0 -44 -3 -84 -25z" />
    <glyph glyph-name="agrave.sc" unicode="&#xf7e0;" horiz-adv-x="398" 
d="M351 0h-45l-38 170h-161l-78 -170h-45l221 489h37zM259 212l-44 196l-89 -196h133zM59 664h126l122 -127h-46z" />
    <glyph glyph-name="aacute.sc" unicode="&#xf7e1;" horiz-adv-x="398" 
d="M351 0h-45l-38 170h-161l-78 -170h-45l221 489h37zM259 212l-44 196l-89 -196h133zM414 664l-202 -127h-46l122 127h126z" />
    <glyph glyph-name="acircumflex.sc" unicode="&#xf7e2;" horiz-adv-x="398" 
d="M351 0h-45l-38 170h-161l-78 -170h-45l221 489h37zM259 212l-44 196l-89 -196h133zM283 669l90 -132h-52l-76 87l-150 -87h-51l159 132h80z" />
    <glyph glyph-name="atilde.sc" unicode="&#xf7e3;" horiz-adv-x="398" 
d="M351 0h-45l-38 170h-161l-78 -170h-45l221 489h37zM259 212l-44 196l-89 -196h133zM99 545h-41c3 44 4 51 12 68c13 24 39 51 79 51c34 0 54 -11 94 -35c11 -6 47 -27 68 -27c31 0 36 32 40 61h38c3 -85 -45 -120 -90 -120c-27 0 -50 10 -87 31c-54 31 -61 33 -73 33
c-32 0 -39 -43 -40 -62z" />
    <glyph glyph-name="adieresis.sc" unicode="&#xf7e4;" horiz-adv-x="398" 
d="M351 0h-45l-38 170h-161l-78 -170h-45l221 489h37zM259 212l-44 196l-89 -196h133zM406 605c0 -19 -17 -45 -45 -45c-24 0 -44 21 -44 45s19 43 43 43c27 0 46 -19 46 -43zM160 605c0 -22 -17 -44 -44 -44c-24 0 -43 20 -43 45s19 44 42 44c27 0 45 -22 45 -45z" />
    <glyph glyph-name="aring.sc" unicode="&#xf7e5;" horiz-adv-x="398" 
d="M351 0h-45l-38 170h-161l-78 -170h-45l221 489h37zM259 212l-44 196l-89 -196h133zM226 746c57 0 104 -46 104 -105c0 -57 -47 -104 -104 -104c-58 0 -104 47 -104 104c0 59 47 105 104 105zM225 714c-39 0 -72 -32 -72 -72s32 -73 72 -73s73 33 73 73s-33 72 -73 72z
" />
    <glyph glyph-name="ae.sc" unicode="&#xf7e6;" horiz-adv-x="594" 
d="M553 42l-6 -42h-309l31 224h-106l-137 -224h-50l296 484h272l-6 -42h-196l-24 -176h183l-6 -42h-183l-25 -182h266zM298 442h-2l-106 -176h84z" />
    <glyph glyph-name="ccedilla.sc" unicode="&#xf7e7;" horiz-adv-x="403" 
d="M391 481l-5 -42c-29 4 -41 6 -60 6c-150 0 -254 -125 -254 -248c0 -91 61 -159 140 -159c43 0 95 17 153 56l-8 -54c-41 -25 -91 -42 -131 -45l-12 -29c22 -7 36 -28 36 -52c0 -66 -58 -96 -139 -84l10 32c65 -7 93 18 93 52c0 18 -14 28 -41 29l22 52
c-82 9 -170 79 -170 201c0 146 123 293 302 293c23 0 38 -2 64 -8z" />
    <glyph glyph-name="egrave.sc" unicode="&#xf7e8;" horiz-adv-x="376" 
d="M334 42l-5 -42h-315l66 484h246l-6 -42h-202l-24 -174h192l-7 -42h-190l-26 -184h271zM58 664h126l122 -127h-46z" />
    <glyph glyph-name="eacute.sc" unicode="&#xf7e9;" horiz-adv-x="376" 
d="M334 42l-5 -42h-315l66 484h246l-6 -42h-202l-24 -174h192l-7 -42h-190l-26 -184h271zM413 664l-202 -127h-46l122 127h126z" />
    <glyph glyph-name="ecircumflex.sc" unicode="&#xf7ea;" horiz-adv-x="376" 
d="M334 42l-5 -42h-315l66 484h246l-6 -42h-202l-24 -174h192l-7 -42h-190l-26 -184h271zM280 669l90 -132h-52l-76 87l-150 -87h-51l159 132h80z" />
    <glyph glyph-name="edieresis.sc" unicode="&#xf7eb;" horiz-adv-x="376" 
d="M334 42l-5 -42h-315l66 484h246l-6 -42h-202l-24 -174h192l-7 -42h-190l-26 -184h271zM405 605c0 -19 -17 -45 -45 -45c-24 0 -44 21 -44 45s19 43 43 43c27 0 46 -19 46 -43zM159 605c0 -22 -17 -44 -44 -44c-24 0 -43 20 -43 45s19 44 42 44c27 0 45 -22 45 -45z" />
    <glyph glyph-name="igrave.sc" unicode="&#xf7ec;" horiz-adv-x="138" 
d="M124 483l-66 -483h-44l66 483h44zM-61 664h126l122 -127h-46z" />
    <glyph glyph-name="iacute.sc" unicode="&#xf7ed;" horiz-adv-x="138" 
d="M124 483l-66 -483h-44l66 483h44zM314 664l-202 -127h-46l122 127h126z" />
    <glyph glyph-name="icircumflex.sc" unicode="&#xf7ee;" horiz-adv-x="138" 
d="M124 483l-66 -483h-44l66 483h44zM161 669l90 -132h-52l-76 87l-150 -87h-51l159 132h80z" />
    <glyph glyph-name="idieresis.sc" unicode="&#xf7ef;" horiz-adv-x="138" 
d="M124 483l-66 -483h-44l66 483h44zM301 605c0 -19 -17 -45 -45 -45c-24 0 -44 21 -44 45s19 43 43 43c27 0 46 -19 46 -43zM55 605c0 -22 -17 -44 -44 -44c-24 0 -43 20 -43 45s19 44 42 44c27 0 45 -22 45 -45z" />
    <glyph glyph-name="eth.sc" unicode="&#xf7f0;" horiz-adv-x="433" 
d="M6 262h44l30 222h87c118 0 242 -87 242 -247c0 -142 -105 -237 -242 -237h-153l30 219h-44zM95 262h150l-6 -43h-150l-25 -177h91c160 0 207 112 207 195c0 127 -95 205 -209 205h-33z" />
    <glyph glyph-name="ntilde.sc" unicode="&#xf7f1;" horiz-adv-x="459" 
d="M445 483l-66 -487h-23l-244 394l-54 -390h-44l67 483h26l241 -392l54 392h43zM160 545h-41c3 44 4 51 12 68c13 24 39 51 79 51c34 0 54 -11 94 -35c11 -6 47 -27 68 -27c31 0 36 32 40 61h38c3 -85 -45 -120 -90 -120c-27 0 -50 10 -87 31c-54 31 -61 33 -73 33
c-32 0 -39 -43 -40 -62z" />
    <glyph glyph-name="ograve.sc" unicode="&#xf7f2;" horiz-adv-x="441" 
d="M416 292c0 -159 -90 -298 -223 -298c-109 0 -168 77 -168 201c0 113 60 294 225 294c103 0 166 -77 166 -197zM369 300c0 91 -47 145 -119 145c-136 0 -178 -165 -178 -260c0 -96 46 -147 122 -147c110 0 175 120 175 262zM96 664h126l122 -127h-46z" />
    <glyph glyph-name="oacute.sc" unicode="&#xf7f3;" horiz-adv-x="441" 
d="M416 292c0 -159 -90 -298 -223 -298c-109 0 -168 77 -168 201c0 113 60 294 225 294c103 0 166 -77 166 -197zM369 300c0 91 -47 145 -119 145c-136 0 -178 -165 -178 -260c0 -96 46 -147 122 -147c110 0 175 120 175 262zM465 664l-202 -127h-46l122 127h126z" />
    <glyph glyph-name="ocircumflex.sc" unicode="&#xf7f4;" horiz-adv-x="441" 
d="M416 292c0 -159 -90 -298 -223 -298c-109 0 -168 77 -168 201c0 113 60 294 225 294c103 0 166 -77 166 -197zM369 300c0 91 -47 145 -119 145c-136 0 -178 -165 -178 -260c0 -96 46 -147 122 -147c110 0 175 120 175 262zM328 669l90 -132h-52l-76 87l-150 -87h-51
l159 132h80z" />
    <glyph glyph-name="otilde.sc" unicode="&#xf7f5;" horiz-adv-x="441" 
d="M416 292c0 -159 -90 -298 -223 -298c-109 0 -168 77 -168 201c0 113 60 294 225 294c103 0 166 -77 166 -197zM369 300c0 91 -47 145 -119 145c-136 0 -178 -165 -178 -260c0 -96 46 -147 122 -147c110 0 175 120 175 262zM151 545h-41c3 44 4 51 12 68
c13 24 39 51 79 51c34 0 54 -11 94 -35c11 -6 47 -27 68 -27c31 0 36 32 40 61h38c3 -85 -45 -120 -90 -120c-27 0 -50 10 -87 31c-54 31 -61 33 -73 33c-32 0 -39 -43 -40 -62z" />
    <glyph glyph-name="odieresis.sc" unicode="&#xf7f6;" horiz-adv-x="441" 
d="M416 292c0 -159 -90 -298 -223 -298c-109 0 -168 77 -168 201c0 113 60 294 225 294c103 0 166 -77 166 -197zM369 300c0 91 -47 145 -119 145c-136 0 -178 -165 -178 -260c0 -96 46 -147 122 -147c110 0 175 120 175 262zM453 605c0 -19 -17 -45 -45 -45
c-24 0 -44 21 -44 45s19 43 43 43c27 0 46 -19 46 -43zM207 605c0 -22 -17 -44 -44 -44c-24 0 -43 20 -43 45s19 44 42 44c27 0 45 -22 45 -45z" />
    <glyph glyph-name="oe.sc" unicode="&#xf6fa;" horiz-adv-x="690" 
d="M649 42l-6 -42h-388c-178 0 -230 122 -230 212c0 89 44 166 75 197c60 59 129 75 281 75h258l-6 -42h-203l-24 -176h192l-6 -42h-192l-25 -182h274zM386 442c-33 1 -68 2 -86 1c-64 -2 -126 -18 -167 -65c-52 -59 -61 -121 -61 -166c0 -102 62 -170 179 -170h81z" />
    <glyph glyph-name="oslash.sc" unicode="&#xf7f8;" horiz-adv-x="441" 
d="M418 509l-47 -73c29 -34 45 -83 45 -144c0 -159 -90 -298 -223 -298c-37 0 -68 9 -93 25l-44 -68l-32 19l48 74c-31 35 -47 86 -47 151c0 113 60 294 225 294c36 0 68 -9 93 -27l44 68zM369 300c0 39 -8 72 -24 96l-220 -339c19 -13 42 -19 69 -19c110 0 175 120 175 262
zM318 424c-19 14 -41 21 -68 21c-136 0 -178 -165 -178 -260c0 -43 9 -77 26 -101z" />
    <glyph glyph-name="ugrave.sc" unicode="&#xf7f9;" horiz-adv-x="442" 
d="M428 483l-43 -312c-18 -128 -110 -177 -193 -177c-91 0 -169 71 -154 182l42 307h44l-42 -304c-14 -100 48 -143 115 -143c92 0 135 74 144 140l44 307h43zM102 664h126l122 -127h-46z" />
    <glyph glyph-name="uacute.sc" unicode="&#xf7fa;" horiz-adv-x="442" 
d="M428 483l-43 -312c-18 -128 -110 -177 -193 -177c-91 0 -169 71 -154 182l42 307h44l-42 -304c-14 -100 48 -143 115 -143c92 0 135 74 144 140l44 307h43zM466 664l-202 -127h-46l122 127h126z" />
    <glyph glyph-name="ucircumflex.sc" unicode="&#xf7fb;" horiz-adv-x="442" 
d="M428 483l-43 -312c-18 -128 -110 -177 -193 -177c-91 0 -169 71 -154 182l42 307h44l-42 -304c-14 -100 48 -143 115 -143c92 0 135 74 144 140l44 307h43zM329 669l90 -132h-52l-76 87l-150 -87h-51l159 132h80z" />
    <glyph glyph-name="udieresis.sc" unicode="&#xf7fc;" horiz-adv-x="442" 
d="M428 483l-43 -312c-18 -128 -110 -177 -193 -177c-91 0 -169 71 -154 182l42 307h44l-42 -304c-14 -100 48 -143 115 -143c92 0 135 74 144 140l44 307h43zM444 605c0 -19 -17 -45 -45 -45c-24 0 -44 21 -44 45s19 43 43 43c27 0 46 -19 46 -43zM198 605
c0 -22 -17 -44 -44 -44c-24 0 -43 20 -43 45s19 44 42 44c27 0 45 -22 45 -45z" />
    <glyph glyph-name="yacute.sc" unicode="&#xf7fd;" horiz-adv-x="365" 
d="M384 483l-178 -236l-33 -247h-44l33 249l-118 234h48l97 -190l141 190h54zM427 664l-202 -127h-46l122 127h126z" />
    <glyph glyph-name="thorn.sc" unicode="&#xf7fe;" horiz-adv-x="342" 
d="M315 246c0 -67 -41 -140 -158 -140h-68l-15 -106h-44l66 484h45l-13 -106h52c81 0 135 -55 135 -132zM268 244c0 54 -36 92 -92 92h-55l-26 -188h59c93 0 114 54 114 96z" />
    <glyph glyph-name="ydieresis.sc" unicode="&#xf7ff;" horiz-adv-x="365" 
d="M384 483l-178 -236l-33 -247h-44l33 249l-118 234h48l97 -190l141 190h54zM405 605c0 -19 -17 -45 -45 -45c-24 0 -44 21 -44 45s19 43 43 43c27 0 46 -19 46 -43zM159 605c0 -22 -17 -44 -44 -44c-24 0 -43 20 -43 45s19 44 42 44c27 0 45 -22 45 -45z" />
    <glyph glyph-name="Abreve" unicode="&#x102;" horiz-adv-x="527" 
d="M340 691l157 -691h-48l-56 246h-253l-116 -246h-48l322 691h42zM308 607l-146 -315h221l-73 315h-2zM180 846h55c14 -44 58 -67 92 -67c17 0 69 4 127 67h56c-44 -70 -117 -118 -188 -118c-66 0 -130 42 -142 118z" />
    <glyph glyph-name="Amacron" unicode="&#x100;" horiz-adv-x="527" 
d="M340 691l157 -691h-48l-56 246h-253l-116 -246h-48l322 691h42zM308 607l-146 -315h221l-73 315h-2zM491 796l-9 -50h-319l9 50h319z" />
    <glyph glyph-name="Aogonek" unicode="&#x104;" horiz-adv-x="527" 
d="M570 -133v-45c-14 -4 -30 -8 -54 -8c-72 0 -107 47 -107 86c0 29 14 67 40 100l-56 246h-253l-116 -246h-48l322 691h42l157 -691c-22 -34 -36 -57 -36 -85c0 -29 25 -53 63 -53c16 0 32 3 46 5zM383 292l-73 322l-149 -322h222z" />
    <glyph glyph-name="AEacute" unicode="&#x1fc;" horiz-adv-x="781" 
d="M762 682l-6 -46h-292l-38 -267h272l-6 -46h-272l-40 -277h395l-6 -46h-442l46 323h-173l-204 -323h-53l430 682h389zM417 636h-19l-169 -267h150zM785 855l-202 -127h-46l122 127h126z" />
    <glyph glyph-name="Cacute" unicode="&#x106;" horiz-adv-x="552" 
d="M562 682l-6 -44c-34 5 -53 7 -81 7c-229 0 -387 -186 -387 -368c0 -136 94 -240 217 -240c66 0 145 27 216 73l-8 -56c-64 -38 -147 -63 -207 -63c-125 0 -270 100 -270 284c0 207 179 416 440 416c33 0 56 -2 86 -9zM607 855l-202 -127h-46l122 127h126z" />
    <glyph glyph-name="Ccaron" unicode="&#x10c;" horiz-adv-x="552" 
d="M562 682l-6 -44c-34 5 -53 7 -81 7c-229 0 -387 -186 -387 -368c0 -136 94 -240 217 -240c66 0 145 27 216 73l-8 -56c-64 -38 -147 -63 -207 -63c-125 0 -270 100 -270 284c0 207 179 416 440 416c33 0 56 -2 86 -9zM373 728l-90 132h52l76 -87l150 87h51l-159 -132h-80
z" />
    <glyph glyph-name="Ccircumflex" unicode="&#x108;" horiz-adv-x="552" 
d="M566 682l-6 -44c-34 5 -53 7 -81 7c-229 0 -387 -186 -387 -368c0 -136 94 -240 217 -240c66 0 145 27 216 73l-8 -56c-64 -38 -147 -63 -207 -63c-125 0 -270 100 -270 284c0 207 179 416 440 416c33 0 56 -2 86 -9zM476 860l90 -132h-52l-76 87l-150 -87h-51l159 132
h80z" />
    <glyph glyph-name="Cdotaccent" unicode="&#x10a;" horiz-adv-x="552" 
d="M566 682l-6 -44c-34 5 -53 7 -81 7c-229 0 -387 -186 -387 -368c0 -136 94 -240 217 -240c66 0 145 27 216 73l-8 -56c-64 -38 -147 -63 -207 -63c-125 0 -270 100 -270 284c0 207 179 416 440 416c33 0 56 -2 86 -9zM461 771c0 -23 -18 -44 -44 -44c-25 0 -44 19 -44 44
s19 44 43 44c26 0 45 -21 45 -44z" />
    <glyph glyph-name="Dcaron" unicode="&#x10e;" horiz-adv-x="638" 
d="M40 0l96 682h121c172 0 351 -121 351 -347c0 -201 -152 -335 -351 -335h-217zM179 638l-85 -594h145c244 0 317 168 317 291c0 190 -145 303 -319 303h-58zM280 728l-90 132h52l76 -87l150 87h51l-159 -132h-80z" />
    <glyph glyph-name="Dcroat" unicode="&#x110;" horiz-adv-x="640" 
d="M85 320h-81l6 44h82l44 318h125c57 0 127 -18 176 -45c108 -58 173 -172 173 -302c0 -148 -78 -263 -212 -310c-51 -19 -94 -25 -169 -25h-188zM132 320l-38 -276h109c108 0 166 12 223 45c84 50 133 140 133 244c0 183 -130 305 -325 305h-57l-38 -274h182l-7 -44h-182z
" />
    <glyph glyph-name="Ebreve" unicode="&#x114;" 
d="M484 682l-6 -46h-301l-38 -264h285l-7 -46h-284l-40 -280h403l-6 -46h-450l96 682h348zM201 846h55c14 -44 58 -67 92 -67c17 0 69 4 127 67h56c-44 -70 -117 -118 -188 -118c-66 0 -130 42 -142 118z" />
    <glyph glyph-name="Ecaron" unicode="&#x11a;" 
d="M484 682l-6 -46h-301l-38 -264h285l-7 -46h-284l-40 -280h403l-6 -46h-450l96 682h348zM276 728l-90 132h52l76 -87l150 87h51l-159 -132h-80z" />
    <glyph glyph-name="Edotaccent" unicode="&#x116;" 
d="M484 682l-6 -46h-301l-38 -264h285l-7 -46h-284l-40 -280h403l-6 -46h-450l96 682h348zM395 771c0 -23 -18 -44 -44 -44c-25 0 -44 19 -44 44s19 44 43 44c26 0 45 -21 45 -44z" />
    <glyph glyph-name="Emacron" unicode="&#x112;" 
d="M484 682l-6 -46h-301l-38 -264h285l-7 -46h-284l-40 -280h403l-6 -46h-450l96 682h348zM511 796l-9 -50h-319l9 50h319z" />
    <glyph glyph-name="Eng" unicode="&#x14a;" horiz-adv-x="666" 
d="M356 -2l-5 46c28 -6 37 -7 57 -7c80 0 113 34 132 162l32 219c15 103 -37 228 -180 228c-88 0 -171 -55 -231 -153l-75 -493h-47l102 682h47l-15 -104c48 60 122 113 234 113c127 0 238 -111 212 -284l-37 -243c-19 -126 -78 -173 -168 -173c-27 0 -38 3 -58 7z" />
    <glyph glyph-name="Eogonek" unicode="&#x118;" horiz-adv-x="522" 
d="M489 -133v-45c-14 -4 -30 -8 -54 -8c-70 0 -106 47 -106 86c0 36 19 71 40 100h-331l101 682h350l-8 -41h-301l-41 -273h288l-9 -42h-284l-43 -282h409l-7 -44h-75c-13 -19 -37 -53 -37 -86c0 -26 23 -52 63 -52c16 0 31 3 45 5z" />
    <glyph glyph-name="Gbreve" unicode="&#x11e;" horiz-adv-x="614" 
d="M634 675l-6 -45c-52 11 -82 15 -125 15c-262 0 -415 -167 -415 -362c0 -144 99 -246 240 -246c50 0 98 13 165 46l22 152h-153l6 46h200l-31 -221c-63 -43 -145 -69 -215 -69c-139 0 -286 102 -286 296c0 202 168 404 471 404c43 0 80 -4 127 -16zM310 846h55
c14 -44 58 -67 92 -67c17 0 69 4 127 67h56c-44 -70 -117 -118 -188 -118c-66 0 -130 42 -142 118z" />
    <glyph glyph-name="Gcircumflex" unicode="&#x11c;" horiz-adv-x="615" 
d="M637 675l-6 -45c-52 11 -82 15 -125 15c-262 0 -415 -167 -415 -362c0 -144 99 -246 240 -246c50 0 98 13 165 46l22 152h-153l6 46h200l-31 -221c-63 -43 -145 -69 -215 -69c-139 0 -286 102 -286 296c0 202 168 404 471 404c43 0 80 -4 127 -16zM517 860l90 -132h-52
l-76 87l-150 -87h-51l159 132h80z" />
    <glyph glyph-name="Gcommaaccent" unicode="&#x122;" horiz-adv-x="614" 
d="M634 675l-6 -45c-52 11 -82 15 -125 15c-262 0 -415 -167 -415 -362c0 -144 99 -246 240 -246c50 0 98 13 165 46l22 152h-153l6 46h200l-31 -221c-63 -43 -145 -69 -215 -69c-139 0 -286 102 -286 296c0 202 168 404 471 404c43 0 80 -4 127 -16zM196 -189l13 35
c111 -8 126 30 126 53c0 30 -32 40 -102 36l7 37c16 2 22 2 30 2c49 0 113 -11 113 -70c0 -96 -126 -96 -151 -96c-18 0 -25 2 -36 3z" />
    <glyph glyph-name="Gdotaccent" unicode="&#x120;" horiz-adv-x="615" 
d="M637 675l-6 -45c-52 11 -82 15 -125 15c-262 0 -415 -167 -415 -362c0 -144 99 -246 240 -246c50 0 98 13 165 46l22 152h-153l6 46h200l-31 -221c-63 -43 -145 -69 -215 -69c-139 0 -286 102 -286 296c0 202 168 404 471 404c43 0 80 -4 127 -16zM507 771
c0 -23 -18 -44 -44 -44c-25 0 -44 19 -44 44s19 44 43 44c26 0 45 -21 45 -44z" />
    <glyph glyph-name="Hbar" unicode="&#x126;" horiz-adv-x="698" 
d="M661 543h80l-7 -43h-79l-74 -500h-48l48 325h-446l-48 -325h-48l75 500h-80l7 43h79l21 139h47l-21 -139h447l21 139h47zM607 500h-446l-20 -133h446z" />
    <glyph glyph-name="Hcircumflex" unicode="&#x124;" horiz-adv-x="698" 
d="M678 682l-96 -682h-47l45 325h-448l-45 -325h-47l95 682h47l-44 -311h449l44 311h47zM487 860l90 -132h-52l-76 87l-150 -87h-51l159 132h80z" />
    <glyph glyph-name="Ibreve" unicode="&#x12c;" horiz-adv-x="198" 
d="M183 682l-96 -682h-47l96 682h47zM18 846h55c14 -44 58 -67 92 -67c17 0 69 4 127 67h56c-44 -70 -117 -118 -188 -118c-66 0 -130 42 -142 118z" />
    <glyph glyph-name="IJ" unicode="&#x132;" horiz-adv-x="396" 
d="M189 682l-101 -682h-48l102 682h47zM389 682l-105 -711c-12 -85 -22 -108 -36 -130c-28 -46 -79 -72 -133 -72c-17 0 -36 2 -58 8l-9 49c20 -9 42 -11 64 -11c93 0 113 76 126 162l104 705h47z" />
    <glyph glyph-name="Imacron" unicode="&#x12a;" horiz-adv-x="198" 
d="M183 682l-96 -682h-47l96 682h47zM340 796l-9 -50h-319l9 50h319z" />
    <glyph glyph-name="Iogonek" unicode="&#x12e;" horiz-adv-x="201" 
d="M160 -133l-7 -45c-13 -4 -29 -8 -53 -8c-73 0 -107 48 -107 87c0 14 3 55 48 109l101 672h47l-101 -682c-26 -32 -38 -66 -38 -86c0 -24 22 -52 64 -52c17 0 33 3 46 5z" />
    <glyph glyph-name="Itilde" unicode="&#x128;" horiz-adv-x="198" 
d="M183 682l-96 -682h-47l96 682h47zM57 728h-41c3 44 4 51 12 69c13 23 39 51 79 51c34 0 54 -12 94 -36c11 -6 47 -27 68 -27c31 0 36 32 40 62h38c3 -86 -45 -121 -90 -121c-27 0 -50 11 -87 31c-55 30 -61 33 -73 33c-32 0 -39 -43 -40 -62z" />
    <glyph glyph-name="Jcircumflex" unicode="&#x134;" horiz-adv-x="198" 
d="M186 682l-106 -748c-18 -129 -92 -164 -164 -164c-21 0 -39 3 -57 8l-9 49c17 -6 40 -10 65 -10c75 0 109 43 126 161l99 704h46zM249 860l90 -132h-52l-76 87l-150 -87h-51l159 132h80z" />
    <glyph glyph-name="Kcommaaccent" unicode="&#x136;" horiz-adv-x="567" 
d="M577 682l-375 -312l359 -370h-62l-360 370l-52 -370h-47l96 682h47l-42 -300l367 300h69zM133 -189l13 35c111 -8 126 30 126 53c0 30 -32 40 -102 36l7 37c16 2 22 2 30 2c49 0 113 -11 113 -70c0 -96 -126 -96 -151 -96c-18 0 -25 2 -36 3z" />
    <glyph glyph-name="Lacute" unicode="&#x139;" horiz-adv-x="420" 
d="M183 682l-90 -636h306l-6 -46h-353l96 682h47zM376 855l-202 -127h-46l122 127h126z" />
    <glyph glyph-name="Lcaron" unicode="&#x13d;" horiz-adv-x="420" 
d="M186 682l-95 -639h305l-7 -43h-352l103 682h46zM401 682l-8 -60c-14 -107 -71 -138 -91 -145l4 29c10 9 39 35 43 85h-20l13 91h59z" />
    <glyph glyph-name="Lcommaaccent" unicode="&#x13b;" horiz-adv-x="420" 
d="M183 682l-90 -636h306l-6 -46h-353l96 682h47zM88 -189l13 35c111 -8 126 30 126 53c0 30 -32 40 -102 36l7 37c16 2 22 2 30 2c49 0 113 -11 113 -70c0 -96 -126 -96 -151 -96c-18 0 -25 2 -36 3z" />
    <glyph glyph-name="Ldot" unicode="&#x13f;" horiz-adv-x="417" 
d="M186 682l-95 -639h305l-7 -43h-352l101 682h48zM314 326c0 -23 -17 -44 -43 -44c-24 0 -43 19 -43 44c0 24 18 43 42 43c25 0 44 -19 44 -43z" />
    <glyph glyph-name="Nacute" unicode="&#x143;" horiz-adv-x="676" 
d="M661 682l-97 -688h-21l-374 588l-82 -582h-47l96 682h27l369 -584l82 584h47zM608 855l-202 -127h-46l122 127h126z" />
    <glyph glyph-name="Ncaron" unicode="&#x147;" horiz-adv-x="676" 
d="M661 682l-97 -688h-21l-374 588l-82 -582h-47l96 682h27l369 -584l82 584h47zM364 728l-90 132h52l76 -87l150 87h51l-159 -132h-80z" />
    <glyph glyph-name="Ncommaaccent" unicode="&#x145;" horiz-adv-x="676" 
d="M661 682l-97 -688h-21l-374 588l-82 -582h-47l96 682h27l369 -584l82 584h47zM200 -189l13 35c111 -8 126 30 126 53c0 30 -32 40 -102 36l7 37c16 2 22 2 30 2c49 0 113 -11 113 -70c0 -96 -126 -96 -151 -96c-18 0 -25 2 -36 3z" />
    <glyph glyph-name="Obreve" unicode="&#x14e;" horiz-adv-x="656" 
d="M620 415c0 -228 -131 -424 -322 -424c-156 0 -241 106 -241 283c0 163 88 417 325 417c147 0 238 -105 238 -276zM568 426c0 135 -72 219 -186 219c-211 0 -273 -250 -273 -386c0 -142 70 -222 190 -222c172 0 269 183 269 389zM249 846h55c14 -44 58 -67 92 -67
c17 0 69 4 127 67h56c-44 -70 -117 -118 -188 -118c-66 0 -130 42 -142 118z" />
    <glyph glyph-name="Ohungarumlaut" unicode="&#x150;" horiz-adv-x="628" 
d="M608 415c0 -228 -131 -424 -322 -424c-156 0 -241 106 -241 283c0 163 88 417 325 417c147 0 238 -105 238 -276zM556 426c0 135 -72 219 -186 219c-211 0 -273 -250 -273 -386c0 -142 70 -222 190 -222c172 0 269 183 269 389zM460 857l-145 -129h-37l77 129h105z
M607 857l-145 -129h-37l78 129h104z" />
    <glyph glyph-name="Omacron" unicode="&#x14c;" horiz-adv-x="628" 
d="M608 415c0 -228 -131 -424 -322 -424c-156 0 -241 106 -241 283c0 163 88 417 325 417c147 0 238 -105 238 -276zM556 426c0 135 -72 219 -186 219c-211 0 -273 -250 -273 -386c0 -142 70 -222 190 -222c172 0 269 183 269 389zM563 796l-9 -50h-319l9 50h319z" />
    <glyph glyph-name="Oslashacute" unicode="&#x1fe;" horiz-adv-x="628" 
d="M148 28l-40 -62l-29 18l43 66c-39 34 -77 109 -77 224c0 163 88 417 325 417c60 0 116 -21 139 -43l33 51l26 -17l-34 -53c48 -50 74 -128 74 -214c0 -228 -131 -424 -322 -424c-63 0 -101 16 -138 37zM149 93l334 515c-30 24 -69 37 -113 37c-211 0 -273 -250 -273 -386
c0 -71 19 -127 52 -166zM506 585l-330 -514c21 -17 56 -34 111 -34c172 0 269 183 269 389c0 68 -17 121 -50 159zM561 855l-202 -127h-46l122 127h126z" />
    <glyph glyph-name="Racute" unicode="&#x154;" 
d="M135 682h156c120 0 184 -78 184 -177c0 -94 -61 -165 -157 -185c21 -14 40 -45 70 -98l124 -222h-55l-114 204c-55 98 -56 116 -117 116h-15h-79l-45 -320h-47zM176 638l-38 -274h103h21c101 0 161 54 161 140c0 54 -29 134 -136 134h-111zM495 855l-202 -127h-46
l122 127h126z" />
    <glyph glyph-name="Rcaron" unicode="&#x158;" 
d="M135 682h156c120 0 184 -78 184 -177c0 -94 -61 -165 -157 -185c21 -14 40 -45 70 -98l124 -222h-55l-114 204c-55 98 -56 116 -117 116h-15h-79l-45 -320h-47zM176 638l-38 -274h103h21c101 0 161 54 161 140c0 54 -29 134 -136 134h-111zM226 728l-90 132h52l76 -87
l150 87h51l-159 -132h-80z" />
    <glyph glyph-name="Rcommaaccent" unicode="&#x156;" 
d="M135 682h156c120 0 184 -78 184 -177c0 -94 -61 -165 -157 -185c21 -14 40 -45 70 -98l124 -222h-55l-114 204c-55 98 -56 116 -117 116h-15h-79l-45 -320h-47zM176 638l-38 -274h103h21c101 0 161 54 161 140c0 54 -29 134 -136 134h-111zM122 -189l13 35
c111 -8 126 30 126 53c0 30 -32 40 -102 36l7 37c16 2 22 2 30 2c49 0 113 -11 113 -70c0 -96 -126 -96 -151 -96c-18 0 -25 2 -36 3z" />
    <glyph glyph-name="Sacute" unicode="&#x15a;" horiz-adv-x="407" 
d="M389 653l-12 -43c-53 27 -79 35 -113 35c-69 0 -126 -58 -126 -129c0 -154 223 -147 223 -341c0 -106 -80 -184 -187 -184c-46 0 -111 21 -144 46l12 46c55 -35 87 -46 127 -46c74 0 140 47 140 139c0 153 -223 169 -223 334c0 103 77 181 178 181c45 0 98 -16 125 -38z
M458 855l-202 -127h-46l122 127h126z" />
    <glyph glyph-name="uni015E" unicode="&#x15e;" horiz-adv-x="407" 
d="M203 -7l-12 -24c36 -14 41 -46 41 -57c0 -6 0 -96 -146 -96c-22 0 -35 1 -45 2l14 36c82 -6 125 20 125 55c0 32 -42 35 -51 36l28 47c-45 4 -101 27 -125 45l12 46c44 -28 80 -47 126 -47c81 0 141 56 141 137s-55 121 -109 160c-90 64 -114 124 -114 180
c0 78 59 178 178 178c66 0 113 -28 125 -38l-12 -43c-39 21 -73 36 -112 36c-77 0 -128 -65 -128 -129c0 -73 48 -109 116 -160c34 -26 108 -82 108 -184c0 -71 -45 -165 -160 -180z" />
    <glyph glyph-name="Scircumflex" unicode="&#x15c;" horiz-adv-x="407" 
d="M389 653l-12 -43c-53 27 -79 35 -113 35c-69 0 -126 -58 -126 -129c0 -154 223 -147 223 -341c0 -106 -80 -184 -187 -184c-46 0 -111 21 -144 46l12 46c55 -35 87 -46 127 -46c74 0 140 47 140 139c0 153 -223 169 -223 334c0 103 77 181 178 181c45 0 98 -16 125 -38z
M358 860l90 -132h-52l-76 87l-150 -87h-51l159 132h80z" />
    <glyph glyph-name="uni0218" unicode="&#x218;" horiz-adv-x="407" 
d="M389 653l-12 -43c-53 27 -79 35 -113 35c-69 0 -126 -58 -126 -129c0 -154 223 -147 223 -341c0 -106 -80 -184 -187 -184c-46 0 -111 21 -144 46l12 46c55 -35 87 -46 127 -46c74 0 140 47 140 139c0 153 -223 169 -223 334c0 103 77 181 178 181c45 0 98 -16 125 -38z
M50 -189l13 35c111 -8 126 30 126 53c0 30 -32 40 -102 36l7 37c16 2 22 2 30 2c49 0 113 -11 113 -70c0 -96 -126 -96 -151 -96c-18 0 -25 2 -36 3z" />
    <glyph glyph-name="Tbar" unicode="&#x166;" horiz-adv-x="458" 
d="M269 363h180l-7 -44h-179l-49 -319h-47l48 319h-180l7 44h179l41 277h-202l7 42h450l-7 -42h-199z" />
    <glyph glyph-name="Tcaron" unicode="&#x164;" horiz-adv-x="458" 
d="M517 682l-6 -46h-202l-90 -636h-47l90 636h-202l6 46h451zM245 728l-90 132h52l76 -87l150 87h51l-159 -132h-80z" />
    <glyph glyph-name="Tcommaaccent" unicode="&#x162;" horiz-adv-x="458" 
d="M517 682l-6 -46h-202l-90 -636h-47l90 636h-202l6 46h451zM91 -189l13 35c111 -8 126 30 126 53c0 30 -32 40 -102 36l7 37c16 2 22 2 30 2c49 0 113 -11 113 -70c0 -96 -126 -96 -151 -96c-18 0 -25 2 -36 3z" />
    <glyph glyph-name="Ubreve" unicode="&#x16c;" horiz-adv-x="635" 
d="M627 682l-63 -441c-26 -180 -159 -250 -279 -250c-130 0 -242 99 -220 254l62 437h47l-61 -430c-21 -151 76 -215 180 -215c143 0 210 110 224 208l63 437h47zM238 846h55c14 -44 58 -67 92 -67c17 0 69 4 127 67h56c-44 -70 -117 -118 -188 -118c-66 0 -130 42 -142 118
z" />
    <glyph glyph-name="Uhungarumlaut" unicode="&#x170;" horiz-adv-x="635" 
d="M627 682l-63 -441c-26 -180 -159 -250 -279 -250c-130 0 -242 99 -220 254l62 437h47l-61 -430c-21 -151 76 -215 180 -215c143 0 210 110 224 208l63 437h47zM461 857l-145 -129h-37l77 129h105zM608 857l-145 -129h-37l78 129h104z" />
    <glyph glyph-name="Umacron" unicode="&#x16a;" horiz-adv-x="635" 
d="M627 682l-63 -441c-26 -180 -159 -250 -279 -250c-130 0 -242 99 -220 254l62 437h47l-61 -430c-21 -151 76 -215 180 -215c143 0 210 110 224 208l63 437h47zM558 796l-9 -50h-319l9 50h319z" />
    <glyph glyph-name="Uogonek" unicode="&#x172;" horiz-adv-x="632" 
d="M508 -133l-6 -45c-14 -4 -30 -8 -54 -8c-72 0 -107 48 -107 86c0 15 2 54 51 113c-24 -9 -59 -22 -108 -22c-140 0 -223 105 -223 202c0 4 0 40 8 92l60 397h48l-61 -409c-6 -41 -7 -64 -7 -80c0 -105 92 -159 182 -159c60 0 131 24 174 85c23 33 43 70 55 154l60 409h48
l-61 -415c-15 -103 -36 -138 -96 -218c-48 -64 -72 -99 -72 -135c0 -27 24 -52 63 -52c17 0 32 3 46 5z" />
    <glyph glyph-name="Uring" unicode="&#x16e;" horiz-adv-x="635" 
d="M627 682l-63 -441c-26 -180 -159 -250 -279 -250c-130 0 -242 99 -220 254l62 437h47l-61 -430c-21 -151 76 -215 180 -215c143 0 210 110 224 208l63 437h47zM394 936c57 0 104 -46 104 -104c0 -57 -47 -104 -104 -104c-58 0 -104 47 -104 104c0 58 47 104 104 104z
M393 904c-39 0 -72 -31 -72 -72c0 -39 32 -72 72 -72s73 33 73 72c0 41 -33 72 -73 72z" />
    <glyph glyph-name="Utilde" unicode="&#x168;" horiz-adv-x="635" 
d="M627 682l-63 -441c-26 -180 -159 -250 -279 -250c-130 0 -242 99 -220 254l62 437h47l-61 -430c-21 -151 76 -215 180 -215c143 0 210 110 224 208l63 437h47zM275 728h-41c3 44 4 51 12 69c13 23 39 51 79 51c34 0 54 -12 94 -36c11 -6 47 -27 68 -27c31 0 36 32 40 62
h38c3 -86 -45 -121 -90 -121c-27 0 -50 11 -87 31c-55 30 -61 33 -73 33c-32 0 -39 -43 -40 -62z" />
    <glyph glyph-name="Wacute" unicode="&#x1e82;" horiz-adv-x="902" 
d="M957 682l-332 -691h-20l-106 569h-2l-260 -569h-21l-148 691h47l121 -575h2l265 575h19l107 -575h2l275 575h51zM693 855l-202 -127h-46l122 127h126z" />
    <glyph glyph-name="Wcircumflex" unicode="&#x174;" horiz-adv-x="902" 
d="M957 682l-332 -691h-20l-106 569h-2l-260 -569h-21l-148 691h47l121 -575h2l265 575h19l107 -575h2l275 575h51zM598 860l90 -132h-52l-76 87l-150 -87h-51l159 132h80z" />
    <glyph glyph-name="Wdieresis" unicode="&#x1e84;" horiz-adv-x="902" 
d="M957 682l-332 -691h-20l-106 569h-2l-260 -569h-21l-148 691h47l121 -575h2l265 575h19l107 -575h2l275 575h51zM696 771c0 -20 -17 -45 -45 -45c-24 0 -44 20 -44 44s19 44 43 44c27 0 46 -20 46 -43zM450 771c0 -23 -17 -44 -44 -44c-24 0 -43 19 -43 44s19 44 42 44
c27 0 45 -21 45 -44z" />
    <glyph glyph-name="Wgrave" unicode="&#x1e80;" horiz-adv-x="902" 
d="M957 682l-332 -691h-20l-106 569h-2l-260 -569h-21l-148 691h47l121 -575h2l265 575h19l107 -575h2l275 575h51zM354 855h126l122 -127h-46z" />
    <glyph glyph-name="Ycircumflex" unicode="&#x176;" horiz-adv-x="461" 
d="M529 682l-255 -329l-49 -353h-47l49 353l-171 329h51l149 -282l216 282h57zM373 860l90 -132h-52l-76 87l-150 -87h-51l159 132h80z" />
    <glyph glyph-name="Ygrave" unicode="&#x1ef2;" horiz-adv-x="461" 
d="M529 682l-255 -329l-49 -353h-47l49 353l-171 329h51l149 -282l216 282h57zM97 855h126l122 -127h-46z" />
    <glyph glyph-name="Zacute" unicode="&#x179;" horiz-adv-x="622" 
d="M82 46h483l-6 -46h-566v16l570 620h-461l6 46h544v-16zM562 855l-202 -127h-46l122 127h126z" />
    <glyph glyph-name="Zdotaccent" unicode="&#x17b;" horiz-adv-x="622" 
d="M82 46h483l-6 -46h-566v16l570 620h-461l6 46h544v-16zM442 771c0 -23 -18 -44 -44 -44c-25 0 -44 19 -44 44s19 44 43 44c26 0 45 -21 45 -44z" />
    <glyph glyph-name="Idotaccent" unicode="&#x130;" horiz-adv-x="198" 
d="M183 682l-96 -682h-47l96 682h47zM224 771c0 -23 -18 -44 -44 -44c-25 0 -44 19 -44 44s19 44 43 44c26 0 45 -21 45 -44z" />
    <glyph glyph-name="abreve" unicode="&#x103;" horiz-adv-x="463" 
d="M427 449l-63 -449h-44l7 53c-39 -35 -98 -62 -154 -62c-91 0 -157 76 -157 180c0 140 110 287 319 287c34 0 71 -4 92 -9zM334 104l45 315c-16 4 -34 6 -55 6c-137 0 -261 -104 -261 -260c0 -83 46 -137 117 -137c55 0 103 27 154 76zM385 633h36
c-24 -78 -78 -127 -138 -127c-64 0 -107 51 -108 127h41c3 -53 27 -83 65 -83c37 0 80 35 104 83z" />
    <glyph glyph-name="amacron" unicode="&#x101;" horiz-adv-x="463" 
d="M427 449l-63 -449h-44l7 53c-39 -35 -98 -62 -154 -62c-91 0 -157 76 -157 180c0 140 110 287 319 287c34 0 71 -4 92 -9zM334 104l45 315c-16 4 -34 6 -55 6c-137 0 -261 -104 -261 -260c0 -83 46 -137 117 -137c55 0 103 27 154 76zM418 623l-7 -51h-267l7 51h267z" />
    <glyph glyph-name="aogonek" unicode="&#x105;" horiz-adv-x="461" 
d="M426 -120v-41c-12 -3 -27 -7 -48 -7c-65 0 -98 42 -98 78c0 23 10 55 36 90l8 52c-27 -20 -79 -61 -154 -61c-78 0 -155 63 -155 180c0 125 95 287 320 287c31 0 61 -3 91 -9l-66 -449c-22 -32 -33 -56 -33 -77c0 -23 21 -47 58 -47c15 0 30 2 41 4zM331 103l47 317
l-54 2c-143 0 -259 -108 -259 -258c0 -84 46 -136 117 -136c67 0 125 48 149 75z" />
    <glyph glyph-name="aeacute" unicode="&#x1fd;" horiz-adv-x="656" 
d="M591 94l-7 -51c-38 -28 -107 -52 -153 -52c-62 0 -124 37 -142 85c-48 -49 -120 -85 -174 -85c-58 0 -100 39 -100 93c0 91 114 162 277 173l7 61c6 53 -17 99 -82 99c-47 0 -99 -22 -158 -78l-9 42c55 50 115 77 173 77c48 0 85 -24 109 -71c40 50 80 71 132 71
c110 0 170 -101 153 -223h-287c-6 -35 -14 -81 -14 -107c0 -57 46 -96 111 -96c52 0 110 22 164 62zM334 274h243c9 81 -37 143 -110 143c-66 0 -118 -46 -133 -143zM270 105l16 116c-119 -12 -229 -58 -229 -136c0 -30 28 -53 62 -53c39 0 96 27 151 73zM508 660l-152 -154
h-33l105 154h80z" />
    <glyph glyph-name="cacute" unicode="&#x107;" horiz-adv-x="385" 
d="M380 449l-7 -48c-38 10 -57 13 -85 13c-147 0 -215 -121 -215 -228c0 -93 60 -154 151 -154c43 0 76 14 128 37l-7 -47c-43 -21 -86 -31 -132 -31c-112 0 -187 81 -187 200c0 121 84 267 266 267c29 0 58 -3 88 -9zM387 660l-152 -154h-33l105 154h80z" />
    <glyph glyph-name="ccaron" unicode="&#x10d;" horiz-adv-x="385" 
d="M380 449l-7 -48c-38 10 -57 13 -85 13c-147 0 -215 -121 -215 -228c0 -93 60 -154 151 -154c43 0 76 14 128 37l-7 -47c-43 -21 -86 -31 -132 -31c-112 0 -187 81 -187 200c0 121 84 267 266 267c29 0 58 -3 88 -9zM238 506l-9 197h36l21 -135l149 135h39l-180 -197h-56z
" />
    <glyph glyph-name="ccircumflex" unicode="&#x109;" horiz-adv-x="385" 
d="M380 449l-7 -48c-38 10 -57 13 -85 13c-147 0 -215 -121 -215 -228c0 -93 60 -154 151 -154c43 0 76 14 128 37l-7 -47c-43 -21 -86 -31 -132 -31c-112 0 -187 81 -187 200c0 121 84 267 266 267c29 0 58 -3 88 -9zM372 703l9 -197h-36l-21 135l-149 -135h-39l180 197h56
z" />
    <glyph glyph-name="cdotaccent" unicode="&#x10b;" horiz-adv-x="385" 
d="M380 449l-7 -48c-38 10 -57 13 -85 13c-147 0 -215 -121 -215 -228c0 -93 60 -154 151 -154c43 0 76 14 128 37l-7 -47c-43 -21 -86 -31 -132 -31c-112 0 -187 81 -187 200c0 121 84 267 266 267c29 0 58 -3 88 -9zM276 637c24 0 44 -20 44 -44s-20 -44 -44 -44
s-44 20 -44 44s20 44 44 44z" />
    <glyph glyph-name="dcaron" unicode="&#x10f;" horiz-adv-x="491" 
d="M466 682l-99 -677c-55 -13 -107 -14 -118 -14c-183 0 -229 134 -229 207s50 260 302 260c30 0 50 -2 66 -4l34 228h44zM328 38l55 380c-16 2 -37 4 -61 4c-195 0 -256 -142 -256 -226c0 -143 132 -169 190 -169c27 0 45 2 72 11zM574 691l-8 -56
c-14 -95 -42 -131 -91 -149l4 29c26 16 38 37 43 85h-21l14 91h59z" />
    <glyph glyph-name="dcroat" unicode="&#x111;" horiz-adv-x="461" 
d="M452 584h74l-6 -40h-73l-80 -539c-55 -13 -106 -14 -118 -14c-183 0 -229 134 -229 207s50 260 302 260c30 0 51 -2 67 -4l13 90h-148l6 40h148l15 98h44zM328 38l55 380c-16 2 -37 4 -60 4c-181 0 -256 -127 -256 -226c0 -143 131 -169 189 -169c27 0 44 4 72 11z" />
    <glyph glyph-name="ebreve" unicode="&#x115;" horiz-adv-x="436" 
d="M370 88v-47c-39 -30 -89 -50 -141 -50c-120 0 -199 86 -199 216c0 141 91 251 208 251c96 0 160 -71 160 -190c0 -14 -1 -24 -2 -34h-317c-1 -9 -2 -19 -2 -29c0 -80 49 -173 153 -173c46 0 96 20 140 56zM86 273h268c4 93 -46 144 -117 144c-70 0 -139 -65 -151 -144z
M356 633h36c-24 -78 -78 -127 -138 -127c-64 0 -107 51 -108 127h41c3 -53 27 -83 65 -83c37 0 80 35 104 83z" />
    <glyph glyph-name="ecaron" unicode="&#x11b;" horiz-adv-x="436" 
d="M370 88v-47c-39 -30 -89 -50 -141 -50c-120 0 -199 86 -199 216c0 141 91 251 208 251c96 0 160 -71 160 -190c0 -14 -1 -24 -2 -34h-317c-1 -9 -2 -19 -2 -29c0 -80 49 -173 153 -173c46 0 96 20 140 56zM86 273h268c4 93 -46 144 -117 144c-70 0 -139 -65 -151 -144z
M217 506l-9 197h36l21 -135l149 135h39l-180 -197h-56z" />
    <glyph glyph-name="edotaccent" unicode="&#x117;" horiz-adv-x="436" 
d="M370 88v-47c-39 -30 -89 -50 -141 -50c-120 0 -199 86 -199 216c0 141 91 251 208 251c96 0 160 -71 160 -190c0 -14 -1 -24 -2 -34h-317c-1 -9 -2 -19 -2 -29c0 -80 49 -173 153 -173c46 0 96 20 140 56zM86 273h268c4 93 -46 144 -117 144c-70 0 -139 -65 -151 -144z
M270 637c24 0 44 -20 44 -44s-20 -44 -44 -44s-44 20 -44 44s20 44 44 44z" />
    <glyph glyph-name="emacron" unicode="&#x113;" horiz-adv-x="436" 
d="M370 88v-47c-39 -30 -89 -50 -141 -50c-120 0 -199 86 -199 216c0 141 91 251 208 251c96 0 160 -71 160 -190c0 -14 -1 -24 -2 -34h-317c-1 -9 -2 -19 -2 -29c0 -80 49 -173 153 -173c46 0 96 20 140 56zM86 273h268c4 93 -46 144 -117 144c-70 0 -139 -65 -151 -144z
M401 623l-7 -51h-267l7 51h267z" />
    <glyph glyph-name="eng" unicode="&#x14b;" horiz-adv-x="458" 
d="M151 -221l8 39c17 -5 29 -8 44 -8s54 4 77 46c16 27 24 76 32 128l48 291c1 8 5 30 5 56c0 85 -73 86 -80 86c-81 0 -167 -94 -170 -98l-47 -319h-45l67 449h44l-11 -77c30 34 100 86 173 86c63 0 113 -51 113 -119c0 -16 -1 -31 -3 -46l-45 -293
c-22 -142 -36 -231 -157 -231c-28 0 -40 5 -53 10z" />
    <glyph glyph-name="eogonek" unicode="&#x119;" horiz-adv-x="436" 
d="M310 -120v-41c-12 -3 -27 -7 -48 -7c-65 0 -97 43 -97 78c0 21 9 51 31 82c-94 12 -166 91 -166 215c0 164 118 251 208 251c51 0 132 -27 153 -132c8 -39 7 -67 7 -86h-319c-1 -10 -3 -20 -3 -35c0 -77 46 -174 153 -174c58 0 109 31 141 57v-51
c-26 -19 -70 -42 -131 -45c-16 -23 -27 -48 -27 -69c0 -22 19 -47 57 -47c15 0 29 2 41 4zM85 272h269c-1 28 -1 43 -7 63c-18 60 -68 83 -108 83c-72 0 -137 -66 -154 -146z" />
    <glyph glyph-name="gbreve" unicode="&#x11f;" horiz-adv-x="427" 
d="M448 458l-5 -33h-126v-2c45 -27 66 -68 66 -122c0 -55 -23 -98 -54 -129c-40 -40 -99 -46 -148 -53c-51 -7 -87 -18 -87 -46c0 -24 22 -29 92 -46c95 -24 185 -46 185 -128c0 -58 -54 -129 -200 -129c-128 0 -181 56 -181 112c0 57 54 92 154 117v2c-60 12 -92 36 -92 68
s32 56 92 67v2c-60 21 -96 75 -96 142c0 97 83 178 186 178h214zM90 278c0 -57 37 -119 110 -119c110 0 139 107 139 148c0 72 -60 114 -115 114c-71 0 -134 -65 -134 -143zM189 -18c-106 -17 -157 -59 -157 -107c0 -44 51 -72 133 -72c121 0 164 47 164 93
c0 45 -47 67 -140 86zM368 633h36c-24 -78 -78 -127 -138 -127c-64 0 -107 51 -108 127h41c3 -53 27 -83 65 -83c37 0 80 35 104 83z" />
    <glyph glyph-name="gcircumflex" unicode="&#x11d;" horiz-adv-x="427" 
d="M448 458l-5 -33h-126v-2c45 -27 66 -68 66 -122c0 -55 -23 -98 -54 -129c-40 -40 -99 -46 -148 -53c-51 -7 -87 -18 -87 -46c0 -24 22 -29 92 -46c95 -24 185 -46 185 -128c0 -58 -54 -129 -200 -129c-128 0 -181 56 -181 112c0 57 54 92 154 117v2c-60 12 -92 36 -92 68
s32 56 92 67v2c-60 21 -96 75 -96 142c0 97 83 178 186 178h214zM90 278c0 -57 37 -119 110 -119c110 0 139 107 139 148c0 72 -60 114 -115 114c-71 0 -134 -65 -134 -143zM189 -18c-106 -17 -157 -59 -157 -107c0 -44 51 -72 133 -72c121 0 164 47 164 93
c0 45 -47 67 -140 86zM358 703l9 -197h-36l-21 135l-149 -135h-39l180 197h56z" />
    <glyph glyph-name="gcommaaccent" unicode="&#x123;" horiz-adv-x="426" 
d="M448 458l-5 -33h-127c9 -5 20 -12 31 -26c22 -25 35 -62 35 -99c0 -10 0 -150 -157 -174c-12 -2 -67 -10 -78 -12c-15 -3 -56 -13 -56 -41c0 -24 21 -29 98 -48c90 -21 182 -44 182 -126c0 -58 -54 -129 -200 -129c-171 0 -181 91 -181 111c0 65 80 95 154 115
c-31 6 -92 25 -92 70c0 50 68 66 92 71c-92 34 -96 123 -96 143c0 45 23 122 104 161c37 17 66 17 115 17h181zM338 304c0 86 -69 118 -114 118c-70 0 -132 -66 -132 -143c0 -57 37 -119 110 -119c85 0 136 68 136 144zM186 -18c-49 -11 -154 -34 -154 -106
c0 -48 61 -72 135 -72c146 0 164 66 164 93c0 55 -90 76 -145 85zM229 508l7 52c13 98 65 125 81 130l-3 -25c-14 -13 -35 -34 -39 -77h18l-12 -80h-52z" />
    <glyph glyph-name="gdotaccent" unicode="&#x121;" horiz-adv-x="427" 
d="M448 458l-5 -33h-126v-2c45 -27 66 -68 66 -122c0 -55 -23 -98 -54 -129c-40 -40 -99 -46 -148 -53c-51 -7 -87 -18 -87 -46c0 -24 22 -29 92 -46c95 -24 185 -46 185 -128c0 -58 -54 -129 -200 -129c-128 0 -181 56 -181 112c0 57 54 92 154 117v2c-60 12 -92 36 -92 68
s32 56 92 67v2c-60 21 -96 75 -96 142c0 97 83 178 186 178h214zM90 278c0 -57 37 -119 110 -119c110 0 139 107 139 148c0 72 -60 114 -115 114c-71 0 -134 -65 -134 -143zM189 -18c-106 -17 -157 -59 -157 -107c0 -44 51 -72 133 -72c121 0 164 47 164 93
c0 45 -47 67 -140 86zM262 637c24 0 44 -20 44 -44s-20 -44 -44 -44s-44 20 -44 44s20 44 44 44z" />
    <glyph glyph-name="hbar" unicode="&#x127;" horiz-adv-x="458" 
d="M153 578h172l-6 -40h-171l-25 -180c9 8 48 48 58 55c32 24 68 45 116 45c80 0 114 -58 114 -111c0 -15 -1 -30 -3 -45l-44 -302h-44l44 293c0 6 3 42 3 50c0 50 -40 75 -76 75c-50 0 -95 -32 -123 -56c-10 -9 -48 -52 -56 -60l-44 -302h-44l78 538h-74l6 40h74l15 104h45
z" />
    <glyph glyph-name="hcircumflex" unicode="&#x125;" horiz-adv-x="458" 
d="M163 682l-45 -324l2 -2c53 56 106 102 177 102c78 0 124 -60 113 -140l-45 -318h-44l43 313c11 80 -35 104 -74 104c-58 0 -99 -32 -180 -115l-43 -302h-44l96 682h44zM374 915l9 -197h-36l-21 135l-149 -135h-39l180 197h56z" />
    <glyph glyph-name="ibreve" unicode="&#x12d;" horiz-adv-x="177" 
d="M138 449l-63 -449h-44l63 449h44zM228 633h36c-24 -78 -78 -127 -138 -127c-64 0 -107 51 -108 127h41c3 -53 27 -83 65 -83c37 0 80 35 104 83z" />
    <glyph glyph-name="ij" unicode="&#x133;" horiz-adv-x="354" 
d="M166 643l-10 -74h-44l10 74h44zM138 449l-65 -449h-44l65 449h44zM344 643l-11 -74h-44l11 74h44zM316 449l-65 -449c-20 -131 -34 -231 -154 -231c-25 0 -43 5 -56 9l8 40c14 -4 28 -8 44 -8c83 0 96 83 109 174l70 465h44z" />
    <glyph glyph-name="imacron" unicode="&#x12b;" horiz-adv-x="177" 
d="M138 449l-63 -449h-44l63 449h44zM273 623l-7 -51h-267l7 51h267z" />
    <glyph glyph-name="iogonek" unicode="&#x12f;" horiz-adv-x="177" 
d="M139 -120l-6 -41c-12 -3 -26 -7 -48 -7c-65 0 -96 43 -96 78c0 26 13 64 41 96l65 443h44l-65 -449c-12 -17 -33 -48 -33 -77c0 -23 20 -47 57 -47c15 0 30 2 41 4zM167 643l-10 -73h-44l10 73h44z" />
    <glyph glyph-name="itilde" unicode="&#x129;" horiz-adv-x="177" 
d="M138 449l-63 -449h-44l63 449h44zM264 649h31c-6 -63 -33 -95 -80 -95c-26 0 -59 12 -91 25s-63 24 -85 24c-23 0 -38 -7 -40 -48h-31c-8 63 37 98 83 98c25 0 56 -12 86 -24c31 -12 61 -25 85 -25c27 0 38 11 42 45z" />
    <glyph glyph-name="jcircumflex" unicode="&#x135;" horiz-adv-x="177" 
d="M139 449l-66 -449c-19 -131 -33 -231 -153 -231c-25 0 -43 5 -56 9l7 40c15 -4 29 -8 45 -8c83 0 95 83 109 174l70 465h44zM199 693l9 -197h-37l-19 129l-149 -129h-40l180 197h56z" />
    <glyph glyph-name="kcommaaccent" unicode="&#x137;" horiz-adv-x="438" 
d="M163 682l-63 -444l268 211h66l-268 -211l280 -238h-63l-283 238l-33 -238h-44l96 682h44zM99 -172l11 38c59 -8 88 20 88 48c0 16 -9 27 -39 24l10 35c58 6 75 -25 75 -61c0 -40 -30 -102 -145 -84z" />
    <glyph glyph-name="lacute" unicode="&#x13a;" horiz-adv-x="171" 
d="M163 682l-96 -682h-44l96 682h44zM262 872l-152 -154h-33l105 154h80z" />
    <glyph glyph-name="lcaron" unicode="&#x13e;" horiz-adv-x="189" 
d="M166 682l-101 -682h-44l101 682h44zM273 691l-8 -60c-14 -107 -71 -138 -91 -145l5 29c10 9 38 35 42 85h-20l14 91h58z" />
    <glyph glyph-name="lcommaaccent" unicode="&#x13c;" horiz-adv-x="171" 
d="M163 682l-96 -682h-44l96 682h44zM-43 -172l11 38c59 -8 88 20 88 48c0 16 -9 27 -39 24l10 35c58 6 75 -25 75 -61c0 -40 -30 -102 -145 -84z" />
    <glyph glyph-name="ldot" unicode="&#x140;" horiz-adv-x="271" 
d="M172 682l-101 -682h-44l101 682h44zM256 335c0 -23 -18 -44 -43 -44c-24 0 -43 19 -43 43s18 44 42 44c25 0 44 -19 44 -43z" />
    <glyph glyph-name="nacute" unicode="&#x144;" horiz-adv-x="457" 
d="M135 449l-10 -74l2 -2c46 46 103 85 171 85c75 0 122 -69 111 -150l-43 -308h-44l42 302c11 79 -26 115 -78 115c-55 0 -106 -33 -169 -98l-45 -319h-44l63 449h44zM425 660l-152 -154h-33l105 154h80z" />
    <glyph glyph-name="ncaron" unicode="&#x148;" horiz-adv-x="457" 
d="M135 449l-10 -74l2 -2c46 46 103 85 171 85c75 0 122 -69 111 -150l-43 -308h-44l42 302c11 79 -26 115 -78 115c-55 0 -106 -33 -169 -98l-45 -319h-44l63 449h44zM236 506l-9 197h36l21 -135l149 135h39l-180 -197h-56z" />
    <glyph glyph-name="ncommaaccent" unicode="&#x146;" horiz-adv-x="457" 
d="M135 449l-10 -74l2 -2c46 46 103 85 171 85c75 0 122 -69 111 -150l-43 -308h-44l42 302c11 79 -26 115 -78 115c-55 0 -106 -33 -169 -98l-45 -319h-44l63 449h44zM115 -172l11 38c59 -8 88 20 88 48c0 16 -9 27 -39 24l10 35c58 6 75 -25 75 -61
c0 -40 -30 -102 -145 -84z" />
    <glyph glyph-name="obreve" unicode="&#x14f;" horiz-adv-x="448" 
d="M405 270c0 -181 -109 -279 -214 -279c-81 0 -155 61 -155 189c0 163 87 278 211 278c97 0 158 -73 158 -188zM358 270c0 90 -44 147 -113 147c-108 0 -162 -119 -162 -238c0 -91 41 -147 106 -147c94 0 169 106 169 238zM364 633h36c-24 -78 -78 -127 -138 -127
c-64 0 -107 51 -108 127h41c3 -53 27 -83 65 -83c37 0 80 35 104 83z" />
    <glyph glyph-name="ohungarumlaut" unicode="&#x151;" horiz-adv-x="421" 
d="M387 270c0 -181 -109 -279 -214 -279c-81 0 -155 61 -155 189c0 163 87 278 211 278c97 0 158 -73 158 -188zM340 270c0 90 -44 147 -113 147c-108 0 -162 -119 -162 -238c0 -91 41 -147 106 -147c94 0 169 106 169 238zM465 660l-152 -154h-33l105 154h80zM331 660
l-152 -154h-33l105 154h80z" />
    <glyph glyph-name="omacron" unicode="&#x14d;" horiz-adv-x="421" 
d="M387 270c0 -181 -109 -279 -214 -279c-81 0 -155 61 -155 189c0 163 87 278 211 278c97 0 158 -73 158 -188zM340 270c0 90 -44 147 -113 147c-108 0 -162 -119 -162 -238c0 -91 41 -147 106 -147c94 0 169 106 169 238zM401 623l-7 -51h-267l7 51h267z" />
    <glyph glyph-name="oslashacute" unicode="&#x1ff;" horiz-adv-x="421" 
d="M317 434l41 64l31 -21l-44 -69c28 -32 44 -80 44 -138c0 -181 -109 -279 -214 -279c-39 0 -62 13 -83 24l-42 -65l-32 19l46 71c-25 31 -44 76 -44 140c0 163 87 278 211 278c33 0 66 -11 86 -24zM318 367l-203 -317c17 -10 38 -18 58 -18c94 0 169 106 169 238
c0 45 -10 75 -24 97zM90 81l203 316c-19 12 -41 20 -64 20c-108 0 -162 -119 -162 -238c0 -39 9 -76 23 -98zM388 660l-152 -154h-33l105 154h80z" />
    <glyph glyph-name="racute" unicode="&#x155;" horiz-adv-x="309" 
d="M135 449l-17 -123l2 -2c66 94 101 134 158 134c16 0 30 -3 44 -9v-44c-19 9 -33 12 -46 12c-54 0 -115 -75 -166 -150l-38 -267h-44l63 449h44zM343 660l-152 -154h-33l105 154h80z" />
    <glyph glyph-name="rcaron" unicode="&#x159;" horiz-adv-x="309" 
d="M135 449l-17 -123l2 -2c66 94 101 134 158 134c16 0 30 -3 44 -9v-44c-19 9 -33 12 -46 12c-54 0 -115 -75 -166 -150l-38 -267h-44l63 449h44zM169 506l-9 197h36l21 -135l149 135h39l-180 -197h-56z" />
    <glyph glyph-name="rcommaaccent" unicode="&#x157;" horiz-adv-x="309" 
d="M135 449l-17 -123l2 -2c66 94 101 134 158 134c16 0 30 -3 44 -9v-44c-19 9 -33 12 -46 12c-54 0 -115 -75 -166 -150l-38 -267h-44l63 449h44zM-32 -172l11 38c59 -8 88 20 88 48c0 16 -9 27 -39 24l10 35c58 6 75 -25 75 -61c0 -40 -30 -102 -145 -84z" />
    <glyph glyph-name="sacute" unicode="&#x15b;" horiz-adv-x="354" 
d="M331 416v-49c-56 35 -101 50 -146 50c-50 0 -92 -28 -92 -64c0 -85 217 -115 217 -244c0 -66 -65 -118 -147 -118c-53 0 -108 22 -151 59l14 47c40 -43 89 -65 139 -65c56 0 98 30 98 72c0 93 -212 128 -212 242c0 64 62 112 143 112c46 0 93 -14 137 -42zM372 660
l-152 -154h-33l105 154h80z" />
    <glyph glyph-name="uni015F" unicode="&#x15f;" horiz-adv-x="354" 
d="M157 -9l-14 -31c40 -11 56 -40 56 -66c0 -102 -161 -90 -179 -88l14 32c36 0 117 0 117 56c0 36 -34 37 -56 38l28 63c-41 9 -74 23 -111 55l14 47c59 -61 121 -65 139 -65c79 0 98 50 98 72c0 48 -58 84 -130 130c-49 31 -82 65 -82 112c0 61 59 112 144 112
c27 0 77 -5 136 -42v-49c-29 18 -83 50 -145 50c-54 0 -91 -33 -91 -65c0 -38 43 -65 94 -96c53 -33 121 -76 121 -147c0 -73 -75 -120 -153 -118z" />
    <glyph glyph-name="scircumflex" unicode="&#x15d;" horiz-adv-x="354" 
d="M331 416v-49c-56 35 -101 50 -146 50c-50 0 -92 -28 -92 -64c0 -85 217 -115 217 -244c0 -66 -65 -118 -147 -118c-53 0 -108 22 -151 59l14 47c40 -43 89 -65 139 -65c56 0 98 30 98 72c0 93 -212 128 -212 242c0 64 62 112 143 112c46 0 93 -14 137 -42zM322 703
l9 -197h-36l-21 135l-149 -135h-39l180 197h56z" />
    <glyph glyph-name="uni0219" unicode="&#x219;" horiz-adv-x="354" 
d="M331 416v-49c-56 35 -101 50 -146 50c-50 0 -92 -28 -92 -64c0 -85 217 -115 217 -244c0 -66 -65 -118 -147 -118c-53 0 -108 22 -151 59l14 47c40 -43 89 -65 139 -65c56 0 98 30 98 72c0 93 -212 128 -212 242c0 64 62 112 143 112c46 0 93 -14 137 -42zM46 -172l11 38
c59 -8 88 20 88 48c0 16 -9 27 -39 24l10 35c58 6 75 -25 75 -61c0 -40 -30 -102 -145 -84z" />
    <glyph glyph-name="tbar" unicode="&#x167;" horiz-adv-x="281" 
d="M138 288h127l-8 -40h-127l-8 -42c-8 -43 -13 -70 -13 -104c0 -54 42 -77 70 -77c9 0 44 0 89 38v-41c-47 -31 -83 -31 -93 -31c-17 0 -110 10 -110 119c0 31 11 90 13 101l7 37h-88l7 40h88l25 127h-87l7 34h85l19 103h44l-18 -103h121l-5 -34h-122z" />
    <glyph glyph-name="tcaron" unicode="&#x165;" horiz-adv-x="394" 
d="M410 682l-8 -60c-14 -107 -71 -138 -91 -145l5 29c10 9 38 35 42 85h-20l14 91h58zM281 449l-5 -33h-126l-43 -290c-2 -13 -3 -25 -3 -36c0 -41 17 -64 63 -64c26 0 56 11 83 37v-41c-28 -23 -58 -32 -90 -32c-67 0 -99 35 -99 100c0 12 1 28 3 43l43 283h-82l5 33h82
l15 103h42l-15 -103h127z" />
    <glyph glyph-name="tcommaaccent" unicode="&#x163;" horiz-adv-x="291" 
d="M36 -172l11 38c59 -8 88 20 88 48c0 16 -9 27 -39 24l10 35c58 6 75 -25 75 -61c0 -40 -30 -102 -145 -84zM281 449l-5 -33h-126l-43 -290c-2 -13 -3 -25 -3 -36c0 -41 17 -64 63 -64c26 0 56 11 83 37v-41c-28 -23 -58 -32 -90 -32c-67 0 -99 35 -99 100c0 12 1 28 3 43
l43 283h-82l5 33h82l15 103h42l-15 -103h127z" />
    <glyph glyph-name="ubreve" unicode="&#x16d;" horiz-adv-x="458" 
d="M424 449l-63 -449h-44l12 79l-2 2c-54 -58 -112 -90 -174 -90c-58 0 -122 42 -109 136l45 322h44l-45 -320c-8 -59 23 -97 79 -97c53 0 103 31 170 107l43 310h44zM369 633h36c-24 -78 -78 -127 -138 -127c-64 0 -107 51 -108 127h41c3 -53 27 -83 65 -83
c37 0 80 35 104 83z" />
    <glyph glyph-name="uhungarumlaut" unicode="&#x171;" horiz-adv-x="458" 
d="M424 449l-63 -449h-44l12 79l-2 2c-54 -58 -112 -90 -174 -90c-58 0 -122 42 -109 136l45 322h44l-45 -320c-8 -59 23 -97 79 -97c53 0 103 31 170 107l43 310h44zM488 660l-152 -154h-33l105 154h80zM354 660l-152 -154h-33l105 154h80z" />
    <glyph glyph-name="umacron" unicode="&#x16b;" horiz-adv-x="458" 
d="M424 449l-63 -449h-44l12 79l-2 2c-54 -58 -112 -90 -174 -90c-58 0 -122 42 -109 136l45 322h44l-45 -320c-8 -59 23 -97 79 -97c53 0 103 31 170 107l43 310h44zM414 623l-7 -51h-267l7 51h267z" />
    <glyph glyph-name="uogonek" unicode="&#x173;" horiz-adv-x="458" 
d="M427 -120l-6 -41c-12 -3 -26 -7 -48 -7c-64 0 -96 43 -96 78c0 20 8 56 41 96l11 75c-38 -36 -95 -90 -178 -90c-45 0 -109 32 -109 110c0 20 2 34 7 65l42 283h44l-44 -288c-2 -10 -5 -45 -5 -58c0 -45 31 -75 79 -75c58 0 108 37 172 111l45 310h44l-64 -449
c-16 -22 -33 -50 -33 -77c0 -23 20 -47 57 -47c15 0 29 2 41 4z" />
    <glyph glyph-name="uring" unicode="&#x16f;" horiz-adv-x="458" 
d="M424 449l-63 -449h-44l12 79l-2 2c-54 -58 -112 -90 -174 -90c-58 0 -122 42 -109 136l45 322h44l-45 -320c-8 -59 23 -97 79 -97c53 0 103 31 170 107l43 310h44zM216 592c0 -32 26 -58 58 -58s58 26 58 58s-26 58 -58 58s-58 -26 -58 -58zM188 592c0 47 39 86 86 86
s86 -39 86 -86s-39 -86 -86 -86s-86 39 -86 86z" />
    <glyph glyph-name="utilde" unicode="&#x169;" horiz-adv-x="458" 
d="M424 449l-63 -449h-44l12 79l-2 2c-54 -58 -112 -90 -174 -90c-58 0 -122 42 -109 136l45 322h44l-45 -320c-8 -59 23 -97 79 -97c53 0 103 31 170 107l43 310h44zM405 649h31c-6 -63 -33 -95 -80 -95c-26 0 -59 12 -91 25s-63 24 -85 24c-23 0 -38 -7 -40 -48h-31
c-8 63 37 98 83 98c25 0 56 -12 86 -24c31 -12 61 -25 85 -25c27 0 38 11 42 45z" />
    <glyph glyph-name="wacute" unicode="&#x1e83;" horiz-adv-x="615" 
d="M409 89l184 360h44l-237 -458h-16l-60 354h-2l-176 -354h-16l-105 458h42l83 -360h2l178 360h18l59 -360h2zM487 660l-152 -154h-33l105 154h80z" />
    <glyph glyph-name="wcircumflex" unicode="&#x175;" horiz-adv-x="615" 
d="M409 89l184 360h44l-237 -458h-16l-60 354h-2l-176 -354h-16l-105 458h42l83 -360h2l178 360h18l59 -360h2zM452 703l9 -197h-36l-21 135l-149 -135h-39l180 197h56z" />
    <glyph glyph-name="wdieresis" unicode="&#x1e85;" horiz-adv-x="615" 
d="M409 89l184 360h44l-237 -458h-16l-60 354h-2l-176 -354h-16l-105 458h42l83 -360h2l178 360h18l59 -360h2zM271 637c24 0 44 -20 44 -44s-20 -44 -44 -44s-44 20 -44 44s20 44 44 44zM429 637c24 0 44 -20 44 -44s-20 -44 -44 -44s-44 20 -44 44s20 44 44 44z" />
    <glyph glyph-name="wgrave" unicode="&#x1e81;" horiz-adv-x="615" 
d="M409 89l184 360h44l-237 -458h-16l-60 354h-2l-176 -354h-16l-105 458h42l83 -360h2l178 360h18l59 -360h2zM219 660h80l105 -154h-33z" />
    <glyph glyph-name="ycircumflex" unicode="&#x177;" horiz-adv-x="375" 
d="M396 449l-355 -679h-49l125 236l-85 443h44l71 -383h2l200 383h47zM336 703l9 -197h-36l-21 135l-149 -135h-39l180 197h56z" />
    <glyph glyph-name="ygrave" unicode="&#x1ef3;" horiz-adv-x="375" 
d="M396 449l-355 -679h-49l125 236l-85 443h44l71 -383h2l200 383h47zM99 660h80l105 -154h-33z" />
    <glyph glyph-name="zacute" unicode="&#x17a;" horiz-adv-x="427" 
d="M436 449v-19l-371 -391h314l-6 -39h-391v18l376 392h-294l6 39h366zM393 660l-152 -154h-33l105 154h80z" />
    <glyph glyph-name="zdotaccent" unicode="&#x17c;" horiz-adv-x="427" 
d="M436 449v-19l-371 -391h314l-6 -39h-391v18l376 392h-294l6 39h366zM262 637c24 0 44 -20 44 -44s-20 -44 -44 -44s-44 20 -44 44s20 44 44 44z" />
    <glyph glyph-name="kgreenlandic" unicode="&#x138;" horiz-adv-x="427" 
d="M132 449l-30 -209l265 209h66l-268 -209l280 -240h-63l-280 240l-36 -240h-44l67 449h43z" />
    <glyph glyph-name="napostrophe" unicode="&#x149;" horiz-adv-x="482" 
d="M158 449l-12 -77c30 34 100 86 173 86c64 0 113 -51 113 -119c0 -16 0 -31 -3 -46l-46 -293h-43l43 275c2 12 5 42 5 60c0 56 -40 82 -79 82c-82 0 -168 -94 -171 -98l-47 -319h-44l67 449h44zM116 682l-8 -60c-15 -107 -71 -138 -91 -145l4 29c10 9 39 35 43 85h-21
l14 91h59z" />
    <glyph glyph-name="Delta" unicode="&#x2206;" horiz-adv-x="559" 
d="M538 0h-517v30c79 224 156 446 235 670h50c78 -224 155 -446 232 -670v-30zM480 44c-62 180 -123 360 -185 540c-8 22 -10 37 -14 53h-2c-4 -15 -9 -36 -15 -53c-62 -180 -123 -360 -185 -540h401z" />
    <glyph glyph-name="Omega" unicode="&#x2126;" horiz-adv-x="670" 
d="M616 0h-203v43c63 56 152 153 152 335c0 165 -80 290 -229 290c-143 0 -235 -123 -235 -289c0 -176 84 -274 154 -336v-43h-204v43h148c-60 52 -149 160 -149 339c0 187 116 330 286 330c175 0 280 -133 280 -329c0 -162 -80 -280 -149 -340h149v-43z" />
    <glyph glyph-name="uni03BC" unicode="&#x3bc;" horiz-adv-x="475" 
d="M78 39l-56 -210h-44l159 620h44l-76 -297c-17 -68 20 -120 92 -120c123 0 198 103 230 226l50 191h44l-115 -449h-44l21 81l-2 2c-59 -63 -119 -92 -194 -92c-47 0 -75 13 -109 48z" />
    <glyph glyph-name="pi" unicode="&#x3c0;" horiz-adv-x="588" 
d="M551 5c-12 -7 -33 -11 -52 -11c-74 0 -104 54 -104 119v344h-205v-330c0 -50 -5 -97 -12 -127h-51c9 36 13 85 13 127v330c-28 -1 -72 -10 -98 -21c-5 14 -10 27 -16 41c23 10 67 23 126 23h398v-43h-104v-340c0 -48 17 -80 63 -80c10 0 20 3 30 7c4 -13 8 -27 12 -39z
" />
    <glyph glyph-name="Euro" unicode="&#x20ac;" horiz-adv-x="503" 
d="M151 420h306l-9 -45h-311c-3 -12 -7 -30 -10 -66h306l-9 -45h-299c6 -152 80 -228 162 -228c80 0 143 42 174 62l-7 -56c-30 -17 -89 -51 -170 -51c-105 0 -205 91 -209 273h-57l9 45h50c1 13 2 31 10 66h-69l9 45h73c62 186 199 271 325 271c43 0 72 -9 92 -14l-11 -44
c-19 6 -45 14 -81 14c-122 0 -227 -97 -274 -227z" />
    <glyph glyph-name="afii61289" unicode="&#x2113;" horiz-adv-x="464" 
d="M380 56c-24 -29 -64 -68 -121 -68c-30 0 -54 10 -70 27c-22 23 -34 60 -34 111v135l-60 -69c-10 9 -21 18 -30 28c30 36 60 71 90 107v243c0 107 40 158 104 158c61 0 85 -54 85 -96c0 -95 -47 -181 -109 -269c-8 -12 -22 -31 -30 -41v-203c0 -64 28 -88 61 -88
c36 0 65 27 89 54c8 -10 17 -19 25 -29zM296 628c0 26 -9 57 -38 57c-30 0 -53 -24 -53 -119v-173c6 8 13 18 18 26c44 70 73 142 73 209z" />
    <glyph glyph-name="estimated" unicode="&#x212e;" horiz-adv-x="637" 
d="M601 285h-439v-196c42 -42 94 -64 155 -64c97 0 162 48 210 130c12 -8 24 -15 36 -22c-59 -89 -127 -145 -246 -145c-170 0 -277 133 -277 297c0 165 105 297 278 297c177 0 277 -132 283 -297zM475 322v158c-42 41 -98 65 -158 65c-61 0 -114 -21 -155 -64v-159h313z
" />
    <glyph glyph-name="partialdiff" unicode="&#x2202;" horiz-adv-x="537" 
d="M487 505c0 -53 -8 -125 -26 -199c-34 -140 -116 -316 -264 -316c-91 0 -152 69 -152 176c0 185 121 335 256 335c68 0 109 -36 128 -75h2c3 22 6 47 6 79c0 124 -51 177 -135 177c-27 0 -60 -9 -87 -25c-5 13 -10 27 -16 39c22 14 70 29 108 29c111 0 180 -73 180 -220z
M422 365c-14 54 -55 93 -123 93c-110 0 -204 -138 -204 -293c0 -84 44 -132 105 -132c99 0 181 122 222 332z" />
    <glyph glyph-name="product" unicode="&#x220f;" horiz-adv-x="667" 
d="M582 -230h-50v886h-396v-886h-50v930h496v-930z" />
    <glyph glyph-name="summation" unicode="&#x2211;" horiz-adv-x="589" 
d="M561 -230h-538v19c109 150 218 300 328 450c-101 145 -202 291 -303 436v25h487v-43h-418c96 -140 193 -278 289 -417c-103 -142 -207 -284 -310 -427h465v-43z" />
    <glyph glyph-name="uni2219" unicode="&#x2219;" horiz-adv-x="281" 
d="M156 400c30 0 54 -24 54 -54s-24 -54 -54 -54s-54 24 -54 54s24 54 54 54z" />
    <glyph glyph-name="radical" unicode="&#x221a;" horiz-adv-x="461" 
d="M473 728c-63 -247 -124 -493 -187 -740h-42c-46 120 -90 240 -136 359c-17 -9 -34 -18 -52 -28c-6 12 -11 25 -18 37c33 17 66 34 98 51c42 -112 85 -224 127 -336c55 219 109 438 164 657h46z" />
    <glyph glyph-name="infinity" unicode="&#x221e;" horiz-adv-x="723" 
d="M669 294c0 -82 -56 -149 -141 -149c-79 0 -135 53 -167 107h-2c-36 -57 -93 -107 -159 -107c-93 0 -147 64 -147 144c0 85 53 149 143 149c85 0 137 -61 164 -106h2c30 46 83 106 161 106c83 0 146 -56 146 -144zM620 293c0 56 -32 102 -97 102c-59 0 -101 -41 -140 -103
c38 -67 88 -104 139 -104c67 0 98 48 98 105zM339 292c-33 59 -89 103 -140 103c-69 0 -97 -48 -97 -106c0 -61 41 -101 97 -101c59 0 106 49 140 104z" />
    <glyph glyph-name="integral" unicode="&#x222b;" horiz-adv-x="462" 
d="M382 696c-8 4 -26 9 -43 9c-55 0 -83 -38 -83 -102v-677c0 -92 -52 -145 -132 -145c-19 0 -45 4 -57 10c4 13 8 27 12 41c12 -4 24 -8 43 -8c56 0 84 36 84 101v679c0 89 50 144 133 144c21 0 46 -5 55 -11c-4 -13 -8 -28 -12 -41z" />
    <glyph glyph-name="approxequal" unicode="&#x2248;" horiz-adv-x="660" 
d="M560 420c-29 -42 -69 -81 -131 -81c-39 0 -76 15 -106 34c-28 17 -60 34 -93 34c-37 0 -72 -27 -97 -66l-32 32c30 43 67 80 130 80c41 0 78 -15 106 -33c32 -20 61 -35 93 -35c37 0 72 27 98 66zM560 212c-29 -41 -69 -80 -131 -80c-39 0 -76 15 -106 34
c-28 17 -60 34 -93 34c-37 0 -72 -27 -97 -67l-32 33c30 43 67 80 130 80c41 0 78 -16 106 -34c32 -20 61 -34 93 -34c37 0 72 26 98 66z" />
    <glyph glyph-name="notequal" unicode="&#x2260;" horiz-adv-x="660" 
d="M548 165h-259l-68 -142h-48l69 142h-129v46h152l78 162h-230v46h252l68 142h48l-69 -142h136v-46h-158l-78 -162h236v-46z" />
    <glyph glyph-name="lessequal" unicode="&#x2264;" horiz-adv-x="660" 
d="M548 0h-435v46h435v-46zM548 129l-435 207v22l435 206v-52l-353 -164v-2l353 -165v-52z" />
    <glyph glyph-name="greaterequal" unicode="&#x2265;" horiz-adv-x="660" 
d="M548 0h-435v46h435v-46zM548 336l-435 -207v52l353 164v2l-353 165v52l435 -206v-22z" />
    <glyph glyph-name="lozenge" unicode="&#x25ca;" horiz-adv-x="516" 
d="M459 350c-62 -117 -125 -233 -187 -350h-30c-62 116 -125 233 -187 349c62 117 125 234 187 351h30c62 -117 125 -233 187 -350zM410 350c-51 95 -103 190 -153 285l-153 -285c51 -95 101 -190 152 -285c51 95 102 190 154 285z" />
    <glyph glyph-name="uni00A0" unicode="&#xa0;" horiz-adv-x="250" 
 />
    <glyph glyph-name="uni00AD" unicode="&#xad;" horiz-adv-x="312" 
d="M275 249v-47h-237v47h237z" />
    <glyph glyph-name="uni02C9" unicode="&#x2c9;" horiz-adv-x="333" 
d="M351 623l-7 -51h-267l7 51h267z" />
    <glyph glyph-name="zero.fitted" unicode="&#xf639;" 
d="M494 455c0 -228 -101 -464 -270 -464c-114 0 -170 100 -170 239c0 157 72 461 272 461c129 0 168 -125 168 -236zM447 450c0 126 -46 199 -124 199c-157 0 -222 -283 -222 -425c0 -120 47 -191 124 -191c168 0 222 304 222 417z" />
    <glyph glyph-name="one.fitted" unicode="&#xf6dc;" horiz-adv-x="229" 
d="M201 682l-101 -682h-46l103 682h44z" />
    <glyph glyph-name="two.fitted" unicode="&#xf63a;" horiz-adv-x="452" 
d="M396 42l-6 -42h-390c103 98 182 203 253 295c81 105 121 173 121 239c0 69 -45 115 -113 115c-50 0 -97 -19 -167 -67l8 53c59 35 104 56 167 56c91 0 153 -62 153 -154c0 -121 -122 -264 -320 -495h294z" />
    <glyph glyph-name="three.fitted" unicode="&#xf63b;" horiz-adv-x="468" 
d="M107 610l6 44c49 27 87 37 136 37c106 0 187 -75 187 -173c0 -100 -72 -140 -130 -168c45 -26 91 -68 91 -149c0 -121 -96 -210 -227 -210c-61 0 -123 18 -170 51l6 41c55 -34 107 -50 160 -50c108 0 183 72 183 173c0 83 -62 132 -155 133l5 32c141 -2 193 75 193 144
c0 77 -65 134 -152 134c-43 0 -85 -12 -133 -39z" />
    <glyph glyph-name="four.fitted" unicode="&#xf63c;" horiz-adv-x="470" 
d="M448 266l-4 -33h-112l-33 -233h-45l33 233h-279l3 19l370 439h15l-59 -425h111zM333 581l-264 -315h223l43 313z" />
    <glyph glyph-name="five.fitted" unicode="&#xf63d;" horiz-adv-x="477" 
d="M457 682l-6 -42h-245l-30 -214c20 3 31 4 46 4c114 0 195 -83 195 -199c0 -133 -107 -240 -243 -240c-61 0 -124 21 -169 57l19 37c37 -28 91 -52 149 -52c108 0 196 88 196 197c0 96 -65 158 -164 158c-23 0 -62 -6 -81 -12l43 306h290z" />
    <glyph glyph-name="six.fitted" unicode="&#xf63e;" horiz-adv-x="484" 
d="M366 682l-212 -305l2 -2c41 27 78 43 132 43c95 0 156 -62 156 -161c0 -141 -110 -266 -233 -266c-97 0 -170 79 -170 185c0 89 46 173 103 256l172 250h50zM396 261c0 69 -43 115 -109 115c-110 0 -198 -90 -198 -202c0 -88 48 -141 121 -141c101 0 186 106 186 228z
" />
    <glyph glyph-name="seven.fitted" unicode="&#xf63f;" horiz-adv-x="444" 
d="M477 682l-350 -682h-48l328 640h-334l6 42h398z" />
    <glyph glyph-name="eight.fitted" unicode="&#xf640;" 
d="M362 358v1v-2c65 -15 104 -70 104 -144c0 -122 -104 -222 -227 -222c-106 0 -191 78 -191 185c0 77 46 170 160 191v2c-55 23 -86 66 -86 129c0 108 88 193 200 193c100 0 171 -68 171 -164c0 -69 -42 -144 -131 -169zM445 524c0 74 -51 125 -123 125
c-84 0 -152 -67 -152 -150c0 -68 54 -115 130 -115c98 0 145 78 145 140zM418 208c0 80 -59 134 -146 134c-102 0 -176 -71 -176 -169c0 -89 67 -141 143 -140c99 1 179 78 179 175z" />
    <glyph glyph-name="nine.fitted" unicode="&#xf641;" horiz-adv-x="484" 
d="M149 0l222 318l-2 2c-44 -37 -88 -54 -136 -54c-93 0 -157 65 -157 160c0 102 76 265 234 265c100 0 169 -74 169 -185c0 -72 -30 -149 -94 -241l-184 -265h-52zM431 510c0 84 -47 139 -120 139c-100 0 -187 -106 -187 -225c0 -71 42 -116 109 -116c109 0 198 92 198 202
z" />
    <glyph glyph-name="zero.taboldstyle" unicode="&#xf643;" horiz-adv-x="499" 
d="M30 176c0 132 74 282 242 282c97 0 185 -49 185 -187c0 -84 -39 -280 -243 -280c-141 0 -184 94 -184 185zM84 180c0 -113 67 -147 133 -147c147 0 186 154 186 233c0 73 -28 150 -137 150c-122 0 -182 -119 -182 -236z" />
    <glyph glyph-name="one.taboldstyle" unicode="&#xf644;" horiz-adv-x="499" 
d="M254 0h-46l56 378l-129 -97l12 63l152 114h22z" />
    <glyph glyph-name="two.taboldstyle" unicode="&#xf645;" horiz-adv-x="499" 
d="M398 41l-6 -41h-331c102 81 298 217 298 327c0 35 -22 90 -97 90c-78 0 -131 -50 -162 -81v48c29 27 79 74 164 74c109 0 142 -77 142 -125c0 -99 -97 -186 -231 -292h223z" />
    <glyph glyph-name="three.taboldstyle" unicode="&#xf646;" horiz-adv-x="499" 
d="M357 408h-260l4 41h342l-241 -301c80 2 169 -56 169 -178s-99 -200 -204 -200c-92 0 -154 42 -175 54l13 41c38 -23 97 -54 158 -54c88 0 156 61 156 152c0 108 -70 148 -150 148c-24 0 -31 -1 -52 -5z" />
    <glyph glyph-name="four.taboldstyle" unicode="&#xf647;" horiz-adv-x="499" 
d="M384 458l-61 -422h112l-5 -36h-112l-34 -230h-46l33 230h-285v13l388 445h10zM277 36l46 308l-267 -308h221z" />
    <glyph glyph-name="five.taboldstyle" unicode="&#xf648;" horiz-adv-x="499" 
d="M440 449l-7 -41h-201l-79 -259c28 6 39 8 61 8c112 0 192 -65 192 -176c0 -135 -116 -211 -228 -211c-83 0 -143 38 -172 57l16 39c22 -15 81 -55 158 -55c109 0 175 84 175 165c0 49 -32 141 -155 141c-25 0 -57 0 -117 -26l116 358h241z" />
    <glyph glyph-name="six.taboldstyle" unicode="&#xf649;" horiz-adv-x="499" 
d="M354 662l-206 -300c26 20 73 56 143 56c50 0 154 -25 154 -160c0 -136 -103 -267 -232 -267c-106 0 -169 89 -169 185c0 110 76 221 138 310l136 196zM398 261c0 71 -47 116 -109 116c-133 0 -198 -118 -198 -203c0 -107 78 -137 121 -137c125 0 186 130 186 224z" />
    <glyph glyph-name="seven.taboldstyle" unicode="&#xf64a;" horiz-adv-x="499" 
d="M456 449l-351 -679l-39 19l326 619h-316l5 41h375z" />
    <glyph glyph-name="eight.taboldstyle" unicode="&#xf64b;" horiz-adv-x="499" 
d="M332 360c77 -18 113 -81 113 -147c0 -120 -102 -222 -227 -222c-113 0 -191 84 -191 184c0 101 71 176 169 191c-62 25 -96 65 -96 134c0 106 90 191 200 191c133 0 172 -103 172 -163c0 -87 -61 -148 -140 -168zM422 526c0 72 -51 124 -121 124
c-102 0 -151 -88 -151 -150c0 -68 55 -115 129 -115c77 0 143 61 143 141zM395 210c0 36 -20 134 -144 134c-114 0 -174 -84 -174 -169c0 -56 30 -144 141 -144c122 0 177 99 177 179z" />
    <glyph glyph-name="nine.taboldstyle" unicode="&#xf64c;" horiz-adv-x="499" 
d="M130 -203l211 292c-26 -20 -73 -58 -143 -58c-50 0 -154 25 -154 160c0 136 103 267 232 267c81 0 169 -59 169 -185c0 -93 -48 -175 -112 -269c-62 -91 -103 -147 -166 -234zM91 188c0 -71 47 -116 109 -116c147 0 198 138 198 203c0 107 -78 137 -121 137
c-111 0 -186 -116 -186 -224z" />
    <glyph glyph-name="zero.denominator" unicode="&#xf655;" horiz-adv-x="323" 
d="M305 236c0 -104 -53 -241 -165 -241c-29 0 -106 12 -106 126c0 81 42 239 166 239c64 0 105 -43 105 -124zM265 235c0 60 -23 97 -66 97c-81 0 -125 -128 -125 -215c0 -77 40 -93 67 -93c88 0 124 144 124 211z" />
    <glyph glyph-name="one.denominator" unicode="&#xf656;" horiz-adv-x="323" 
d="M219 355l-62 -355h-39l63 355h38z" />
    <glyph glyph-name="two.denominator" unicode="&#xf657;" horiz-adv-x="323" 
d="M251 29l-5 -29h-246c58 51 112 105 163 163c61 71 63 97 63 113c0 48 -43 55 -61 55c-37 0 -60 -13 -107 -39l7 37c27 13 62 31 105 31c40 0 95 -22 95 -82c0 -27 -9 -55 -60 -117c-31 -37 -89 -97 -124 -132h170z" />
    <glyph glyph-name="three.denominator" unicode="&#xf658;" horiz-adv-x="323" 
d="M2 24l5 29c22 -13 53 -31 99 -31c77 0 102 51 102 86c0 61 -65 64 -91 66l3 22c19 0 48 0 72 11c21 10 42 30 42 60c0 21 -14 66 -85 66c-36 0 -54 -10 -85 -26l5 32c22 10 46 21 85 21c75 0 118 -47 118 -92c0 -9 0 -61 -78 -86c16 -8 54 -27 54 -75
c0 -55 -47 -112 -139 -112c-38 0 -75 9 -107 29z" />
    <glyph glyph-name="four.denominator" unicode="&#xf659;" horiz-adv-x="323" 
d="M255 360l-36 -217h66l-4 -24h-66l-20 -119h-39l20 119h-161v14l221 227h19zM180 142l24 144l-139 -144h115z" />
    <glyph glyph-name="five.denominator" unicode="&#xf65a;" horiz-adv-x="323" 
d="M294 355l-5 -28h-143l-18 -102c118 8 143 -68 143 -104c0 -66 -63 -126 -149 -126c-10 0 -62 0 -107 32l15 26c24 -14 50 -30 91 -30c55 0 110 39 110 99c0 53 -43 77 -92 77c-18 0 -27 -2 -55 -9l29 165h181z" />
    <glyph glyph-name="six.denominator" unicode="&#xf65b;" horiz-adv-x="323" 
d="M235 355l-120 -151c18 8 38 16 65 16c34 0 98 -15 98 -85c0 -71 -63 -140 -143 -140c-69 0 -106 51 -106 97c0 52 30 96 69 144l95 119h42zM238 136c0 43 -33 57 -59 57c-52 0 -111 -38 -111 -101c0 -46 33 -67 66 -67c62 0 104 57 104 111z" />
    <glyph glyph-name="seven.denominator" unicode="&#xf65c;" horiz-adv-x="323" 
d="M296 355l-210 -355h-41l194 328h-194l3 27h248z" />
    <glyph glyph-name="eight.denominator" unicode="&#xf65d;" horiz-adv-x="323" 
d="M227 186c47 -17 55 -54 55 -73c0 -66 -65 -118 -140 -118c-68 0 -118 43 -118 99c0 8 0 76 88 98c-18 9 -45 25 -45 66c0 58 56 102 124 102c74 0 107 -47 107 -88c0 -10 0 -60 -71 -86zM257 271c0 22 -14 60 -66 60s-83 -38 -83 -74c0 -32 29 -55 70 -55
c62 0 79 47 79 69zM241 111c0 21 -14 64 -80 64c-69 0 -97 -47 -97 -83s25 -71 79 -71c53 0 98 38 98 90z" />
    <glyph glyph-name="nine.denominator" unicode="&#xf65e;" horiz-adv-x="323" 
d="M81 0l120 151c-17 -8 -33 -15 -62 -15c-73 0 -99 49 -99 84c0 61 54 140 144 140c62 0 105 -40 105 -99c0 -33 -11 -69 -57 -125l-108 -136h-43zM250 264c0 50 -35 67 -65 67c-65 0 -105 -62 -105 -112c0 -15 6 -56 58 -56c60 0 112 44 112 101z" />
    <glyph glyph-name="zero.numerator" unicode="&#xf661;" horiz-adv-x="323" 
d="M335 568c0 -105 -53 -241 -166 -241c-29 0 -106 12 -106 125c0 82 43 239 166 239c65 0 106 -43 106 -123zM295 567c0 59 -24 97 -67 97c-80 0 -124 -128 -124 -215c0 -77 40 -94 66 -94c89 0 125 145 125 212z" />
    <glyph glyph-name="one.numerator" unicode="&#xf662;" horiz-adv-x="323" 
d="M249 687l-62 -355h-39l63 355h38z" />
    <glyph glyph-name="two.numerator" unicode="&#xf663;" horiz-adv-x="323" 
d="M292 361l-4 -29h-247c145 130 226 222 226 276c0 34 -23 55 -60 55c-39 0 -73 -20 -107 -39l6 37c47 23 72 30 104 30c57 0 96 -33 96 -82c0 -54 -49 -113 -184 -248h170z" />
    <glyph glyph-name="three.numerator" unicode="&#xf664;" horiz-adv-x="323" 
d="M112 638l4 32c35 16 56 21 85 21c67 0 118 -40 118 -92c0 -38 -29 -70 -78 -86c39 -19 53 -41 53 -77c0 -64 -57 -109 -136 -109c-40 0 -77 11 -107 32l3 29c38 -22 67 -29 100 -29c66 0 101 31 101 79c0 35 -19 67 -91 67l3 23c83 -4 112 35 113 71c1 38 -33 64 -84 64
c-30 0 -44 -3 -84 -25z" />
    <glyph glyph-name="four.numerator" unicode="&#xf665;" horiz-adv-x="323" 
d="M285 691l-36 -217h66l-4 -23h-67l-19 -119h-39l19 119h-161v13l221 227h20zM210 474l24 143l-140 -143h116z" />
    <glyph glyph-name="five.numerator" unicode="&#xf666;" horiz-adv-x="323" 
d="M324 687l-5 -28h-144l-17 -102c117 8 142 -68 142 -104c0 -67 -63 -126 -149 -126c-9 0 -61 0 -107 32l15 25c25 -14 51 -29 91 -29c56 0 110 39 110 99c0 53 -43 77 -91 77c-18 0 -27 -2 -56 -9l29 165h182z" />
    <glyph glyph-name="six.numerator" unicode="&#xf667;" horiz-adv-x="323" 
d="M271 687l-120 -151c18 8 37 16 65 16c34 0 97 -15 97 -85c0 -71 -63 -140 -143 -140c-69 0 -106 50 -106 96c0 52 31 96 70 145l95 119h42zM273 468c0 43 -32 56 -58 56c-52 0 -111 -37 -111 -100c0 -47 32 -67 66 -67c61 0 103 57 103 111z" />
    <glyph glyph-name="seven.numerator" unicode="&#xf668;" horiz-adv-x="323" 
d="M343 687l-210 -355h-41l194 328h-194l3 27h248z" />
    <glyph glyph-name="eight.numerator" unicode="&#xf669;" horiz-adv-x="323" 
d="M257 518c47 -17 54 -55 54 -73c0 -67 -65 -118 -140 -118c-67 0 -118 43 -118 98c0 8 0 76 89 99c-18 8 -46 25 -46 65c0 59 57 102 125 102c74 0 106 -47 106 -87c0 -11 0 -60 -70 -86zM286 602c0 22 -13 61 -66 61c-52 0 -83 -39 -83 -74c0 -33 30 -55 71 -55
c61 0 78 47 78 68zM271 442c0 21 -14 64 -80 64c-70 0 -98 -46 -98 -83c0 -36 26 -70 79 -70c54 0 99 38 99 89z" />
    <glyph glyph-name="nine.numerator" unicode="&#xf66a;" horiz-adv-x="323" 
d="M116 332l121 151c-18 -8 -34 -16 -63 -16c-73 0 -98 50 -98 85c0 61 54 139 144 139c62 0 105 -39 105 -98c0 -33 -12 -69 -57 -126l-109 -135h-43zM286 595c0 51 -36 68 -66 68c-64 0 -105 -62 -105 -112c0 -15 6 -56 58 -56c60 0 113 43 113 100z" />
    <glyph glyph-name="abreve.sc" unicode="&#xf66d;" horiz-adv-x="398" 
d="M351 0h-45l-38 170h-161l-78 -170h-45l221 489h37zM259 212l-44 196l-89 -196h133zM80 655h55c14 -44 58 -66 92 -66c17 0 69 3 127 66h56c-44 -70 -117 -118 -188 -118c-66 0 -130 42 -142 118z" />
    <glyph glyph-name="amacron.sc" unicode="&#xf66e;" horiz-adv-x="398" 
d="M351 0h-45l-38 170h-161l-78 -170h-45l221 489h37zM259 212l-44 196l-89 -196h133zM397 606l-9 -50h-319l9 50h319z" />
    <glyph glyph-name="aogonek.sc" unicode="&#xf66f;" horiz-adv-x="398" 
d="M419 -120l-6 -41c-20 -5 -32 -7 -48 -7c-55 0 -96 34 -96 79c0 27 13 58 37 90l-38 169h-161l-78 -170h-45l221 489h37l109 -489c-23 -33 -34 -57 -34 -79c0 -27 26 -48 60 -48c11 0 21 2 42 7zM259 212l-44 196l-89 -196h133z" />
    <glyph glyph-name="aeacute.sc" unicode="&#xf670;" horiz-adv-x="594" 
d="M553 42l-6 -42h-309l31 224h-106l-137 -224h-50l296 484h272l-6 -42h-196l-24 -176h183l-6 -42h-183l-25 -182h266zM298 442h-2l-106 -176h84zM622 664l-202 -127h-46l122 127h126z" />
    <glyph glyph-name="cacute.sc" unicode="&#xf671;" horiz-adv-x="403" 
d="M391 481l-5 -40c-29 4 -41 6 -60 6c-150 0 -254 -127 -254 -250c0 -91 61 -161 140 -161c43 0 95 17 153 56l-8 -52c-46 -28 -103 -46 -145 -46c-87 0 -187 71 -187 202c0 146 123 293 302 293c23 0 38 -2 64 -8zM476 664l-202 -127h-46l122 127h126z" />
    <glyph glyph-name="ccaron.sc" unicode="&#xf672;" horiz-adv-x="403" 
d="M391 481l-5 -40c-29 4 -41 6 -60 6c-150 0 -254 -127 -254 -250c0 -91 61 -161 140 -161c43 0 95 17 153 56l-8 -52c-46 -28 -103 -46 -145 -46c-87 0 -187 71 -187 202c0 146 123 293 302 293c23 0 38 -2 64 -8zM252 537l-90 132h52l76 -87l150 87h51l-159 -132h-80z
" />
    <glyph glyph-name="ccircumflex.sc" unicode="&#xf673;" horiz-adv-x="403" 
d="M391 481l-5 -40c-29 4 -41 6 -60 6c-150 0 -254 -127 -254 -250c0 -91 61 -161 140 -161c43 0 95 17 153 56l-8 -52c-46 -28 -103 -46 -145 -46c-87 0 -187 71 -187 202c0 146 123 293 302 293c23 0 38 -2 64 -8zM354 669l90 -132h-52l-76 87l-150 -87h-51l159 132h80z
" />
    <glyph glyph-name="cdotaccent.sc" unicode="&#xf674;" horiz-adv-x="403" 
d="M391 481l-5 -40c-29 4 -41 6 -60 6c-150 0 -254 -127 -254 -250c0 -91 61 -161 140 -161c43 0 95 17 153 56l-8 -52c-46 -28 -103 -46 -145 -46c-87 0 -187 71 -187 202c0 146 123 293 302 293c23 0 38 -2 64 -8zM356 605c0 -22 -18 -44 -44 -44c-25 0 -44 20 -44 45
s19 44 43 44c26 0 45 -22 45 -45z" />
    <glyph glyph-name="dcaron.sc" unicode="&#xf675;" horiz-adv-x="433" 
d="M409 237c0 -142 -105 -237 -242 -237h-153l66 484h87c118 0 242 -87 242 -247zM362 237c0 127 -95 205 -209 205h-33l-56 -400h91c160 0 207 112 207 195zM182 537l-90 132h52l76 -87l150 87h51l-159 -132h-80z" />
    <glyph glyph-name="dcroat.sc" unicode="&#xf676;" horiz-adv-x="433" 
d="M6 262h44l30 222h87c118 0 242 -87 242 -247c0 -142 -105 -237 -242 -237h-153l30 219h-44zM95 262h150l-6 -43h-150l-25 -177h91c160 0 207 112 207 195c0 127 -95 205 -209 205h-33z" />
    <glyph glyph-name="ebreve.sc" unicode="&#xf677;" horiz-adv-x="376" 
d="M334 42l-5 -42h-315l66 484h246l-6 -42h-202l-24 -174h192l-7 -42h-190l-26 -184h271zM90 655h55c14 -44 58 -66 92 -66c17 0 69 3 127 66h56c-44 -70 -117 -118 -188 -118c-66 0 -130 42 -142 118z" />
    <glyph glyph-name="ecaron.sc" unicode="&#xf678;" horiz-adv-x="376" 
d="M334 42l-5 -42h-315l66 484h246l-6 -42h-202l-24 -174h192l-7 -42h-190l-26 -184h271zM179 537l-90 132h52l76 -87l150 87h51l-159 -132h-80z" />
    <glyph glyph-name="edotaccent.sc" unicode="&#xf679;" horiz-adv-x="376" 
d="M334 42l-5 -42h-315l66 484h246l-6 -42h-202l-24 -174h192l-7 -42h-190l-26 -184h271zM293 605c0 -22 -18 -44 -44 -44c-25 0 -44 20 -44 45s19 44 43 44c26 0 45 -22 45 -45z" />
    <glyph glyph-name="emacron.sc" unicode="&#xf67a;" horiz-adv-x="376" 
d="M334 42l-5 -42h-315l66 484h246l-6 -42h-202l-24 -174h192l-7 -42h-190l-26 -184h271zM416 606l-9 -50h-319l9 50h319z" />
    <glyph glyph-name="eng.sc" unicode="&#xf67b;" horiz-adv-x="453" 
d="M239 -4l-7 44c13 -4 26 -7 47 -7c51 0 72 31 83 110l19 132c15 102 -27 172 -114 172c-66 0 -120 -47 -152 -102l-51 -345h-45l72 483h44l-9 -57c39 39 89 63 144 63c91 0 179 -65 156 -215l-22 -145c-16 -107 -58 -138 -121 -138c-20 0 -32 2 -44 5z" />
    <glyph glyph-name="eogonek.sc" unicode="&#xf67c;" horiz-adv-x="376" 
d="M334 42l-5 -42h-84c-25 -33 -36 -57 -36 -79c0 -27 26 -48 60 -48c11 0 21 2 42 7l-6 -41c-20 -5 -32 -7 -48 -7c-55 0 -96 34 -96 79c0 27 12 58 36 89h-183l66 484h246l-6 -42h-202l-24 -174h192l-7 -42h-190l-26 -184h271z" />
    <glyph glyph-name="gbreve.sc" unicode="&#xf67d;" horiz-adv-x="450" 
d="M447 476l-6 -41c-41 9 -61 12 -89 12c-173 0 -273 -115 -273 -246c0 -96 64 -163 155 -163c32 0 63 8 106 29l13 95h-103l6 42h147l-23 -160c-45 -32 -102 -50 -150 -50c-96 0 -198 73 -198 210c0 143 116 285 323 285c29 0 55 -3 92 -13zM157 655h55
c14 -44 58 -66 92 -66c17 0 69 3 127 66h56c-44 -70 -117 -118 -188 -118c-66 0 -130 42 -142 118z" />
    <glyph glyph-name="gcircumflex.sc" unicode="&#xf67e;" horiz-adv-x="450" 
d="M447 476l-6 -41c-41 9 -61 12 -89 12c-173 0 -273 -115 -273 -246c0 -96 64 -163 155 -163c32 0 63 8 106 29l13 95h-103l6 42h147l-23 -160c-45 -32 -102 -50 -150 -50c-96 0 -198 73 -198 210c0 143 116 285 323 285c29 0 55 -3 92 -13zM366 669l90 -132h-52l-76 87
l-150 -87h-51l159 132h80z" />
    <glyph glyph-name="gcommaaccent.sc" unicode="&#xf67f;" horiz-adv-x="450" 
d="M447 476l-6 -41c-41 9 -61 12 -89 12c-173 0 -273 -115 -273 -246c0 -96 64 -163 155 -163c32 0 63 8 106 29l13 95h-103l6 42h147l-23 -160c-45 -32 -102 -50 -150 -50c-96 0 -198 73 -198 210c0 143 116 285 323 285c29 0 55 -3 92 -13zM87 -189l13 35
c111 -8 126 30 126 53c0 30 -32 40 -102 36l7 37c16 2 22 2 30 2c49 0 113 -11 113 -70c0 -96 -126 -96 -151 -96c-18 0 -25 2 -36 3z" />
    <glyph glyph-name="gdotaccent.sc" unicode="&#xf680;" horiz-adv-x="450" 
d="M447 476l-6 -41c-41 9 -61 12 -89 12c-173 0 -273 -115 -273 -246c0 -96 64 -163 155 -163c32 0 63 8 106 29l13 95h-103l6 42h147l-23 -160c-45 -32 -102 -50 -150 -50c-96 0 -198 73 -198 210c0 143 116 285 323 285c29 0 55 -3 92 -13zM375 605c0 -22 -18 -44 -44 -44
c-25 0 -44 20 -44 45s19 44 43 44c26 0 45 -22 45 -45z" />
    <glyph glyph-name="hbar.sc" unicode="&#xf681;" horiz-adv-x="470" 
d="M493 394l-5 -37h-49l-49 -357h-43l30 225h-289l-30 -225h-44l48 357h-49l5 37h49l12 89h44l-12 -89h290l12 89h43l-12 -89h49zM395 357h-289l-12 -90h289z" />
    <glyph glyph-name="hcircumflex.sc" unicode="&#xf682;" horiz-adv-x="470" 
d="M456 483l-66 -483h-43l30 225h-289l-30 -225h-44l65 483h44l-29 -216h289l30 216h43zM338 669l90 -132h-52l-76 87l-150 -87h-51l159 132h80z" />
    <glyph glyph-name="ibreve.sc" unicode="&#xf683;" horiz-adv-x="138" 
d="M124 483l-66 -483h-44l66 483h44zM-30 655h55c14 -44 58 -66 92 -66c17 0 69 3 127 66h56c-44 -70 -117 -118 -188 -118c-66 0 -130 42 -142 118z" />
    <glyph glyph-name="i_j.sc" unicode="&#xf684;" horiz-adv-x="296" 
d="M124 483l-66 -483h-44l66 483h44zM282 483l-72 -523c-13 -92 -65 -119 -116 -119c-15 0 -28 2 -44 7l-9 48c20 -7 36 -10 52 -10c46 0 68 25 79 106l67 491h43z" />
    <glyph glyph-name="imacron.sc" unicode="&#xf685;" horiz-adv-x="138" 
d="M124 483l-66 -483h-44l66 483h44zM297 606l-9 -50h-319l9 50h319z" />
    <glyph glyph-name="iogonek.sc" unicode="&#xf686;" horiz-adv-x="138" 
d="M58 0c-23 -33 -33 -58 -33 -80c0 -27 26 -48 60 -48c11 0 21 2 42 7l-6 -41c-20 -5 -32 -7 -48 -7c-55 0 -96 34 -96 79c0 27 13 58 37 90l66 483h44z" />
    <glyph glyph-name="itilde.sc" unicode="&#xf687;" horiz-adv-x="138" 
d="M124 483l-66 -483h-44l66 483h44zM-1 545h-41c3 44 4 51 12 68c13 24 39 51 79 51c34 0 54 -11 94 -35c11 -6 47 -27 68 -27c31 0 36 32 40 61h38c3 -85 -45 -120 -90 -120c-27 0 -50 10 -87 31c-54 31 -61 33 -73 33c-32 0 -39 -43 -40 -62z" />
    <glyph glyph-name="jcircumflex.sc" unicode="&#xf688;" horiz-adv-x="158" 
d="M144 483l-72 -523c-13 -92 -65 -119 -116 -119c-15 0 -28 2 -44 7l-9 48c20 -7 36 -10 52 -10c46 0 68 25 79 106l67 491h43zM202 669l90 -132h-52l-76 87l-150 -87h-51l159 132h80z" />
    <glyph glyph-name="kcommaaccent.sc" unicode="&#xf689;" horiz-adv-x="409" 
d="M400 484l-262 -223l247 -261h-57l-236 249l-34 -249h-44l66 484h44l-27 -202l238 202h65zM66 -189l13 35c111 -8 126 30 126 53c0 30 -32 40 -102 36l7 37c16 2 22 2 30 2c49 0 113 -11 113 -70c0 -96 -126 -96 -151 -96c-18 0 -25 2 -36 3z" />
    <glyph glyph-name="lacute.sc" unicode="&#xf68a;" horiz-adv-x="327" 
d="M285 44l-6 -44h-249l66 483h44l-61 -439h206zM388 664l-202 -127h-46l122 127h126z" />
    <glyph glyph-name="lcaron.sc" unicode="&#xf68b;" horiz-adv-x="327" 
d="M285 44l-6 -44h-249l66 483h44l-61 -439h206zM275 483l-8 -60c-14 -107 -71 -138 -91 -145l5 29c10 9 38 35 42 85h-20l14 91h58z" />
    <glyph glyph-name="lcommaaccent.sc" unicode="&#xf68c;" horiz-adv-x="327" 
d="M285 44l-6 -44h-249l66 483h44l-61 -439h206zM25 -189l13 35c111 -8 126 30 126 53c0 30 -32 40 -102 36l7 37c16 2 22 2 30 2c49 0 113 -11 113 -70c0 -96 -126 -96 -151 -96c-18 0 -25 2 -36 3z" />
    <glyph glyph-name="ldot.sc" unicode="&#xf68d;" horiz-adv-x="327" 
d="M285 44l-6 -44h-249l66 483h44l-61 -439h206zM215 303c24 0 44 -19 44 -43s-20 -43 -44 -43s-43 19 -43 43s20 43 43 43z" />
    <glyph glyph-name="nacute.sc" unicode="&#xf68e;" horiz-adv-x="459" 
d="M445 483l-66 -487h-23l-244 394l-54 -390h-44l67 483h26l241 -392l54 392h43zM474 664l-202 -127h-46l122 127h126z" />
    <glyph glyph-name="ncaron.sc" unicode="&#xf68f;" horiz-adv-x="459" 
d="M445 483l-66 -487h-23l-244 394l-54 -390h-44l67 483h26l241 -392l54 392h43zM230 537l-90 132h52l76 -87l150 87h51l-159 -132h-80z" />
    <glyph glyph-name="ncommaaccent.sc" unicode="&#xf690;" horiz-adv-x="459" 
d="M445 483l-66 -487h-23l-244 394l-54 -390h-44l67 483h26l241 -392l54 392h43zM91 -189l13 35c111 -8 126 30 126 53c0 30 -32 40 -102 36l7 37c16 2 22 2 30 2c49 0 113 -11 113 -70c0 -96 -126 -96 -151 -96c-18 0 -25 2 -36 3z" />
    <glyph glyph-name="obreve.sc" unicode="&#xf691;" horiz-adv-x="441" 
d="M416 292c0 -159 -90 -298 -223 -298c-109 0 -168 77 -168 201c0 113 60 294 225 294c103 0 166 -77 166 -197zM369 300c0 91 -47 145 -119 145c-136 0 -178 -165 -178 -260c0 -96 46 -147 122 -147c110 0 175 120 175 262zM137 655h55c14 -44 58 -66 92 -66
c17 0 69 3 127 66h56c-44 -70 -117 -118 -188 -118c-66 0 -130 42 -142 118z" />
    <glyph glyph-name="ohungarumlaut.sc" unicode="&#xf692;" horiz-adv-x="441" 
d="M416 292c0 -159 -90 -298 -223 -298c-109 0 -168 77 -168 201c0 113 60 294 225 294c103 0 166 -77 166 -197zM369 300c0 91 -47 145 -119 145c-136 0 -178 -165 -178 -260c0 -96 46 -147 122 -147c110 0 175 120 175 262zM334 666l-145 -129h-37l77 129h105zM481 666
l-145 -129h-37l78 129h104z" />
    <glyph glyph-name="omacron.sc" unicode="&#xf693;" horiz-adv-x="441" 
d="M416 292c0 -159 -90 -298 -223 -298c-109 0 -168 77 -168 201c0 113 60 294 225 294c103 0 166 -77 166 -197zM369 300c0 91 -47 145 -119 145c-136 0 -178 -165 -178 -260c0 -96 46 -147 122 -147c110 0 175 120 175 262zM438 606l-9 -50h-319l9 50h319z" />
    <glyph glyph-name="oslashacute.sc" unicode="&#xf694;" horiz-adv-x="441" 
d="M418 509l-47 -73c29 -34 45 -83 45 -144c0 -159 -90 -298 -223 -298c-37 0 -68 9 -93 25l-44 -68l-32 19l48 74c-31 35 -47 86 -47 151c0 113 60 294 225 294c36 0 68 -9 93 -27l44 68zM369 300c0 39 -8 72 -24 96l-220 -339c19 -13 42 -19 69 -19c110 0 175 120 175 262
zM318 424c-19 14 -41 21 -68 21c-136 0 -178 -165 -178 -260c0 -43 9 -77 26 -101zM465 664l-202 -127h-46l122 127h126z" />
    <glyph glyph-name="racute.sc" unicode="&#xf695;" horiz-adv-x="388" 
d="M365 0h-49l-79 144c-9 16 -25 50 -37 64c-8 10 -16 13 -36 13h-58l-30 -221h-44l65 484h111c84 0 129 -59 129 -130c0 -64 -39 -113 -100 -130c12 -12 24 -33 40 -62zM290 354c0 36 -18 88 -85 88h-69l-24 -179h76c65 0 102 36 102 91zM408 664l-202 -127h-46l122 127
h126z" />
    <glyph glyph-name="rcaron.sc" unicode="&#xf696;" horiz-adv-x="388" 
d="M365 0h-49l-79 144c-9 16 -25 50 -37 64c-8 10 -16 13 -36 13h-58l-30 -221h-44l65 484h111c84 0 129 -59 129 -130c0 -64 -39 -113 -100 -130c12 -12 24 -33 40 -62zM290 354c0 36 -18 88 -85 88h-69l-24 -179h76c65 0 102 36 102 91zM185 537l-90 132h52l76 -87l150 87
h51l-159 -132h-80z" />
    <glyph glyph-name="rcommaaccent.sc" unicode="&#xf697;" horiz-adv-x="388" 
d="M365 0h-49l-79 144c-9 16 -25 50 -37 64c-8 10 -16 13 -36 13h-58l-30 -221h-44l65 484h111c84 0 129 -59 129 -130c0 -64 -39 -113 -100 -130c12 -12 24 -33 40 -62zM290 354c0 36 -18 88 -85 88h-69l-24 -179h76c65 0 102 36 102 91zM56 -189l13 35
c111 -8 126 30 126 53c0 30 -32 40 -102 36l7 37c16 2 22 2 30 2c49 0 113 -11 113 -70c0 -96 -126 -96 -151 -96c-18 0 -25 2 -36 3z" />
    <glyph glyph-name="sacute.sc" unicode="&#xf698;" horiz-adv-x="298" 
d="M272 459l-11 -40c-42 22 -59 27 -80 27c-43 0 -80 -38 -80 -84c0 -102 152 -100 152 -235c0 -76 -57 -133 -132 -133c-32 0 -78 14 -104 35l11 43c44 -28 65 -35 90 -35c47 0 90 30 90 90c0 103 -152 114 -152 231c0 74 54 131 125 131c31 0 69 -11 91 -30zM378 664
l-202 -127h-46l122 127h126z" />
    <glyph glyph-name="scedilla.sc" unicode="&#xf699;" horiz-adv-x="298" 
d="M272 459l-11 -40c-42 22 -59 27 -80 27c-43 0 -80 -38 -80 -84c0 -102 152 -100 152 -235c0 -73 -52 -128 -122 -133l-12 -28c22 -7 36 -28 36 -52c0 -56 -42 -87 -105 -87c-11 0 -22 1 -34 3l10 32c7 -1 15 -1 21 -1c50 0 72 23 72 53c0 18 -14 28 -41 29l22 53
c-29 4 -62 17 -83 33l11 43c44 -28 65 -35 90 -35c47 0 90 30 90 90c0 103 -152 114 -152 231c0 74 54 131 125 131c31 0 69 -11 91 -30z" />
    <glyph glyph-name="scircumflex.sc" unicode="&#xf69a;" horiz-adv-x="298" 
d="M272 459l-11 -40c-42 22 -59 27 -80 27c-43 0 -80 -38 -80 -84c0 -102 152 -100 152 -235c0 -76 -57 -133 -132 -133c-32 0 -78 14 -104 35l11 43c44 -28 65 -35 90 -35c47 0 90 30 90 90c0 103 -152 114 -152 231c0 74 54 131 125 131c31 0 69 -11 91 -30zM272 669
l90 -132h-52l-76 87l-150 -87h-51l159 132h80z" />
    <glyph glyph-name="scommaaccent.sc" unicode="&#xf69b;" horiz-adv-x="298" 
d="M272 459l-11 -40c-42 22 -59 27 -80 27c-43 0 -80 -38 -80 -84c0 -102 152 -100 152 -235c0 -76 -57 -133 -132 -133c-32 0 -78 14 -104 35l11 43c44 -28 65 -35 90 -35c47 0 90 30 90 90c0 103 -152 114 -152 231c0 74 54 131 125 131c31 0 69 -11 91 -30zM11 -189
l13 35c111 -8 126 30 126 53c0 30 -32 40 -102 36l7 37c16 2 22 2 30 2c49 0 113 -11 113 -70c0 -96 -126 -96 -151 -96c-18 0 -25 2 -36 3z" />
    <glyph glyph-name="tbar.sc" unicode="&#xf69c;" horiz-adv-x="337" 
d="M362 483l-5 -41h-136l-22 -156h107l-5 -37h-107l-34 -249h-43l34 249h-106l5 37h106l21 156h-135l5 41h315z" />
    <glyph glyph-name="tcaron.sc" unicode="&#xf69d;" horiz-adv-x="337" 
d="M362 483l-5 -41h-136l-61 -442h-43l60 442h-135l5 41h315zM169 537l-90 132h52l76 -87l150 87h51l-159 -132h-80z" />
    <glyph glyph-name="tcommaaccent.sc" unicode="&#xf69e;" horiz-adv-x="337" 
d="M362 483l-5 -41h-136l-61 -442h-43l60 442h-135l5 41h315zM30 -189l13 35c111 -8 126 30 126 53c0 30 -32 40 -102 36l7 37c16 2 22 2 30 2c49 0 113 -11 113 -70c0 -96 -126 -96 -151 -96c-18 0 -25 2 -36 3z" />
    <glyph glyph-name="ubreve.sc" unicode="&#xf69f;" horiz-adv-x="442" 
d="M428 483l-43 -312c-18 -128 -110 -177 -193 -177c-91 0 -169 71 -154 182l42 307h44l-42 -304c-14 -100 48 -143 115 -143c92 0 135 74 144 140l44 307h43zM128 655h55c14 -44 58 -66 92 -66c17 0 69 3 127 66h56c-44 -70 -117 -118 -188 -118c-66 0 -130 42 -142 118z
" />
    <glyph glyph-name="uhungarumlaut.sc" unicode="&#xf6a0;" horiz-adv-x="442" 
d="M428 483l-43 -312c-18 -128 -110 -177 -193 -177c-91 0 -169 71 -154 182l42 307h44l-42 -304c-14 -100 48 -143 115 -143c92 0 135 74 144 140l44 307h43zM335 666l-145 -129h-37l77 129h105zM482 666l-145 -129h-37l78 129h104z" />
    <glyph glyph-name="umacron.sc" unicode="&#xf6a1;" horiz-adv-x="442" 
d="M428 483l-43 -312c-18 -128 -110 -177 -193 -177c-91 0 -169 71 -154 182l42 307h44l-42 -304c-14 -100 48 -143 115 -143c92 0 135 74 144 140l44 307h43zM449 606l-9 -50h-319l9 50h319z" />
    <glyph glyph-name="uogonek.sc" unicode="&#xf6a2;" horiz-adv-x="442" 
d="M428 483l-43 -312c-17 -126 -107 -175 -189 -177c-22 -30 -32 -53 -32 -73c0 -27 26 -48 60 -48c11 0 21 2 42 7l-6 -41c-20 -5 -32 -7 -48 -7c-55 0 -96 34 -96 79c0 27 12 57 35 88c-72 18 -126 83 -113 177l42 307h44l-42 -304c-14 -100 48 -143 115 -143
c92 0 135 74 144 140l44 307h43z" />
    <glyph glyph-name="uring.sc" unicode="&#xf6a3;" horiz-adv-x="442" 
d="M428 483l-43 -312c-18 -128 -110 -177 -193 -177c-91 0 -169 71 -154 182l42 307h44l-42 -304c-14 -100 48 -143 115 -143c92 0 135 74 144 140l44 307h43zM282 746c57 0 104 -46 104 -105c0 -57 -47 -104 -104 -104c-58 0 -104 47 -104 104c0 59 47 105 104 105z
M281 714c-39 0 -72 -32 -72 -72s32 -73 72 -73s73 33 73 73s-33 72 -73 72z" />
    <glyph glyph-name="utilde.sc" unicode="&#xf6a4;" horiz-adv-x="442" 
d="M428 483l-43 -312c-18 -128 -110 -177 -193 -177c-91 0 -169 71 -154 182l42 307h44l-42 -304c-14 -100 48 -143 115 -143c92 0 135 74 144 140l44 307h43zM167 545h-41c3 44 4 51 12 68c13 24 39 51 79 51c34 0 54 -11 94 -35c11 -6 47 -27 68 -27c31 0 36 32 40 61h38
c3 -85 -45 -120 -90 -120c-27 0 -50 10 -87 31c-54 31 -61 33 -73 33c-32 0 -39 -43 -40 -62z" />
    <glyph glyph-name="wacute.sc" unicode="&#xf6a5;" horiz-adv-x="651" 
d="M666 483l-229 -489h-22l-69 380l-170 -380h-23l-102 489h44l79 -386l173 386h22l70 -386l179 386h48zM570 664l-202 -127h-46l122 127h126z" />
    <glyph glyph-name="wcircumflex.sc" unicode="&#xf6a6;" horiz-adv-x="651" 
d="M666 483l-229 -489h-22l-69 380l-170 -380h-23l-102 489h44l79 -386l173 386h22l70 -386l179 386h48zM448 669l90 -132h-52l-76 87l-150 -87h-51l159 132h80z" />
    <glyph glyph-name="wdieresis.sc" unicode="&#xf6a7;" horiz-adv-x="651" 
d="M666 483l-229 -489h-22l-69 380l-170 -380h-23l-102 489h44l79 -386l173 386h22l70 -386l179 386h48zM573 605c0 -19 -17 -45 -45 -45c-24 0 -44 21 -44 45s19 43 43 43c27 0 46 -19 46 -43zM327 605c0 -22 -17 -44 -44 -44c-24 0 -43 20 -43 45s19 44 42 44
c27 0 45 -22 45 -45z" />
    <glyph glyph-name="wgrave.sc" unicode="&#xf6a8;" horiz-adv-x="651" 
d="M666 483l-229 -489h-22l-69 380l-170 -380h-23l-102 489h44l79 -386l173 386h22l70 -386l179 386h48zM226 664h126l122 -127h-46z" />
    <glyph glyph-name="ycircumflex.sc" unicode="&#xf6a9;" horiz-adv-x="365" 
d="M384 483l-178 -236l-33 -247h-44l33 249l-118 234h48l97 -190l141 190h54zM295 669l90 -132h-52l-76 87l-150 -87h-51l159 132h80z" />
    <glyph glyph-name="ygrave.sc" unicode="&#xf6aa;" horiz-adv-x="365" 
d="M384 483l-178 -236l-33 -247h-44l33 249l-118 234h48l97 -190l141 190h54zM83 664h126l122 -127h-46z" />
    <glyph glyph-name="zacute.sc" unicode="&#xf6ab;" horiz-adv-x="455" 
d="M456 463l-375 -421h317l-5 -42h-392v19l376 423h-303l5 41h377v-20zM482 664l-202 -127h-46l122 127h126z" />
    <glyph glyph-name="zdotaccent.sc" unicode="&#xf6ac;" horiz-adv-x="455" 
d="M456 463l-375 -421h317l-5 -42h-392v19l376 423h-303l5 41h377v-20zM352 605c0 -22 -18 -44 -44 -44c-25 0 -44 20 -44 45s19 44 43 44c26 0 45 -22 45 -45z" />
    <glyph glyph-name="idotaccent.sc" unicode="&#xf6ad;" horiz-adv-x="138" 
d="M124 483l-66 -483h-44l66 483h44zM178 605c0 -22 -18 -44 -44 -44c-25 0 -44 20 -44 45s19 44 43 44c26 0 45 -22 45 -45z" />
    <glyph glyph-name="one.alt" unicode="&#xe000;" horiz-adv-x="522" 
d="M272 0h-46l89 600l-2 2c-48 -51 -87 -81 -156 -128l12 64c108 81 136 107 173 153h33z" />
    <glyph glyph-name="uni2215" unicode="&#x2215;" horiz-adv-x="167" 
d="M371 691l-537 -718h-39l537 718h39z" />
    <glyph glyph-name="uni021A" unicode="&#x21a;" horiz-adv-x="458" 
d="M517 682l-6 -46h-202l-90 -636h-47l90 636h-202l6 46h451zM91 -189l13 35c111 -8 126 30 126 53c0 30 -32 40 -102 36l7 37c16 2 22 2 30 2c49 0 113 -11 113 -70c0 -96 -126 -96 -151 -96c-18 0 -25 2 -36 3z" />
    <glyph glyph-name="uni021B" unicode="&#x21b;" horiz-adv-x="291" 
d="M36 -172l11 38c59 -8 88 20 88 48c0 16 -9 27 -39 24l10 35c58 6 75 -25 75 -61c0 -40 -30 -102 -145 -84zM281 449l-5 -33h-126l-43 -290c-2 -13 -3 -25 -3 -36c0 -41 17 -64 63 -64c26 0 56 11 83 37v-41c-28 -23 -58 -32 -90 -32c-67 0 -99 35 -99 100c0 12 1 28 3 43
l43 283h-82l5 33h82l15 103h42l-15 -103h127z" />
    <glyph glyph-name="uni03A9" unicode="&#x3a9;" horiz-adv-x="670" 
d="M616 0h-203v43c63 56 152 153 152 335c0 165 -80 290 -229 290c-143 0 -235 -123 -235 -289c0 -176 84 -274 154 -336v-43h-204v43h148c-60 52 -149 160 -149 339c0 187 116 330 286 330c175 0 280 -133 280 -329c0 -162 -80 -280 -149 -340h149v-43z" />
    <glyph glyph-name="uni018f" unicode="&#x18f;" horiz-adv-x="628" 
d="M45 274c0 30 3 63 9 97h499c2 18 3 36 3 55c0 135 -72 219 -186 219c-66 0 -144 -27 -215 -73l8 56c64 38 147 63 207 63c147 0 238 -105 238 -276c0 -228 -131 -424 -322 -424c-156 0 -241 106 -241 283zM287 37c143 0 234 127 260 288h-446c-3 -24 -4 -46 -4 -66
c0 -142 70 -222 190 -222z" />
    <glyph glyph-name="uni0259" unicode="&#x259;" horiz-adv-x="421" 
d="M18 180c0 33 4 64 11 93h311c-1 88 -45 144 -113 144c-43 0 -85 -14 -137 -37l7 47c43 21 86 31 132 31c97 0 158 -73 158 -188c0 -181 -109 -279 -214 -279c-81 0 -155 61 -155 189zM171 32c85 0 155 87 167 202h-269c-3 -18 -4 -36 -4 -55c0 -91 41 -147 106 -147z" />
    </font>
</defs>
</svg>
