<?xml version="1.0" standalone="no"?>
<!DOCTYPE svg PUBLIC "-//W3C//DTD SVG 1.1//EN" "http://www.w3.org/Graphics/SVG/1.1/DTD/svg11.dtd" >
<svg xmlns="http://www.w3.org/2000/svg" xmlns:xlink="http://www.w3.org/1999/xlink" version="1.1">
<metadata>
Created by FontForge 20201107 at Sat Oct 24 01:35:11 2015
 By Jimmy Wärting
Font software Copyright 1990, 1991, 1998 Adobe Systems Incorporated. Typeface designs Copyright The Monotype Corporation. All rights reserved.
</metadata>
<defs>
<font id="GillSans-Heavy" horiz-adv-x="354" >
  <font-face 
    font-family="Gill Sans"
    font-weight="900"
    font-stretch="normal"
    units-per-em="1000"
    panose-1="2 11 9 2 2 1 4 2 2 3"
    ascent="682"
    descent="-318"
    x-height="497"
    cap-height="677"
    bbox="-231 -241 1181 923"
    underline-thickness="50"
    underline-position="-100"
    stemh="136"
    stemv="204"
    unicode-range="U+0020-FB04"
  />
<missing-glyph horiz-adv-x="500" 
d="M12 0v665h475v-665h-475zM88 618l162 -243l161 243h-323zM60 575v-484c0 -1 161 242 161 242zM440 575l-162 -242l162 -243v485zM411 48l-161 242l-162 -242h323z" />
    <glyph glyph-name="fi" unicode="fi" horiz-adv-x="651" 
d="M498 686c41 0 74 -33 74 -74s-33 -74 -74 -74s-74 33 -74 74s33 74 74 74zM353 352h-89v-352h-176v352h-81v119h81v9c0 90 43 206 213 206c36 0 52 -4 73 -8v-123c-12 2 -29 5 -50 5c-37 0 -60 -25 -60 -71v-18h89v-119zM410 497h176v-497h-176v497z" />
    <glyph glyph-name="fl" unicode="fl" horiz-adv-x="651" 
d="M410 677h176v-677h-176v677zM353 352h-89v-352h-176v352h-81v119h81v9c0 114 63 206 213 206c36 0 55 -4 73 -8v-123c-12 2 -29 5 -50 5c-37 0 -60 -25 -60 -71v-18h89v-119z" />
    <glyph glyph-name="f_f" unicode="ff" horiz-adv-x="691" 
d="M675 352h-89v-352h-176v352h-146v-352h-176v352h-81v119h81v9c0 94 48 206 213 206c36 0 67 -5 88 -9v-126c-19 4 -44 9 -65 9c-37 0 -60 -25 -60 -71v-18h146v9c0 94 48 206 213 206c36 0 67 -5 88 -9v-126c-19 4 -44 9 -65 9c-37 0 -60 -25 -60 -71v-18h89v-119z" />
    <glyph glyph-name="f_f_i" unicode="ffi" horiz-adv-x="973" 
d="M675 352h-89v-352h-176v352h-146v-352h-176v352h-81v119h81v9c0 94 48 206 213 206c36 0 67 -5 88 -9v-126c-19 4 -44 9 -65 9c-37 0 -60 -25 -60 -71v-18h146v9c0 90 43 206 213 206c36 0 52 -4 73 -8v-123c-12 2 -29 5 -50 5c-37 0 -60 -25 -60 -71v-18h89v-119z
M732 497h176v-497h-176v497zM820 686c41 0 74 -33 74 -74s-33 -74 -74 -74s-74 33 -74 74s33 74 74 74z" />
    <glyph glyph-name="f_f_l" unicode="ffl" horiz-adv-x="973" 
d="M675 352h-89v-352h-176v352h-146v-352h-176v352h-81v119h81v9c0 94 48 206 213 206c36 0 67 -5 88 -9v-126c-19 4 -44 9 -65 9c-37 0 -60 -25 -60 -71v-18h146v9c0 114 63 206 213 206c36 0 55 -4 73 -8v-123c-12 2 -29 5 -50 5c-37 0 -60 -25 -60 -71v-18h89v-119z
M732 677h176v-677h-176v677z" />
    <glyph glyph-name=".notdef" horiz-adv-x="500" 
d="M12 0v665h475v-665h-475zM88 618l162 -243l161 243h-323zM60 575v-484c0 -1 161 242 161 242zM440 575l-162 -242l162 -243v485zM411 48l-161 242l-162 -242h323z" />
    <glyph glyph-name="space" unicode=" " horiz-adv-x="297" 
 />
    <glyph glyph-name="exclam" unicode="!" horiz-adv-x="302" 
d="M152 223c-23 1 -31 8 -39 24c-26 53 -67 207 -67 289c0 115 63 150 106 150s104 -35 104 -150c0 -82 -39 -237 -65 -289c-8 -16 -16 -23 -39 -24zM152 201c58 0 104 -47 104 -105s-46 -105 -104 -105c-57 0 -106 47 -106 105c0 59 49 105 106 105z" />
    <glyph glyph-name="quotedbl" unicode="&#x22;" horiz-adv-x="500" 
d="M24 677h198v-118l-32 -144h-134l-32 144v118zM278 677h198v-118l-31 -144h-135l-32 144v118z" />
    <glyph glyph-name="numbersign" unicode="#" horiz-adv-x="667" 
d="M184 511l38 182h105l-38 -182h161l38 182h106l-39 -182h76v-106h-98l-28 -133h126v-106h-148l-38 -182h-106l39 182h-161l-38 -182h-106l39 182h-76v106h98l28 133h-126v106h148zM400 272l28 133h-161l-28 -133h161z" />
    <glyph glyph-name="dollar" unicode="$" horiz-adv-x="625" 
d="M343 -94h-75v85c-58 7 -140 32 -207 74v139c60 -48 130 -86 207 -96v163c-192 48 -216 135 -216 200c0 56 32 172 216 194v43h75v-43c74 -10 127 -32 195 -74v-145c-30 25 -104 77 -195 98v-134c109 -37 221 -92 221 -221c0 -77 -55 -181 -221 -198v-85zM343 252v-145
c27 6 76 18 76 69c0 36 -23 54 -76 76zM268 429v122c-36 -2 -72 -20 -72 -57c0 -13 6 -49 72 -65z" />
    <glyph glyph-name="percent" unicode="%" horiz-adv-x="802" 
d="M218 453c36 0 66 29 66 65s-30 66 -66 66s-65 -30 -65 -66s29 -65 65 -65zM218 686c93 0 168 -74 168 -167s-75 -168 -168 -168s-167 75 -167 168s74 167 167 167zM207 -18h-100l489 704h99zM583 317c93 0 168 -74 168 -167s-75 -168 -168 -168s-167 75 -167 168
s74 167 167 167zM583 84c36 0 66 29 66 65s-30 66 -66 66s-65 -30 -65 -66s29 -65 65 -65z" />
    <glyph glyph-name="ampersand" unicode="&#x26;" horiz-adv-x="823" 
d="M599 348h163c-35 -67 -89 -144 -146 -195l146 -153h-230l-43 45c-63 -42 -144 -54 -206 -54c-165 0 -237 88 -237 174c0 68 31 110 150 191c-50 52 -75 94 -75 147c0 96 82 183 231 183c148 0 212 -101 212 -167c0 -72 -54 -132 -131 -171l91 -97c34 31 53 58 75 97z
M353 431c18 8 75 34 75 84c0 25 -18 59 -70 59c-51 0 -67 -33 -67 -54c0 -27 33 -59 62 -89zM400 140l-119 125c-55 -35 -65 -63 -65 -82c0 -25 24 -73 90 -73c47 0 80 20 94 30z" />
    <glyph glyph-name="quoteright" unicode="&#x2019;" horiz-adv-x="302" 
d="M35 317v31c67 25 79 88 77 140c-53 15 -77 49 -77 96c0 53 44 102 104 102c88 0 126 -84 126 -154c0 -84 -61 -192 -230 -215z" />
    <glyph glyph-name="parenleft" unicode="(" horiz-adv-x="385" 
d="M291 686h129c-70 -75 -198 -211 -198 -461c0 -254 128 -384 198 -460h-129c-64 49 -254 206 -254 458s187 408 254 463z" />
    <glyph glyph-name="parenright" unicode=")" horiz-adv-x="385" 
d="M94 -235h-129c70 75 198 211 198 461c0 254 -128 384 -198 460h129c64 -49 254 -206 254 -458s-187 -408 -254 -463z" />
    <glyph glyph-name="asterisk" unicode="*" horiz-adv-x="563" 
d="M261 489l-41 123c-10 30 -11 34 -11 41c0 29 39 33 75 33c13 0 71 0 71 -31c0 -12 -8 -32 -10 -39l-44 -127c11 -5 13 -7 22 -15l105 81c25 19 27 22 39 22s27 -2 46 -51c3 -8 12 -35 12 -58c0 -31 -25 -31 -59 -31h-131c-1 -12 -2 -16 -8 -26l105 -74
c39 -27 39 -35 39 -41c0 -35 -81 -84 -101 -84c-17 0 -26 18 -36 52l-38 123c-2 0 -9 -2 -14 -2s-12 2 -14 2l-41 -124c-11 -32 -16 -49 -36 -49c-28 0 -101 53 -101 82c0 9 1 15 33 37l112 78c-5 11 -7 14 -8 26l-134 -1c-24 0 -55 -1 -55 32c0 35 25 111 52 111
c15 0 20 -4 42 -21l109 -84c8 9 11 11 20 15z" />
    <glyph glyph-name="plus" unicode="+" horiz-adv-x="667" 
d="M59 399h214v214h121v-214h214v-121h-214v-214h-121v214h-214v121z" />
    <glyph glyph-name="comma" unicode="," horiz-adv-x="302" 
d="M35 -168v31c67 25 79 88 77 140c-53 15 -77 49 -77 96c0 53 44 102 104 102c88 0 126 -84 126 -154c0 -84 -61 -192 -230 -215z" />
    <glyph glyph-name="hyphen" unicode="-" horiz-adv-x="490" 
d="M85 333h320v-163h-320v163z" />
    <glyph glyph-name="period" unicode="." horiz-adv-x="281" 
d="M142 201c58 0 104 -47 104 -105s-46 -105 -104 -105c-57 0 -106 47 -106 105c0 59 49 105 106 105z" />
    <glyph glyph-name="slash" unicode="/" horiz-adv-x="529" 
d="M383 686h131l-368 -695h-131z" />
    <glyph glyph-name="zero" unicode="0" horiz-adv-x="594" 
d="M33 338c0 244 126 348 264 348s264 -105 264 -348c0 -244 -126 -347 -264 -347s-264 103 -264 347zM226 338c0 -91 0 -203 71 -203s71 112 71 203c0 77 0 205 -71 205s-71 -128 -71 -205z" />
    <glyph glyph-name="one" unicode="1" horiz-adv-x="594" 
d="M389 0h-185v677h185v-677z" />
    <glyph glyph-name="two" unicode="2" horiz-adv-x="594" 
d="M555 152v-152h-514v13c49 47 106 115 157 175c60 70 126 148 126 241c0 64 -41 105 -96 105c-67 0 -123 -42 -165 -86v160c44 28 113 78 219 78c125 0 222 -78 222 -209c0 -96 -55 -171 -78 -206c-27 -40 -58 -81 -90 -119h219z" />
    <glyph glyph-name="three" unicode="3" horiz-adv-x="594" 
d="M72 40v152c33 -28 92 -67 155 -67c65 0 97 42 97 79c0 50 -42 89 -113 90h-22v109h26c75 0 98 52 98 79c0 39 -33 78 -85 78c-48 0 -99 -21 -138 -47v130c46 19 106 43 185 43c166 0 227 -115 227 -181c0 -62 -45 -125 -92 -151c37 -20 103 -61 103 -166
c0 -149 -136 -197 -224 -197c-72 0 -164 23 -217 49z" />
    <glyph glyph-name="four" unicode="4" horiz-adv-x="594" 
d="M478 0h-180v146h-275v129l310 402h145v-415h80v-116h-80v-146zM130 262h168v217z" />
    <glyph glyph-name="five" unicode="5" horiz-adv-x="594" 
d="M492 677v-143h-242v-116c12 1 26 3 43 3c141 0 227 -99 227 -209c0 -114 -78 -221 -241 -221c-80 0 -159 20 -225 65v146c34 -25 124 -71 187 -71c75 0 90 54 90 80c0 41 -26 91 -129 91c-53 0 -85 -13 -102 -20v395h392z" />
    <glyph glyph-name="six" unicode="6" horiz-adv-x="594" 
d="M303 687l167 -55c-66 -56 -129 -118 -172 -183c11 3 26 5 45 5c118 0 219 -86 219 -220c0 -125 -102 -243 -261 -243c-178 0 -268 132 -268 268c0 156 108 313 270 428zM386 237c0 67 -47 91 -87 91c-70 0 -90 -59 -90 -91c0 -52 36 -94 87 -94c67 0 90 59 90 94z" />
    <glyph glyph-name="seven" unicode="7" horiz-adv-x="594" 
d="M269 -9l-157 50l207 486h-274v150h513v-20z" />
    <glyph glyph-name="eight" unicode="8" horiz-adv-x="594" 
d="M142 349c-48 30 -86 69 -86 145c0 71 54 192 241 192c192 0 241 -121 241 -192c0 -76 -36 -113 -86 -145c65 -33 109 -98 109 -167c0 -49 -31 -191 -264 -191c-238 0 -264 142 -264 191c0 69 42 134 109 167zM297 391c35 0 70 35 70 90c0 31 -14 91 -68 91
c-56 0 -72 -55 -72 -91c0 -55 35 -90 70 -90zM298 99c45 0 89 37 89 101c0 66 -50 100 -90 100c-42 0 -90 -35 -90 -100c0 -71 50 -101 91 -101z" />
    <glyph glyph-name="nine" unicode="9" horiz-adv-x="594" 
d="M291 -10l-167 55c66 56 129 118 172 183c-11 -3 -26 -5 -45 -5c-118 0 -219 86 -219 220c0 125 102 243 261 243c178 0 268 -132 268 -268c0 -156 -108 -313 -270 -428zM208 440c0 -67 47 -91 87 -91c70 0 90 59 90 91c0 52 -36 94 -87 94c-67 0 -90 -59 -90 -94z" />
    <glyph glyph-name="colon" unicode=":" horiz-adv-x="281" 
d="M141 506c55 0 104 -45 104 -105c0 -59 -47 -106 -105 -106c-57 0 -104 47 -104 105c0 63 52 106 105 106zM142 201c58 0 104 -47 104 -105s-46 -105 -104 -105c-57 0 -106 47 -106 105c0 59 49 105 106 105z" />
    <glyph glyph-name="semicolon" unicode=";" horiz-adv-x="302" 
d="M35 -168v31c67 25 79 88 77 140c-53 15 -77 49 -77 96c0 39 32 102 104 102c88 0 126 -84 126 -154c0 -84 -61 -192 -230 -215zM141 506c55 0 104 -45 104 -105c0 -59 -47 -106 -105 -106c-57 0 -104 47 -104 105c0 63 52 106 105 106z" />
    <glyph glyph-name="semicolon" unicode="&#x37e;" horiz-adv-x="302" 
d="M35 -168v31c67 25 79 88 77 140c-53 15 -77 49 -77 96c0 39 32 102 104 102c88 0 126 -84 126 -154c0 -84 -61 -192 -230 -215zM141 506c55 0 104 -45 104 -105c0 -59 -47 -106 -105 -106c-57 0 -104 47 -104 105c0 63 52 106 105 106z" />
    <glyph glyph-name="less" unicode="&#x3c;" horiz-adv-x="667" 
d="M608 56l-549 228v109l549 228v-129l-380 -153l380 -153v-130z" />
    <glyph glyph-name="equal" unicode="=" horiz-adv-x="667" 
d="M59 516h549v-121h-549v121zM59 280h549v-121h-549v121z" />
    <glyph glyph-name="greater" unicode="&#x3e;" horiz-adv-x="667" 
d="M59 621l549 -228v-109l-549 -228v130l380 153l-380 153v129z" />
    <glyph glyph-name="question" unicode="?" horiz-adv-x="385" 
d="M36 535l46 136c24 7 52 15 93 15c126 0 179 -75 179 -142c0 -60 -14 -91 -91 -159c-38 -33 -71 -97 -71 -131c0 -21 -13 -33 -37 -33c-20 0 -32 9 -36 20c-7 19 -10 59 -10 74c0 41 16 84 19 91c11 26 35 69 35 92c0 16 -8 50 -61 50c-27 0 -42 -6 -58 -13h-8zM158 201
c58 0 104 -47 104 -105s-46 -105 -104 -105c-57 0 -106 47 -106 105c0 59 49 105 106 105z" />
    <glyph glyph-name="at" unicode="@" horiz-adv-x="961" 
d="M852 -20h102c-81 -164 -257 -215 -424 -215c-70 0 -161 9 -253 45c-177 69 -248 238 -248 392c0 234 151 484 492 484c262 0 409 -170 409 -367c0 -178 -133 -348 -316 -348c-63 0 -81 24 -90 55c-16 -15 -56 -55 -131 -55c-104 0 -183 77 -183 206c0 128 89 314 258 314
c26 0 89 -3 128 -65l11 53h127l-72 -344c-5 -24 -7 -34 -7 -43c0 -22 17 -23 19 -23c46 0 168 103 168 254c0 106 -71 275 -323 275c-339 0 -402 -275 -402 -401c0 -157 95 -344 405 -344c222 0 299 89 330 127zM340 171c0 -84 44 -112 80 -112c107 0 143 167 143 234
c0 13 -2 112 -83 112c-101 0 -140 -146 -140 -234z" />
    <glyph glyph-name="A" unicode="A" horiz-adv-x="833" 
d="M564 137h-294l-56 -137h-209l299 677h226l298 -677h-209zM318 255h199l-99 247z" />
    <glyph glyph-name="B" unicode="B" horiz-adv-x="749" 
d="M85 677h327c174 0 244 -71 244 -159c0 -82 -56 -134 -95 -149c84 -33 142 -83 142 -177c0 -114 -81 -192 -227 -192h-391v677zM332 563h-43v-162h44c85 0 132 11 132 81s-51 81 -133 81zM372 287h-83v-173h83c84 0 126 27 126 86s-42 87 -126 87z" />
    <glyph glyph-name="C" unicode="C" horiz-adv-x="743" 
d="M691 222v-171c-89 -46 -178 -60 -267 -60c-239 0 -383 141 -383 348c0 239 182 347 386 347c114 0 207 -32 261 -51v-180c-38 23 -114 73 -215 73c-116 0 -224 -73 -224 -192c0 -103 88 -187 213 -187c109 0 189 48 229 73z" />
    <glyph glyph-name="D" unicode="D" horiz-adv-x="822" 
d="M85 677h281c170 0 247 -43 297 -84c64 -52 118 -143 118 -267c0 -159 -82 -234 -127 -269c-78 -61 -195 -57 -214 -57h-355v677zM289 541v-401h87c73 0 197 15 197 195s-124 206 -197 206h-87z" />
    <glyph glyph-name="E" unicode="E" horiz-adv-x="647" 
d="M289 136h306v-136h-510v677h502v-136h-298v-124h284v-136h-284v-145z" />
    <glyph glyph-name="F" unicode="F" horiz-adv-x="622" 
d="M85 677h485v-136h-281v-131h281v-136h-281v-274h-204v677z" />
    <glyph glyph-name="G" unicode="G" horiz-adv-x="799" 
d="M710 637v-160c-40 23 -110 63 -225 63c-192 0 -236 -132 -236 -203c0 -100 71 -190 213 -190c35 0 60 5 83 10v80h-92v136h270v-325c-40 -15 -68 -25 -109 -35c-51 -12 -117 -22 -190 -22c-199 0 -383 105 -383 349c0 90 31 198 110 260c97 76 193 86 284 86
c136 0 229 -34 275 -49z" />
    <glyph glyph-name="H" unicode="H" horiz-adv-x="885" 
d="M596 264h-307v-264h-204v677h204v-249h307v249h204v-677h-204v264z" />
    <glyph glyph-name="I" unicode="I" horiz-adv-x="376" 
d="M86 677h204v-677h-204v677z" />
    <glyph glyph-name="J" unicode="J" horiz-adv-x="396" 
d="M106 677h204v-593c0 -143 -14 -301 -229 -301c-35 0 -52 3 -73 7l-31 163c70 2 111 4 124 57c6 23 5 114 5 143v524z" />
    <glyph glyph-name="K" unicode="K" horiz-adv-x="801" 
d="M85 677h204v-303l245 303h222l-252 -317l293 -360h-249l-259 317v-317h-204v677z" />
    <glyph glyph-name="L" unicode="L" horiz-adv-x="633" 
d="M85 677h204v-515h310v-162h-514v677z" />
    <glyph glyph-name="M" unicode="M" horiz-adv-x="958" 
d="M85 0v677h185l208 -254l209 254h185v-677h-204v392l-184 -227h-16l-185 227v-392h-198z" />
    <glyph glyph-name="N" unicode="N" horiz-adv-x="905" 
d="M85 677h181l350 -375v375h204v-677h-182l-351 377v-377h-202v677z" />
    <glyph glyph-name="O" unicode="O" horiz-adv-x="851" 
d="M809 339c0 -186 -128 -348 -384 -348c-265 0 -384 173 -384 348s119 347 384 347c258 0 384 -164 384 -347zM249 339c0 -102 65 -174 176 -174c113 0 176 73 176 174c0 100 -63 173 -176 173c-111 0 -176 -71 -176 -173z" />
    <glyph glyph-name="P" unicode="P" horiz-adv-x="699" 
d="M85 677h338c189 0 248 -123 248 -213s-59 -210 -248 -210h-134v-254h-204v677zM332 547h-43v-163h44c96 0 130 14 130 79s-34 84 -131 84z" />
    <glyph glyph-name="Q" unicode="Q" horiz-adv-x="851" 
d="M832 -38l6 -11l-143 -130c-117 25 -229 69 -333 127c-40 22 -69 40 -98 68c-103 37 -223 139 -223 323c0 175 119 347 384 347c266 0 384 -172 384 -347c0 -172 -104 -275 -213 -320c46 -21 129 -58 236 -57zM249 339c0 -102 65 -174 176 -174c113 0 176 73 176 174
c0 100 -63 173 -176 173c-111 0 -176 -71 -176 -173z" />
    <glyph glyph-name="R" unicode="R" horiz-adv-x="748" 
d="M85 677h347c182 0 239 -133 239 -210c0 -115 -83 -155 -111 -169c38 -23 59 -36 112 -151l68 -147h-219l-53 120c-60 136 -95 144 -156 144h-23v-264h-204v677zM332 547h-43v-163h44c97 0 130 16 130 79s-40 84 -131 84z" />
    <glyph glyph-name="S" unicode="S" horiz-adv-x="612" 
d="M529 629v-159c-39 27 -115 77 -202 77c-56 0 -72 -27 -72 -51c0 -28 21 -43 78 -70c135 -64 225 -111 225 -229c0 -129 -107 -206 -256 -206c-19 0 -114 0 -238 54v166c38 -24 117 -74 207 -74c81 0 83 43 83 50c0 40 -48 62 -103 85c-95 40 -193 97 -193 218
c0 105 77 196 244 196c127 0 213 -48 227 -57z" />
    <glyph glyph-name="T" unicode="T" horiz-adv-x="768" 
d="M34 677h700v-165h-248v-512h-204v512h-248v165z" />
    <glyph glyph-name="U" unicode="U" horiz-adv-x="865" 
d="M75 677h204v-321c0 -140 65 -195 154 -195c87 0 153 54 153 194v322h204v-374c0 -244 -206 -312 -357 -312s-358 68 -358 312v374z" />
    <glyph glyph-name="V" unicode="V" horiz-adv-x="755" 
d="M8 677h212l155 -391l159 391h213l-305 -686h-135z" />
    <glyph glyph-name="W" unicode="W" horiz-adv-x="1190" 
d="M8 677h211l141 -375l161 375h146l158 -375l147 375h209l-293 -686h-118l-176 399l-180 -399h-119z" />
    <glyph glyph-name="X" unicode="X" horiz-adv-x="854" 
d="M18 677h261l46 -57c23 -28 64 -81 96 -123c27 40 54 79 85 116l53 64h256l-263 -325l297 -352h-262l-72 85c-8 10 -68 80 -94 116c-56 -75 -71 -94 -96 -125l-62 -76h-258l287 352z" />
    <glyph glyph-name="Y" unicode="Y" horiz-adv-x="751" 
d="M6 677h212l155 -213l156 213h216l-265 -367v-310h-204v306z" />
    <glyph glyph-name="Z" unicode="Z" horiz-adv-x="729" 
d="M706 0h-687l350 515h-321v162h658l-349 -515h349v-162z" />
    <glyph glyph-name="bracketleft" unicode="[" horiz-adv-x="448" 
d="M80 677h345v-115h-178v-673h178v-115h-345v903z" />
    <glyph glyph-name="backslash" unicode="\" horiz-adv-x="529" 
d="M15 686h131l368 -695h-131z" />
    <glyph glyph-name="bracketright" unicode="]" horiz-adv-x="448" 
d="M368 677v-903h-345v115h178v673h-178v115h345z" />
    <glyph glyph-name="asciicircum" unicode="^" horiz-adv-x="660" 
d="M262 677h136l199 -397h-172l-94 240l-95 -240h-173z" />
    <glyph glyph-name="underscore" unicode="_" horiz-adv-x="500" 
d="M-6 -75h512v-50h-512v50z" />
    <glyph glyph-name="quoteleft" unicode="&#x2018;" horiz-adv-x="302" 
d="M267 686v-31c-67 -25 -79 -88 -77 -140c53 -15 77 -49 77 -96c0 -53 -44 -102 -104 -102c-88 0 -126 84 -126 154c0 84 61 192 230 215z" />
    <glyph glyph-name="a" unicode="a" horiz-adv-x="571" 
d="M52 303v135c66 47 149 68 234 68c148 0 217 -62 217 -157v-192c0 -35 5 -54 24 -54c17 0 36 10 45 14v-92c-35 -14 -81 -34 -150 -34c-67 0 -79 35 -85 53c-27 -22 -68 -53 -154 -53c-117 0 -148 71 -148 125c0 97 81 131 189 165c76 24 84 26 103 36c0 37 -6 77 -78 77
c-85 0 -153 -47 -197 -91zM327 120v118c-69 -29 -120 -50 -120 -101c0 -36 25 -51 48 -51c28 0 59 24 72 34z" />
    <glyph glyph-name="b" unicode="b" horiz-adv-x="637" 
d="M55 0v677h176v-209c21 16 68 38 133 38c167 0 238 -132 238 -261c0 -183 -126 -254 -226 -254c-85 0 -125 37 -145 54v-45h-176zM231 348v-190c17 -16 45 -35 89 -35c25 0 97 13 97 126c0 91 -50 131 -97 131c-39 0 -74 -22 -89 -32z" />
    <glyph glyph-name="c" unicode="c" horiz-adv-x="511" 
d="M474 477v-138c-32 10 -93 27 -134 27c-53 0 -120 -30 -120 -116c0 -85 67 -119 120 -119c41 0 100 17 142 30v-138c-40 -14 -89 -32 -168 -32c-237 0 -279 183 -279 259s42 256 279 256c79 0 121 -15 160 -29z" />
    <glyph glyph-name="d" unicode="d" horiz-adv-x="637" 
d="M582 0h-176v45c-20 -17 -60 -54 -145 -54c-100 0 -226 71 -226 254c0 129 71 261 238 261c76 0 110 -23 133 -38v209h176v-677zM406 348c-27 15 -52 32 -89 32c-54 0 -97 -48 -97 -131c0 -96 53 -126 97 -126c50 0 77 25 89 35v190z" />
    <glyph glyph-name="e" unicode="e" horiz-adv-x="596" 
d="M566 241v-35h-350c13 -62 74 -103 141 -103s134 21 196 50v-109c-26 -14 -101 -53 -233 -53c-190 0 -285 116 -285 260s95 255 285 255c111 0 246 -65 246 -265zM211 293h190c0 63 -33 105 -92 105c-57 0 -98 -42 -98 -105z" />
    <glyph glyph-name="f" unicode="f" horiz-adv-x="369" 
d="M353 352h-89v-352h-176v352h-81v119h81v9c0 94 48 206 213 206c36 0 67 -5 88 -9v-126c-19 4 -44 9 -65 9c-37 0 -60 -25 -60 -71v-18h89v-119z" />
    <glyph glyph-name="g" unicode="g" horiz-adv-x="563" 
d="M556 497v-106h-87c19 -16 46 -47 46 -98c0 -82 -69 -155 -197 -162c-23 -1 -61 -6 -61 -33c0 -24 22 -25 89 -31c50 -4 191 -15 191 -144c0 -90 -65 -158 -255 -158c-187 0 -257 57 -257 131c0 20 9 90 118 104c-24 9 -43 36 -43 63c0 26 16 73 76 84
c-64 16 -137 67 -137 160c0 134 109 190 244 190h273zM192 305c0 -42 31 -79 82 -79s88 37 88 81c0 52 -44 83 -83 83c-59 0 -87 -49 -87 -85zM290 -41c-81 0 -115 -16 -115 -54c0 -56 91 -56 112 -56c63 0 110 18 110 58c0 50 -83 52 -107 52z" />
    <glyph glyph-name="h" unicode="h" horiz-adv-x="636" 
d="M56 677h176v-251c62 66 120 80 176 80c108 0 179 -57 179 -201v-305h-176v258c0 4 13 112 -72 112c-52 0 -87 -48 -107 -78v-292h-176v677z" />
    <glyph glyph-name="i" unicode="i" horiz-adv-x="306" 
d="M65 497h176v-497h-176v497zM153 686c41 0 74 -33 74 -74s-33 -74 -74 -74s-74 33 -74 74s33 74 74 74z" />
    <glyph glyph-name="j" unicode="j" horiz-adv-x="306" 
d="M65 497h176v-526c0 -157 -121 -206 -191 -206l-59 134c66 21 74 55 74 154v444zM153 686c41 0 74 -33 74 -74s-33 -74 -74 -74s-74 33 -74 74s33 74 74 74z" />
    <glyph glyph-name="k" unicode="k" horiz-adv-x="647" 
d="M55 677h178v-397l174 217h211l-194 -232l223 -265h-223l-191 236v-236h-178v677z" />
    <glyph glyph-name="l" unicode="l" horiz-adv-x="306" 
d="M65 677h176v-677h-176v677z" />
    <glyph glyph-name="m" unicode="m" horiz-adv-x="990" 
d="M942 303v-303h-176v265c0 71 -23 105 -72 105c-58 0 -94 -59 -107 -78v-292h-176v265c0 62 -15 105 -73 105c-56 0 -85 -51 -106 -78v-292h-176v497h176v-71c51 54 102 80 175 80c64 0 131 -23 163 -97c53 60 109 97 193 97c122 0 179 -75 179 -203z" />
    <glyph glyph-name="n" unicode="n" horiz-adv-x="636" 
d="M56 497h176v-71c56 60 111 80 176 80c185 0 179 -169 179 -214v-292h-176v258c0 32 4 112 -72 112c-59 0 -91 -57 -107 -78v-292h-176v497z" />
    <glyph glyph-name="o" unicode="o" horiz-adv-x="640" 
d="M320 506c190 0 285 -112 285 -257s-95 -258 -285 -258s-285 113 -285 258s95 257 285 257zM320 375c-66 0 -100 -50 -100 -126s34 -127 100 -127s100 51 100 127s-34 126 -100 126z" />
    <glyph glyph-name="p" unicode="p" horiz-adv-x="637" 
d="M55 497h176v-45c20 17 60 54 145 54c100 0 226 -71 226 -254c0 -129 -71 -261 -238 -261c-76 0 -110 23 -133 38v-255h-176v723zM231 149c27 -15 52 -32 89 -32c54 0 97 48 97 131c0 96 -53 126 -97 126c-50 0 -77 -25 -89 -35v-190z" />
    <glyph glyph-name="q" unicode="q" horiz-adv-x="637" 
d="M582 497v-723h-176v255c-23 -15 -57 -38 -133 -38c-167 0 -238 132 -238 261c0 183 126 254 226 254c85 0 125 -37 145 -54v45h176zM406 149v190c-12 10 -39 35 -89 35c-44 0 -97 -30 -97 -126c0 -83 43 -131 97 -131c37 0 62 17 89 32z" />
    <glyph glyph-name="r" unicode="r" horiz-adv-x="493" 
d="M55 497h176v-120c16 44 72 129 157 129c46 0 74 -17 105 -36l-65 -176c-27 26 -50 38 -81 38c-45 0 -81 -22 -116 -118v-214h-176v497z" />
    <glyph glyph-name="s" unicode="s" horiz-adv-x="484" 
d="M419 466v-122c-20 11 -74 50 -144 50c-46 0 -53 -26 -53 -35c0 -14 4 -26 64 -49c119 -46 159 -89 159 -165c0 -85 -61 -154 -199 -154c-82 0 -141 20 -192 39v125c36 -21 88 -52 149 -52c32 0 66 8 66 36c0 25 -27 38 -106 72c-53 23 -117 69 -117 146
c0 70 64 149 202 149c12 0 93 0 171 -40z" />
    <glyph glyph-name="t" unicode="t" horiz-adv-x="469" 
d="M435 497v-122h-168v-159c0 -42 0 -85 71 -85c38 0 71 15 110 35v-137c-32 -16 -103 -38 -167 -38c-131 0 -190 67 -190 186v198h-80v31l236 240h20v-149h168z" />
    <glyph glyph-name="u" unicode="u" horiz-adv-x="636" 
d="M580 0h-176v71c-46 -50 -97 -80 -176 -80c-185 0 -179 169 -179 214v292h176v-258c0 -32 -4 -112 72 -112c60 0 94 59 107 78v292h176v-497z" />
    <glyph glyph-name="v" unicode="v" horiz-adv-x="583" 
d="M3 497h189l103 -260l114 260h171l-226 -497h-130z" />
    <glyph glyph-name="w" unicode="w" horiz-adv-x="854" 
d="M7 497h178l91 -251l97 251h112l98 -251l88 251h176l-196 -497h-111l-111 271l-110 -271h-111z" />
    <glyph glyph-name="x" unicode="x" horiz-adv-x="615" 
d="M5 497h216l92 -135l93 135h192l-188 -236l200 -261h-217l-96 141l-96 -141h-192l192 244z" />
    <glyph glyph-name="y" unicode="y" horiz-adv-x="583" 
d="M13 497h189l101 -247l115 247h171l-338 -723h-178l137 291z" />
    <glyph glyph-name="z" unicode="z" horiz-adv-x="552" 
d="M34 367v130h495v-16l-238 -351h233v-130h-510v16l238 351h-218z" />
    <glyph glyph-name="braceleft" unicode="{" horiz-adv-x="385" 
d="M370 -99v-136h-45c-194 0 -204 83 -204 226c0 128 -23 165 -100 165v139c73 0 101 35 101 144c0 155 0 247 203 247h45v-136c-81 0 -97 -10 -97 -99c0 -115 -12 -196 -88 -226c75 -38 88 -78 88 -203c0 -106 7 -121 97 -121z" />
    <glyph glyph-name="bar" unicode="|" horiz-adv-x="292" 
d="M86 686h121v-921h-121v921z" />
    <glyph glyph-name="braceright" unicode="}" horiz-adv-x="385" 
d="M15 550v136h45c194 0 204 -83 204 -226c0 -128 23 -165 100 -165v-139c-73 0 -101 -35 -101 -144c0 -155 0 -247 -203 -247h-45v136c81 0 97 10 97 99c0 115 12 196 88 226c-75 38 -88 78 -88 203c0 106 -7 121 -97 121z" />
    <glyph glyph-name="asciitilde" unicode="~" horiz-adv-x="667" 
d="M59 244v125c20 17 80 69 160 69c20 0 48 0 132 -41c54 -26 80 -36 112 -36c71 0 129 58 145 72v-124c-63 -55 -115 -69 -156 -69c-36 0 -65 7 -144 46c-57 28 -80 31 -98 31c-37 0 -91 -16 -151 -73z" />
    <glyph glyph-name="exclamdown" unicode="&#xa1;" horiz-adv-x="302" 
d="M150 228c23 -1 31 -8 39 -24c26 -53 67 -207 67 -289c0 -115 -63 -150 -106 -150s-104 35 -104 150c0 82 39 237 65 289c8 16 16 23 39 24zM150 250c-58 0 -104 47 -104 105s46 105 104 105c57 0 106 -47 106 -105c0 -59 -49 -105 -106 -105z" />
    <glyph glyph-name="cent" unicode="&#xa2;" horiz-adv-x="521" 
d="M481 477v-133c-22 11 -53 21 -74 24l-77 -242c59 -9 129 20 159 33v-135c-44 -16 -106 -39 -201 -31l-56 -180h-59l59 188c-129 35 -189 136 -189 243c0 95 50 262 279 262c36 0 59 -3 69 -5l48 151h59l-52 -163c12 -3 24 -8 35 -12zM276 137l76 238
c-91 0 -137 -68 -137 -131c0 -70 42 -95 61 -107z" />
    <glyph glyph-name="sterling" unicode="&#xa3;" horiz-adv-x="573" 
d="M43 274v129h97c40 104 56 144 101 195c58 66 124 88 185 88c27 0 40 -4 54 -8l73 -152c-20 7 -43 15 -76 15c-92 0 -121 -76 -144 -138h77v-129h-118l-32 -123c29 7 37 9 59 9c27 0 45 -2 69 -8c33 -8 44 -9 69 -9c39 0 51 8 67 18v-156c-17 -6 -36 -14 -84 -14
c-39 0 -75 4 -111 9c-41 6 -55 8 -96 8c-84 0 -130 -7 -194 -17c11 57 17 91 27 136s18 87 32 131l5 16h-60z" />
    <glyph glyph-name="fraction" unicode="&#x2044;" horiz-adv-x="103" 
d="M232 686h101l-463 -710h-101z" />
    <glyph glyph-name="fraction" unicode="&#x2215;" horiz-adv-x="103" 
d="M232 686h101l-463 -710h-101z" />
    <glyph glyph-name="yen" unicode="&#xa5;" horiz-adv-x="751" 
d="M537 390h177v-84h-235v-98h235v-84h-235v-124h-203v124h-239v84h239v98h-239v84h178l-209 287h247l138 -213l138 213h216z" />
    <glyph glyph-name="florin" unicode="&#x192;" horiz-adv-x="594" 
d="M-16 -212l19 124c16 -5 33 -8 59 -8c64 0 80 31 93 120l46 320h-113l18 119h113c11 76 32 223 223 223c23 0 50 -2 107 -13l-17 -122c-24 3 -38 5 -58 5c-37 0 -80 -5 -93 -93h111l-19 -119h-109l-58 -396c-9 -61 -35 -101 -79 -134c-50 -38 -106 -40 -129 -40
c-47 0 -84 8 -114 14z" />
    <glyph glyph-name="section" unicode="&#xa7;" horiz-adv-x="615" 
d="M130 431c-20 22 -42 47 -42 98c0 62 47 157 226 157c141 0 206 -57 206 -117c0 -30 -18 -77 -76 -77c-14 0 -49 2 -74 48c-20 37 -31 51 -66 51c-34 0 -64 -18 -64 -47c0 -35 29 -50 131 -104c123 -65 198 -125 198 -236c0 -97 -57 -151 -83 -176c17 -22 42 -52 42 -109
c0 -129 -139 -154 -223 -154c-117 0 -210 50 -210 118c0 32 23 66 72 66c45 0 68 -31 79 -48c15 -23 27 -41 65 -41c21 0 65 10 65 50c0 30 -6 43 -146 118c-152 81 -184 154 -184 229c0 78 46 131 84 174zM211 359c-13 -9 -35 -26 -35 -59c0 -40 44 -80 84 -110
c21 -16 131 -81 155 -97c11 13 30 36 30 67c0 70 -105 128 -234 199z" />
    <glyph glyph-name="currency" unicode="&#xa4;" horiz-adv-x="552" 
d="M78 442l-62 61l90 98l68 -65c6 2 39 26 102 26s95 -24 102 -26l65 65l93 -94l-64 -65c19 -37 24 -74 24 -102c0 -29 -7 -66 -24 -101l64 -65l-93 -94l-65 64c-19 -8 -55 -23 -102 -23s-85 16 -102 23l-60 -64l-98 94l62 65c-23 45 -23 86 -23 102c0 45 13 79 23 101z
M189 341c0 -48 40 -87 87 -87s86 39 86 87s-39 87 -86 87c-48 0 -87 -39 -87 -87z" />
    <glyph glyph-name="quotesingle" unicode="'" horiz-adv-x="278" 
d="M40 677h198v-118l-31 -144h-135l-32 144v118z" />
    <glyph glyph-name="quotedblleft" unicode="&#x201c;" horiz-adv-x="562" 
d="M536 686v-31c-67 -25 -79 -88 -77 -140c53 -15 77 -49 77 -96c0 -53 -44 -102 -104 -102c-88 0 -126 84 -126 154c0 84 61 192 230 215zM267 686v-31c-67 -25 -79 -88 -77 -140c53 -15 77 -49 77 -96c0 -53 -44 -102 -104 -102c-88 0 -126 84 -126 154
c0 84 61 192 230 215z" />
    <glyph glyph-name="guillemotleft" unicode="&#xab;" horiz-adv-x="637" 
d="M332 484l-154 -241l154 -243h-163l-154 243l154 241h163zM615 484l-153 -241l153 -243h-163l-154 243l154 241h163z" />
    <glyph glyph-name="guilsinglleft" unicode="&#x2039;" 
d="M332 484l-153 -241l153 -243h-163l-154 243l154 241h163z" />
    <glyph glyph-name="guilsinglright" unicode="&#x203a;" 
d="M22 484h163l154 -241l-154 -243h-163l153 243z" />
    <glyph glyph-name="endash" unicode="&#x2013;" horiz-adv-x="500" 
d="M-6 311h512v-122h-512v122z" />
    <glyph glyph-name="dagger" unicode="&#x2020;" horiz-adv-x="552" 
d="M313 367l54 -535c1 -8 2 -21 2 -35c0 -31 -19 -32 -62 -32h-57c-38 0 -67 0 -67 34c0 8 1 21 2 25l54 543l-141 -32c-10 -2 -39 -9 -49 -9c-25 0 -29 27 -29 54v42c0 31 0 58 29 58c9 0 18 -1 43 -7l147 -33l-36 180c-2 11 -5 28 -5 38c0 25 24 28 62 28h30
c31 0 62 0 62 -29c0 -11 -1 -15 -8 -51l-31 -166l147 33c25 6 34 7 43 7c29 0 29 -27 29 -58v-42c0 -27 -4 -54 -29 -54c-10 0 -39 7 -49 9z" />
    <glyph glyph-name="daggerdbl" unicode="&#x2021;" horiz-adv-x="552" 
d="M313 457l135 27c40 8 45 8 53 8c29 0 29 -28 29 -47v-41c0 -29 0 -56 -28 -56c-13 0 -37 7 -42 8l-147 29l29 -158l-29 -161l149 31c16 3 26 6 36 6c27 0 32 -19 32 -48v-44c0 -15 0 -52 -29 -52c-10 0 -32 5 -36 5l-152 30l29 -155c3 -15 7 -37 7 -43
c0 -31 -32 -31 -58 -31h-36c-17 0 -50 0 -50 25c0 11 3 25 5 38l30 166l-152 -29c-4 -1 -37 -6 -41 -6c-25 0 -25 38 -25 44v47c0 30 2 53 25 53c7 0 10 -1 34 -6l159 -31l-34 161l34 158l-142 -29c-4 -1 -28 -8 -44 -8c-32 0 -32 33 -32 56v52c0 12 0 36 31 36
c8 0 11 -1 36 -6l151 -29l-30 156c-5 24 -6 35 -6 43c0 30 25 30 64 30h27c15 0 53 0 53 -27c0 -11 -2 -27 -6 -46z" />
    <glyph glyph-name="periodcentered" unicode="&#xb7;" horiz-adv-x="281" 
d="M142 444c58 0 104 -47 104 -105s-46 -105 -104 -105c-57 0 -106 47 -106 105c0 59 49 105 106 105z" />
    <glyph glyph-name="periodcentered" unicode="&#x22c5;" horiz-adv-x="281" 
d="M142 444c58 0 104 -47 104 -105s-46 -105 -104 -105c-57 0 -106 47 -106 105c0 59 49 105 106 105z" />
    <glyph glyph-name="periodcentered" unicode="&#x387;" horiz-adv-x="281" 
d="M142 444c58 0 104 -47 104 -105s-46 -105 -104 -105c-57 0 -106 47 -106 105c0 59 49 105 106 105z" />
    <glyph glyph-name="paragraph" unicode="&#xb6;" horiz-adv-x="583" 
d="M362 609v-844h-68v443c-20 0 -94 4 -151 31c-81 39 -122 121 -122 205c0 92 42 160 98 195c57 36 137 38 241 38h211v-68h-65v-844h-68v844h-76z" />
    <glyph glyph-name="bullet" unicode="&#x2022;" horiz-adv-x="500" 
d="M250 501c89 0 162 -71 162 -162c0 -89 -72 -162 -162 -162s-162 73 -162 162c0 91 73 162 162 162z" />
    <glyph glyph-name="quotesinglbase" unicode="&#x201a;" horiz-adv-x="302" 
d="M35 -168v31c67 25 79 88 77 140c-53 15 -77 49 -77 96c0 53 44 102 104 102c88 0 126 -84 126 -154c0 -84 -61 -192 -230 -215z" />
    <glyph glyph-name="quotedblbase" unicode="&#x201e;" horiz-adv-x="562" 
d="M26 -168v31c67 25 79 88 77 140c-53 15 -77 49 -77 96c0 53 44 102 104 102c88 0 126 -84 126 -154c0 -84 -61 -192 -230 -215zM295 -168v31c67 25 79 88 77 140c-53 15 -77 49 -77 96c0 53 44 102 104 102c88 0 126 -84 126 -154c0 -84 -61 -192 -230 -215z" />
    <glyph glyph-name="quotedblright" unicode="&#x201d;" horiz-adv-x="562" 
d="M26 317v31c67 25 79 88 77 140c-53 15 -77 49 -77 96c0 53 44 102 104 102c88 0 126 -84 126 -154c0 -84 -61 -192 -230 -215zM295 317v31c67 25 79 88 77 140c-53 15 -77 49 -77 96c0 53 44 102 104 102c88 0 126 -84 126 -154c0 -84 -61 -192 -230 -215z" />
    <glyph glyph-name="guillemotright" unicode="&#xbb;" horiz-adv-x="637" 
d="M305 484h163l154 -241l-154 -243h-163l154 243zM22 484h163l154 -241l-154 -243h-163l153 243z" />
    <glyph glyph-name="ellipsis" unicode="&#x2026;" horiz-adv-x="1000" 
d="M500 201c57 0 105 -47 105 -105s-47 -105 -105 -105s-105 47 -105 105c0 59 48 105 105 105zM833 201c58 0 105 -47 105 -105s-47 -105 -105 -105c-57 0 -105 47 -105 105c0 59 48 105 105 105zM167 201c57 0 105 -47 105 -105s-47 -105 -105 -105s-105 47 -105 105
c0 59 47 105 105 105z" />
    <glyph glyph-name="perthousand" unicode="&#x2030;" horiz-adv-x="1175" 
d="M218 453c36 0 66 29 66 65s-30 66 -66 66s-65 -30 -65 -66s29 -65 65 -65zM218 686c93 0 168 -74 168 -167s-75 -168 -168 -168s-167 75 -167 168s74 167 167 167zM207 -18h-100l489 704h99zM956 317c93 0 168 -74 168 -167s-75 -168 -168 -168s-167 75 -167 168
s74 167 167 167zM956 84c36 0 66 29 66 65s-30 66 -66 66s-65 -30 -65 -66s29 -65 65 -65zM583 317c93 0 168 -74 168 -167s-75 -168 -168 -168s-167 75 -167 168s74 167 167 167zM583 84c36 0 66 29 66 65s-30 66 -66 66s-65 -30 -65 -66s29 -65 65 -65z" />
    <glyph glyph-name="questiondown" unicode="&#xbf;" horiz-adv-x="385" 
d="M349 -84l-46 -136c-24 -7 -52 -15 -93 -15c-126 0 -179 75 -179 142c0 60 14 91 91 159c44 39 71 103 71 131c0 21 13 33 37 33c20 0 32 -9 36 -20c7 -19 10 -59 10 -74c0 -41 -16 -84 -19 -91c-11 -26 -35 -69 -35 -92c0 -16 8 -50 61 -50c27 0 42 6 58 13h8zM227 250
c-58 0 -104 47 -104 105s46 105 104 105c57 0 106 -47 106 -105c0 -59 -49 -105 -106 -105z" />
    <glyph glyph-name="grave" unicode="`" horiz-adv-x="333" 
d="M274 563h-94l-180 155h190z" />
    <glyph glyph-name="acute" unicode="&#xb4;" horiz-adv-x="333" 
d="M81 563l84 155h190l-180 -155h-94z" />
    <glyph glyph-name="circumflex" unicode="&#x2c6;" horiz-adv-x="333" 
d="M360 563h-105l-88 90l-89 -90h-105l89 169h209z" />
    <glyph glyph-name="tilde" unicode="&#x2dc;" horiz-adv-x="333" 
d="M281 719h79c0 -101 -46 -156 -115 -156c-50 0 -122 42 -154 42c-29 0 -38 -24 -40 -42h-78c0 113 67 156 114 156c24 0 55 -11 85 -21c29 -11 57 -22 71 -22c27 0 38 25 38 43z" />
    <glyph glyph-name="macron" unicode="&#xaf;" horiz-adv-x="333" 
d="M355 574h-377v120h377v-120z" />
    <glyph glyph-name="breve" unicode="&#x2d8;" horiz-adv-x="333" 
d="M-18 732h87c6 -13 28 -69 98 -69c72 0 89 50 97 69h87c-11 -83 -83 -169 -185 -169c-94 0 -176 74 -184 169z" />
    <glyph glyph-name="dotaccent" unicode="&#x2d9;" horiz-adv-x="333" 
d="M100 630c0 36 29 67 67 67s67 -31 67 -67c0 -37 -29 -67 -67 -67s-67 31 -67 67z" />
    <glyph glyph-name="dieresis" unicode="&#xa8;" horiz-adv-x="333" 
d="M-25 630c0 36 29 67 67 67s67 -31 67 -67c0 -37 -29 -67 -67 -67s-67 31 -67 67zM224 630c0 36 28 67 67 67c38 0 67 -31 67 -67c0 -37 -29 -67 -67 -67c-39 0 -67 31 -67 67z" />
    <glyph glyph-name="dieresis" unicode="&#x308;" horiz-adv-x="333" 
d="M-25 630c0 36 29 67 67 67s67 -31 67 -67c0 -37 -29 -67 -67 -67s-67 31 -67 67zM224 630c0 36 28 67 67 67c38 0 67 -31 67 -67c0 -37 -29 -67 -67 -67c-39 0 -67 31 -67 67z" />
    <glyph glyph-name="ring" unicode="&#x2da;" horiz-adv-x="333" 
d="M166 763c56 0 101 -44 101 -100s-45 -101 -101 -101s-100 45 -100 101s44 100 100 100zM166 715c-29 0 -52 -23 -52 -52s23 -53 52 -53s53 24 53 53s-24 52 -53 52z" />
    <glyph glyph-name="cedilla" unicode="&#xb8;" horiz-adv-x="333" 
d="M134 10h82l-19 -39c53 -13 83 -43 83 -84c0 -51 -44 -97 -161 -97h-96v67c49 0 97 5 97 39c0 20 -13 29 -47 31z" />
    <glyph glyph-name="hungarumlaut" unicode="&#x2dd;" horiz-adv-x="333" 
d="M199 563l84 155h190l-180 -155h-94zM-36 563l83 155h190l-180 -155h-93z" />
    <glyph glyph-name="ogonek" unicode="&#x2db;" horiz-adv-x="333" 
d="M114 8h82c-9 -17 -15 -37 -15 -58c0 -22 24 -48 58 -48c24 0 29 2 43 7v-84c-27 -13 -53 -20 -87 -20c-59 0 -106 41 -106 115c0 29 7 58 25 88z" />
    <glyph glyph-name="caron" unicode="&#x2c7;" horiz-adv-x="333" 
d="M-27 732h105l89 -91l88 91h105l-89 -169h-209z" />
    <glyph glyph-name="emdash" unicode="&#x2014;" horiz-adv-x="1000" 
d="M-6 311h1012v-122h-1012v122z" />
    <glyph glyph-name="AE" unicode="&#xc6;" horiz-adv-x="1113" 
d="M433 677h621v-136h-295v-124h278v-136h-278v-145h302v-136h-506v252h-195l-148 -252h-207zM555 369v213l-125 -213h125z" />
    <glyph glyph-name="ordfeminine" unicode="&#xaa;" horiz-adv-x="375" 
d="M31 545v98c51 27 100 43 158 43c66 0 105 -17 128 -44c18 -21 18 -47 18 -66v-106c0 -22 4 -25 10 -25c9 0 18 3 35 10v-69c-25 -10 -42 -23 -94 -23c-34 0 -52 14 -66 29c-24 -14 -48 -29 -102 -29c-77 0 -99 47 -99 82c0 48 29 77 66 91c34 13 85 24 125 33
c0 26 -21 36 -46 36c-31 0 -70 -5 -133 -60zM209 452v57c-52 -19 -66 -33 -66 -51c0 -17 13 -24 25 -24c15 0 27 8 41 18z" />
    <glyph glyph-name="Lslash" unicode="&#x141;" horiz-adv-x="633" 
d="M289 476l127 97v-133l-127 -97v-181h310v-162h-514v187l-91 -70v133l91 70v357h204v-201z" />
    <glyph glyph-name="Oslash" unicode="&#xd8;" horiz-adv-x="851" 
d="M195 50l-92 -89l-57 59l86 82c-58 63 -91 137 -91 237c0 175 119 347 384 347c144 0 215 -48 243 -67l80 76l57 -58l-76 -73c65 -72 80 -160 80 -225c0 -175 -119 -348 -384 -348c-64 0 -154 10 -230 59zM583 424l-248 -239c31 -16 70 -20 91 -20c112 0 175 75 175 173
c0 34 -7 64 -18 86zM275 240l254 245c-31 20 -67 27 -104 27c-116 0 -176 -78 -176 -172c0 -10 1 -59 26 -100z" />
    <glyph glyph-name="OE" unicode="&#x152;" horiz-adv-x="1083" 
d="M1026 541h-295v-124h276v-136h-276v-145h300v-136h-590c-57 0 -170 0 -269 68c-116 80 -131 211 -131 276c0 84 26 189 116 257c101 77 235 76 322 76h547v-136zM527 136v405h-34c-162 0 -244 -48 -244 -202s82 -203 244 -203h34z" />
    <glyph glyph-name="ordmasculine" unicode="&#xba;" horiz-adv-x="406" 
d="M201 686c123 0 193 -72 193 -162s-70 -161 -193 -161s-189 71 -189 161s66 162 189 162zM201 595c-40 0 -57 -25 -57 -71s17 -70 57 -70s61 24 61 70s-21 71 -61 71z" />
    <glyph glyph-name="ae" unicode="&#xe6;" horiz-adv-x="834" 
d="M52 306v132c44 26 115 68 214 68c80 0 126 -26 157 -44c21 15 61 44 139 44c119 0 242 -79 242 -265v-35h-320c6 -91 110 -103 138 -103c38 0 92 11 171 51v-112c-69 -30 -143 -51 -219 -51c-73 0 -145 21 -204 63c-69 -47 -133 -63 -195 -63c-92 0 -140 63 -140 126
c0 108 126 145 186 163c67 20 74 22 100 33c0 58 -7 81 -72 81c-86 0 -145 -43 -197 -88zM321 116v121c-74 -35 -113 -53 -113 -98c0 -18 9 -53 45 -53c34 0 55 18 68 30zM481 293h159c-2 38 -13 105 -79 105c-46 0 -79 -33 -80 -105z" />
    <glyph glyph-name="dotlessi" unicode="&#x131;" horiz-adv-x="306" 
d="M65 497h176v-497h-176v497z" />
    <glyph glyph-name="lslash" unicode="&#x142;" horiz-adv-x="306" 
d="M241 459l70 54v-106l-70 -54v-353h-176v219l-70 -54v106l70 54v352h176v-218z" />
    <glyph glyph-name="oslash" unicode="&#xf8;" horiz-adv-x="640" 
d="M482 470l69 76l42 -38l-64 -72c52 -49 76 -116 76 -187c0 -109 -67 -258 -282 -258c-98 0 -143 25 -165 37l-69 -77l-42 37l65 73c-6 6 -15 14 -28 30c-32 40 -49 97 -49 155c0 131 85 260 284 260c57 0 114 -9 163 -36zM229 189l151 168c-24 20 -48 20 -58 20
c-75 0 -102 -62 -102 -129c0 -14 2 -38 9 -59zM412 308l-151 -167c17 -13 38 -21 60 -21c41 0 99 25 99 133c0 33 -5 47 -8 55z" />
    <glyph glyph-name="oe" unicode="&#x153;" horiz-adv-x="939" 
d="M909 240v-34h-329c9 -95 115 -103 139 -103c78 0 146 34 178 49v-111c-47 -20 -117 -50 -218 -50c-89 0 -133 22 -173 50c-32 -22 -72 -50 -180 -50c-199 0 -291 116 -291 252c0 152 97 263 281 263c101 0 153 -31 179 -46c37 21 81 46 161 46c118 0 253 -64 253 -266z
M578 293h175c-5 36 -20 104 -92 104c-71 0 -83 -58 -83 -104zM320 375c-59 0 -100 -41 -100 -126c0 -65 27 -127 100 -127c54 0 100 39 100 127c0 84 -39 126 -100 126z" />
    <glyph glyph-name="germandbls" unicode="&#xdf;" horiz-adv-x="661" 
d="M73 0v442c0 73 2 122 36 164c32 39 102 80 229 80c189 0 246 -94 246 -170c0 -83 -57 -114 -82 -128c85 -37 118 -106 118 -187c0 -137 -106 -210 -201 -210c-34 0 -64 6 -93 13v122c23 -1 50 -6 79 14c27 19 39 57 39 92c0 80 -47 101 -109 103v98c63 0 82 45 82 75
c0 35 -28 77 -83 77c-62 0 -85 -42 -85 -103v-482h-176z" />
    <glyph glyph-name="Eth" unicode="&#xd0;" horiz-adv-x="822" 
d="M85 677h281c170 0 247 -43 297 -84c64 -52 118 -143 118 -267c0 -159 -82 -234 -127 -269c-78 -61 -195 -57 -214 -57h-355v286h-75v105h75v286zM289 541v-150h139v-105h-139v-146h87c73 0 197 15 197 195s-124 206 -197 206h-87z" />
    <glyph glyph-name="eth" unicode="&#xf0;" horiz-adv-x="640" 
d="M160 647l101 39c34 -10 64 -21 95 -39l123 39l16 -51l-81 -28c24 -19 55 -43 90 -86c62 -77 101 -163 101 -267c0 -151 -97 -263 -277 -263c-235 0 -293 149 -293 252c0 175 135 254 256 254c31 0 50 -6 69 -13c-17 27 -49 64 -72 83l-159 -53l-16 53l121 40
c-14 10 -22 15 -74 40zM320 375c-66 0 -100 -50 -100 -126s34 -127 100 -127s100 51 100 127s-34 126 -100 126z" />
    <glyph glyph-name="Thorn" unicode="&#xde;" horiz-adv-x="699" 
d="M85 677h204v-127h134c171 0 248 -104 248 -213s-77 -210 -248 -210h-134v-127h-204v677zM332 420h-43v-163h44c85 0 130 9 130 79s-49 84 -131 84z" />
    <glyph glyph-name="thorn" unicode="&#xfe;" horiz-adv-x="637" 
d="M55 677h176v-225c20 17 60 54 145 54c100 0 226 -71 226 -254c0 -129 -71 -261 -238 -261c-76 0 -110 23 -133 38v-255h-176v903zM231 149c27 -15 52 -32 89 -32c54 0 97 48 97 131c0 96 -53 126 -97 126c-50 0 -77 -25 -89 -35v-190z" />
    <glyph glyph-name="one.superior" unicode="&#xb9;" 
d="M238 333h-122v344h122v-344z" />
    <glyph glyph-name="two.superior" unicode="&#xb2;" 
d="M335 423v-90h-315v17c32 26 62 55 91 84c42 42 76 79 76 119c0 26 -19 44 -51 44c-48 0 -91 -38 -103 -49v98c33 18 75 40 135 40c96 0 137 -55 137 -110c0 -57 -36 -96 -89 -153h119z" />
    <glyph glyph-name="three.superior" unicode="&#xb3;" 
d="M38 354v93c33 -25 61 -39 98 -39c26 0 52 11 52 32c0 33 -44 38 -81 38v68c33 0 74 0 74 32c0 14 -15 32 -47 32c-11 0 -41 -2 -85 -28v81c17 6 69 23 115 23c96 0 139 -54 139 -96c0 -27 -13 -52 -45 -75c36 -21 52 -49 52 -83c0 -67 -65 -104 -143 -104
c-48 0 -102 15 -129 26z" />
    <glyph glyph-name="minus" unicode="&#x2212;" horiz-adv-x="667" 
d="M59 399h549v-121h-549v121z" />
    <glyph glyph-name="degree" unicode="&#xb0;" horiz-adv-x="399" 
d="M199 686c77 0 140 -62 140 -139s-62 -140 -140 -140c-76 0 -139 62 -139 140c0 77 63 139 139 139zM199 596c-27 0 -49 -22 -49 -50c0 -27 22 -49 49 -49s50 22 50 49c0 28 -23 50 -50 50z" />
    <glyph glyph-name="logicalnot" unicode="&#xac;" horiz-adv-x="667" 
d="M59 516h549v-357h-121v236h-428v121z" />
    <glyph glyph-name="multiply" unicode="&#xd7;" horiz-adv-x="667" 
d="M158 600l176 -175l175 175l86 -86l-176 -175l176 -176l-86 -85l-175 175l-176 -175l-86 85l176 176l-176 175z" />
    <glyph glyph-name="divide" unicode="&#xf7;" horiz-adv-x="667" 
d="M59 395h549v-114h-549v114zM333 63c-39 0 -71 33 -71 72s32 71 71 71s72 -32 72 -71s-33 -72 -72 -72zM333 470c-39 0 -71 32 -71 71s32 72 71 72s72 -33 72 -72s-33 -71 -72 -71z" />
    <glyph glyph-name="plusminus" unicode="&#xb1;" horiz-adv-x="667" 
d="M59 121h549v-121h-549v121zM59 515h214v214h121v-214h214v-121h-214v-214h-121v214h-214v121z" />
    <glyph glyph-name="mu" unicode="&#xb5;" horiz-adv-x="636" 
d="M225 15v-241h-176v723h176v-260c0 -37 -1 -110 72 -110c53 0 85 45 107 76v294h176v-497h-176v27c-15 -15 -38 -36 -95 -36c-44 0 -63 11 -84 24z" />
    <glyph glyph-name="brokenbar" unicode="&#xa6;" horiz-adv-x="292" 
d="M86 163h121v-398h-121v398zM86 686h121v-398h-121v398z" />
    <glyph glyph-name="copyright" unicode="&#xa9;" horiz-adv-x="802" 
d="M488 268l100 -24c-11 -35 -43 -140 -185 -140c-134 0 -203 99 -203 211c0 123 89 208 204 208c77 0 160 -40 180 -135l-96 -15c-4 17 -18 78 -89 78c-63 0 -90 -59 -90 -134c0 -35 0 -142 91 -142c58 0 79 53 88 93zM401 686c204 0 373 -164 373 -372
c0 -206 -167 -373 -373 -373s-373 167 -373 373c0 208 170 372 373 372zM401 614c-164 0 -301 -132 -301 -300c0 -166 135 -301 301 -301c167 0 301 135 301 301c0 168 -136 300 -301 300z" />
    <glyph glyph-name="registered" unicode="&#xae;" horiz-adv-x="802" 
d="M401 686c204 0 373 -164 373 -372c0 -206 -167 -373 -373 -373s-373 167 -373 373c0 208 170 372 373 372zM401 614c-164 0 -301 -132 -301 -300c0 -166 135 -301 301 -301c167 0 301 135 301 301c0 168 -136 300 -301 300zM232 513h178c81 0 144 -30 144 -113
c0 -81 -71 -104 -108 -111c49 -23 65 -56 93 -107l37 -68h-117c-44 90 -74 141 -93 152c-8 4 -23 8 -35 7v-159h-99v399zM331 444v-100h43c47 0 78 12 78 50c0 34 -31 50 -74 50h-47z" />
    <glyph glyph-name="trademark" unicode="&#x2122;" horiz-adv-x="948" 
d="M18 677h391v-94h-139v-303h-115v303h-137v94zM455 677h174l55 -217l58 217h170v-397h-109v281l-75 -281h-90l-74 281v-281h-109v397z" />
    <glyph glyph-name="onehalf" unicode="&#xbd;" horiz-adv-x="812" 
d="M238 333h-122v344h122v-344zM563 686h101l-463 -710h-101zM793 90v-90h-315v17c32 26 62 55 91 84c42 42 76 79 76 119c0 21 -12 44 -51 44c-41 0 -83 -31 -103 -49v98c34 18 77 40 135 40c116 0 137 -74 137 -110c0 -57 -36 -96 -89 -153h119z" />
    <glyph glyph-name="onequarter" unicode="&#xbc;" horiz-adv-x="812" 
d="M747 0h-109v72h-171v74l188 202h92v-205h47v-71h-47v-72zM551 143h87v93zM585 686h101l-463 -710h-101zM238 333h-122v344h122v-344z" />
    <glyph glyph-name="threequarters" unicode="&#xbe;" horiz-adv-x="812" 
d="M38 354v93c33 -25 61 -39 98 -39c26 0 52 11 52 32c0 33 -44 38 -81 38v68c33 0 74 0 74 32c0 14 -15 32 -47 32c-11 0 -41 -2 -85 -28v81c17 6 69 23 115 23c96 0 139 -54 139 -96c0 -27 -13 -52 -45 -75c36 -21 52 -49 52 -83c0 -67 -65 -104 -143 -104
c-48 0 -102 15 -129 26zM747 0h-109v72h-171v74l188 202h92v-205h47v-71h-47v-72zM551 143h87v93zM593 686h101l-463 -710h-101z" />
    <glyph glyph-name="Aacute" unicode="&#xc1;" horiz-adv-x="833" 
d="M564 137h-294l-56 -137h-209l299 677h226l298 -677h-209zM318 255h199l-99 247zM331 723l84 155h190l-180 -155h-94z" />
    <glyph glyph-name="Agrave" unicode="&#xc0;" horiz-adv-x="833" 
d="M564 137h-294l-56 -137h-209l299 677h226l298 -677h-209zM318 255h199l-99 247zM524 723h-94l-180 155h190z" />
    <glyph glyph-name="Acircumflex" unicode="&#xc2;" horiz-adv-x="833" 
d="M564 137h-294l-56 -137h-209l299 677h226l298 -677h-209zM318 255h199l-99 247zM610 723h-105l-88 90l-89 -90h-105l89 169h209z" />
    <glyph glyph-name="Adieresis" unicode="&#xc4;" horiz-adv-x="833" 
d="M564 137h-294l-56 -137h-209l299 677h226l298 -677h-209zM318 255h199l-99 247zM225 790c0 36 29 67 67 67s67 -31 67 -67c0 -37 -29 -67 -67 -67s-67 31 -67 67zM474 790c0 36 28 67 67 67c38 0 67 -31 67 -67c0 -37 -29 -67 -67 -67c-39 0 -67 31 -67 67z" />
    <glyph glyph-name="Atilde" unicode="&#xc3;" horiz-adv-x="833" 
d="M564 137h-294l-56 -137h-209l299 677h226l298 -677h-209zM318 255h199l-99 247zM531 879h79c0 -101 -46 -156 -115 -156c-50 0 -122 42 -154 42c-29 0 -38 -24 -40 -42h-78c0 113 67 156 114 156c24 0 55 -11 85 -21c29 -11 57 -22 71 -22c27 0 38 25 38 43z" />
    <glyph glyph-name="Aring" unicode="&#xc5;" horiz-adv-x="833" 
d="M564 137h-294l-56 -137h-209l299 677h226l298 -677h-209zM318 255h199l-99 247zM416 923c56 0 101 -44 101 -100s-45 -101 -101 -101s-100 45 -100 101s44 100 100 100zM416 875c-29 0 -52 -23 -52 -52s23 -53 52 -53s53 24 53 53s-24 52 -53 52z" />
    <glyph glyph-name="Ccedilla" unicode="&#xc7;" horiz-adv-x="743" 
d="M457 -8l-10 -21c71 -14 84 -63 84 -84c0 -46 -39 -85 -115 -94c-28 -3 -41 -4 -142 -3v67c43 -1 96 1 96 39c0 26 -26 29 -47 31l49 67c-260 26 -331 207 -331 345c0 231 174 347 386 347c114 0 207 -32 261 -51v-180c-38 23 -114 73 -215 73c-109 0 -224 -65 -224 -192
c0 -109 98 -187 213 -187c109 0 189 48 229 73v-171c-93 -48 -180 -57 -234 -59z" />
    <glyph glyph-name="Eacute" unicode="&#xc9;" horiz-adv-x="647" 
d="M289 136h306v-136h-510v677h502v-136h-298v-124h284v-136h-284v-145zM253 723l84 155h190l-180 -155h-94z" />
    <glyph glyph-name="Egrave" unicode="&#xc8;" horiz-adv-x="647" 
d="M289 136h306v-136h-510v677h502v-136h-298v-124h284v-136h-284v-145zM446 723h-94l-180 155h190z" />
    <glyph glyph-name="Ecircumflex" unicode="&#xca;" horiz-adv-x="647" 
d="M289 136h306v-136h-510v677h502v-136h-298v-124h284v-136h-284v-145zM532 723h-105l-88 90l-89 -90h-105l89 169h209z" />
    <glyph glyph-name="Edieresis" unicode="&#xcb;" horiz-adv-x="647" 
d="M289 136h306v-136h-510v677h502v-136h-298v-124h284v-136h-284v-145zM147 790c0 36 29 67 67 67s67 -31 67 -67c0 -37 -29 -67 -67 -67s-67 31 -67 67zM396 790c0 36 28 67 67 67c38 0 67 -31 67 -67c0 -37 -29 -67 -67 -67c-39 0 -67 31 -67 67z" />
    <glyph glyph-name="Iacute" unicode="&#xcd;" horiz-adv-x="376" 
d="M86 677h204v-677h-204v677zM103 723l84 155h190l-180 -155h-94z" />
    <glyph glyph-name="Igrave" unicode="&#xcc;" horiz-adv-x="376" 
d="M86 677h204v-677h-204v677zM296 723h-94l-180 155h190z" />
    <glyph glyph-name="Icircumflex" unicode="&#xce;" horiz-adv-x="376" 
d="M86 677h204v-677h-204v677zM382 723h-105l-88 90l-89 -90h-105l89 169h209z" />
    <glyph glyph-name="Idieresis" unicode="&#xcf;" horiz-adv-x="376" 
d="M86 677h204v-677h-204v677zM-3 790c0 36 29 67 67 67s67 -31 67 -67c0 -37 -29 -67 -67 -67s-67 31 -67 67zM246 790c0 36 28 67 67 67c38 0 67 -31 67 -67c0 -37 -29 -67 -67 -67c-39 0 -67 31 -67 67z" />
    <glyph glyph-name="Ntilde" unicode="&#xd1;" horiz-adv-x="905" 
d="M85 677h181l350 -375v375h204v-677h-182l-351 377v-377h-202v677zM567 879h79c0 -101 -46 -156 -115 -156c-50 0 -122 42 -154 42c-29 0 -38 -24 -40 -42h-78c0 113 67 156 114 156c24 0 55 -11 85 -21c29 -11 57 -22 71 -22c27 0 38 25 38 43z" />
    <glyph glyph-name="Oacute" unicode="&#xd3;" horiz-adv-x="851" 
d="M809 339c0 -186 -128 -348 -384 -348c-265 0 -384 173 -384 348s119 347 384 347c258 0 384 -164 384 -347zM249 339c0 -102 65 -174 176 -174c113 0 176 73 176 174c0 100 -63 173 -176 173c-111 0 -176 -71 -176 -173zM340 723l84 155h190l-180 -155h-94z" />
    <glyph glyph-name="Ograve" unicode="&#xd2;" horiz-adv-x="851" 
d="M809 339c0 -186 -128 -348 -384 -348c-265 0 -384 173 -384 348s119 347 384 347c258 0 384 -164 384 -347zM249 339c0 -102 65 -174 176 -174c113 0 176 73 176 174c0 100 -63 173 -176 173c-111 0 -176 -71 -176 -173zM533 723h-94l-180 155h190z" />
    <glyph glyph-name="Ocircumflex" unicode="&#xd4;" horiz-adv-x="851" 
d="M809 339c0 -186 -128 -348 -384 -348c-265 0 -384 173 -384 348s119 347 384 347c258 0 384 -164 384 -347zM249 339c0 -102 65 -174 176 -174c113 0 176 73 176 174c0 100 -63 173 -176 173c-111 0 -176 -71 -176 -173zM619 723h-105l-88 90l-89 -90h-105l89 169h209z
" />
    <glyph glyph-name="Odieresis" unicode="&#xd6;" horiz-adv-x="851" 
d="M809 339c0 -186 -128 -348 -384 -348c-265 0 -384 173 -384 348s119 347 384 347c258 0 384 -164 384 -347zM249 339c0 -102 65 -174 176 -174c113 0 176 73 176 174c0 100 -63 173 -176 173c-111 0 -176 -71 -176 -173zM234 790c0 36 29 67 67 67s67 -31 67 -67
c0 -37 -29 -67 -67 -67s-67 31 -67 67zM483 790c0 36 28 67 67 67c38 0 67 -31 67 -67c0 -37 -29 -67 -67 -67c-39 0 -67 31 -67 67z" />
    <glyph glyph-name="Otilde" unicode="&#xd5;" horiz-adv-x="851" 
d="M809 339c0 -186 -128 -348 -384 -348c-265 0 -384 173 -384 348s119 347 384 347c258 0 384 -164 384 -347zM249 339c0 -102 65 -174 176 -174c113 0 176 73 176 174c0 100 -63 173 -176 173c-111 0 -176 -71 -176 -173zM540 879h79c0 -101 -46 -156 -115 -156
c-50 0 -122 42 -154 42c-29 0 -38 -24 -40 -42h-78c0 113 67 156 114 156c24 0 55 -11 85 -21c29 -11 57 -22 71 -22c27 0 38 25 38 43z" />
    <glyph glyph-name="Scaron" unicode="&#x160;" horiz-adv-x="612" 
d="M529 629v-159c-39 27 -115 77 -202 77c-56 0 -72 -27 -72 -51c0 -28 21 -43 78 -70c135 -64 225 -111 225 -229c0 -129 -107 -206 -256 -206c-19 0 -114 0 -238 54v166c38 -24 117 -74 207 -74c81 0 83 43 83 50c0 40 -48 62 -103 85c-95 40 -193 97 -193 218
c0 105 77 196 244 196c127 0 213 -48 227 -57zM113 892h105l89 -91l88 91h105l-89 -169h-209z" />
    <glyph glyph-name="Uacute" unicode="&#xda;" horiz-adv-x="865" 
d="M75 677h204v-321c0 -140 65 -195 154 -195c87 0 153 54 153 194v322h204v-374c0 -244 -206 -312 -357 -312s-358 68 -358 312v374zM347 723l84 155h190l-180 -155h-94z" />
    <glyph glyph-name="Ugrave" unicode="&#xd9;" horiz-adv-x="865" 
d="M75 677h204v-321c0 -140 65 -195 154 -195c87 0 153 54 153 194v322h204v-374c0 -244 -206 -312 -357 -312s-358 68 -358 312v374zM540 723h-94l-180 155h190z" />
    <glyph glyph-name="Ucircumflex" unicode="&#xdb;" horiz-adv-x="865" 
d="M75 677h204v-321c0 -140 65 -195 154 -195c87 0 153 54 153 194v322h204v-374c0 -244 -206 -312 -357 -312s-358 68 -358 312v374zM626 723h-105l-88 90l-89 -90h-105l89 169h209z" />
    <glyph glyph-name="Udieresis" unicode="&#xdc;" horiz-adv-x="865" 
d="M75 677h204v-321c0 -140 65 -195 154 -195c87 0 153 54 153 194v322h204v-374c0 -244 -206 -312 -357 -312s-358 68 -358 312v374zM241 790c0 36 29 67 67 67s67 -31 67 -67c0 -37 -29 -67 -67 -67s-67 31 -67 67zM490 790c0 36 28 67 67 67c38 0 67 -31 67 -67
c0 -37 -29 -67 -67 -67c-39 0 -67 31 -67 67z" />
    <glyph glyph-name="Yacute" unicode="&#xdd;" horiz-adv-x="751" 
d="M6 677h212l155 -213l156 213h216l-265 -367v-310h-204v306zM290 723l84 155h190l-180 -155h-94z" />
    <glyph glyph-name="Ydieresis" unicode="&#x178;" horiz-adv-x="751" 
d="M6 677h212l155 -213l156 213h216l-265 -367v-310h-204v306zM184 790c0 36 29 67 67 67s67 -31 67 -67c0 -37 -29 -67 -67 -67s-67 31 -67 67zM433 790c0 36 28 67 67 67c38 0 67 -31 67 -67c0 -37 -29 -67 -67 -67c-39 0 -67 31 -67 67z" />
    <glyph glyph-name="Zcaron" unicode="&#x17d;" horiz-adv-x="729" 
d="M706 0h-687l350 515h-321v162h658l-349 -515h349v-162zM171 892h105l89 -91l88 91h105l-89 -169h-209z" />
    <glyph glyph-name="aacute" unicode="&#xe1;" horiz-adv-x="571" 
d="M52 303v135c66 47 149 68 234 68c148 0 217 -62 217 -157v-192c0 -35 5 -54 24 -54c17 0 36 10 45 14v-92c-35 -14 -81 -34 -150 -34c-67 0 -79 35 -85 53c-27 -22 -68 -53 -154 -53c-117 0 -148 71 -148 125c0 97 81 131 189 165c76 24 84 26 103 36c0 37 -6 77 -78 77
c-85 0 -153 -47 -197 -91zM327 120v118c-69 -29 -120 -50 -120 -101c0 -36 25 -51 48 -51c28 0 59 24 72 34zM200 563l84 155h190l-180 -155h-94z" />
    <glyph glyph-name="agrave" unicode="&#xe0;" horiz-adv-x="571" 
d="M52 303v135c66 47 149 68 234 68c148 0 217 -62 217 -157v-192c0 -35 5 -54 24 -54c17 0 36 10 45 14v-92c-35 -14 -81 -34 -150 -34c-67 0 -79 35 -85 53c-27 -22 -68 -53 -154 -53c-117 0 -148 71 -148 125c0 97 81 131 189 165c76 24 84 26 103 36c0 37 -6 77 -78 77
c-85 0 -153 -47 -197 -91zM327 120v118c-69 -29 -120 -50 -120 -101c0 -36 25 -51 48 -51c28 0 59 24 72 34zM393 563h-94l-180 155h190z" />
    <glyph glyph-name="acircumflex" unicode="&#xe2;" horiz-adv-x="571" 
d="M52 303v135c66 47 149 68 234 68c148 0 217 -62 217 -157v-192c0 -35 5 -54 24 -54c17 0 36 10 45 14v-92c-35 -14 -81 -34 -150 -34c-67 0 -79 35 -85 53c-27 -22 -68 -53 -154 -53c-117 0 -148 71 -148 125c0 97 81 131 189 165c76 24 84 26 103 36c0 37 -6 77 -78 77
c-85 0 -153 -47 -197 -91zM327 120v118c-69 -29 -120 -50 -120 -101c0 -36 25 -51 48 -51c28 0 59 24 72 34zM469 563h-105l-88 90l-89 -90h-105l89 169h209z" />
    <glyph glyph-name="adieresis" unicode="&#xe4;" horiz-adv-x="571" 
d="M52 303v135c66 47 149 68 234 68c148 0 217 -62 217 -157v-192c0 -35 5 -54 24 -54c17 0 36 10 45 14v-92c-35 -14 -81 -34 -150 -34c-67 0 -79 35 -85 53c-27 -22 -68 -53 -154 -53c-117 0 -148 71 -148 125c0 97 81 131 189 165c76 24 84 26 103 36c0 37 -6 77 -78 77
c-85 0 -153 -47 -197 -91zM327 120v118c-69 -29 -120 -50 -120 -101c0 -36 25 -51 48 -51c28 0 59 24 72 34zM94 630c0 36 29 67 67 67s67 -31 67 -67c0 -37 -29 -67 -67 -67s-67 31 -67 67zM343 630c0 36 28 67 67 67c38 0 67 -31 67 -67c0 -37 -29 -67 -67 -67
c-39 0 -67 31 -67 67z" />
    <glyph glyph-name="atilde" unicode="&#xe3;" horiz-adv-x="571" 
d="M52 303v135c66 47 149 68 234 68c148 0 217 -62 217 -157v-192c0 -35 5 -54 24 -54c17 0 36 10 45 14v-92c-35 -14 -81 -34 -150 -34c-67 0 -79 35 -85 53c-27 -22 -68 -53 -154 -53c-117 0 -148 71 -148 125c0 97 81 131 189 165c76 24 84 26 103 36c0 37 -6 77 -78 77
c-85 0 -153 -47 -197 -91zM327 120v118c-69 -29 -120 -50 -120 -101c0 -36 25 -51 48 -51c28 0 59 24 72 34zM400 719h79c0 -101 -46 -156 -115 -156c-50 0 -122 42 -154 42c-29 0 -38 -24 -40 -42h-78c0 113 67 156 114 156c24 0 55 -11 85 -21c29 -11 57 -22 71 -22
c27 0 38 25 38 43z" />
    <glyph glyph-name="aring" unicode="&#xe5;" horiz-adv-x="571" 
d="M52 303v135c66 47 149 68 234 68c148 0 217 -62 217 -157v-192c0 -35 5 -54 24 -54c17 0 36 10 45 14v-92c-35 -14 -81 -34 -150 -34c-67 0 -79 35 -85 53c-27 -22 -68 -53 -154 -53c-117 0 -148 71 -148 125c0 97 81 131 189 165c76 24 84 26 103 36c0 37 -6 77 -78 77
c-85 0 -153 -47 -197 -91zM327 120v118c-69 -29 -120 -50 -120 -101c0 -36 25 -51 48 -51c28 0 59 24 72 34zM285 763c56 0 101 -44 101 -100s-45 -101 -101 -101s-100 45 -100 101s44 100 100 100zM285 715c-29 0 -52 -23 -52 -52s23 -53 52 -53s53 24 53 53s-24 52 -53 52
z" />
    <glyph glyph-name="ccedilla" unicode="&#xe7;" horiz-adv-x="511" 
d="M341 -8l-10 -21c71 -14 83 -63 83 -84c0 -58 -53 -97 -155 -97h-102v67c45 0 97 1 97 39c0 28 -31 29 -47 31l50 68c-181 25 -222 179 -222 255s42 256 279 256c79 0 121 -15 160 -29v-138c-32 10 -93 27 -134 27c-53 0 -120 -30 -120 -116c0 -85 67 -119 120 -119
c41 0 100 17 142 30v-138c-40 -14 -67 -25 -141 -31z" />
    <glyph glyph-name="eacute" unicode="&#xe9;" horiz-adv-x="596" 
d="M566 241v-35h-350c13 -62 74 -103 141 -103s134 21 196 50v-109c-26 -14 -101 -53 -233 -53c-190 0 -285 116 -285 260s95 255 285 255c111 0 246 -65 246 -265zM211 293h190c0 63 -33 105 -92 105c-57 0 -98 -42 -98 -105zM213 563l84 155h190l-180 -155h-94z" />
    <glyph glyph-name="egrave" unicode="&#xe8;" horiz-adv-x="596" 
d="M566 241v-35h-350c13 -62 74 -103 141 -103s134 21 196 50v-109c-26 -14 -101 -53 -233 -53c-190 0 -285 116 -285 260s95 255 285 255c111 0 246 -65 246 -265zM211 293h190c0 63 -33 105 -92 105c-57 0 -98 -42 -98 -105zM406 563h-94l-180 155h190z" />
    <glyph glyph-name="ecircumflex" unicode="&#xea;" horiz-adv-x="596" 
d="M566 241v-35h-350c13 -62 74 -103 141 -103s134 21 196 50v-109c-26 -14 -101 -53 -233 -53c-190 0 -285 116 -285 260s95 255 285 255c111 0 246 -65 246 -265zM211 293h190c0 63 -33 105 -92 105c-57 0 -98 -42 -98 -105zM492 563h-105l-88 90l-89 -90h-105l89 169h209
z" />
    <glyph glyph-name="edieresis" unicode="&#xeb;" horiz-adv-x="596" 
d="M566 241v-35h-350c13 -62 74 -103 141 -103s134 21 196 50v-109c-26 -14 -101 -53 -233 -53c-190 0 -285 116 -285 260s95 255 285 255c111 0 246 -65 246 -265zM211 293h190c0 63 -33 105 -92 105c-57 0 -98 -42 -98 -105zM107 630c0 36 29 67 67 67s67 -31 67 -67
c0 -37 -29 -67 -67 -67s-67 31 -67 67zM356 630c0 36 28 67 67 67c38 0 67 -31 67 -67c0 -37 -29 -67 -67 -67c-39 0 -67 31 -67 67z" />
    <glyph glyph-name="iacute" unicode="&#xed;" horiz-adv-x="306" 
d="M65 497h176v-497h-176v497zM58 563l84 155h190l-180 -155h-94z" />
    <glyph glyph-name="igrave" unicode="&#xec;" horiz-adv-x="306" 
d="M65 497h176v-497h-176v497zM261 563h-94l-180 155h190z" />
    <glyph glyph-name="icircumflex" unicode="&#xee;" horiz-adv-x="306" 
d="M65 497h176v-497h-176v497zM347 563h-105l-88 90l-89 -90h-105l89 169h209z" />
    <glyph glyph-name="idieresis" unicode="&#xef;" horiz-adv-x="306" 
d="M65 497h176v-497h-176v497zM-38 630c0 36 29 67 67 67s67 -31 67 -67c0 -37 -29 -67 -67 -67s-67 31 -67 67zM211 630c0 36 28 67 67 67c38 0 67 -31 67 -67c0 -37 -29 -67 -67 -67c-39 0 -67 31 -67 67z" />
    <glyph glyph-name="ntilde" unicode="&#xf1;" horiz-adv-x="636" 
d="M56 497h176v-71c56 60 111 80 176 80c185 0 179 -169 179 -214v-292h-176v258c0 32 4 112 -72 112c-59 0 -91 -57 -107 -78v-292h-176v497zM433 719h79c0 -101 -46 -156 -115 -156c-50 0 -122 42 -154 42c-29 0 -38 -24 -40 -42h-78c0 113 67 156 114 156
c24 0 55 -11 85 -21c29 -11 57 -22 71 -22c27 0 38 25 38 43z" />
    <glyph glyph-name="oacute" unicode="&#xf3;" horiz-adv-x="640" 
d="M320 506c190 0 285 -112 285 -257s-95 -258 -285 -258s-285 113 -285 258s95 257 285 257zM320 375c-66 0 -100 -50 -100 -126s34 -127 100 -127s100 51 100 127s-34 126 -100 126zM235 563l84 155h190l-180 -155h-94z" />
    <glyph glyph-name="ograve" unicode="&#xf2;" horiz-adv-x="640" 
d="M320 506c190 0 285 -112 285 -257s-95 -258 -285 -258s-285 113 -285 258s95 257 285 257zM320 375c-66 0 -100 -50 -100 -126s34 -127 100 -127s100 51 100 127s-34 126 -100 126zM428 563h-94l-180 155h190z" />
    <glyph glyph-name="ocircumflex" unicode="&#xf4;" horiz-adv-x="640" 
d="M320 506c190 0 285 -112 285 -257s-95 -258 -285 -258s-285 113 -285 258s95 257 285 257zM320 375c-66 0 -100 -50 -100 -126s34 -127 100 -127s100 51 100 127s-34 126 -100 126zM514 563h-105l-88 90l-89 -90h-105l89 169h209z" />
    <glyph glyph-name="odieresis" unicode="&#xf6;" horiz-adv-x="640" 
d="M320 506c190 0 285 -112 285 -257s-95 -258 -285 -258s-285 113 -285 258s95 257 285 257zM320 375c-66 0 -100 -50 -100 -126s34 -127 100 -127s100 51 100 127s-34 126 -100 126zM129 630c0 36 29 67 67 67s67 -31 67 -67c0 -37 -29 -67 -67 -67s-67 31 -67 67z
M378 630c0 36 28 67 67 67c38 0 67 -31 67 -67c0 -37 -29 -67 -67 -67c-39 0 -67 31 -67 67z" />
    <glyph glyph-name="otilde" unicode="&#xf5;" horiz-adv-x="640" 
d="M320 506c190 0 285 -112 285 -257s-95 -258 -285 -258s-285 113 -285 258s95 257 285 257zM320 375c-66 0 -100 -50 -100 -126s34 -127 100 -127s100 51 100 127s-34 126 -100 126zM435 719h79c0 -101 -46 -156 -115 -156c-50 0 -122 42 -154 42c-29 0 -38 -24 -40 -42
h-78c0 113 67 156 114 156c24 0 55 -11 85 -21c29 -11 57 -22 71 -22c27 0 38 25 38 43z" />
    <glyph glyph-name="scaron" unicode="&#x161;" horiz-adv-x="484" 
d="M419 466v-122c-20 11 -74 50 -144 50c-46 0 -53 -26 -53 -35c0 -14 4 -26 64 -49c119 -46 159 -89 159 -165c0 -85 -61 -154 -199 -154c-82 0 -141 20 -192 39v125c36 -21 88 -52 149 -52c32 0 66 8 66 36c0 25 -27 38 -106 72c-53 23 -117 69 -117 146
c0 70 64 149 202 149c12 0 93 0 171 -40zM49 732h105l89 -91l88 91h105l-89 -169h-209z" />
    <glyph glyph-name="uacute" unicode="&#xfa;" horiz-adv-x="636" 
d="M580 0h-176v71c-46 -50 -97 -80 -176 -80c-185 0 -179 169 -179 214v292h176v-258c0 -32 -4 -112 72 -112c60 0 94 59 107 78v292h176v-497zM243 563l84 155h190l-180 -155h-94z" />
    <glyph glyph-name="ugrave" unicode="&#xf9;" horiz-adv-x="636" 
d="M580 0h-176v71c-46 -50 -97 -80 -176 -80c-185 0 -179 169 -179 214v292h176v-258c0 -32 -4 -112 72 -112c60 0 94 59 107 78v292h176v-497zM426 563h-94l-180 155h190z" />
    <glyph glyph-name="ucircumflex" unicode="&#xfb;" horiz-adv-x="636" 
d="M580 0h-176v71c-46 -50 -97 -80 -176 -80c-185 0 -179 169 -179 214v292h176v-258c0 -32 -4 -112 72 -112c60 0 94 59 107 78v292h176v-497zM512 563h-105l-88 90l-89 -90h-105l89 169h209z" />
    <glyph glyph-name="udieresis" unicode="&#xfc;" horiz-adv-x="636" 
d="M580 0h-176v71c-46 -50 -97 -80 -176 -80c-185 0 -179 169 -179 214v292h176v-258c0 -32 -4 -112 72 -112c60 0 94 59 107 78v292h176v-497zM127 630c0 36 29 67 67 67s67 -31 67 -67c0 -37 -29 -67 -67 -67s-67 31 -67 67zM376 630c0 36 28 67 67 67c38 0 67 -31 67 -67
c0 -37 -29 -67 -67 -67c-39 0 -67 31 -67 67z" />
    <glyph glyph-name="yacute" unicode="&#xfd;" horiz-adv-x="583" 
d="M13 497h189l101 -247l115 247h171l-338 -723h-178l137 291zM206 563l84 155h190l-180 -155h-94z" />
    <glyph glyph-name="ydieresis" unicode="&#xff;" horiz-adv-x="583" 
d="M13 497h189l101 -247l115 247h171l-338 -723h-178l137 291zM100 630c0 36 29 67 67 67s67 -31 67 -67c0 -37 -29 -67 -67 -67s-67 31 -67 67zM349 630c0 36 28 67 67 67c38 0 67 -31 67 -67c0 -37 -29 -67 -67 -67c-39 0 -67 31 -67 67z" />
    <glyph glyph-name="zcaron" unicode="&#x17e;" horiz-adv-x="552" 
d="M34 367v130h495v-16l-238 -351h233v-130h-510v16l238 351h-218zM83 732h105l89 -91l88 91h105l-89 -169h-209z" />
    <glyph glyph-name="Euro" unicode="&#x20ac;" horiz-adv-x="622" 
d="M521 310l-12 -84h-233c23 -53 65 -91 126 -91c88 0 153 38 185 63v-157c-72 -46 -144 -50 -216 -50c-155 0 -261 91 -296 235h-73l12 84h49c-1 10 -1 19 -1 29v26h-60l12 84h60c38 162 163 237 300 237c92 0 167 -22 211 -41v-165c-31 23 -92 63 -174 63
c-60 0 -107 -36 -133 -94h257l-12 -84h-266c-1 -9 -1 -19 -1 -29c0 -9 0 -17 1 -26h264z" />
    <glyph glyph-name="oneeighth" unicode="&#x215b;" horiz-adv-x="812" 
d="M238 333h-122v344h122v-344zM563 686h101l-463 -710h-101zM535 178c-33 17 -55 38 -55 76c0 43 40 99 154 99c116 0 155 -55 155 -99c0 -38 -22 -59 -56 -76c42 -14 67 -45 67 -83c0 -34 -26 -100 -166 -100c-138 0 -166 64 -166 100c0 38 25 69 67 83zM634 208
c20 0 36 15 36 38c0 17 -10 38 -36 38s-35 -19 -35 -38c0 -23 16 -38 35 -38zM634 63c22 0 43 16 43 42c0 29 -20 43 -43 43c-22 0 -43 -14 -43 -43c0 -28 22 -42 43 -42z" />
    <glyph glyph-name="threeeighths" unicode="&#x215c;" horiz-adv-x="812" 
d="M563 686h101l-463 -710h-101zM535 178c-33 17 -55 38 -55 76c0 43 40 99 154 99c116 0 155 -55 155 -99c0 -38 -22 -59 -56 -76c42 -14 67 -45 67 -83c0 -34 -26 -100 -166 -100c-138 0 -166 64 -166 100c0 38 25 69 67 83zM634 208c20 0 36 15 36 38c0 17 -10 38 -36 38
s-35 -19 -35 -38c0 -23 16 -38 35 -38zM634 63c22 0 43 16 43 42c0 29 -20 43 -43 43c-22 0 -43 -14 -43 -43c0 -28 22 -42 43 -42zM38 354v93c33 -25 61 -39 98 -39c26 0 52 11 52 32c0 33 -44 38 -81 38v68c33 0 74 0 74 32c0 14 -15 32 -47 32c-11 0 -41 -2 -85 -28v81
c17 6 69 23 115 23c96 0 139 -54 139 -96c0 -27 -13 -52 -45 -75c36 -21 52 -49 52 -83c0 -67 -65 -104 -143 -104c-48 0 -102 15 -129 26z" />
    <glyph glyph-name="fiveeighths" unicode="&#x215d;" horiz-adv-x="812" 
d="M563 686h101l-463 -710h-101zM535 178c-33 17 -55 38 -55 76c0 43 40 99 154 99c116 0 155 -55 155 -99c0 -38 -22 -59 -56 -76c42 -14 67 -45 67 -83c0 -34 -26 -100 -166 -100c-138 0 -166 64 -166 100c0 38 25 69 67 83zM634 208c20 0 36 15 36 38c0 17 -10 38 -36 38
s-35 -19 -35 -38c0 -23 16 -38 35 -38zM634 63c22 0 43 16 43 42c0 29 -20 43 -43 43c-22 0 -43 -14 -43 -43c0 -28 22 -42 43 -42zM320 677v-85h-137l-6 -50c11 0 21 0 33 -1c73 -6 113 -51 113 -100c0 -63 -52 -113 -152 -113c-46 0 -90 9 -130 27v81
c22 -10 64 -25 98 -25c39 0 58 14 58 36s-20 41 -75 41c-27 0 -44 -5 -57 -9l21 198h234z" />
    <glyph glyph-name="seveneighths" unicode="&#x215e;" horiz-adv-x="812" 
d="M563 686h101l-463 -710h-101zM535 178c-33 17 -55 38 -55 76c0 43 40 99 154 99c116 0 155 -55 155 -99c0 -38 -22 -59 -56 -76c42 -14 67 -45 67 -83c0 -34 -26 -100 -166 -100c-138 0 -166 64 -166 100c0 38 25 69 67 83zM634 208c20 0 36 15 36 38c0 17 -10 38 -36 38
s-35 -19 -35 -38c0 -23 16 -38 35 -38zM634 63c22 0 43 16 43 42c0 29 -20 43 -43 43c-22 0 -43 -14 -43 -43c0 -28 22 -42 43 -42zM163 330l-118 21l119 231h-140v95h317v-9z" />
    <glyph glyph-name="onethird" unicode="&#x2153;" horiz-adv-x="812" 
d="M238 333h-122v344h122v-344zM563 686h101l-463 -710h-101zM495 21v93c33 -25 61 -39 98 -39c26 0 52 11 52 32c0 33 -44 38 -81 38v68c33 0 74 0 74 32c0 14 -15 32 -47 32c-11 0 -41 -2 -85 -28v81c17 6 69 23 115 23c96 0 139 -54 139 -96c0 -27 -13 -52 -45 -75
c36 -21 52 -49 52 -83c0 -67 -65 -104 -143 -104c-48 0 -102 15 -129 26z" />
    <glyph glyph-name="twothirds" unicode="&#x2154;" horiz-adv-x="812" 
d="M563 686h101l-463 -710h-101zM495 21v93c33 -25 61 -39 98 -39c26 0 52 11 52 32c0 33 -44 38 -81 38v68c33 0 74 0 74 32c0 14 -15 32 -47 32c-11 0 -41 -2 -85 -28v81c17 6 69 23 115 23c96 0 139 -54 139 -96c0 -27 -13 -52 -45 -75c36 -21 52 -49 52 -83
c0 -67 -65 -104 -143 -104c-48 0 -102 15 -129 26zM335 423v-90h-315v17c32 26 62 55 91 84c42 42 76 79 76 119c0 26 -19 44 -51 44c-48 0 -91 -38 -103 -49v98c33 18 75 40 135 40c96 0 137 -55 137 -110c0 -57 -36 -96 -89 -153h119z" />
    <glyph glyph-name="ampersand.sc" unicode="&#xf726;" horiz-adv-x="571" 
d="M466 122l113 -122h-191l-32 35c-37 -18 -78 -42 -144 -42c-142 0 -181 86 -181 147c0 51 22 98 106 138c-26 31 -54 57 -54 114c0 49 47 147 186 147c122 0 167 -73 167 -135c0 -75 -94 -120 -114 -132l60 -63c25 17 41 50 49 78h156c-32 -64 -57 -111 -121 -165z
M265 333c49 28 45 50 45 62c0 17 -13 35 -43 35c-29 0 -42 -17 -42 -38c0 -23 19 -40 40 -59zM275 124l-68 74c-29 -20 -36 -33 -36 -48c0 -21 13 -40 52 -40c20 0 33 3 52 14z" />
    <glyph glyph-name="zero.oldstyle" unicode="&#xf730;" horiz-adv-x="573" 
d="M26 254c0 161 121 267 263 267c148 0 258 -101 258 -264c0 -180 -130 -266 -259 -266c-139 0 -262 96 -262 263zM287 359c-61 0 -85 -47 -85 -102c0 -52 23 -104 84 -104c55 0 85 42 85 106c0 54 -26 100 -84 100z" />
    <glyph glyph-name="one.oldstyle" unicode="&#xf731;" horiz-adv-x="469" 
d="M375 0h-176v291l-138 -123v196l171 157h143v-521z" />
    <glyph glyph-name="two.oldstyle" unicode="&#xf732;" horiz-adv-x="573" 
d="M395 150h132v-150h-492v35l140 101c93 67 155 120 155 176c0 25 -10 57 -83 57c-61 0 -127 -35 -195 -77v166c95 41 162 63 255 63c154 0 201 -79 201 -166c0 -67 -23 -116 -113 -205z" />
    <glyph glyph-name="three.oldstyle" unicode="&#xf733;" horiz-adv-x="520" 
d="M34 512h471l-148 -312c99 -27 139 -124 139 -192c0 -134 -120 -242 -283 -242c-80 0 -137 23 -183 41v170c50 -34 97 -59 170 -59c63 0 120 23 120 91c0 54 -42 100 -125 100c-36 0 -61 -6 -73 -9l127 262h-215v150z" />
    <glyph glyph-name="four.oldstyle" unicode="&#xf734;" horiz-adv-x="591" 
d="M585 0h-83v-234h-166v234h-331v116l373 405h124v-405h83v-116zM176 116h160v176z" />
    <glyph glyph-name="five.oldstyle" unicode="&#xf735;" horiz-adv-x="510" 
d="M500 512v-150h-229l-25 -129c231 -23 234 -191 234 -219c0 -105 -61 -248 -285 -248c-77 0 -129 19 -180 36v169c64 -31 118 -53 185 -53c65 0 104 26 104 74c0 27 -17 95 -154 95c-13 0 -58 0 -94 -6l69 431h375z" />
    <glyph glyph-name="six.oldstyle" unicode="&#xf736;" horiz-adv-x="569" 
d="M294 691l164 -58c-84 -74 -155 -144 -174 -184c14 3 31 5 50 5c104 0 215 -82 215 -220c0 -125 -102 -243 -261 -243c-147 0 -268 101 -268 268c0 179 137 331 274 432zM373 238c0 36 -19 91 -87 91c-48 0 -90 -41 -90 -92c0 -50 34 -94 86 -94c49 0 91 34 91 95z" />
    <glyph glyph-name="seven.oldstyle" unicode="&#xf737;" horiz-adv-x="552" 
d="M256 -175l-158 50l208 487h-274v150h513v-21z" />
    <glyph glyph-name="eight.oldstyle" unicode="&#xf738;" horiz-adv-x="568" 
d="M129 349c-35 16 -86 71 -86 145c0 71 48 192 242 192c179 0 241 -112 241 -192s-51 -127 -86 -145c88 -44 108 -120 108 -167c0 -86 -59 -191 -264 -191c-214 0 -264 116 -264 191c0 54 24 120 109 167zM284 396c44 0 71 38 71 85c0 35 -17 85 -69 85
c-56 0 -72 -48 -72 -85c0 -34 18 -85 70 -85zM284 126c49 0 88 36 88 85s-39 85 -88 85s-88 -36 -88 -85s39 -85 88 -85z" />
    <glyph glyph-name="nine.oldstyle" unicode="&#xf739;" horiz-adv-x="569" 
d="M275 -179l-164 58c72 63 122 107 174 184c-14 -2 -26 -5 -45 -5c-116 0 -220 89 -220 220c0 125 102 243 261 243c179 0 268 -132 268 -268c0 -156 -112 -317 -274 -432zM196 274c0 -36 19 -91 87 -91c58 0 90 51 90 92c0 50 -34 94 -86 94c-49 0 -91 -34 -91 -95z" />
    <glyph glyph-name="a.sc" unicode="&#xf761;" horiz-adv-x="631" 
d="M629 0h-200l-27 73h-196l-20 -73h-184l200 532h194zM363 181l-71 174l-55 -174h126z" />
    <glyph glyph-name="b.sc" unicode="&#xf762;" horiz-adv-x="594" 
d="M58 0v532h269c177 0 203 -72 203 -135c0 -68 -43 -93 -64 -106c50 -16 94 -50 94 -130c0 -84 -50 -161 -210 -161h-292zM232 218v-104h69c37 0 83 0 83 49c0 48 -39 55 -68 55h-84zM289 418h-60v-95h61c30 0 64 4 64 48c0 47 -35 47 -65 47z" />
    <glyph glyph-name="c.sc" unicode="&#xf763;" horiz-adv-x="594" 
d="M544 497v-159c-29 24 -80 66 -184 66c-92 0 -145 -63 -145 -138c0 -89 68 -138 140 -138c71 0 133 33 195 66v-143c-49 -29 -107 -58 -206 -58c-207 0 -310 135 -310 272c0 149 111 274 330 274c98 0 153 -27 180 -42z" />
    <glyph glyph-name="d.sc" unicode="&#xf764;" horiz-adv-x="621" 
d="M58 0v532h226c258 0 303 -185 303 -267c0 -90 -48 -265 -304 -265h-225zM232 397v-262h56c79 0 118 62 118 130c0 88 -50 132 -118 132h-56z" />
    <glyph glyph-name="e.sc" unicode="&#xf765;" horiz-adv-x="513" 
d="M467 532v-122h-235v-80h224v-115h-224v-93h241v-122h-415v532h409z" />
    <glyph glyph-name="f.sc" unicode="&#xf766;" horiz-adv-x="488" 
d="M448 532v-122h-216v-103h216v-122h-216v-185h-174v532h390z" />
    <glyph glyph-name="g.sc" unicode="&#xf767;" horiz-adv-x="629" 
d="M566 502v-141c-48 18 -119 43 -202 43c-92 0 -149 -55 -149 -141c0 -91 57 -135 136 -135c20 0 32 1 54 7v60h-66v100h240v-231c-37 -30 -117 -71 -232 -71c-183 0 -313 110 -313 272c0 145 105 274 332 274c78 0 130 -15 200 -37z" />
    <glyph glyph-name="h.sc" unicode="&#xf768;" horiz-adv-x="656" 
d="M58 532h174v-195h192v195h174v-532h-174v195h-192v-195h-174v532z" />
    <glyph glyph-name="i.sc" unicode="&#xf769;" horiz-adv-x="290" 
d="M232 532v-532h-174v532h174z" />
    <glyph glyph-name="j.sc" unicode="&#xf76a;" horiz-adv-x="304" 
d="M72 93v439h174v-452c0 -135 -29 -257 -201 -257c-28 0 -46 3 -70 7l-19 137h30c88 0 86 28 86 126z" />
    <glyph glyph-name="k.sc" unicode="&#xf76b;" horiz-adv-x="621" 
d="M58 532h174v-194l148 194h187l-179 -241l233 -291h-218l-171 213v-213h-174v532z" />
    <glyph glyph-name="l.sc" unicode="&#xf76c;" horiz-adv-x="504" 
d="M58 532h174v-390h254v-142h-428v532z" />
    <glyph glyph-name="m.sc" unicode="&#xf76d;" horiz-adv-x="730" 
d="M365 332l182 200h125v-532h-174v262l-125 -145h-17l-128 145v-262h-170v532h124z" />
    <glyph glyph-name="n.sc" unicode="&#xf76e;" horiz-adv-x="651" 
d="M58 532h154l207 -244v244h174v-532h-143l-218 261v-261h-174v532z" />
    <glyph glyph-name="o.sc" unicode="&#xf76f;" horiz-adv-x="667" 
d="M34 265c0 139 122 274 298 274c150 0 301 -107 301 -272c0 -149 -126 -274 -300 -274c-162 0 -299 112 -299 272zM333 384c-65 0 -118 -53 -118 -118s53 -118 118 -118s119 53 119 118s-54 118 -119 118z" />
    <glyph glyph-name="p.sc" unicode="&#xf770;" horiz-adv-x="557" 
d="M58 0v532h289c124 0 184 -97 184 -171c0 -86 -60 -178 -184 -178h-115v-183h-174zM232 412v-109h56c23 0 69 0 69 57c0 52 -46 52 -69 52h-56z" />
    <glyph glyph-name="q.sc" unicode="&#xf771;" horiz-adv-x="667" 
d="M645 -36l-118 -101c-179 42 -228 86 -297 147c-108 34 -196 127 -196 253c0 135 115 276 298 276c150 0 301 -107 301 -272c0 -107 -59 -194 -157 -242c29 -26 133 -51 169 -61zM333 384c-65 0 -118 -53 -118 -118s53 -118 118 -118s119 53 119 118s-54 118 -119 118z
" />
    <glyph glyph-name="r.sc" unicode="&#xf772;" horiz-adv-x="585" 
d="M58 0v532h253c190 0 229 -84 229 -166c0 -45 -20 -104 -70 -137c22 -16 36 -41 64 -112c18 -46 23 -60 47 -117h-187c-13 47 -39 129 -51 151c-15 28 -29 35 -53 35h-58v-186h-174zM232 412v-121h52c47 0 75 24 75 61s-28 60 -74 60h-53z" />
    <glyph glyph-name="s.sc" unicode="&#xf773;" horiz-adv-x="490" 
d="M439 499v-136c-38 19 -100 56 -183 56c-40 0 -52 -22 -52 -40c0 -26 32 -33 121 -68c118 -46 136 -106 136 -155c0 -96 -89 -163 -212 -163c-72 0 -142 15 -207 44v149c111 -62 161 -69 210 -69c22 0 35 11 35 27c0 19 1 33 -114 75c-124 45 -141 114 -141 161
c0 70 56 159 213 159c86 0 140 -19 194 -40z" />
    <glyph glyph-name="t.sc" unicode="&#xf774;" horiz-adv-x="572" 
d="M548 532v-148h-175v-384h-174v384h-175v148h524z" />
    <glyph glyph-name="u.sc" unicode="&#xf775;" horiz-adv-x="646" 
d="M52 532h175v-267c0 -71 36 -117 100 -117c60 0 92 36 92 112v272h175v-293c0 -182 -112 -246 -274 -246c-158 0 -268 73 -268 241v298z" />
    <glyph glyph-name="v.sc" unicode="&#xf776;" horiz-adv-x="592" 
d="M254 -7l-252 539h179l114 -269l116 269h179l-253 -539h-83z" />
    <glyph glyph-name="w.sc" unicode="&#xf777;" horiz-adv-x="931" 
d="M515 532l118 -266l118 266h180l-256 -539h-73l-137 312l-136 -312h-74l-255 539h179l118 -266l118 266h100z" />
    <glyph glyph-name="x.sc" unicode="&#xf778;" horiz-adv-x="670" 
d="M2 0l226 277l-209 255h214l102 -153l102 153h213l-209 -255l227 -277h-213l-120 174l-120 -174h-213z" />
    <glyph glyph-name="y.sc" unicode="&#xf779;" horiz-adv-x="589" 
d="M0 532h188l106 -192l107 192h188l-207 -323v-209h-174v209z" />
    <glyph glyph-name="z.sc" unicode="&#xf77a;" horiz-adv-x="559" 
d="M541 0h-527l252 388h-235v144h502l-248 -388h256v-144z" />
    <glyph glyph-name="lslash.sc" unicode="&#xf6f9;" horiz-adv-x="504" 
d="M232 391l105 84v-126l-105 -84v-123h254v-142h-428v127l-54 -43v128l54 43v277h174v-141z" />
    <glyph glyph-name="scaron.sc" unicode="&#xf6fd;" horiz-adv-x="490" 
d="M439 499v-136c-38 19 -100 56 -183 56c-40 0 -52 -22 -52 -40c0 -26 32 -33 121 -68c118 -46 136 -106 136 -155c0 -96 -89 -163 -212 -163c-72 0 -142 15 -207 44v149c111 -62 161 -69 210 -69c22 0 35 11 35 27c0 19 1 33 -114 75c-124 45 -141 114 -141 161
c0 70 56 159 213 159c86 0 140 -19 194 -40zM52 774h105l89 -91l88 91h105l-89 -169h-209z" />
    <glyph glyph-name="zcaron.sc" unicode="&#xf6ff;" horiz-adv-x="559" 
d="M541 0h-527l252 388h-235v144h502l-248 -388h256v-144zM86 774h105l89 -91l88 91h105l-89 -169h-209z" />
    <glyph glyph-name="agrave.sc" unicode="&#xf7e0;" horiz-adv-x="631" 
d="M629 0h-200l-27 73h-196l-20 -73h-184l200 532h194zM363 181l-71 174l-55 -174h126zM423 605h-94l-180 155h190z" />
    <glyph glyph-name="aacute.sc" unicode="&#xf7e1;" horiz-adv-x="631" 
d="M629 0h-200l-27 73h-196l-20 -73h-184l200 532h194zM363 181l-71 174l-55 -174h126zM214 605l84 155h190l-180 -155h-94z" />
    <glyph glyph-name="acircumflex.sc" unicode="&#xf7e2;" horiz-adv-x="631" 
d="M629 0h-200l-27 73h-196l-20 -73h-184l200 532h194zM363 181l-71 174l-55 -174h126zM493 605h-105l-88 90l-89 -90h-105l89 169h209z" />
    <glyph glyph-name="atilde.sc" unicode="&#xf7e3;" horiz-adv-x="631" 
d="M629 0h-200l-27 73h-196l-20 -73h-184l200 532h194zM363 181l-71 174l-55 -174h126zM430 761h79c0 -101 -46 -156 -115 -156c-50 0 -122 42 -154 42c-29 0 -38 -24 -40 -42h-78c0 113 67 156 114 156c24 0 55 -11 85 -21c29 -11 57 -22 71 -22c27 0 38 25 38 43z" />
    <glyph glyph-name="adieresis.sc" unicode="&#xf7e4;" horiz-adv-x="631" 
d="M629 0h-200l-27 73h-196l-20 -73h-184l200 532h194zM363 181l-71 174l-55 -174h126zM108 672c0 36 29 67 67 67s67 -31 67 -67c0 -37 -29 -67 -67 -67s-67 31 -67 67zM357 672c0 36 28 67 67 67c38 0 67 -31 67 -67c0 -37 -29 -67 -67 -67c-39 0 -67 31 -67 67z" />
    <glyph glyph-name="aring.sc" unicode="&#xf7e5;" horiz-adv-x="631" 
d="M629 0h-200l-27 73h-196l-20 -73h-184l200 532h194zM363 181l-71 174l-55 -174h126zM299 805c56 0 101 -44 101 -100s-45 -101 -101 -101s-100 45 -100 101s44 100 100 100zM299 757c-29 0 -52 -23 -52 -52s23 -53 52 -53s53 24 53 53s-24 52 -53 52z" />
    <glyph glyph-name="ae.sc" unicode="&#xf7e6;" horiz-adv-x="845" 
d="M397 0v81h-168l-47 -81h-182l328 532h471v-122h-228v-85h216v-115h-216v-88h234v-122h-408zM291 203h106v176z" />
    <glyph glyph-name="ccedilla.sc" unicode="&#xf7e7;" horiz-adv-x="594" 
d="M378 -5l-11 -24c53 -13 83 -43 83 -84c0 -51 -44 -97 -161 -97h-96v67c49 0 97 5 97 39c0 20 -18 32 -47 31l51 69c-165 18 -260 132 -260 269c0 149 111 274 330 274c98 0 153 -27 180 -42v-159c-29 24 -80 66 -184 66c-92 0 -145 -63 -145 -138c0 -89 68 -138 140 -138
c71 0 133 33 195 66v-143c-49 -29 -85 -49 -172 -56z" />
    <glyph glyph-name="egrave.sc" unicode="&#xf7e8;" horiz-adv-x="513" 
d="M467 532v-122h-235v-80h224v-115h-224v-93h241v-122h-415v532h409zM364 605h-94l-180 155h190z" />
    <glyph glyph-name="eacute.sc" unicode="&#xf7e9;" horiz-adv-x="513" 
d="M467 532v-122h-235v-80h224v-115h-224v-93h241v-122h-415v532h409zM171 605l84 155h190l-180 -155h-94z" />
    <glyph glyph-name="ecircumflex.sc" unicode="&#xf7ea;" horiz-adv-x="513" 
d="M467 532v-122h-235v-80h224v-115h-224v-93h241v-122h-415v532h409zM450 605h-105l-88 90l-89 -90h-105l89 169h209z" />
    <glyph glyph-name="edieresis.sc" unicode="&#xf7eb;" horiz-adv-x="513" 
d="M467 532v-122h-235v-80h224v-115h-224v-93h241v-122h-415v532h409zM65 672c0 36 29 67 67 67s67 -31 67 -67c0 -37 -29 -67 -67 -67s-67 31 -67 67zM314 672c0 36 28 67 67 67c38 0 67 -31 67 -67c0 -37 -29 -67 -67 -67c-39 0 -67 31 -67 67z" />
    <glyph glyph-name="igrave.sc" unicode="&#xf7ec;" horiz-adv-x="290" 
d="M232 532v-532h-174v532h174zM253 605h-94l-180 155h190z" />
    <glyph glyph-name="iacute.sc" unicode="&#xf7ed;" horiz-adv-x="290" 
d="M232 532v-532h-174v532h174zM44 605l84 155h190l-180 -155h-94z" />
    <glyph glyph-name="icircumflex.sc" unicode="&#xf7ee;" horiz-adv-x="290" 
d="M232 532v-532h-174v532h174zM339 605h-105l-88 90l-89 -90h-105l89 169h209z" />
    <glyph glyph-name="idieresis.sc" unicode="&#xf7ef;" horiz-adv-x="290" 
d="M232 532v-532h-174v532h174zM-46 672c0 36 29 67 67 67s67 -31 67 -67c0 -37 -29 -67 -67 -67s-67 31 -67 67zM203 672c0 36 28 67 67 67c38 0 67 -31 67 -67c0 -37 -29 -67 -67 -67c-39 0 -67 31 -67 67z" />
    <glyph glyph-name="eth.sc" unicode="&#xf7f0;" horiz-adv-x="621" 
d="M58 230h-53v73h53v229h226c258 0 303 -185 303 -267c0 -90 -48 -265 -304 -265h-225v230zM231 230v-95h57c91 0 118 75 118 130c0 59 -27 132 -118 132h-57v-94h85v-73h-85z" />
    <glyph glyph-name="ntilde.sc" unicode="&#xf7f1;" horiz-adv-x="651" 
d="M58 532h154l207 -244v244h174v-532h-143l-218 261v-261h-174v532zM440 761h79c0 -101 -46 -156 -115 -156c-50 0 -122 42 -154 42c-29 0 -38 -24 -40 -42h-78c0 113 67 156 114 156c24 0 55 -11 85 -21c29 -11 57 -22 71 -22c27 0 38 25 38 43z" />
    <glyph glyph-name="ograve.sc" unicode="&#xf7f2;" horiz-adv-x="667" 
d="M34 265c0 139 122 274 298 274c150 0 301 -107 301 -272c0 -149 -126 -274 -300 -274c-162 0 -299 112 -299 272zM333 384c-65 0 -118 -53 -118 -118s53 -118 118 -118s119 53 119 118s-54 118 -119 118zM441 605h-94l-180 155h190z" />
    <glyph glyph-name="oacute.sc" unicode="&#xf7f3;" horiz-adv-x="667" 
d="M34 265c0 139 122 274 298 274c150 0 301 -107 301 -272c0 -149 -126 -274 -300 -274c-162 0 -299 112 -299 272zM333 384c-65 0 -118 -53 -118 -118s53 -118 118 -118s119 53 119 118s-54 118 -119 118zM248 605l84 155h190l-180 -155h-94z" />
    <glyph glyph-name="ocircumflex.sc" unicode="&#xf7f4;" horiz-adv-x="667" 
d="M34 265c0 139 122 274 298 274c150 0 301 -107 301 -272c0 -149 -126 -274 -300 -274c-162 0 -299 112 -299 272zM333 384c-65 0 -118 -53 -118 -118s53 -118 118 -118s119 53 119 118s-54 118 -119 118zM527 605h-105l-88 90l-89 -90h-105l89 169h209z" />
    <glyph glyph-name="otilde.sc" unicode="&#xf7f5;" horiz-adv-x="667" 
d="M34 265c0 139 122 274 298 274c150 0 301 -107 301 -272c0 -149 -126 -274 -300 -274c-162 0 -299 112 -299 272zM333 384c-65 0 -118 -53 -118 -118s53 -118 118 -118s119 53 119 118s-54 118 -119 118zM448 761h79c0 -101 -46 -156 -115 -156c-50 0 -122 42 -154 42
c-29 0 -38 -24 -40 -42h-78c0 113 67 156 114 156c24 0 55 -11 85 -21c29 -11 57 -22 71 -22c27 0 38 25 38 43z" />
    <glyph glyph-name="odieresis.sc" unicode="&#xf7f6;" horiz-adv-x="667" 
d="M34 265c0 139 122 274 298 274c150 0 301 -107 301 -272c0 -149 -126 -274 -300 -274c-162 0 -299 112 -299 272zM333 384c-65 0 -118 -53 -118 -118s53 -118 118 -118s119 53 119 118s-54 118 -119 118zM142 672c0 36 29 67 67 67s67 -31 67 -67c0 -37 -29 -67 -67 -67
s-67 31 -67 67zM391 672c0 36 28 67 67 67c38 0 67 -31 67 -67c0 -37 -29 -67 -67 -67c-39 0 -67 31 -67 67z" />
    <glyph glyph-name="oe.sc" unicode="&#xf6fa;" horiz-adv-x="848" 
d="M803 532v-122h-228v-79h216v-115h-216v-94h233v-122h-472c-174 0 -302 89 -302 269c0 177 124 263 302 263h467zM401 122v288h-35c-102 0 -151 -55 -151 -145c0 -83 49 -143 151 -143h35z" />
    <glyph glyph-name="oslash.sc" unicode="&#xf7f8;" horiz-adv-x="667" 
d="M229 210l160 160c-9 5 -26 14 -56 14c-99 0 -141 -109 -104 -174zM104 86c-30 34 -70 93 -70 179c0 121 102 274 298 274c88 0 140 -27 176 -51l57 57l45 -45l-52 -52c49 -43 75 -99 75 -181c0 -154 -127 -274 -300 -274c-78 0 -130 21 -181 53l-60 -60l-44 44zM271 166
c14 -10 40 -18 65 -18c68 0 154 82 98 180z" />
    <glyph glyph-name="ugrave.sc" unicode="&#xf7f9;" horiz-adv-x="646" 
d="M52 532h175v-267c0 -71 36 -117 100 -117c60 0 92 36 92 112v272h175v-293c0 -182 -112 -246 -274 -246c-158 0 -268 73 -268 241v298zM431 605h-94l-180 155h190z" />
    <glyph glyph-name="uacute.sc" unicode="&#xf7fa;" horiz-adv-x="646" 
d="M52 532h175v-267c0 -71 36 -117 100 -117c60 0 92 36 92 112v272h175v-293c0 -182 -112 -246 -274 -246c-158 0 -268 73 -268 241v298zM238 605l84 155h190l-180 -155h-94z" />
    <glyph glyph-name="ucircumflex.sc" unicode="&#xf7fb;" horiz-adv-x="646" 
d="M52 532h175v-267c0 -71 36 -117 100 -117c60 0 92 36 92 112v272h175v-293c0 -182 -112 -246 -274 -246c-158 0 -268 73 -268 241v298zM517 605h-105l-88 90l-89 -90h-105l89 169h209z" />
    <glyph glyph-name="udieresis.sc" unicode="&#xf7fc;" horiz-adv-x="646" 
d="M52 532h175v-267c0 -71 36 -117 100 -117c60 0 92 36 92 112v272h175v-293c0 -182 -112 -246 -274 -246c-158 0 -268 73 -268 241v298zM132 672c0 36 29 67 67 67s67 -31 67 -67c0 -37 -29 -67 -67 -67s-67 31 -67 67zM381 672c0 36 28 67 67 67c38 0 67 -31 67 -67
c0 -37 -29 -67 -67 -67c-39 0 -67 31 -67 67z" />
    <glyph glyph-name="yacute.sc" unicode="&#xf7fd;" horiz-adv-x="589" 
d="M0 532h188l106 -192l107 192h188l-207 -323v-209h-174v209zM209 605l84 155h190l-180 -155h-94z" />
    <glyph glyph-name="thorn.sc" unicode="&#xf7fe;" horiz-adv-x="557" 
d="M58 0v532h174v-91h115c121 0 184 -97 184 -171c0 -86 -60 -178 -184 -178h-115v-92h-174zM232 321v-109h56c23 0 69 0 69 57c0 52 -46 52 -69 52h-56z" />
    <glyph glyph-name="ydieresis.sc" unicode="&#xf7ff;" horiz-adv-x="589" 
d="M0 532h188l106 -192l107 192h188l-207 -323v-209h-174v209zM103 672c0 36 29 67 67 67s67 -31 67 -67c0 -37 -29 -67 -67 -67s-67 31 -67 67zM352 672c0 36 28 67 67 67c38 0 67 -31 67 -67c0 -37 -29 -67 -67 -67c-39 0 -67 31 -67 67z" />
    <glyph glyph-name="Abreve" unicode="&#x102;" horiz-adv-x="833" 
d="M564 137h-294l-56 -137h-209l299 677h226l298 -677h-209zM318 255h199l-99 247zM232 892h87c6 -13 28 -69 98 -69c72 0 89 50 97 69h87c-11 -83 -83 -169 -185 -169c-94 0 -176 74 -184 169z" />
    <glyph glyph-name="Amacron" unicode="&#x100;" horiz-adv-x="833" 
d="M564 137h-294l-56 -137h-209l299 677h226l298 -677h-209zM318 255h199l-99 247zM605 734h-377v120h377v-120z" />
    <glyph glyph-name="Aogonek" unicode="&#x104;" horiz-adv-x="833" 
d="M669 0h-50l-55 137h-294l-56 -137h-209l299 677h226l298 -677h-68c-4 -17 -6 -26 -6 -41c0 -47 42 -69 81 -69c16 0 29 3 31 3v-90c-33 -13 -69 -12 -96 -12c-65 0 -116 49 -116 111c0 53 12 90 15 98zM318 255h199l-99 247z" />
    <glyph glyph-name="AEacute" unicode="&#x1fc;" horiz-adv-x="1113" 
d="M433 677h621v-136h-295v-124h278v-136h-278v-145h302v-136h-506v252h-195l-148 -252h-207zM555 369v213l-125 -213h125zM619 723l84 155h190l-180 -155h-94z" />
    <glyph glyph-name="Cacute" unicode="&#x106;" horiz-adv-x="743" 
d="M691 222v-171c-89 -46 -178 -60 -267 -60c-239 0 -383 141 -383 348c0 239 182 347 386 347c114 0 207 -32 261 -51v-180c-38 23 -114 73 -215 73c-116 0 -224 -73 -224 -192c0 -103 88 -187 213 -187c109 0 189 48 229 73zM334 723l84 155h190l-180 -155h-94z" />
    <glyph glyph-name="Ccaron" unicode="&#x10c;" horiz-adv-x="743" 
d="M691 222v-171c-89 -46 -178 -60 -267 -60c-239 0 -383 141 -383 348c0 239 182 347 386 347c114 0 207 -32 261 -51v-180c-38 23 -114 73 -215 73c-116 0 -224 -73 -224 -192c0 -103 88 -187 213 -187c109 0 189 48 229 73zM238 892h105l89 -91l88 91h105l-89 -169h-209z
" />
    <glyph glyph-name="Ccircumflex" unicode="&#x108;" horiz-adv-x="743" 
d="M691 222v-171c-89 -46 -178 -60 -267 -60c-239 0 -383 141 -383 348c0 239 182 347 386 347c114 0 207 -32 261 -51v-180c-38 23 -114 73 -215 73c-116 0 -224 -73 -224 -192c0 -103 88 -187 213 -187c109 0 189 48 229 73zM616 723h-105l-88 90l-89 -90h-105l89 169h209
z" />
    <glyph glyph-name="Cdotaccent" unicode="&#x10a;" horiz-adv-x="743" 
d="M691 222v-171c-89 -46 -178 -60 -267 -60c-239 0 -383 141 -383 348c0 239 182 347 386 347c114 0 207 -32 261 -51v-180c-38 23 -114 73 -215 73c-116 0 -224 -73 -224 -192c0 -103 88 -187 213 -187c109 0 189 48 229 73zM364 790c0 36 29 67 67 67s67 -31 67 -67
c0 -37 -29 -67 -67 -67s-67 31 -67 67z" />
    <glyph glyph-name="Dcaron" unicode="&#x10e;" horiz-adv-x="822" 
d="M85 677h281c170 0 247 -43 297 -84c64 -52 118 -143 118 -267c0 -159 -82 -234 -127 -269c-78 -61 -195 -57 -214 -57h-355v677zM289 541v-401h87c73 0 197 15 197 195s-124 206 -197 206h-87zM207 892h105l89 -91l88 91h105l-89 -169h-209z" />
    <glyph glyph-name="Dcroat" unicode="&#x110;" horiz-adv-x="822" 
d="M85 677h281c170 0 247 -43 297 -84c64 -52 118 -143 118 -267c0 -159 -82 -234 -127 -269c-78 -61 -195 -57 -214 -57h-355v286h-75v105h75v286zM289 541v-150h139v-105h-139v-146h87c73 0 197 15 197 195s-124 206 -197 206h-87z" />
    <glyph glyph-name="Ebreve" unicode="&#x114;" horiz-adv-x="647" 
d="M289 136h306v-136h-510v677h502v-136h-298v-124h284v-136h-284v-145zM149 892h87c6 -13 28 -69 98 -69c72 0 89 50 97 69h87c-11 -83 -83 -169 -185 -169c-94 0 -176 74 -184 169z" />
    <glyph glyph-name="Ecaron" unicode="&#x11a;" horiz-adv-x="647" 
d="M289 136h306v-136h-510v677h502v-136h-298v-124h284v-136h-284v-145zM140 892h105l89 -91l88 91h105l-89 -169h-209z" />
    <glyph glyph-name="Edotaccent" unicode="&#x116;" horiz-adv-x="647" 
d="M289 136h306v-136h-510v677h502v-136h-298v-124h284v-136h-284v-145zM266 790c0 36 29 67 67 67s67 -31 67 -67c0 -37 -29 -67 -67 -67s-67 31 -67 67z" />
    <glyph glyph-name="Emacron" unicode="&#x112;" horiz-adv-x="647" 
d="M289 136h306v-136h-510v677h502v-136h-298v-124h284v-136h-284v-145zM522 734h-377v120h377v-120z" />
    <glyph glyph-name="Eng" unicode="&#x14a;" horiz-adv-x="885" 
d="M810 348v-73c0 -172 -71 -283 -267 -283c-20 0 -39 2 -60 4l9 148c12 -3 19 -3 27 -3c27 0 87 26 87 124v87c0 95 -31 174 -153 174c-108 0 -145 -65 -164 -111v-415h-204v677h204v-89c37 37 93 98 228 98c215 0 293 -141 293 -338z" />
    <glyph glyph-name="Eogonek" unicode="&#x118;" horiz-adv-x="647" 
d="M398 0h-313v677h502v-136h-298v-124h284v-136h-284v-145h306v-136h-106c-4 -17 -6 -26 -6 -41c0 -47 42 -69 81 -69c16 0 29 3 31 3v-90c-33 -13 -69 -12 -96 -12c-65 0 -116 49 -116 111c0 53 12 90 15 98z" />
    <glyph glyph-name="Gbreve" unicode="&#x11e;" horiz-adv-x="799" 
d="M710 637v-160c-40 23 -110 63 -225 63c-192 0 -236 -132 -236 -203c0 -100 71 -190 213 -190c35 0 60 5 83 10v80h-92v136h270v-325c-40 -15 -68 -25 -109 -35c-51 -12 -117 -22 -190 -22c-199 0 -383 105 -383 349c0 90 31 198 110 260c97 76 193 86 284 86
c136 0 229 -34 275 -49zM255 892h87c6 -13 28 -69 98 -69c72 0 89 50 97 69h87c-11 -83 -83 -169 -185 -169c-94 0 -176 74 -184 169z" />
    <glyph glyph-name="Gcircumflex" unicode="&#x11c;" horiz-adv-x="799" 
d="M710 637v-160c-40 23 -110 63 -225 63c-192 0 -236 -132 -236 -203c0 -100 71 -190 213 -190c35 0 60 5 83 10v80h-92v136h270v-325c-40 -15 -68 -25 -109 -35c-51 -12 -117 -22 -190 -22c-199 0 -383 105 -383 349c0 90 31 198 110 260c97 76 193 86 284 86
c136 0 229 -34 275 -49zM623 723h-105l-88 90l-89 -90h-105l89 169h209z" />
    <glyph glyph-name="Gcommaaccent" unicode="&#x122;" horiz-adv-x="799" 
d="M710 637v-160c-40 23 -110 63 -225 63c-192 0 -236 -132 -236 -203c0 -100 71 -190 213 -190c35 0 60 5 83 10v80h-92v136h270v-325c-40 -15 -68 -25 -109 -35c-51 -12 -117 -22 -190 -22c-199 0 -383 105 -383 349c0 90 31 198 110 260c97 76 193 86 284 86
c136 0 229 -34 275 -49zM309 -226v57c9 -1 15 -1 26 -1c59 0 76 9 76 32c0 25 -42 27 -85 27l5 55h60c113 0 179 -18 179 -95c0 -59 -65 -90 -160 -90c-35 0 -68 6 -101 15z" />
    <glyph glyph-name="Gdotaccent" unicode="&#x120;" horiz-adv-x="799" 
d="M710 637v-160c-40 23 -110 63 -225 63c-192 0 -236 -132 -236 -203c0 -100 71 -190 213 -190c35 0 60 5 83 10v80h-92v136h270v-325c-40 -15 -68 -25 -109 -35c-51 -12 -117 -22 -190 -22c-199 0 -383 105 -383 349c0 90 31 198 110 260c97 76 193 86 284 86
c136 0 229 -34 275 -49zM360 790c0 36 29 67 67 67s67 -31 67 -67c0 -37 -29 -67 -67 -67s-67 31 -67 67z" />
    <glyph glyph-name="Hbar" unicode="&#x126;" horiz-adv-x="885" 
d="M13 612h72v65h204v-65h307v65h204v-65h72v-105h-72v-507h-204v264h-307v-264h-204v507h-72v105zM289 428h307v79h-307v-79z" />
    <glyph glyph-name="Hcircumflex" unicode="&#x124;" horiz-adv-x="885" 
d="M596 264h-307v-264h-204v677h204v-249h307v249h204v-677h-204v264zM636 723h-105l-88 90l-89 -90h-105l89 169h209z" />
    <glyph glyph-name="Ibreve" unicode="&#x12c;" horiz-adv-x="376" 
d="M86 677h204v-677h-204v677zM3 892h87c6 -13 28 -69 98 -69c72 0 89 50 97 69h87c-11 -83 -83 -169 -185 -169c-94 0 -176 74 -184 169z" />
    <glyph glyph-name="IJ" unicode="&#x132;" horiz-adv-x="772" 
d="M86 677h204v-677h-204v677zM482 677h204v-593c0 -143 -14 -301 -229 -301c-35 0 -52 3 -73 7l-31 163c70 2 111 4 124 57c6 23 5 114 5 143v524z" />
    <glyph glyph-name="Imacron" unicode="&#x12a;" horiz-adv-x="376" 
d="M86 677h204v-677h-204v677zM376 734h-377v120h377v-120z" />
    <glyph glyph-name="Iogonek" unicode="&#x12e;" horiz-adv-x="376" 
d="M128 0h-42v677h204v-677h-71c-4 -17 -6 -26 -6 -41c0 -47 42 -69 81 -69c16 0 29 3 31 3v-90c-33 -13 -69 -12 -96 -12c-65 0 -116 49 -116 111c0 53 12 90 15 98z" />
    <glyph glyph-name="Itilde" unicode="&#x128;" horiz-adv-x="376" 
d="M86 677h204v-677h-204v677zM302 879h79c0 -101 -46 -156 -115 -156c-50 0 -122 42 -154 42c-29 0 -38 -24 -40 -42h-78c0 113 67 156 114 156c24 0 55 -11 85 -21c29 -11 57 -22 71 -22c27 0 38 25 38 43z" />
    <glyph glyph-name="Jcircumflex" unicode="&#x134;" horiz-adv-x="396" 
d="M106 677h204v-593c0 -143 -14 -301 -229 -301c-35 0 -52 3 -73 7l-31 163c70 2 111 4 124 57c6 23 5 114 5 143v524zM391 723h-105l-88 90l-89 -90h-105l89 169h209z" />
    <glyph glyph-name="Kcommaaccent" unicode="&#x136;" horiz-adv-x="801" 
d="M85 677h204v-303l245 303h222l-252 -317l293 -360h-249l-259 317v-317h-204v677zM280 -226v57c9 -1 15 -1 26 -1c59 0 76 9 76 32c0 25 -42 27 -85 27l5 55h60c113 0 179 -18 179 -95c0 -59 -65 -90 -160 -90c-35 0 -68 6 -101 15z" />
    <glyph glyph-name="Lacute" unicode="&#x139;" horiz-adv-x="633" 
d="M85 677h204v-515h310v-162h-514v677zM119 723l84 155h190l-180 -155h-94z" />
    <glyph glyph-name="Lcaron" unicode="&#x13d;" horiz-adv-x="633" 
d="M384 351v28c61 23 72 80 70 127c-48 14 -70 45 -70 87c0 48 40 93 95 93c79 0 114 -76 114 -140c0 -76 -55 -174 -209 -195zM85 677h204v-515h310v-162h-514v677z" />
    <glyph glyph-name="Lcommaaccent" unicode="&#x13b;" horiz-adv-x="633" 
d="M85 677h204v-515h310v-162h-514v677zM206 -226v57c9 -1 15 -1 26 -1c59 0 76 9 76 32c0 25 -42 27 -85 27l5 55h60c113 0 179 -18 179 -95c0 -59 -65 -90 -160 -90c-35 0 -68 6 -101 15z" />
    <glyph glyph-name="Ldot" unicode="&#x13f;" horiz-adv-x="633" 
d="M466 471c50 0 91 -39 91 -91c0 -51 -40 -93 -91 -93c-50 0 -91 41 -91 93s41 91 91 91zM85 677h204v-515h310v-162h-514v677z" />
    <glyph glyph-name="Nacute" unicode="&#x143;" horiz-adv-x="905" 
d="M85 677h181l350 -375v375h204v-677h-182l-351 377v-377h-202v677zM375 723l84 155h190l-180 -155h-94z" />
    <glyph glyph-name="Ncaron" unicode="&#x147;" horiz-adv-x="905" 
d="M85 677h181l350 -375v375h204v-677h-182l-351 377v-377h-202v677zM259 892h105l89 -91l88 91h105l-89 -169h-209z" />
    <glyph glyph-name="Ncommaaccent" unicode="&#x145;" horiz-adv-x="905" 
d="M85 677h181l350 -375v375h204v-677h-182l-351 377v-377h-202v677zM332 -226v57c9 -1 15 -1 26 -1c59 0 76 9 76 32c0 25 -42 27 -85 27l5 55h60c113 0 179 -18 179 -95c0 -59 -65 -90 -160 -90c-35 0 -68 6 -101 15z" />
    <glyph glyph-name="Obreve" unicode="&#x14e;" horiz-adv-x="851" 
d="M809 339c0 -186 -128 -348 -384 -348c-265 0 -384 173 -384 348s119 347 384 347c258 0 384 -164 384 -347zM249 339c0 -102 65 -174 176 -174c113 0 176 73 176 174c0 100 -63 173 -176 173c-111 0 -176 -71 -176 -173zM241 892h87c6 -13 28 -69 98 -69
c72 0 89 50 97 69h87c-11 -83 -83 -169 -185 -169c-94 0 -176 74 -184 169z" />
    <glyph glyph-name="Ohungarumlaut" unicode="&#x150;" horiz-adv-x="851" 
d="M809 339c0 -186 -128 -348 -384 -348c-265 0 -384 173 -384 348s119 347 384 347c258 0 384 -164 384 -347zM249 339c0 -102 65 -174 176 -174c113 0 176 73 176 174c0 100 -63 173 -176 173c-111 0 -176 -71 -176 -173zM460 723l84 155h190l-180 -155h-94zM225 723
l83 155h190l-180 -155h-93z" />
    <glyph glyph-name="Omacron" unicode="&#x14c;" horiz-adv-x="851" 
d="M809 339c0 -186 -128 -348 -384 -348c-265 0 -384 173 -384 348s119 347 384 347c258 0 384 -164 384 -347zM249 339c0 -102 65 -174 176 -174c113 0 176 73 176 174c0 100 -63 173 -176 173c-111 0 -176 -71 -176 -173zM614 734h-377v120h377v-120z" />
    <glyph glyph-name="Oslashacute" unicode="&#x1fe;" horiz-adv-x="851" 
d="M195 50l-92 -89l-57 59l86 82c-58 63 -91 137 -91 237c0 175 119 347 384 347c144 0 215 -48 243 -67l80 76l57 -58l-76 -73c65 -72 80 -160 80 -225c0 -175 -119 -348 -384 -348c-64 0 -154 10 -230 59zM583 424l-248 -239c31 -16 70 -20 91 -20c112 0 175 75 175 173
c0 34 -7 64 -18 86zM275 240l254 245c-31 20 -67 27 -104 27c-116 0 -176 -78 -176 -172c0 -10 1 -59 26 -100zM340 723l84 155h190l-180 -155h-94z" />
    <glyph glyph-name="Racute" unicode="&#x154;" horiz-adv-x="748" 
d="M85 677h347c182 0 239 -133 239 -210c0 -115 -83 -155 -111 -169c38 -23 59 -36 112 -151l68 -147h-219l-53 120c-60 136 -95 144 -156 144h-23v-264h-204v677zM332 547h-43v-163h44c97 0 130 16 130 79s-40 84 -131 84zM254 723l84 155h190l-180 -155h-94z" />
    <glyph glyph-name="Rcaron" unicode="&#x158;" horiz-adv-x="748" 
d="M85 677h347c182 0 239 -133 239 -210c0 -115 -83 -155 -111 -169c38 -23 59 -36 112 -151l68 -147h-219l-53 120c-60 136 -95 144 -156 144h-23v-264h-204v677zM332 547h-43v-163h44c97 0 130 16 130 79s-40 84 -131 84zM145 892h105l89 -91l88 91h105l-89 -169h-209z
" />
    <glyph glyph-name="Rcommaaccent" unicode="&#x156;" horiz-adv-x="748" 
d="M85 677h347c182 0 239 -133 239 -210c0 -115 -83 -155 -111 -169c38 -23 59 -36 112 -151l68 -147h-219l-53 120c-60 136 -95 144 -156 144h-23v-264h-204v677zM332 547h-43v-163h44c97 0 130 16 130 79s-40 84 -131 84zM273 -226v57c9 -1 15 -1 26 -1c59 0 76 9 76 32
c0 25 -42 27 -85 27l5 55h60c113 0 179 -18 179 -95c0 -59 -65 -90 -160 -90c-35 0 -68 6 -101 15z" />
    <glyph glyph-name="Sacute" unicode="&#x15a;" horiz-adv-x="612" 
d="M529 629v-159c-39 27 -115 77 -202 77c-56 0 -72 -27 -72 -51c0 -28 21 -43 78 -70c135 -64 225 -111 225 -229c0 -129 -107 -206 -256 -206c-19 0 -114 0 -238 54v166c38 -24 117 -74 207 -74c81 0 83 43 83 50c0 40 -48 62 -103 85c-95 40 -193 97 -193 218
c0 105 77 196 244 196c127 0 213 -48 227 -57zM199 723l84 155h190l-180 -155h-94z" />
    <glyph glyph-name="uni015E" unicode="&#x15e;" horiz-adv-x="612" 
d="M529 629v-159c-39 27 -115 77 -202 77c-56 0 -72 -27 -72 -51c0 -28 21 -43 78 -70c135 -64 225 -111 225 -229c0 -112 -81 -185 -200 -202l-11 -24c53 -13 83 -43 83 -84c0 -51 -44 -97 -161 -97h-96v67c49 0 97 5 97 39c0 20 -13 29 -47 31l47 65
c-41 3 -116 13 -206 53v166c38 -24 117 -74 207 -74c81 0 83 43 83 50c0 40 -48 62 -103 85c-95 40 -193 97 -193 218c0 105 77 196 244 196c127 0 213 -48 227 -57z" />
    <glyph glyph-name="Scircumflex" unicode="&#x15c;" horiz-adv-x="612" 
d="M529 629v-159c-39 27 -115 77 -202 77c-56 0 -72 -27 -72 -51c0 -28 21 -43 78 -70c135 -64 225 -111 225 -229c0 -129 -107 -206 -256 -206c-19 0 -114 0 -238 54v166c38 -24 117 -74 207 -74c81 0 83 43 83 50c0 40 -48 62 -103 85c-95 40 -193 97 -193 218
c0 105 77 196 244 196c127 0 213 -48 227 -57zM499 723h-105l-88 90l-89 -90h-105l89 169h209z" />
    <glyph glyph-name="uni0218" unicode="&#x218;" horiz-adv-x="612" 
d="M529 629v-159c-39 27 -115 77 -202 77c-56 0 -72 -27 -72 -51c0 -28 21 -43 78 -70c135 -64 225 -111 225 -229c0 -129 -107 -206 -256 -206c-19 0 -114 0 -238 54v166c38 -24 117 -74 207 -74c81 0 83 43 83 50c0 40 -48 62 -103 85c-95 40 -193 97 -193 218
c0 105 77 196 244 196c127 0 213 -48 227 -57zM175 -226v57c9 -1 15 -1 26 -1c59 0 76 9 76 32c0 25 -42 27 -85 27l5 55h60c113 0 179 -18 179 -95c0 -59 -65 -90 -160 -90c-35 0 -68 6 -101 15z" />
    <glyph glyph-name="Tbar" unicode="&#x166;" horiz-adv-x="768" 
d="M34 677h700v-165h-248v-209h172v-105h-172v-198h-204v198h-182v105h182v209h-248v165z" />
    <glyph glyph-name="Tcaron" unicode="&#x164;" horiz-adv-x="768" 
d="M34 677h700v-165h-248v-512h-204v512h-248v165zM190 892h105l89 -91l88 91h105l-89 -169h-209z" />
    <glyph glyph-name="uni021A" unicode="&#x162;" horiz-adv-x="768" 
d="M34 677h700v-165h-248v-512h-204v512h-248v165zM248 -226v57c9 -1 15 -1 26 -1c59 0 76 9 76 32c0 25 -42 27 -85 27l5 55h60c113 0 179 -18 179 -95c0 -59 -65 -90 -160 -90c-35 0 -68 6 -101 15z" />
    <glyph glyph-name="uni021A" unicode="&#x21a;" horiz-adv-x="768" 
d="M34 677h700v-165h-248v-512h-204v512h-248v165zM248 -226v57c9 -1 15 -1 26 -1c59 0 76 9 76 32c0 25 -42 27 -85 27l5 55h60c113 0 179 -18 179 -95c0 -59 -65 -90 -160 -90c-35 0 -68 6 -101 15z" />
    <glyph glyph-name="Ubreve" unicode="&#x16c;" horiz-adv-x="865" 
d="M75 677h204v-321c0 -140 65 -195 154 -195c87 0 153 54 153 194v322h204v-374c0 -244 -206 -312 -357 -312s-358 68 -358 312v374zM248 892h87c6 -13 28 -69 98 -69c72 0 89 50 97 69h87c-11 -83 -83 -169 -185 -169c-94 0 -176 74 -184 169z" />
    <glyph glyph-name="Uhungarumlaut" unicode="&#x170;" horiz-adv-x="865" 
d="M75 677h204v-321c0 -140 65 -195 154 -195c87 0 153 54 153 194v322h204v-374c0 -244 -206 -312 -357 -312s-358 68 -358 312v374zM473 723l84 155h190l-180 -155h-94zM238 723l83 155h190l-180 -155h-93z" />
    <glyph glyph-name="Umacron" unicode="&#x16a;" horiz-adv-x="865" 
d="M75 677h204v-321c0 -140 65 -195 154 -195c87 0 153 54 153 194v322h204v-374c0 -244 -206 -312 -357 -312s-358 68 -358 312v374zM621 734h-377v120h377v-120z" />
    <glyph glyph-name="Uogonek" unicode="&#x172;" horiz-adv-x="865" 
d="M75 677h204v-321c0 -140 65 -195 154 -195c87 0 153 54 153 194v322h204v-374c0 -223 -172 -299 -316 -310c-3 -13 -4 -21 -4 -34c0 -47 42 -69 81 -69c16 0 29 3 31 3v-90c-33 -12 -69 -12 -96 -12c-65 0 -116 49 -116 111c0 45 8 77 12 92c-142 13 -307 91 -307 309
v374z" />
    <glyph glyph-name="Uring" unicode="&#x16e;" horiz-adv-x="865" 
d="M75 677h204v-321c0 -140 65 -195 154 -195c87 0 153 54 153 194v322h204v-374c0 -244 -206 -312 -357 -312s-358 68 -358 312v374zM432 923c56 0 101 -44 101 -100s-45 -101 -101 -101s-100 45 -100 101s44 100 100 100zM432 875c-29 0 -52 -23 -52 -52s23 -53 52 -53
s53 24 53 53s-24 52 -53 52z" />
    <glyph glyph-name="Utilde" unicode="&#x168;" horiz-adv-x="865" 
d="M75 677h204v-321c0 -140 65 -195 154 -195c87 0 153 54 153 194v322h204v-374c0 -244 -206 -312 -357 -312s-358 68 -358 312v374zM547 879h79c0 -101 -46 -156 -115 -156c-50 0 -122 42 -154 42c-29 0 -38 -24 -40 -42h-78c0 113 67 156 114 156c24 0 55 -11 85 -21
c29 -11 57 -22 71 -22c27 0 38 25 38 43z" />
    <glyph glyph-name="Wacute" unicode="&#x1e82;" horiz-adv-x="1190" 
d="M8 677h211l141 -375l161 375h146l158 -375l147 375h209l-293 -686h-118l-176 399l-180 -399h-119zM488 723l84 155h190l-180 -155h-94z" />
    <glyph glyph-name="Wcircumflex" unicode="&#x174;" horiz-adv-x="1190" 
d="M8 677h211l141 -375l161 375h146l158 -375l147 375h209l-293 -686h-118l-176 399l-180 -399h-119zM788 723h-105l-88 90l-89 -90h-105l89 169h209z" />
    <glyph glyph-name="Wdieresis" unicode="&#x1e84;" horiz-adv-x="1190" 
d="M8 677h211l141 -375l161 375h146l158 -375l147 375h209l-293 -686h-118l-176 399l-180 -399h-119zM403 790c0 36 29 67 67 67s67 -31 67 -67c0 -37 -29 -67 -67 -67s-67 31 -67 67zM652 790c0 36 28 67 67 67c38 0 67 -31 67 -67c0 -37 -29 -67 -67 -67
c-39 0 -67 31 -67 67z" />
    <glyph glyph-name="Wgrave" unicode="&#x1e80;" horiz-adv-x="1190" 
d="M8 677h211l141 -375l161 375h146l158 -375l147 375h209l-293 -686h-118l-176 399l-180 -399h-119zM702 723h-94l-180 155h190z" />
    <glyph glyph-name="Ycircumflex" unicode="&#x176;" horiz-adv-x="751" 
d="M6 677h212l155 -213l156 213h216l-265 -367v-310h-204v306zM569 723h-105l-88 90l-89 -90h-105l89 169h209z" />
    <glyph glyph-name="Ygrave" unicode="&#x1ef2;" horiz-adv-x="751" 
d="M6 677h212l155 -213l156 213h216l-265 -367v-310h-204v306zM482 723h-94l-180 155h190z" />
    <glyph glyph-name="Zacute" unicode="&#x179;" horiz-adv-x="729" 
d="M706 0h-687l350 515h-321v162h658l-349 -515h349v-162zM257 723l84 155h190l-180 -155h-94z" />
    <glyph glyph-name="Zdotaccent" unicode="&#x17b;" horiz-adv-x="729" 
d="M706 0h-687l350 515h-321v162h658l-349 -515h349v-162zM297 790c0 36 29 67 67 67s67 -31 67 -67c0 -37 -29 -67 -67 -67s-67 31 -67 67z" />
    <glyph glyph-name="Idotaccent" unicode="&#x130;" horiz-adv-x="376" 
d="M86 677h204v-677h-204v677zM121 790c0 36 29 67 67 67s67 -31 67 -67c0 -37 -29 -67 -67 -67s-67 31 -67 67z" />
    <glyph glyph-name="abreve" unicode="&#x103;" horiz-adv-x="571" 
d="M52 303v135c66 47 149 68 234 68c148 0 217 -62 217 -157v-192c0 -35 5 -54 24 -54c17 0 36 10 45 14v-92c-35 -14 -81 -34 -150 -34c-67 0 -79 35 -85 53c-27 -22 -68 -53 -154 -53c-117 0 -148 71 -148 125c0 97 81 131 189 165c76 24 84 26 103 36c0 37 -6 77 -78 77
c-85 0 -153 -47 -197 -91zM327 120v118c-69 -29 -120 -50 -120 -101c0 -36 25 -51 48 -51c28 0 59 24 72 34zM101 732h87c6 -13 28 -69 98 -69c72 0 89 50 97 69h87c-11 -83 -83 -169 -185 -169c-94 0 -176 74 -184 169z" />
    <glyph glyph-name="amacron" unicode="&#x101;" horiz-adv-x="571" 
d="M52 303v135c66 47 149 68 234 68c148 0 217 -62 217 -157v-192c0 -35 5 -54 24 -54c17 0 36 10 45 14v-92c-35 -14 -81 -34 -150 -34c-67 0 -79 35 -85 53c-27 -22 -68 -53 -154 -53c-117 0 -148 71 -148 125c0 97 81 131 189 165c76 24 84 26 103 36c0 37 -6 77 -78 77
c-85 0 -153 -47 -197 -91zM327 120v118c-69 -29 -120 -50 -120 -101c0 -36 25 -51 48 -51c28 0 59 24 72 34zM474 574h-377v120h377v-120z" />
    <glyph glyph-name="aogonek" unicode="&#x105;" horiz-adv-x="571" 
d="M52 303v135c66 47 149 68 234 68c148 0 217 -62 217 -157v-192c0 -35 5 -54 24 -54c17 0 36 10 45 14v-92c-27 -11 -62 -25 -108 -31c-5 -14 -8 -29 -8 -44c0 -22 24 -48 58 -48c24 0 29 2 43 7v-84c-27 -13 -53 -20 -87 -20c-59 0 -106 41 -106 115c0 25 5 51 18 77
c-33 10 -41 33 -45 47c-27 -22 -68 -53 -154 -53c-117 0 -148 71 -148 125c0 97 81 131 189 165c76 24 84 26 103 36c0 37 -6 77 -78 77c-85 0 -153 -47 -197 -91zM327 120v118c-69 -29 -120 -50 -120 -101c0 -36 25 -51 48 -51c28 0 59 24 72 34z" />
    <glyph glyph-name="aeacute" unicode="&#x1fd;" horiz-adv-x="834" 
d="M52 306v132c44 26 115 68 214 68c80 0 126 -26 157 -44c21 15 61 44 139 44c119 0 242 -79 242 -265v-35h-320c6 -91 110 -103 138 -103c38 0 92 11 171 51v-112c-69 -30 -143 -51 -219 -51c-73 0 -145 21 -204 63c-69 -47 -133 -63 -195 -63c-92 0 -140 63 -140 126
c0 108 126 145 186 163c67 20 74 22 100 33c0 58 -7 81 -72 81c-86 0 -145 -43 -197 -88zM321 116v121c-74 -35 -113 -53 -113 -98c0 -18 9 -53 45 -53c34 0 55 18 68 30zM481 293h159c-2 38 -13 105 -79 105c-46 0 -79 -33 -80 -105zM310 563l84 155h190l-180 -155h-94z
" />
    <glyph glyph-name="cacute" unicode="&#x107;" horiz-adv-x="511" 
d="M474 477v-138c-32 10 -93 27 -134 27c-53 0 -120 -30 -120 -116c0 -85 67 -119 120 -119c41 0 100 17 142 30v-138c-40 -14 -89 -32 -168 -32c-237 0 -279 183 -279 259s42 256 279 256c79 0 121 -15 160 -29zM198 563l84 155h190l-180 -155h-94z" />
    <glyph glyph-name="ccaron" unicode="&#x10d;" horiz-adv-x="511" 
d="M474 477v-138c-32 10 -93 27 -134 27c-53 0 -120 -30 -120 -116c0 -85 67 -119 120 -119c41 0 100 17 142 30v-138c-40 -14 -89 -32 -168 -32c-237 0 -279 183 -279 259s42 256 279 256c79 0 121 -15 160 -29zM102 732h105l89 -91l88 91h105l-89 -169h-209z" />
    <glyph glyph-name="ccircumflex" unicode="&#x109;" horiz-adv-x="511" 
d="M474 477v-138c-32 10 -93 27 -134 27c-53 0 -120 -30 -120 -116c0 -85 67 -119 120 -119c41 0 100 17 142 30v-138c-40 -14 -89 -32 -168 -32c-237 0 -279 183 -279 259s42 256 279 256c79 0 121 -15 160 -29zM489 563h-105l-88 90l-89 -90h-105l89 169h209z" />
    <glyph glyph-name="cdotaccent" unicode="&#x10b;" horiz-adv-x="511" 
d="M474 477v-138c-32 10 -93 27 -134 27c-53 0 -120 -30 -120 -116c0 -85 67 -119 120 -119c41 0 100 17 142 30v-138c-40 -14 -89 -32 -168 -32c-237 0 -279 183 -279 259s42 256 279 256c79 0 121 -15 160 -29zM229 630c0 36 29 67 67 67s67 -31 67 -67
c0 -37 -29 -67 -67 -67s-67 31 -67 67z" />
    <glyph glyph-name="dcaron" unicode="&#x10f;" horiz-adv-x="837" 
d="M582 0h-176v45c-20 -17 -60 -54 -145 -54c-100 0 -226 71 -226 254c0 129 71 261 238 261c76 0 110 -23 133 -38v209h176v-677zM406 348c-27 15 -52 32 -89 32c-54 0 -97 -48 -97 -131c0 -96 53 -126 97 -126c50 0 77 25 89 35v190zM629 351v28c61 23 72 80 70 127
c-48 14 -70 45 -70 87c0 48 40 93 95 93c79 0 114 -76 114 -140c0 -76 -55 -174 -209 -195z" />
    <glyph glyph-name="dcroat" unicode="&#x111;" horiz-adv-x="637" 
d="M298 552v83h108v42h176v-42h68v-83h-68v-552h-176v45c-20 -17 -60 -54 -145 -54c-100 0 -226 71 -226 254c0 129 71 261 238 261c76 0 110 -23 133 -38v84h-108zM406 348c-27 15 -52 32 -89 32c-54 0 -97 -48 -97 -131c0 -96 53 -126 97 -126c50 0 77 25 89 35v190z" />
    <glyph glyph-name="ebreve" unicode="&#x115;" horiz-adv-x="596" 
d="M566 241v-35h-350c13 -62 74 -103 141 -103s134 21 196 50v-109c-26 -14 -101 -53 -233 -53c-190 0 -285 116 -285 260s95 255 285 255c111 0 246 -65 246 -265zM211 293h190c0 63 -33 105 -92 105c-57 0 -98 -42 -98 -105zM118 732h87c6 -13 28 -69 98 -69
c72 0 89 50 97 69h87c-11 -83 -83 -169 -185 -169c-94 0 -176 74 -184 169z" />
    <glyph glyph-name="ecaron" unicode="&#x11b;" horiz-adv-x="596" 
d="M566 241v-35h-350c13 -62 74 -103 141 -103s134 21 196 50v-109c-26 -14 -101 -53 -233 -53c-190 0 -285 116 -285 260s95 255 285 255c111 0 246 -65 246 -265zM211 293h190c0 63 -33 105 -92 105c-57 0 -98 -42 -98 -105zM109 732h105l89 -91l88 91h105l-89 -169h-209z
" />
    <glyph glyph-name="edotaccent" unicode="&#x117;" horiz-adv-x="596" 
d="M566 241v-35h-350c13 -62 74 -103 141 -103s134 21 196 50v-109c-26 -14 -101 -53 -233 -53c-190 0 -285 116 -285 260s95 255 285 255c111 0 246 -65 246 -265zM211 293h190c0 63 -33 105 -92 105c-57 0 -98 -42 -98 -105zM236 630c0 36 29 67 67 67s67 -31 67 -67
c0 -37 -29 -67 -67 -67s-67 31 -67 67z" />
    <glyph glyph-name="emacron" unicode="&#x113;" horiz-adv-x="596" 
d="M566 241v-35h-350c13 -62 74 -103 141 -103s134 21 196 50v-109c-26 -14 -101 -53 -233 -53c-190 0 -285 116 -285 260s95 255 285 255c111 0 246 -65 246 -265zM211 293h190c0 63 -33 105 -92 105c-57 0 -98 -42 -98 -105zM491 574h-377v120h377v-120z" />
    <glyph glyph-name="eng" unicode="&#x14b;" horiz-adv-x="636" 
d="M587 292v-321c0 -157 -121 -206 -191 -206l-59 134c66 21 74 55 74 154v205c0 32 4 112 -72 112c-59 0 -91 -57 -107 -78v-292h-176v497h176v-71c56 60 111 80 176 80c185 0 179 -169 179 -214z" />
    <glyph glyph-name="eogonek" unicode="&#x119;" horiz-adv-x="596" 
d="M566 241v-35h-350c13 -62 74 -103 141 -103s134 21 196 50v-109c-18 -10 -58 -31 -123 -43c-7 -15 -11 -33 -11 -51c0 -22 24 -48 58 -48c24 0 29 2 43 7v-84c-27 -13 -53 -20 -87 -20c-59 0 -106 41 -106 115c0 24 4 48 16 72c-8 -1 -15 -1 -23 -1
c-190 0 -285 116 -285 260s95 255 285 255c111 0 246 -65 246 -265zM211 293h190c0 63 -33 105 -92 105c-57 0 -98 -42 -98 -105z" />
    <glyph glyph-name="gbreve" unicode="&#x11f;" horiz-adv-x="563" 
d="M556 497v-106h-87c19 -16 46 -47 46 -98c0 -82 -69 -155 -197 -162c-23 -1 -61 -6 -61 -33c0 -24 22 -25 89 -31c50 -4 191 -15 191 -144c0 -90 -65 -158 -255 -158c-187 0 -257 57 -257 131c0 20 9 90 118 104c-24 9 -43 36 -43 63c0 26 16 73 76 84
c-64 16 -137 67 -137 160c0 134 109 190 244 190h273zM192 305c0 -42 31 -79 82 -79s88 37 88 81c0 52 -44 83 -83 83c-59 0 -87 -49 -87 -85zM290 -41c-81 0 -115 -16 -115 -54c0 -56 91 -56 112 -56c63 0 110 18 110 58c0 50 -83 52 -107 52zM99 732h87
c6 -13 28 -69 98 -69c72 0 89 50 97 69h87c-11 -83 -83 -169 -185 -169c-94 0 -176 74 -184 169z" />
    <glyph glyph-name="gcircumflex" unicode="&#x11d;" horiz-adv-x="563" 
d="M556 497v-106h-87c19 -16 46 -47 46 -98c0 -82 -69 -155 -197 -162c-23 -1 -61 -6 -61 -33c0 -24 22 -25 89 -31c50 -4 191 -15 191 -144c0 -90 -65 -158 -255 -158c-187 0 -257 57 -257 131c0 20 9 90 118 104c-24 9 -43 36 -43 63c0 26 16 73 76 84
c-64 16 -137 67 -137 160c0 134 109 190 244 190h273zM192 305c0 -42 31 -79 82 -79s88 37 88 81c0 52 -44 83 -83 83c-59 0 -87 -49 -87 -85zM290 -41c-81 0 -115 -16 -115 -54c0 -56 91 -56 112 -56c63 0 110 18 110 58c0 50 -83 52 -107 52zM475 563h-105l-88 90l-89 -90
h-105l89 169h209z" />
    <glyph glyph-name="gcommaaccent" unicode="&#x123;" horiz-adv-x="563" 
d="M556 497v-106h-87c19 -16 46 -47 46 -98c0 -82 -69 -155 -197 -162c-23 -1 -61 -6 -61 -33c0 -24 22 -25 89 -31c50 -4 191 -15 191 -144c0 -90 -65 -158 -255 -158c-187 0 -257 57 -257 131c0 20 9 90 118 104c-24 9 -43 36 -43 63c0 26 16 73 76 84
c-64 16 -137 67 -137 160c0 134 109 190 244 190h273zM192 305c0 -42 31 -79 82 -79s88 37 88 81c0 52 -44 83 -83 83c-59 0 -87 -49 -87 -85zM290 -41c-81 0 -115 -16 -115 -54c0 -56 91 -56 112 -56c63 0 110 18 110 58c0 50 -83 52 -107 52zM361 770v-22
c-13 -12 -42 -44 -38 -94c40 -15 42 -47 42 -55c0 -35 -35 -57 -68 -57c-36 0 -83 25 -83 84c0 70 64 138 147 144z" />
    <glyph glyph-name="gdotaccent" unicode="&#x121;" horiz-adv-x="563" 
d="M556 497v-106h-87c19 -16 46 -47 46 -98c0 -82 -69 -155 -197 -162c-23 -1 -61 -6 -61 -33c0 -24 22 -25 89 -31c50 -4 191 -15 191 -144c0 -90 -65 -158 -255 -158c-187 0 -257 57 -257 131c0 20 9 90 118 104c-24 9 -43 36 -43 63c0 26 16 73 76 84
c-64 16 -137 67 -137 160c0 134 109 190 244 190h273zM192 305c0 -42 31 -79 82 -79s88 37 88 81c0 52 -44 83 -83 83c-59 0 -87 -49 -87 -85zM290 -41c-81 0 -115 -16 -115 -54c0 -56 91 -56 112 -56c63 0 110 18 110 58c0 50 -83 52 -107 52zM214 630c0 36 29 67 67 67
s67 -31 67 -67c0 -37 -29 -67 -67 -67s-67 31 -67 67z" />
    <glyph glyph-name="hbar" unicode="&#x127;" horiz-adv-x="636" 
d="M428 552h-196v-126c62 66 120 80 176 80c108 0 179 -57 179 -201v-305h-176v258c0 4 13 112 -72 112c-52 0 -87 -48 -107 -78v-292h-176v552h-68v83h68v42h176v-42h196v-83z" />
    <glyph glyph-name="hcircumflex" unicode="&#x125;" horiz-adv-x="636" 
d="M56 677h176v-251c62 66 120 80 176 80c108 0 179 -57 179 -201v-305h-176v258c0 4 13 112 -72 112c-52 0 -87 -48 -107 -78v-292h-176v677zM511 723h-105l-88 90l-89 -90h-105l89 169h209z" />
    <glyph glyph-name="ibreve" unicode="&#x12d;" horiz-adv-x="306" 
d="M65 497h176v-497h-176v497zM-31 732h87c6 -13 28 -69 98 -69c72 0 89 50 97 69h87c-11 -83 -83 -169 -185 -169c-94 0 -176 74 -184 169z" />
    <glyph glyph-name="ij" unicode="&#x133;" horiz-adv-x="612" 
d="M65 497h176v-497h-176v497zM153 686c41 0 74 -33 74 -74s-33 -74 -74 -74s-74 33 -74 74s33 74 74 74zM371 497h176v-526c0 -157 -121 -206 -191 -206l-59 134c66 21 74 55 74 154v444zM459 686c41 0 74 -33 74 -74s-33 -74 -74 -74s-74 33 -74 74s33 74 74 74z" />
    <glyph glyph-name="imacron" unicode="&#x12b;" horiz-adv-x="306" 
d="M65 497h176v-497h-176v497zM342 574h-377v120h377v-120z" />
    <glyph glyph-name="iogonek" unicode="&#x12f;" horiz-adv-x="306" 
d="M65 497h176v-497h-56c-7 -15 -11 -32 -11 -50c0 -22 24 -48 58 -48c24 0 29 2 43 7v-84c-27 -13 -53 -20 -87 -20c-59 0 -106 41 -106 115c0 27 5 53 20 80h-37v497zM153 686c41 0 74 -33 74 -74s-33 -74 -74 -74s-74 33 -74 74s33 74 74 74z" />
    <glyph glyph-name="itilde" unicode="&#x129;" horiz-adv-x="306" 
d="M65 497h176v-497h-176v497zM268 719h79c0 -101 -46 -156 -115 -156c-50 0 -122 42 -154 42c-29 0 -38 -24 -40 -42h-78c0 113 67 156 114 156c24 0 55 -11 85 -21c29 -11 57 -22 71 -22c27 0 38 25 38 43z" />
    <glyph glyph-name="jcircumflex" unicode="&#x135;" horiz-adv-x="306" 
d="M65 497h176v-526c0 -157 -121 -206 -191 -206l-59 134c66 21 74 55 74 154v444zM346 563h-105l-88 90l-89 -90h-105l89 169h209z" />
    <glyph glyph-name="kcommaaccent" unicode="&#x137;" horiz-adv-x="647" 
d="M55 677h178v-397l174 217h211l-194 -232l223 -265h-223l-191 236v-236h-178v677zM241 -176v57c75 -4 80 5 80 19c0 9 -12 21 -43 21v49c135 0 159 -31 159 -74s-43 -82 -115 -82c-32 0 -60 5 -81 10z" />
    <glyph glyph-name="lacute" unicode="&#x13a;" horiz-adv-x="306" 
d="M65 677h176v-677h-176v677zM66 723l84 155h190l-180 -155h-94z" />
    <glyph glyph-name="lcaron" unicode="&#x13e;" horiz-adv-x="499" 
d="M65 677h176v-677h-176v677zM291 351v28c61 23 72 80 70 127c-48 14 -70 45 -70 87c0 48 40 93 95 93c79 0 114 -76 114 -140c0 -76 -55 -174 -209 -195z" />
    <glyph glyph-name="lcommaaccent" unicode="&#x13c;" horiz-adv-x="306" 
d="M65 677h176v-677h-176v677zM55 -176v57c75 -4 80 5 80 19c0 9 -12 21 -43 21v49c135 0 159 -31 159 -74s-43 -82 -115 -82c-32 0 -60 5 -81 10z" />
    <glyph glyph-name="ldot" unicode="&#x140;" horiz-adv-x="378" 
d="M65 677h176v-677h-176v677zM276 347c0 36 29 67 67 67s67 -31 67 -67c0 -37 -29 -67 -67 -67s-67 31 -67 67z" />
    <glyph glyph-name="nacute" unicode="&#x144;" horiz-adv-x="636" 
d="M56 497h176v-71c56 60 111 80 176 80c185 0 179 -169 179 -214v-292h-176v258c0 32 4 112 -72 112c-59 0 -91 -57 -107 -78v-292h-176v497zM231 563l84 155h190l-180 -155h-94z" />
    <glyph glyph-name="ncaron" unicode="&#x148;" horiz-adv-x="636" 
d="M56 497h176v-71c56 60 111 80 176 80c185 0 179 -169 179 -214v-292h-176v258c0 32 4 112 -72 112c-59 0 -91 -57 -107 -78v-292h-176v497zM124 732h105l89 -91l88 91h105l-89 -169h-209z" />
    <glyph glyph-name="ncommaaccent" unicode="&#x146;" horiz-adv-x="636" 
d="M56 497h176v-71c56 60 111 80 176 80c185 0 179 -169 179 -214v-292h-176v258c0 32 4 112 -72 112c-59 0 -91 -57 -107 -78v-292h-176v497zM233 -176v57c75 -4 80 5 80 19c0 9 -12 21 -43 21v49c135 0 159 -31 159 -74s-43 -82 -115 -82c-32 0 -60 5 -81 10z" />
    <glyph glyph-name="obreve" unicode="&#x14f;" horiz-adv-x="640" 
d="M320 506c190 0 285 -112 285 -257s-95 -258 -285 -258s-285 113 -285 258s95 257 285 257zM320 375c-66 0 -100 -50 -100 -126s34 -127 100 -127s100 51 100 127s-34 126 -100 126zM135 732h87c6 -13 28 -69 98 -69c72 0 89 50 97 69h87c-11 -83 -83 -169 -185 -169
c-94 0 -176 74 -184 169z" />
    <glyph glyph-name="ohungarumlaut" unicode="&#x151;" horiz-adv-x="640" 
d="M320 506c190 0 285 -112 285 -257s-95 -258 -285 -258s-285 113 -285 258s95 257 285 257zM320 375c-66 0 -100 -50 -100 -126s34 -127 100 -127s100 51 100 127s-34 126 -100 126zM360 563l84 155h190l-180 -155h-94zM125 563l83 155h190l-180 -155h-93z" />
    <glyph glyph-name="omacron" unicode="&#x14d;" horiz-adv-x="640" 
d="M320 506c190 0 285 -112 285 -257s-95 -258 -285 -258s-285 113 -285 258s95 257 285 257zM320 375c-66 0 -100 -50 -100 -126s34 -127 100 -127s100 51 100 127s-34 126 -100 126zM508 574h-377v120h377v-120z" />
    <glyph glyph-name="oslashacute" unicode="&#x1ff;" horiz-adv-x="640" 
d="M482 470l69 76l42 -38l-64 -72c52 -49 76 -116 76 -187c0 -109 -67 -258 -282 -258c-98 0 -143 25 -165 37l-69 -77l-42 37l65 73c-6 6 -15 14 -28 30c-32 40 -49 97 -49 155c0 131 85 260 284 260c57 0 114 -9 163 -36zM229 189l151 168c-24 20 -48 20 -58 20
c-75 0 -102 -62 -102 -129c0 -14 2 -38 9 -59zM412 308l-151 -167c17 -13 38 -21 60 -21c41 0 99 25 99 133c0 33 -5 47 -8 55zM235 563l84 155h190l-180 -155h-94z" />
    <glyph glyph-name="racute" unicode="&#x155;" horiz-adv-x="493" 
d="M55 497h176v-120c16 44 72 129 157 129c46 0 74 -17 105 -36l-65 -176c-27 26 -50 38 -81 38c-45 0 -81 -22 -116 -118v-214h-176v497zM169 563l84 155h190l-180 -155h-94z" />
    <glyph glyph-name="rcaron" unicode="&#x159;" horiz-adv-x="493" 
d="M55 497h176v-120c16 44 72 129 157 129c46 0 74 -17 105 -36l-65 -176c-27 26 -50 38 -81 38c-45 0 -81 -22 -116 -118v-214h-176v497zM53 732h105l89 -91l88 91h105l-89 -169h-209z" />
    <glyph glyph-name="rcommaaccent" unicode="&#x157;" horiz-adv-x="493" 
d="M55 497h176v-120c16 44 72 129 157 129c46 0 74 -17 105 -36l-65 -176c-27 26 -50 38 -81 38c-45 0 -81 -22 -116 -118v-214h-176v497zM64 -176v57c75 -4 80 5 80 19c0 9 -12 21 -43 21v49c135 0 159 -31 159 -74s-43 -82 -115 -82c-32 0 -60 5 -81 10z" />
    <glyph glyph-name="sacute" unicode="&#x15b;" horiz-adv-x="484" 
d="M419 466v-122c-20 11 -74 50 -144 50c-46 0 -53 -26 -53 -35c0 -14 4 -26 64 -49c119 -46 159 -89 159 -165c0 -85 -61 -154 -199 -154c-82 0 -141 20 -192 39v125c36 -21 88 -52 149 -52c32 0 66 8 66 36c0 25 -27 38 -106 72c-53 23 -117 69 -117 146
c0 70 64 149 202 149c12 0 93 0 171 -40zM155 563l84 155h190l-180 -155h-94z" />
    <glyph glyph-name="uni015F" unicode="&#x15f;" horiz-adv-x="484" 
d="M419 466v-122c-20 11 -74 50 -144 50c-46 0 -53 -26 -53 -35c0 -14 4 -26 64 -49c119 -46 159 -89 159 -165c0 -79 -52 -144 -168 -153l-10 -21c53 -13 83 -43 83 -84c0 -51 -44 -97 -161 -97h-96v67c49 0 97 5 97 39c0 20 -13 29 -47 31l49 67c-55 6 -99 21 -138 36v125
c36 -21 88 -52 149 -52c32 0 66 8 66 36c0 25 -27 38 -106 72c-53 23 -117 69 -117 146c0 70 64 149 202 149c12 0 93 0 171 -40z" />
    <glyph glyph-name="scircumflex" unicode="&#x15d;" horiz-adv-x="484" 
d="M419 466v-122c-20 11 -74 50 -144 50c-46 0 -53 -26 -53 -35c0 -14 4 -26 64 -49c119 -46 159 -89 159 -165c0 -85 -61 -154 -199 -154c-82 0 -141 20 -192 39v125c36 -21 88 -52 149 -52c32 0 66 8 66 36c0 25 -27 38 -106 72c-53 23 -117 69 -117 146
c0 70 64 149 202 149c12 0 93 0 171 -40zM435 563h-105l-88 90l-89 -90h-105l89 169h209z" />
    <glyph glyph-name="uni0219" unicode="&#x219;" horiz-adv-x="484" 
d="M419 466v-122c-20 11 -74 50 -144 50c-46 0 -53 -26 -53 -35c0 -14 4 -26 64 -49c119 -46 159 -89 159 -165c0 -85 -61 -154 -199 -154c-82 0 -141 20 -192 39v125c36 -21 88 -52 149 -52c32 0 66 8 66 36c0 25 -27 38 -106 72c-53 23 -117 69 -117 146
c0 70 64 149 202 149c12 0 93 0 171 -40zM150 -176v57c75 -4 80 5 80 19c0 9 -12 21 -43 21v49c135 0 159 -31 159 -74s-43 -82 -115 -82c-32 0 -60 5 -81 10z" />
    <glyph glyph-name="tbar" unicode="&#x167;" horiz-adv-x="469" 
d="M435 219h-168v-3c0 -42 0 -85 71 -85c38 0 71 15 110 35v-137c-32 -16 -103 -38 -167 -38c-131 0 -190 67 -190 186v42h-80v83h80v73h-80v31l236 240h20v-149h168v-122h-168v-73h168v-83z" />
    <glyph glyph-name="tcaron" unicode="&#x165;" horiz-adv-x="673" 
d="M435 497v-122h-168v-159c0 -42 0 -85 71 -85c38 0 71 15 110 35v-137c-32 -16 -103 -38 -167 -38c-131 0 -190 67 -190 186v198h-80v31l236 240h20v-149h168zM465 351v28c61 23 72 80 70 127c-48 14 -70 45 -70 87c0 48 40 93 95 93c79 0 114 -76 114 -140
c0 -76 -55 -174 -209 -195z" />
    <glyph glyph-name="uni021B" unicode="&#x163;" horiz-adv-x="469" 
d="M435 497v-122h-168v-159c0 -42 0 -85 71 -85c38 0 71 15 110 35v-137c-32 -16 -103 -38 -167 -38c-131 0 -190 67 -190 186v198h-80v31l236 240h20v-149h168zM189 -176v57c75 -4 80 5 80 19c0 9 -12 21 -43 21v49c135 0 159 -31 159 -74s-43 -82 -115 -82
c-32 0 -60 5 -81 10z" />
    <glyph glyph-name="uni021B" unicode="&#x21b;" horiz-adv-x="469" 
d="M435 497v-122h-168v-159c0 -42 0 -85 71 -85c38 0 71 15 110 35v-137c-32 -16 -103 -38 -167 -38c-131 0 -190 67 -190 186v198h-80v31l236 240h20v-149h168zM189 -176v57c75 -4 80 5 80 19c0 9 -12 21 -43 21v49c135 0 159 -31 159 -74s-43 -82 -115 -82
c-32 0 -60 5 -81 10z" />
    <glyph glyph-name="ubreve" unicode="&#x16d;" horiz-adv-x="636" 
d="M580 0h-176v71c-46 -50 -97 -80 -176 -80c-185 0 -179 169 -179 214v292h176v-258c0 -32 -4 -112 72 -112c60 0 94 59 107 78v292h176v-497zM133 732h87c6 -13 28 -69 98 -69c72 0 89 50 97 69h87c-11 -83 -83 -169 -185 -169c-94 0 -176 74 -184 169z" />
    <glyph glyph-name="uhungarumlaut" unicode="&#x171;" horiz-adv-x="636" 
d="M580 0h-176v71c-46 -50 -97 -80 -176 -80c-185 0 -179 169 -179 214v292h176v-258c0 -32 -4 -112 72 -112c60 0 94 59 107 78v292h176v-497zM358 563l84 155h190l-180 -155h-94zM123 563l83 155h190l-180 -155h-93z" />
    <glyph glyph-name="umacron" unicode="&#x16b;" horiz-adv-x="636" 
d="M580 0h-176v71c-46 -50 -97 -80 -176 -80c-185 0 -179 169 -179 214v292h176v-258c0 -32 -4 -112 72 -112c60 0 94 59 107 78v292h176v-497zM506 574h-377v120h377v-120z" />
    <glyph glyph-name="uogonek" unicode="&#x173;" horiz-adv-x="636" 
d="M580 0h-50c-7 -15 -11 -32 -11 -50c0 -22 24 -48 58 -48c24 0 29 2 43 7v-84c-27 -13 -53 -20 -87 -20c-59 0 -106 41 -106 115c0 27 5 53 20 80h-43v71c-46 -50 -97 -80 -176 -80c-185 0 -179 169 -179 214v292h176v-258c0 -32 -4 -112 72 -112c60 0 94 59 107 78v292
h176v-497z" />
    <glyph glyph-name="uring" unicode="&#x16f;" horiz-adv-x="636" 
d="M580 0h-176v71c-46 -50 -97 -80 -176 -80c-185 0 -179 169 -179 214v292h176v-258c0 -32 -4 -112 72 -112c60 0 94 59 107 78v292h176v-497zM317 763c56 0 101 -44 101 -100s-45 -101 -101 -101s-100 45 -100 101s44 100 100 100zM317 715c-29 0 -52 -23 -52 -52
s23 -53 52 -53s53 24 53 53s-24 52 -53 52z" />
    <glyph glyph-name="utilde" unicode="&#x169;" horiz-adv-x="636" 
d="M580 0h-176v71c-46 -50 -97 -80 -176 -80c-185 0 -179 169 -179 214v292h176v-258c0 -32 -4 -112 72 -112c60 0 94 59 107 78v292h176v-497zM432 719h79c0 -101 -46 -156 -115 -156c-50 0 -122 42 -154 42c-29 0 -38 -24 -40 -42h-78c0 113 67 156 114 156
c24 0 55 -11 85 -21c29 -11 57 -22 71 -22c27 0 38 25 38 43z" />
    <glyph glyph-name="wacute" unicode="&#x1e83;" horiz-adv-x="854" 
d="M7 497h178l91 -251l97 251h112l98 -251l88 251h176l-196 -497h-111l-111 271l-110 -271h-111zM330 563l84 155h190l-180 -155h-94z" />
    <glyph glyph-name="wcircumflex" unicode="&#x175;" horiz-adv-x="854" 
d="M7 497h178l91 -251l97 251h112l98 -251l88 251h176l-196 -497h-111l-111 271l-110 -271h-111zM620 563h-105l-88 90l-89 -90h-105l89 169h209z" />
    <glyph glyph-name="wdieresis" unicode="&#x1e85;" horiz-adv-x="854" 
d="M7 497h178l91 -251l97 251h112l98 -251l88 251h176l-196 -497h-111l-111 271l-110 -271h-111zM235 630c0 36 29 67 67 67s67 -31 67 -67c0 -37 -29 -67 -67 -67s-67 31 -67 67zM484 630c0 36 28 67 67 67c38 0 67 -31 67 -67c0 -37 -29 -67 -67 -67c-39 0 -67 31 -67 67z
" />
    <glyph glyph-name="wgrave" unicode="&#x1e81;" horiz-adv-x="854" 
d="M7 497h178l91 -251l97 251h112l98 -251l88 251h176l-196 -497h-111l-111 271l-110 -271h-111zM524 563h-94l-180 155h190z" />
    <glyph glyph-name="ycircumflex" unicode="&#x177;" horiz-adv-x="583" 
d="M13 497h189l101 -247l115 247h171l-338 -723h-178l137 291zM485 563h-105l-88 90l-89 -90h-105l89 169h209z" />
    <glyph glyph-name="ygrave" unicode="&#x1ef3;" horiz-adv-x="583" 
d="M13 497h189l101 -247l115 247h171l-338 -723h-178l137 291zM398 563h-94l-180 155h190z" />
    <glyph glyph-name="zacute" unicode="&#x17a;" horiz-adv-x="552" 
d="M34 367v130h495v-16l-238 -351h233v-130h-510v16l238 351h-218zM169 563l84 155h190l-180 -155h-94z" />
    <glyph glyph-name="zdotaccent" unicode="&#x17c;" horiz-adv-x="552" 
d="M34 367v130h495v-16l-238 -351h233v-130h-510v16l238 351h-218zM209 630c0 36 29 67 67 67s67 -31 67 -67c0 -37 -29 -67 -67 -67s-67 31 -67 67z" />
    <glyph glyph-name="kgreenlandic" unicode="&#x138;" horiz-adv-x="647" 
d="M55 497h178v-217l174 217h211l-194 -232l223 -265h-223l-191 236v-236h-178v497z" />
    <glyph glyph-name="napostrophe" unicode="&#x149;" horiz-adv-x="847" 
d="M41 377v30c15 18 51 61 45 128c-50 22 -51 69 -51 77c0 49 43 79 84 79c43 0 98 -34 98 -115c0 -92 -70 -188 -176 -199zM267 497h176v-71c56 60 111 80 176 80c185 0 179 -169 179 -214v-292h-176v258c0 32 4 112 -72 112c-59 0 -91 -57 -107 -78v-292h-176v497z" />
    <glyph glyph-name="Delta" unicode="&#x394;" horiz-adv-x="723" 
d="M703 0h-683v76l214 624h260l209 -624v-76zM477 145l-113 360c-3 6 -4 14 -6 21c-1 3 -2 5 -2 8c-2 -9 -5 -18 -8 -27l-113 -362h242z" />
    <glyph glyph-name="Delta" unicode="&#x2206;" horiz-adv-x="723" 
d="M703 0h-683v76l214 624h260l209 -624v-76zM477 145l-113 360c-3 6 -4 14 -6 21c-1 3 -2 5 -2 8c-2 -9 -5 -18 -8 -27l-113 -362h242z" />
    <glyph glyph-name="Omega" unicode="&#x3a9;" horiz-adv-x="741" 
d="M704 0h-298v138c48 48 96 118 96 231c0 112 -45 187 -128 187c-87 0 -136 -75 -136 -191c0 -113 50 -183 97 -227v-138h-297v144h129c-63 49 -132 124 -132 258c0 179 138 310 342 310c217 0 329 -134 329 -306c0 -125 -58 -204 -133 -262h131v-144z" />
    <glyph glyph-name="Omega" unicode="&#x2126;" horiz-adv-x="741" 
d="M704 0h-298v138c48 48 96 118 96 231c0 112 -45 187 -128 187c-87 0 -136 -75 -136 -191c0 -113 50 -183 97 -227v-138h-297v144h129c-63 49 -132 124 -132 258c0 179 138 310 342 310c217 0 329 -134 329 -306c0 -125 -58 -204 -133 -262h131v-144z" />
    <glyph glyph-name="uni03BC" unicode="&#x3bc;" horiz-adv-x="636" 
d="M225 15v-241h-176v723h176v-260c0 -37 -1 -110 72 -110c53 0 85 45 107 76v294h176v-497h-176v27c-15 -15 -38 -36 -95 -36c-44 0 -63 11 -84 24z" />
    <glyph glyph-name="pi" unicode="&#x3c0;" horiz-adv-x="678" 
d="M632 131l32 -110c-19 -15 -64 -30 -111 -30c-125 0 -154 93 -154 172v214h-100v-221c0 -72 -6 -115 -17 -156h-175c14 52 20 105 20 165v211c-20 -3 -48 -14 -69 -27l-48 111c44 30 117 46 176 46h465v-129h-79v-191c0 -39 6 -67 28 -67c12 0 20 4 32 12z" />
    <glyph glyph-name="afii61289" unicode="&#x2113;" horiz-adv-x="493" 
d="M391 123l39 -85c-35 -27 -89 -55 -148 -55c-112 0 -162 77 -162 183v45l-51 -47l-40 67l91 83v195c0 145 71 219 174 219c98 0 131 -73 131 -131c0 -113 -73 -204 -156 -288v-122c0 -73 24 -96 56 -96c26 0 50 16 66 32zM343 578c0 22 -9 42 -32 42
c-27 0 -42 -25 -42 -81v-121c41 43 74 113 74 160z" />
    <glyph glyph-name="estimated" unicode="&#x212e;" horiz-adv-x="661" 
d="M584 276h-426v-190c41 -40 92 -61 152 -61c91 0 155 45 202 125c12 -7 24 -15 36 -22c-59 -86 -126 -140 -238 -140c-167 0 -270 128 -270 288s102 288 269 288c172 0 269 -127 275 -288zM462 313v151c-42 42 -95 64 -154 64s-109 -21 -150 -63v-152h304z" />
    <glyph glyph-name="partialdiff" unicode="&#x2202;" horiz-adv-x="576" 
d="M561 450c0 -64 -7 -127 -22 -185c-42 -158 -143 -276 -286 -276c-132 0 -222 89 -222 211c0 206 136 296 254 296c48 0 84 -14 106 -37c1 9 1 15 1 26c0 74 -40 115 -102 115c-30 0 -67 -13 -96 -29c-10 33 -25 84 -35 118c37 25 93 43 154 43c151 0 248 -103 248 -282z
M253 123c64 0 108 109 121 207c-12 26 -30 43 -59 43c-56 0 -109 -79 -109 -183c0 -39 16 -67 47 -67z" />
    <glyph glyph-name="product" unicode="&#x220f;" horiz-adv-x="719" 
d="M656 -228h-193v748h-208v-748h-192v918h593v-918z" />
    <glyph glyph-name="summation" unicode="&#x2211;" horiz-adv-x="631" 
d="M563 -228h-543v106l236 359l-223 342v111h515v-159h-284l191 -291l-200 -308h308v-160z" />
    <glyph glyph-name="uni2219" unicode="&#x2219;" horiz-adv-x="281" 
d="M142 444c58 0 104 -47 104 -105s-46 -105 -104 -105c-57 0 -106 47 -106 105c0 59 49 105 106 105z" />
    <glyph glyph-name="radical" unicode="&#x221a;" horiz-adv-x="513" 
d="M528 728l-163 -740h-139l-105 273l-51 -35l-58 88l182 126l97 -260l118 548h119z" />
    <glyph glyph-name="infinity" unicode="&#x221e;" horiz-adv-x="767" 
d="M743 296c0 -114 -83 -194 -188 -194c-64 0 -127 31 -173 89c-40 -50 -99 -89 -170 -89c-89 0 -188 61 -188 192c0 124 99 188 188 188c74 0 131 -37 172 -89c31 41 92 89 170 89c108 0 189 -80 189 -186zM610 295c0 37 -23 67 -67 67c-38 0 -65 -26 -93 -69
c25 -42 55 -70 94 -70c43 0 66 35 66 72zM224 223c38 0 69 34 92 70c-25 39 -54 69 -93 69c-41 0 -66 -32 -66 -69c0 -38 26 -70 67 -70z" />
    <glyph glyph-name="integral" unicode="&#x222b;" horiz-adv-x="491" 
d="M409 613l-13 -5c-9 3 -22 6 -34 6c-30 0 -49 -20 -49 -67v-557c0 -124 -54 -220 -197 -220c-32 0 -80 8 -103 19l10 43c6 24 15 59 21 82c15 -5 31 -9 44 -9c33 0 50 23 50 67v555c0 128 57 223 198 223c37 0 85 -12 105 -23c-5 -18 -13 -45 -18 -64
c-5 -16 -9 -33 -14 -50z" />
    <glyph glyph-name="approxequal" unicode="&#x2248;" horiz-adv-x="583" 
d="M473 526l81 -109c-44 -67 -88 -99 -160 -99c-33 0 -77 6 -114 31c-26 17 -54 30 -84 30c-32 0 -61 -28 -83 -68l-88 106c42 60 86 107 164 107c44 0 80 -10 114 -30c36 -21 59 -31 86 -31c34 0 66 34 84 63zM473 288l81 -109c-44 -67 -88 -99 -160 -99
c-33 0 -77 6 -114 31c-26 17 -54 30 -84 30c-32 0 -61 -28 -83 -68l-88 106c42 60 86 107 164 107c44 0 80 -10 114 -30c36 -21 59 -31 86 -31c34 0 66 34 84 63z" />
    <glyph glyph-name="notequal" unicode="&#x2260;" horiz-adv-x="583" 
d="M518 112h-227l-40 -92h-159l39 92h-65v145h127l42 94h-169v145h231l48 114h162l-50 -114h61v-145h-124l-42 -94h166v-145z" />
    <glyph glyph-name="lessequal" unicode="&#x2264;" horiz-adv-x="583" 
d="M518 297v-148l-452 171v135l452 170v-148l-262 -90zM518 0h-452v131h452v-131z" />
    <glyph glyph-name="greaterequal" unicode="&#x2265;" horiz-adv-x="583" 
d="M66 149v148l262 90l-262 90v148l452 -170v-135zM518 0h-452v131h452v-131z" />
    <glyph glyph-name="lozenge" unicode="&#x25ca;" horiz-adv-x="559" 
d="M298 700l195 -350l-195 -350h-81l-194 349l194 351h81zM362 350l-104 194l-104 -194l104 -193z" />
    <glyph glyph-name="uni00A0" unicode="&#xa0;" horiz-adv-x="297" 
 />
    <glyph glyph-name="uni00AD" unicode="&#xad;" horiz-adv-x="490" 
d="M85 333h320v-163h-320v163z" />
    <glyph glyph-name="uni02C9" unicode="&#x2c9;" horiz-adv-x="333" 
d="M355 574h-377v120h377v-120z" />
    <glyph glyph-name="zero.fitted" unicode="&#xf639;" horiz-adv-x="594" 
d="M33 338c0 244 126 348 264 348s264 -105 264 -348c0 -244 -126 -347 -264 -347s-264 103 -264 347zM226 338c0 -91 0 -203 71 -203s71 112 71 203c0 77 0 205 -71 205s-71 -128 -71 -205z" />
    <glyph glyph-name="one.fitted" unicode="&#xf6d6;" horiz-adv-x="325" 
d="M255 0h-185v677h185v-677z" />
    <glyph glyph-name="one.fitted" unicode="&#xf6dc;" horiz-adv-x="325" 
d="M255 0h-185v677h185v-677z" />
    <glyph glyph-name="two.fitted" unicode="&#xf63a;" horiz-adv-x="578" 
d="M544 152v-152h-514v13c49 47 106 115 157 175c60 70 126 148 126 241c0 64 -41 105 -96 105c-67 0 -123 -42 -165 -86v160c44 28 113 78 219 78c125 0 222 -78 222 -209c0 -96 -55 -171 -78 -206c-27 -40 -58 -81 -90 -119h219z" />
    <glyph glyph-name="three.fitted" unicode="&#xf63b;" horiz-adv-x="521" 
d="M32 40v152c33 -28 92 -67 155 -67c65 0 97 42 97 79c0 50 -42 89 -113 90h-22v109h26c75 0 98 52 98 79c0 39 -33 78 -85 78c-48 0 -99 -21 -138 -47v130c46 19 106 43 185 43c166 0 227 -115 227 -181c0 -62 -45 -125 -92 -151c37 -20 103 -61 103 -166
c0 -149 -136 -197 -224 -197c-72 0 -164 23 -217 49z" />
    <glyph glyph-name="four.fitted" unicode="&#xf63c;" horiz-adv-x="594" 
d="M478 0h-180v146h-275v129l310 402h145v-415h80v-116h-80v-146zM130 262h168v217z" />
    <glyph glyph-name="five.fitted" unicode="&#xf63d;" horiz-adv-x="556" 
d="M486 677v-143h-242v-116c12 1 26 3 43 3c141 0 227 -99 227 -209c0 -114 -78 -221 -241 -221c-80 0 -159 20 -225 65v146c34 -25 124 -71 187 -71c75 0 90 54 90 80c0 41 -26 91 -129 91c-53 0 -85 -13 -102 -20v395h392z" />
    <glyph glyph-name="six.fitted" unicode="&#xf63e;" horiz-adv-x="594" 
d="M303 687l167 -55c-66 -56 -129 -118 -172 -183c11 3 26 5 45 5c118 0 219 -86 219 -220c0 -125 -102 -243 -261 -243c-178 0 -268 132 -268 268c0 156 108 313 270 428zM386 237c0 67 -47 91 -87 91c-70 0 -90 -59 -90 -91c0 -52 36 -94 87 -94c67 0 90 59 90 94z" />
    <glyph glyph-name="seven.fitted" unicode="&#xf63f;" horiz-adv-x="571" 
d="M258 -9l-157 50l207 486h-274v150h513v-20z" />
    <glyph glyph-name="eight.fitted" unicode="&#xf640;" horiz-adv-x="594" 
d="M142 349c-48 30 -86 69 -86 145c0 71 54 192 241 192c192 0 241 -121 241 -192c0 -76 -36 -113 -86 -145c65 -33 109 -98 109 -167c0 -49 -31 -191 -264 -191c-238 0 -264 142 -264 191c0 69 42 134 109 167zM297 391c35 0 70 35 70 90c0 31 -14 91 -68 91
c-56 0 -72 -55 -72 -91c0 -55 35 -90 70 -90zM298 99c45 0 89 37 89 101c0 66 -50 100 -90 100c-42 0 -90 -35 -90 -100c0 -71 50 -101 91 -101z" />
    <glyph glyph-name="nine.fitted" unicode="&#xf641;" horiz-adv-x="594" 
d="M291 -10l-167 55c66 56 129 118 172 183c-11 -3 -26 -5 -45 -5c-118 0 -219 86 -219 220c0 125 102 243 261 243c178 0 268 -132 268 -268c0 -156 -108 -313 -270 -428zM208 440c0 -67 47 -91 87 -91c70 0 90 59 90 91c0 52 -36 94 -87 94c-67 0 -90 -59 -90 -94z" />
    <glyph glyph-name="zero.taboldstyle" unicode="&#xf643;" horiz-adv-x="573" 
d="M26 254c0 161 121 267 263 267c148 0 258 -101 258 -264c0 -180 -130 -266 -259 -266c-139 0 -262 96 -262 263zM287 359c-61 0 -85 -47 -85 -102c0 -52 23 -104 84 -104c55 0 85 42 85 106c0 54 -26 100 -84 100z" />
    <glyph glyph-name="one.taboldstyle" unicode="&#xf644;" horiz-adv-x="573" 
d="M423 0h-176v291l-138 -123v196l171 157h143v-521z" />
    <glyph glyph-name="two.taboldstyle" unicode="&#xf645;" horiz-adv-x="573" 
d="M392 150h132v-150h-492v35l140 101c93 67 155 120 155 176c0 25 -10 57 -83 57c-61 0 -127 -35 -195 -77v166c95 41 162 63 255 63c154 0 201 -79 201 -166c0 -67 -23 -116 -113 -205z" />
    <glyph glyph-name="three.taboldstyle" unicode="&#xf646;" horiz-adv-x="573" 
d="M53 512h471l-148 -312c99 -27 139 -124 139 -192c0 -134 -120 -242 -283 -242c-80 0 -137 23 -183 41v170c50 -34 97 -59 170 -59c63 0 120 23 120 91c0 54 -42 100 -125 100c-36 0 -61 -6 -73 -9l127 262h-215v150z" />
    <glyph glyph-name="four.taboldstyle" unicode="&#xf647;" horiz-adv-x="573" 
d="M577 0h-83v-234h-166v234h-331v116l373 405h124v-405h83v-116zM168 116h160v176z" />
    <glyph glyph-name="five.taboldstyle" unicode="&#xf648;" horiz-adv-x="573" 
d="M537 512v-150h-229l-25 -129c231 -23 234 -191 234 -219c0 -105 -61 -248 -285 -248c-77 0 -129 19 -180 36v169c64 -31 118 -53 185 -53c65 0 104 26 104 74c0 27 -17 95 -154 95c-13 0 -58 0 -94 -6l69 431h375z" />
    <glyph glyph-name="six.taboldstyle" unicode="&#xf649;" horiz-adv-x="573" 
d="M296 691l164 -58c-84 -74 -155 -144 -174 -184c14 3 31 5 50 5c104 0 215 -82 215 -220c0 -125 -102 -243 -261 -243c-147 0 -268 101 -268 268c0 179 137 331 274 432zM375 238c0 36 -19 91 -87 91c-48 0 -90 -41 -90 -92c0 -50 34 -94 86 -94c49 0 91 34 91 95z" />
    <glyph glyph-name="seven.taboldstyle" unicode="&#xf64a;" horiz-adv-x="573" 
d="M264 -175l-158 50l208 487h-274v150h513v-21z" />
    <glyph glyph-name="eight.taboldstyle" unicode="&#xf64b;" horiz-adv-x="573" 
d="M131 349c-35 16 -86 71 -86 145c0 71 48 192 242 192c179 0 241 -112 241 -192s-51 -127 -86 -145c88 -44 108 -120 108 -167c0 -86 -59 -191 -264 -191c-214 0 -264 116 -264 191c0 54 24 120 109 167zM286 396c44 0 71 38 71 85c0 35 -17 85 -69 85
c-56 0 -72 -48 -72 -85c0 -34 18 -85 70 -85zM286 126c49 0 88 36 88 85s-39 85 -88 85s-88 -36 -88 -85s39 -85 88 -85z" />
    <glyph glyph-name="nine.taboldstyle" unicode="&#xf64c;" horiz-adv-x="573" 
d="M277 -179l-164 58c72 63 122 107 174 184c-14 -2 -26 -5 -45 -5c-116 0 -220 89 -220 220c0 125 102 243 261 243c179 0 268 -132 268 -268c0 -156 -112 -317 -274 -432zM198 274c0 -36 19 -91 87 -91c58 0 90 51 90 92c0 50 -34 94 -86 94c-49 0 -91 -34 -91 -95z" />
    <glyph glyph-name="zero.denominator" unicode="&#xf655;" 
d="M12 174c0 118 73 179 164 179c92 0 165 -61 165 -179s-73 -179 -165 -179c-91 0 -164 61 -164 179zM134 174c0 -46 4 -99 42 -99c36 0 43 47 43 99c0 46 -6 100 -43 100s-42 -54 -42 -100z" />
    <glyph glyph-name="one.denominator" unicode="&#xf656;" 
d="M238 0h-122v344h122v-344z" />
    <glyph glyph-name="two.denominator" unicode="&#xf657;" 
d="M335 90v-90h-315v17c32 26 62 55 91 84c42 42 76 79 76 119c0 26 -19 44 -51 44c-48 0 -91 -38 -103 -49v98c33 18 75 40 135 40c96 0 137 -55 137 -110c0 -57 -36 -96 -89 -153h119z" />
    <glyph glyph-name="three.denominator" unicode="&#xf658;" 
d="M38 21v93c33 -25 61 -39 98 -39c26 0 52 11 52 32c0 33 -44 38 -81 38v68c33 0 74 0 74 32c0 14 -15 32 -47 32c-11 0 -41 -2 -85 -28v81c17 6 69 23 115 23c96 0 139 -54 139 -96c0 -27 -13 -52 -45 -75c36 -21 52 -49 52 -83c0 -67 -65 -104 -143 -104
c-48 0 -102 15 -129 26z" />
    <glyph glyph-name="four.denominator" unicode="&#xf659;" 
d="M290 0h-109v72h-171v74l188 202h92v-205h47v-71h-47v-72zM94 143h87v93z" />
    <glyph glyph-name="five.denominator" unicode="&#xf65a;" 
d="M320 344v-85h-137l-6 -50c11 0 21 0 33 -1c73 -6 113 -51 113 -100c0 -63 -52 -113 -152 -113c-46 0 -90 9 -130 27v81c22 -10 64 -25 98 -25c39 0 58 14 58 36s-20 41 -75 41c-27 0 -44 -5 -57 -9l21 198h234z" />
    <glyph glyph-name="six.denominator" unicode="&#xf65b;" 
d="M197 353l98 -40c-42 -23 -78 -49 -104 -79c70 5 142 -37 142 -112c0 -60 -52 -127 -153 -127c-108 0 -160 69 -160 142c0 88 73 172 177 216zM223 123c0 33 -22 49 -45 49c-34 0 -48 -27 -48 -49c0 -28 19 -48 46 -48c31 0 47 26 47 48z" />
    <glyph glyph-name="seven.denominator" unicode="&#xf65c;" 
d="M163 -3l-118 21l119 231h-140v95h317v-9z" />
    <glyph glyph-name="eight.denominator" unicode="&#xf65d;" 
d="M78 178c-33 17 -55 38 -55 76c0 43 40 99 154 99c116 0 155 -55 155 -99c0 -38 -22 -59 -56 -76c42 -14 67 -45 67 -83c0 -34 -26 -100 -166 -100c-138 0 -166 64 -166 100c0 38 25 69 67 83zM177 208c20 0 36 15 36 38c0 17 -10 38 -36 38s-35 -19 -35 -38
c0 -23 16 -38 35 -38zM177 63c22 0 43 16 43 42c0 29 -20 43 -43 43c-22 0 -43 -14 -43 -43c0 -28 22 -42 43 -42z" />
    <glyph glyph-name="nine.denominator" unicode="&#xf65e;" 
d="M155 -5l-98 40c42 23 78 49 104 79c-70 -5 -142 37 -142 112c0 60 52 127 153 127c108 0 160 -69 160 -142c0 -88 -73 -172 -177 -216zM129 225c0 -33 22 -49 45 -49c34 0 48 27 48 49c0 28 -19 48 -46 48c-31 0 -47 -26 -47 -48z" />
    <glyph glyph-name="zero.numerator" unicode="&#xf661;" 
d="M12 507c0 118 73 179 164 179c92 0 165 -61 165 -179s-73 -179 -165 -179c-91 0 -164 61 -164 179zM134 507c0 -46 4 -99 42 -99c36 0 43 47 43 99c0 46 -6 100 -43 100s-42 -54 -42 -100z" />
    <glyph glyph-name="one.numerator" unicode="&#xf662;" 
d="M238 333h-122v344h122v-344z" />
    <glyph glyph-name="two.numerator" unicode="&#xf663;" 
d="M335 423v-90h-315v17c32 26 62 55 91 84c42 42 76 79 76 119c0 26 -19 44 -51 44c-48 0 -91 -38 -103 -49v98c33 18 75 40 135 40c96 0 137 -55 137 -110c0 -57 -36 -96 -89 -153h119z" />
    <glyph glyph-name="three.numerator" unicode="&#xf664;" 
d="M38 354v93c33 -25 61 -39 98 -39c26 0 52 11 52 32c0 33 -44 38 -81 38v68c33 0 74 0 74 32c0 14 -15 32 -47 32c-11 0 -41 -2 -85 -28v81c17 6 69 23 115 23c96 0 139 -54 139 -96c0 -27 -13 -52 -45 -75c36 -21 52 -49 52 -83c0 -67 -65 -104 -143 -104
c-48 0 -102 15 -129 26z" />
    <glyph glyph-name="four.numerator" unicode="&#xf665;" 
d="M290 333h-109v72h-171v74l188 202h92v-205h47v-71h-47v-72zM94 476h87v93z" />
    <glyph glyph-name="five.numerator" unicode="&#xf666;" 
d="M320 677v-85h-137l-6 -50c11 0 21 0 33 -1c73 -6 113 -51 113 -100c0 -63 -52 -113 -152 -113c-46 0 -90 9 -130 27v81c22 -10 64 -25 98 -25c39 0 58 14 58 36s-20 41 -75 41c-27 0 -44 -5 -57 -9l21 198h234z" />
    <glyph glyph-name="six.numerator" unicode="&#xf667;" 
d="M197 686l98 -40c-42 -23 -78 -49 -104 -79c70 5 142 -37 142 -112c0 -60 -52 -127 -153 -127c-108 0 -160 69 -160 142c0 88 73 172 177 216zM223 456c0 33 -22 49 -45 49c-34 0 -48 -27 -48 -49c0 -28 19 -48 46 -48c31 0 47 26 47 48z" />
    <glyph glyph-name="seven.numerator" unicode="&#xf668;" 
d="M163 330l-118 21l119 231h-140v95h317v-9z" />
    <glyph glyph-name="eight.numerator" unicode="&#xf669;" 
d="M78 511c-33 17 -55 38 -55 76c0 43 40 99 154 99c116 0 155 -55 155 -99c0 -38 -22 -59 -56 -76c42 -14 67 -45 67 -83c0 -34 -26 -100 -166 -100c-138 0 -166 64 -166 100c0 38 25 69 67 83zM177 541c20 0 36 15 36 38c0 17 -10 38 -36 38s-35 -19 -35 -38
c0 -23 16 -38 35 -38zM177 396c22 0 43 16 43 42c0 29 -20 43 -43 43c-22 0 -43 -14 -43 -43c0 -28 22 -42 43 -42z" />
    <glyph glyph-name="nine.numerator" unicode="&#xf66a;" 
d="M155 328l-98 40c42 23 78 49 104 79c-70 -5 -142 37 -142 112c0 60 52 127 153 127c108 0 160 -69 160 -142c0 -88 -73 -172 -177 -216zM129 558c0 -33 22 -49 45 -49c34 0 48 27 48 49c0 28 -19 48 -46 48c-31 0 -47 -26 -47 -48z" />
    <glyph glyph-name="abreve.sc" unicode="&#xf66d;" horiz-adv-x="631" 
d="M629 0h-200l-27 73h-196l-20 -73h-184l200 532h194zM363 181l-71 174l-55 -174h126zM131 774h87c6 -13 28 -69 98 -69c72 0 89 50 97 69h87c-11 -83 -83 -169 -185 -169c-94 0 -176 74 -184 169z" />
    <glyph glyph-name="amacron.sc" unicode="&#xf66e;" horiz-adv-x="631" 
d="M629 0h-200l-27 73h-196l-20 -73h-184l200 532h194zM363 181l-71 174l-55 -174h126zM504 616h-377v120h377v-120z" />
    <glyph glyph-name="aogonek.sc" unicode="&#xf66f;" horiz-adv-x="631" 
d="M629 0h-61c-7 -15 -11 -32 -11 -50c0 -22 24 -48 58 -48c24 0 29 2 43 7v-84c-27 -13 -53 -20 -87 -20c-59 0 -106 41 -106 115c0 27 5 53 20 80h-56l-27 73h-196l-20 -73h-184l200 532h194zM363 181l-71 174l-55 -174h126z" />
    <glyph glyph-name="aeacute.sc" unicode="&#xf670;" horiz-adv-x="845" 
d="M397 0v81h-168l-47 -81h-182l328 532h471v-122h-228v-85h216v-115h-216v-88h234v-122h-408zM291 203h106v176zM471 605l84 155h190l-180 -155h-94z" />
    <glyph glyph-name="cacute.sc" unicode="&#xf671;" horiz-adv-x="594" 
d="M544 497v-159c-29 24 -80 66 -184 66c-92 0 -145 -63 -145 -138c0 -89 68 -138 140 -138c71 0 133 33 195 66v-143c-49 -29 -107 -58 -206 -58c-207 0 -310 135 -310 272c0 149 111 274 330 274c98 0 153 -27 180 -42zM250 605l84 155h190l-180 -155h-94z" />
    <glyph glyph-name="ccaron.sc" unicode="&#xf672;" horiz-adv-x="594" 
d="M544 497v-159c-29 24 -80 66 -184 66c-92 0 -145 -63 -145 -138c0 -89 68 -138 140 -138c71 0 133 33 195 66v-143c-49 -29 -107 -58 -206 -58c-207 0 -310 135 -310 272c0 149 111 274 330 274c98 0 153 -27 180 -42zM144 774h105l89 -91l88 91h105l-89 -169h-209z" />
    <glyph glyph-name="ccircumflex.sc" unicode="&#xf673;" horiz-adv-x="594" 
d="M544 497v-159c-29 24 -80 66 -184 66c-92 0 -145 -63 -145 -138c0 -89 68 -138 140 -138c71 0 133 33 195 66v-143c-49 -29 -107 -58 -206 -58c-207 0 -310 135 -310 272c0 149 111 274 330 274c98 0 153 -27 180 -42zM536 605h-105l-88 90l-89 -90h-105l89 169h209z" />
    <glyph glyph-name="cdotaccent.sc" unicode="&#xf674;" horiz-adv-x="594" 
d="M544 497v-159c-29 24 -80 66 -184 66c-92 0 -145 -63 -145 -138c0 -89 68 -138 140 -138c71 0 133 33 195 66v-143c-49 -29 -107 -58 -206 -58c-207 0 -310 135 -310 272c0 149 111 274 330 274c98 0 153 -27 180 -42zM280 672c0 36 29 67 67 67s67 -31 67 -67
c0 -37 -29 -67 -67 -67s-67 31 -67 67z" />
    <glyph glyph-name="dcaron.sc" unicode="&#xf675;" horiz-adv-x="621" 
d="M58 0v532h226c258 0 303 -185 303 -267c0 -90 -48 -265 -304 -265h-225zM232 397v-262h56c79 0 118 62 118 130c0 88 -50 132 -118 132h-56zM77 774h105l89 -91l88 91h105l-89 -169h-209z" />
    <glyph glyph-name="dcroat.sc" unicode="&#xf676;" horiz-adv-x="621" 
d="M58 230h-53v73h53v229h226c258 0 303 -185 303 -267c0 -90 -48 -265 -304 -265h-225v230zM231 230v-95h57c91 0 118 75 118 130c0 59 -27 132 -118 132h-57v-94h85v-73h-85z" />
    <glyph glyph-name="ebreve.sc" unicode="&#xf677;" horiz-adv-x="513" 
d="M467 532v-122h-235v-80h224v-115h-224v-93h241v-122h-415v532h409zM72 774h87c6 -13 28 -69 98 -69c72 0 89 50 97 69h87c-11 -83 -83 -169 -185 -169c-94 0 -176 74 -184 169z" />
    <glyph glyph-name="ecaron.sc" unicode="&#xf678;" horiz-adv-x="513" 
d="M467 532v-122h-235v-80h224v-115h-224v-93h241v-122h-415v532h409zM63 774h105l89 -91l88 91h105l-89 -169h-209z" />
    <glyph glyph-name="edotaccent.sc" unicode="&#xf679;" horiz-adv-x="513" 
d="M467 532v-122h-235v-80h224v-115h-224v-93h241v-122h-415v532h409zM197 672c0 36 29 67 67 67s67 -31 67 -67c0 -37 -29 -67 -67 -67s-67 31 -67 67z" />
    <glyph glyph-name="emacron.sc" unicode="&#xf67a;" horiz-adv-x="513" 
d="M467 532v-122h-235v-80h224v-115h-224v-93h241v-122h-415v532h409zM450 616h-377v120h377v-120z" />
    <glyph glyph-name="eng.sc" unicode="&#xf67b;" horiz-adv-x="656" 
d="M326 -4l8 125c10 -2 25 -3 30 -3c61 0 69 54 69 115v46c0 85 -27 125 -78 125s-95 -36 -123 -90v-314h-173v532h174v-76c26 27 79 84 180 84c106 0 193 -59 193 -213v-112c0 -136 -37 -224 -223 -224c-14 0 -33 1 -57 5z" />
    <glyph glyph-name="eogonek.sc" unicode="&#xf67c;" horiz-adv-x="513" 
d="M467 532v-122h-235v-80h224v-115h-224v-93h241v-122h-80c-7 -15 -11 -32 -11 -50c0 -22 24 -48 58 -48c24 0 29 2 43 7v-84c-27 -13 -53 -20 -87 -20c-59 0 -106 41 -106 115c0 27 5 53 20 80h-252v532h409z" />
    <glyph glyph-name="gbreve.sc" unicode="&#xf67d;" horiz-adv-x="629" 
d="M566 502v-141c-48 18 -119 43 -202 43c-92 0 -149 -55 -149 -141c0 -91 57 -135 136 -135c20 0 32 1 54 7v60h-66v100h240v-231c-37 -30 -117 -71 -232 -71c-183 0 -313 110 -313 272c0 145 105 274 332 274c78 0 130 -15 200 -37zM175 774h87c6 -13 28 -69 98 -69
c72 0 89 50 97 69h87c-11 -83 -83 -169 -185 -169c-94 0 -176 74 -184 169z" />
    <glyph glyph-name="gcircumflex.sc" unicode="&#xf67e;" horiz-adv-x="629" 
d="M566 502v-141c-48 18 -119 43 -202 43c-92 0 -149 -55 -149 -141c0 -91 57 -135 136 -135c20 0 32 1 54 7v60h-66v100h240v-231c-37 -30 -117 -71 -232 -71c-183 0 -313 110 -313 272c0 145 105 274 332 274c78 0 130 -15 200 -37zM552 605h-105l-88 90l-89 -90h-105
l89 169h209z" />
    <glyph glyph-name="gcommaaccent.sc" unicode="&#xf67f;" horiz-adv-x="629" 
d="M566 502v-141c-48 18 -119 43 -202 43c-92 0 -149 -55 -149 -141c0 -91 57 -135 136 -135c20 0 32 1 54 7v60h-66v100h240v-231c-37 -30 -117 -71 -232 -71c-183 0 -313 110 -313 272c0 145 105 274 332 274c78 0 130 -15 200 -37zM213 -226v57c9 -1 15 -1 26 -1
c59 0 76 9 76 32c0 25 -42 27 -85 27l5 55h60c113 0 179 -18 179 -95c0 -59 -65 -90 -160 -90c-35 0 -68 6 -101 15z" />
    <glyph glyph-name="gdotaccent.sc" unicode="&#xf680;" horiz-adv-x="629" 
d="M566 502v-141c-48 18 -119 43 -202 43c-92 0 -149 -55 -149 -141c0 -91 57 -135 136 -135c20 0 32 1 54 7v60h-66v100h240v-231c-37 -30 -117 -71 -232 -71c-183 0 -313 110 -313 272c0 145 105 274 332 274c78 0 130 -15 200 -37zM291 672c0 36 29 67 67 67
s67 -31 67 -67c0 -37 -29 -67 -67 -67s-67 31 -67 67z" />
    <glyph glyph-name="hbar.sc" unicode="&#xf681;" horiz-adv-x="656" 
d="M11 401v73h47v58h174v-58h192v58h174v-58h47v-73h-47v-401h-174v195h-192v-195h-174v401h-47zM232 337h192v64h-192v-64z" />
    <glyph glyph-name="hcircumflex.sc" unicode="&#xf682;" horiz-adv-x="656" 
d="M58 532h174v-195h192v195h174v-532h-174v195h-192v-195h-174v532zM521 605h-105l-88 90l-89 -90h-105l89 169h209z" />
    <glyph glyph-name="ibreve.sc" unicode="&#xf683;" horiz-adv-x="290" 
d="M232 532v-532h-174v532h174zM-39 774h87c6 -13 28 -69 98 -69c72 0 89 50 97 69h87c-11 -83 -83 -169 -185 -169c-94 0 -176 74 -184 169z" />
    <glyph glyph-name="imacron.sc" unicode="&#xf685;" horiz-adv-x="290" 
d="M232 532v-532h-174v532h174zM334 616h-377v120h377v-120z" />
    <glyph glyph-name="iogonek.sc" unicode="&#xf686;" horiz-adv-x="290" 
d="M232 532v-532h-52c-7 -15 -11 -32 -11 -50c0 -22 24 -48 58 -48c24 0 29 2 43 7v-84c-27 -13 -53 -20 -87 -20c-59 0 -106 41 -106 115c0 27 5 53 20 80h-39v532h174z" />
    <glyph glyph-name="itilde.sc" unicode="&#xf687;" horiz-adv-x="290" 
d="M232 532v-532h-174v532h174zM260 761h79c0 -101 -46 -156 -115 -156c-50 0 -122 42 -154 42c-29 0 -38 -24 -40 -42h-78c0 113 67 156 114 156c24 0 55 -11 85 -21c29 -11 57 -22 71 -22c27 0 38 25 38 43z" />
    <glyph glyph-name="jcircumflex.sc" unicode="&#xf688;" horiz-adv-x="304" 
d="M72 93v439h174v-452c0 -135 -29 -257 -201 -257c-28 0 -46 3 -70 7l-19 137h30c88 0 86 28 86 126zM353 605h-105l-88 90l-89 -90h-105l89 169h209z" />
    <glyph glyph-name="kcommaaccent.sc" unicode="&#xf689;" horiz-adv-x="621" 
d="M200 -226v57c9 -1 15 -1 26 -1c59 0 76 9 76 32c0 25 -42 27 -85 27l5 55h60c113 0 179 -18 179 -95c0 -59 -65 -90 -160 -90c-35 0 -68 6 -101 15zM58 532h174v-194l148 194h187l-179 -241l233 -291h-218l-171 213v-213h-174v532z" />
    <glyph glyph-name="lacute.sc" unicode="&#xf68a;" horiz-adv-x="504" 
d="M58 532h174v-390h254v-142h-428v532zM115 605l84 155h190l-180 -155h-94z" />
    <glyph glyph-name="lcaron.sc" unicode="&#xf68b;" horiz-adv-x="504" 
d="M309 245v25c54 20 64 71 62 113c-43 12 -62 39 -62 77c0 43 35 82 84 82c71 0 101 -67 101 -124c0 -67 -49 -154 -185 -173zM58 532h174v-390h254v-142h-428v532z" />
    <glyph glyph-name="lcommaaccent.sc" unicode="&#xf68c;" horiz-adv-x="504" 
d="M146 -226v57c9 -1 15 -1 26 -1c59 0 76 9 76 32c0 25 -42 27 -85 27l5 55h60c113 0 179 -18 179 -95c0 -59 -65 -90 -160 -90c-35 0 -68 6 -101 15zM58 532h174v-390h254v-142h-428v532z" />
    <glyph glyph-name="ldot.sc" unicode="&#xf68d;" horiz-adv-x="504" 
d="M58 532h174v-390h254v-142h-428v532zM377 416c45 0 83 -35 83 -82c0 -44 -38 -81 -83 -81s-82 37 -82 81c0 47 38 82 82 82z" />
    <glyph glyph-name="nacute.sc" unicode="&#xf68e;" horiz-adv-x="651" 
d="M58 532h154l207 -244v244h174v-532h-143l-218 261v-261h-174v532zM228 605l84 155h190l-180 -155h-94z" />
    <glyph glyph-name="ncaron.sc" unicode="&#xf68f;" horiz-adv-x="651" 
d="M58 532h154l207 -244v244h174v-532h-143l-218 261v-261h-174v532zM132 774h105l89 -91l88 91h105l-89 -169h-209z" />
    <glyph glyph-name="ncommaaccent.sc" unicode="&#xf690;" horiz-adv-x="651" 
d="M212 -226v57c9 -1 15 -1 26 -1c59 0 76 9 76 32c0 25 -42 27 -85 27l5 55h60c113 0 179 -18 179 -95c0 -59 -65 -90 -160 -90c-35 0 -68 6 -101 15zM58 532h154l207 -244v244h174v-532h-143l-218 261v-261h-174v532z" />
    <glyph glyph-name="obreve.sc" unicode="&#xf691;" horiz-adv-x="667" 
d="M34 265c0 139 122 274 298 274c150 0 301 -107 301 -272c0 -149 -126 -274 -300 -274c-162 0 -299 112 -299 272zM333 384c-65 0 -118 -53 -118 -118s53 -118 118 -118s119 53 119 118s-54 118 -119 118zM149 774h87c6 -13 28 -69 98 -69c72 0 89 50 97 69h87
c-11 -83 -83 -169 -185 -169c-94 0 -176 74 -184 169z" />
    <glyph glyph-name="ohungarumlaut.sc" unicode="&#xf692;" horiz-adv-x="667" 
d="M34 265c0 139 122 274 298 274c150 0 301 -107 301 -272c0 -149 -126 -274 -300 -274c-162 0 -299 112 -299 272zM333 384c-65 0 -118 -53 -118 -118s53 -118 118 -118s119 53 119 118s-54 118 -119 118zM374 605l84 155h190l-180 -155h-94zM139 605l83 155h190
l-180 -155h-93z" />
    <glyph glyph-name="omacron.sc" unicode="&#xf693;" horiz-adv-x="667" 
d="M34 265c0 139 122 274 298 274c150 0 301 -107 301 -272c0 -149 -126 -274 -300 -274c-162 0 -299 112 -299 272zM333 384c-65 0 -118 -53 -118 -118s53 -118 118 -118s119 53 119 118s-54 118 -119 118zM522 616h-377v120h377v-120z" />
    <glyph glyph-name="oslashacute.sc" unicode="&#xf694;" horiz-adv-x="667" 
d="M229 210l160 160c-9 5 -26 14 -56 14c-99 0 -141 -109 -104 -174zM104 86c-30 34 -70 93 -70 179c0 121 102 274 298 274c88 0 140 -27 176 -51l57 57l45 -45l-52 -52c49 -43 75 -99 75 -181c0 -154 -127 -274 -300 -274c-78 0 -130 21 -181 53l-60 -60l-44 44zM271 166
c14 -10 40 -18 65 -18c68 0 154 82 98 180zM248 605l84 155h190l-180 -155h-94z" />
    <glyph glyph-name="racute.sc" unicode="&#xf695;" horiz-adv-x="585" 
d="M58 0v532h253c190 0 229 -84 229 -166c0 -45 -20 -104 -70 -137c22 -16 36 -41 64 -112c18 -46 23 -60 47 -117h-187c-13 47 -39 129 -51 151c-15 28 -29 35 -53 35h-58v-186h-174zM232 412v-121h52c47 0 75 24 75 61s-28 60 -74 60h-53zM175 605l84 155h190l-180 -155
h-94z" />
    <glyph glyph-name="rcaron.sc" unicode="&#xf696;" horiz-adv-x="585" 
d="M58 0v532h253c190 0 229 -84 229 -166c0 -45 -20 -104 -70 -137c22 -16 36 -41 64 -112c18 -46 23 -60 47 -117h-187c-13 47 -39 129 -51 151c-15 28 -29 35 -53 35h-58v-186h-174zM232 412v-121h52c47 0 75 24 75 61s-28 60 -74 60h-53zM99 774h105l89 -91l88 91h105
l-89 -169h-209z" />
    <glyph glyph-name="rcommaaccent.sc" unicode="&#xf697;" horiz-adv-x="585" 
d="M58 0v532h253c190 0 229 -84 229 -166c0 -45 -20 -104 -70 -137c22 -16 36 -41 64 -112c18 -46 23 -60 47 -117h-187c-13 47 -39 129 -51 151c-15 28 -29 35 -53 35h-58v-186h-174zM232 412v-121h52c47 0 75 24 75 61s-28 60 -74 60h-53zM173 -226v57c9 -1 15 -1 26 -1
c59 0 76 9 76 32c0 25 -42 27 -85 27l5 55h60c113 0 179 -18 179 -95c0 -59 -65 -90 -160 -90c-35 0 -68 6 -101 15z" />
    <glyph glyph-name="sacute.sc" unicode="&#xf698;" horiz-adv-x="490" 
d="M439 499v-136c-38 19 -100 56 -183 56c-40 0 -52 -22 -52 -40c0 -26 32 -33 121 -68c118 -46 136 -106 136 -155c0 -96 -89 -163 -212 -163c-72 0 -142 15 -207 44v149c111 -62 161 -69 210 -69c22 0 35 11 35 27c0 19 1 33 -114 75c-124 45 -141 114 -141 161
c0 70 56 159 213 159c86 0 140 -19 194 -40zM148 605l84 155h190l-180 -155h-94z" />
    <glyph glyph-name="scedilla.sc" unicode="&#xf699;" horiz-adv-x="490" 
d="M439 499v-136c-38 19 -100 56 -183 56c-40 0 -52 -22 -52 -40c0 -26 32 -33 121 -68c118 -46 136 -106 136 -155c0 -85 -69 -147 -169 -160l-12 -25c53 -13 83 -43 83 -84c0 -51 -44 -97 -161 -97h-96v67c49 0 97 5 97 39c0 20 -13 29 -47 31l50 68
c-57 5 -112 19 -164 42v149c111 -62 161 -69 210 -69c22 0 35 11 35 27c0 19 1 33 -114 75c-124 45 -141 114 -141 161c0 70 56 159 213 159c86 0 140 -19 194 -40z" />
    <glyph glyph-name="scircumflex.sc" unicode="&#xf69a;" horiz-adv-x="490" 
d="M439 499v-136c-38 19 -100 56 -183 56c-40 0 -52 -22 -52 -40c0 -26 32 -33 121 -68c118 -46 136 -106 136 -155c0 -96 -89 -163 -212 -163c-72 0 -142 15 -207 44v149c111 -62 161 -69 210 -69c22 0 35 11 35 27c0 19 1 33 -114 75c-124 45 -141 114 -141 161
c0 70 56 159 213 159c86 0 140 -19 194 -40zM430 605h-105l-88 90l-89 -90h-105l89 169h209z" />
    <glyph glyph-name="scommaaccent.sc" unicode="&#xf69b;" horiz-adv-x="490" 
d="M439 499v-136c-38 19 -100 56 -183 56c-40 0 -52 -22 -52 -40c0 -26 32 -33 121 -68c118 -46 136 -106 136 -155c0 -96 -89 -163 -212 -163c-72 0 -142 15 -207 44v149c111 -62 161 -69 210 -69c22 0 35 11 35 27c0 19 1 33 -114 75c-124 45 -141 114 -141 161
c0 70 56 159 213 159c86 0 140 -19 194 -40zM123 -226v57c9 -1 15 -1 26 -1c59 0 76 9 76 32c0 25 -42 27 -85 27l5 55h60c113 0 179 -18 179 -95c0 -59 -65 -90 -160 -90c-35 0 -68 6 -101 15z" />
    <glyph glyph-name="tbar.sc" unicode="&#xf69c;" horiz-adv-x="572" 
d="M548 532v-148h-175v-115h158v-83h-158v-186h-174v186h-158v83h158v115h-175v148h524z" />
    <glyph glyph-name="tcaron.sc" unicode="&#xf69d;" horiz-adv-x="572" 
d="M548 532v-148h-175v-384h-174v384h-175v148h524zM92 732h105l89 -91l88 91h105l-89 -169h-209z" />
    <glyph glyph-name="tcommaaccent.sc" unicode="&#xf69e;" horiz-adv-x="572" 
d="M170 -226v57c9 -1 15 -1 26 -1c59 0 76 9 76 32c0 25 -42 27 -85 27l5 55h60c113 0 179 -18 179 -95c0 -59 -65 -90 -160 -90c-35 0 -68 6 -101 15zM548 532v-148h-175v-384h-174v384h-175v148h524z" />
    <glyph glyph-name="ubreve.sc" unicode="&#xf69f;" horiz-adv-x="646" 
d="M52 532h175v-267c0 -71 36 -117 100 -117c60 0 92 36 92 112v272h175v-293c0 -182 -112 -246 -274 -246c-158 0 -268 73 -268 241v298zM138 774h87c6 -13 28 -69 98 -69c72 0 89 50 97 69h87c-11 -83 -83 -169 -185 -169c-94 0 -176 74 -184 169z" />
    <glyph glyph-name="uhungarumlaut.sc" unicode="&#xf6a0;" horiz-adv-x="646" 
d="M52 532h175v-267c0 -71 36 -117 100 -117c60 0 92 36 92 112v272h175v-293c0 -182 -112 -246 -274 -246c-158 0 -268 73 -268 241v298zM363 605l84 155h190l-180 -155h-94zM128 605l83 155h190l-180 -155h-93z" />
    <glyph glyph-name="umacron.sc" unicode="&#xf6a1;" horiz-adv-x="646" 
d="M52 532h175v-267c0 -71 36 -117 100 -117c60 0 92 36 92 112v272h175v-293c0 -182 -112 -246 -274 -246c-158 0 -268 73 -268 241v298zM511 616h-377v120h377v-120z" />
    <glyph glyph-name="uogonek.sc" unicode="&#xf6a2;" horiz-adv-x="646" 
d="M52 532h175v-267c0 -71 36 -117 100 -117c60 0 92 36 92 112v272h175v-293c0 -168 -96 -236 -238 -245c-5 -13 -8 -28 -8 -44c0 -22 24 -48 58 -48c24 0 29 2 43 7v-84c-27 -13 -53 -20 -87 -20c-59 0 -106 41 -106 115c0 25 5 50 18 75c-133 13 -222 88 -222 239v298z
" />
    <glyph glyph-name="uring.sc" unicode="&#xf6a3;" horiz-adv-x="646" 
d="M52 532h175v-267c0 -71 36 -117 100 -117c60 0 92 36 92 112v272h175v-293c0 -182 -112 -246 -274 -246c-158 0 -268 73 -268 241v298zM322 805c56 0 101 -44 101 -100s-45 -101 -101 -101s-100 45 -100 101s44 100 100 100zM322 757c-29 0 -52 -23 -52 -52
s23 -53 52 -53s53 24 53 53s-24 52 -53 52z" />
    <glyph glyph-name="utilde.sc" unicode="&#xf6a4;" horiz-adv-x="646" 
d="M52 532h175v-267c0 -71 36 -117 100 -117c60 0 92 36 92 112v272h175v-293c0 -182 -112 -246 -274 -246c-158 0 -268 73 -268 241v298zM437 761h79c0 -101 -46 -156 -115 -156c-50 0 -122 42 -154 42c-29 0 -38 -24 -40 -42h-78c0 113 67 156 114 156c24 0 55 -11 85 -21
c29 -11 57 -22 71 -22c27 0 38 25 38 43z" />
    <glyph glyph-name="wacute.sc" unicode="&#xf6a5;" horiz-adv-x="931" 
d="M515 532l118 -266l118 266h180l-256 -539h-73l-137 312l-136 -312h-74l-255 539h179l118 -266l118 266h100zM400 605l84 155h190l-180 -155h-94z" />
    <glyph glyph-name="wcircumflex.sc" unicode="&#xf6a6;" horiz-adv-x="931" 
d="M515 532l118 -266l118 266h180l-256 -539h-73l-137 312l-136 -312h-74l-255 539h179l118 -266l118 266h100zM659 605h-105l-88 90l-89 -90h-105l89 169h209z" />
    <glyph glyph-name="wdieresis.sc" unicode="&#xf6a7;" horiz-adv-x="931" 
d="M515 532l118 -266l118 266h180l-256 -539h-73l-137 312l-136 -312h-74l-255 539h179l118 -266l118 266h100zM274 672c0 36 29 67 67 67s67 -31 67 -67c0 -37 -29 -67 -67 -67s-67 31 -67 67zM523 672c0 36 28 67 67 67c38 0 67 -31 67 -67c0 -37 -29 -67 -67 -67
c-39 0 -67 31 -67 67z" />
    <glyph glyph-name="wgrave.sc" unicode="&#xf6a8;" horiz-adv-x="931" 
d="M515 532l118 -266l118 266h180l-256 -539h-73l-137 312l-136 -312h-74l-255 539h179l118 -266l118 266h100zM543 605h-94l-180 155h190z" />
    <glyph glyph-name="ycircumflex.sc" unicode="&#xf6a9;" horiz-adv-x="589" 
d="M0 532h188l106 -192l107 192h188l-207 -323v-209h-174v209zM488 605h-105l-88 90l-89 -90h-105l89 169h209z" />
    <glyph glyph-name="ygrave.sc" unicode="&#xf6aa;" horiz-adv-x="589" 
d="M0 532h188l106 -192l107 192h188l-207 -323v-209h-174v209zM382 605h-94l-180 155h190z" />
    <glyph glyph-name="zacute.sc" unicode="&#xf6ab;" horiz-adv-x="559" 
d="M541 0h-527l252 388h-235v144h502l-248 -388h256v-144zM182 605l84 155h190l-180 -155h-94z" />
    <glyph glyph-name="zdotaccent.sc" unicode="&#xf6ac;" horiz-adv-x="559" 
d="M541 0h-527l252 388h-235v144h502l-248 -388h256v-144zM212 672c0 36 29 67 67 67s67 -31 67 -67c0 -37 -29 -67 -67 -67s-67 31 -67 67z" />
    <glyph glyph-name="idotaccent.sc" unicode="&#xf6ad;" horiz-adv-x="290" 
d="M232 532v-532h-174v532h174zM78 672c0 36 29 67 67 67s67 -31 67 -67c0 -37 -29 -67 -67 -67s-67 31 -67 67z" />
    <glyph glyph-name="one.alt" unicode="&#xe000;" horiz-adv-x="594" 
d="M273 686h134v-686h-185v441c-38 -26 -66 -36 -98 -44v139c63 33 106 66 149 150z" />
    <glyph glyph-name="ij.sc" unicode="&#xf684;" horiz-adv-x="594" 
d="M232 532v-532h-174v532h174zM362 93v439h174v-452c0 -135 -29 -257 -201 -257c-28 0 -46 3 -70 7l-19 137h30c88 0 86 28 86 126z" />
    <glyph glyph-name="uni018f" unicode="&#x18f;" horiz-adv-x="851" 
d="M387 529c-109 0 -189 -29 -229 -54v151c89 46 178 60 267 60c258 0 384 -164 384 -347c0 -186 -128 -348 -384 -348c-265 0 -384 173 -384 348c0 30 4 60 11 89h521c-37 58 -109 101 -186 101zM425 165c82 0 138 39 162 99h-325c24 -61 82 -99 163 -99z" />
    <glyph glyph-name="uni0259" unicode="&#x259;" horiz-adv-x="596" 
d="M35 256v35h360c-13 62 -74 103 -141 103c-57 0 -94 -18 -146 -50v109c25 18 82 53 183 53c190 0 275 -116 275 -260s-95 -255 -285 -255c-111 0 -246 65 -246 265zM400 204h-200c0 -63 38 -105 97 -105c57 0 103 42 103 105z" />
    </font>
</defs>
</svg>
